G04 #@! TF.FileFunction,Legend,Top*
%FSLAX46Y46*%
G04 Gerber Fmt 4.6, Leading zero omitted, Abs format (unit mm)*
G04 Created by KiCad (PCBNEW 4.0.7) date 02/08/19 08:33:41*
%MOMM*%
%LPD*%
G01*
G04 APERTURE LIST*
%ADD10C,0.100000*%
%ADD11C,0.300000*%
%ADD12C,0.150000*%
%ADD13C,0.120000*%
G04 APERTURE END LIST*
D10*
D11*
X135760001Y-153078571D02*
X135045715Y-153078571D01*
X135045715Y-151578571D01*
X136260001Y-152292857D02*
X136760001Y-152292857D01*
X136974287Y-153078571D02*
X136260001Y-153078571D01*
X136260001Y-151578571D01*
X136974287Y-151578571D01*
X137617144Y-153078571D02*
X137617144Y-151578571D01*
X137974287Y-151578571D01*
X138188572Y-151650000D01*
X138331430Y-151792857D01*
X138402858Y-151935714D01*
X138474287Y-152221429D01*
X138474287Y-152435714D01*
X138402858Y-152721429D01*
X138331430Y-152864286D01*
X138188572Y-153007143D01*
X137974287Y-153078571D01*
X137617144Y-153078571D01*
X138760001Y-153221429D02*
X139902858Y-153221429D01*
X140260001Y-153078571D02*
X140260001Y-151578571D01*
X140831429Y-151578571D01*
X140974287Y-151650000D01*
X141045715Y-151721429D01*
X141117144Y-151864286D01*
X141117144Y-152078571D01*
X141045715Y-152221429D01*
X140974287Y-152292857D01*
X140831429Y-152364286D01*
X140260001Y-152364286D01*
X142617144Y-152935714D02*
X142545715Y-153007143D01*
X142331429Y-153078571D01*
X142188572Y-153078571D01*
X141974287Y-153007143D01*
X141831429Y-152864286D01*
X141760001Y-152721429D01*
X141688572Y-152435714D01*
X141688572Y-152221429D01*
X141760001Y-151935714D01*
X141831429Y-151792857D01*
X141974287Y-151650000D01*
X142188572Y-151578571D01*
X142331429Y-151578571D01*
X142545715Y-151650000D01*
X142617144Y-151721429D01*
X143760001Y-152292857D02*
X143974287Y-152364286D01*
X144045715Y-152435714D01*
X144117144Y-152578571D01*
X144117144Y-152792857D01*
X144045715Y-152935714D01*
X143974287Y-153007143D01*
X143831429Y-153078571D01*
X143260001Y-153078571D01*
X143260001Y-151578571D01*
X143760001Y-151578571D01*
X143902858Y-151650000D01*
X143974287Y-151721429D01*
X144045715Y-151864286D01*
X144045715Y-152007143D01*
X143974287Y-152150000D01*
X143902858Y-152221429D01*
X143760001Y-152292857D01*
X143260001Y-152292857D01*
X146760001Y-153078571D02*
X146260001Y-152364286D01*
X145902858Y-153078571D02*
X145902858Y-151578571D01*
X146474286Y-151578571D01*
X146617144Y-151650000D01*
X146688572Y-151721429D01*
X146760001Y-151864286D01*
X146760001Y-152078571D01*
X146688572Y-152221429D01*
X146617144Y-152292857D01*
X146474286Y-152364286D01*
X145902858Y-152364286D01*
X147974286Y-153007143D02*
X147831429Y-153078571D01*
X147545715Y-153078571D01*
X147402858Y-153007143D01*
X147331429Y-152864286D01*
X147331429Y-152292857D01*
X147402858Y-152150000D01*
X147545715Y-152078571D01*
X147831429Y-152078571D01*
X147974286Y-152150000D01*
X148045715Y-152292857D01*
X148045715Y-152435714D01*
X147331429Y-152578571D01*
X148545715Y-152078571D02*
X148902858Y-153078571D01*
X149260000Y-152078571D01*
X150117143Y-151578571D02*
X150260000Y-151578571D01*
X150402857Y-151650000D01*
X150474286Y-151721429D01*
X150545715Y-151864286D01*
X150617143Y-152150000D01*
X150617143Y-152507143D01*
X150545715Y-152792857D01*
X150474286Y-152935714D01*
X150402857Y-153007143D01*
X150260000Y-153078571D01*
X150117143Y-153078571D01*
X149974286Y-153007143D01*
X149902857Y-152935714D01*
X149831429Y-152792857D01*
X149760000Y-152507143D01*
X149760000Y-152150000D01*
X149831429Y-151864286D01*
X149902857Y-151721429D01*
X149974286Y-151650000D01*
X150117143Y-151578571D01*
X152045714Y-153078571D02*
X151188571Y-153078571D01*
X151617143Y-153078571D02*
X151617143Y-151578571D01*
X151474286Y-151792857D01*
X151331428Y-151935714D01*
X151188571Y-152007143D01*
D12*
X171394381Y-157773619D02*
X170918190Y-158106953D01*
X171394381Y-158345048D02*
X170394381Y-158345048D01*
X170394381Y-157964095D01*
X170442000Y-157868857D01*
X170489619Y-157821238D01*
X170584857Y-157773619D01*
X170727714Y-157773619D01*
X170822952Y-157821238D01*
X170870571Y-157868857D01*
X170918190Y-157964095D01*
X170918190Y-158345048D01*
X171346762Y-157392667D02*
X171394381Y-157249810D01*
X171394381Y-157011714D01*
X171346762Y-156916476D01*
X171299143Y-156868857D01*
X171203905Y-156821238D01*
X171108667Y-156821238D01*
X171013429Y-156868857D01*
X170965810Y-156916476D01*
X170918190Y-157011714D01*
X170870571Y-157202191D01*
X170822952Y-157297429D01*
X170775333Y-157345048D01*
X170680095Y-157392667D01*
X170584857Y-157392667D01*
X170489619Y-157345048D01*
X170442000Y-157297429D01*
X170394381Y-157202191D01*
X170394381Y-156964095D01*
X170442000Y-156821238D01*
X170394381Y-156535524D02*
X170394381Y-155964095D01*
X171394381Y-156249810D02*
X170394381Y-156249810D01*
X168870381Y-158892666D02*
X168870381Y-159083143D01*
X168918000Y-159178381D01*
X168965619Y-159226000D01*
X169108476Y-159321238D01*
X169298952Y-159368857D01*
X169679905Y-159368857D01*
X169775143Y-159321238D01*
X169822762Y-159273619D01*
X169870381Y-159178381D01*
X169870381Y-158987904D01*
X169822762Y-158892666D01*
X169775143Y-158845047D01*
X169679905Y-158797428D01*
X169441810Y-158797428D01*
X169346571Y-158845047D01*
X169298952Y-158892666D01*
X169251333Y-158987904D01*
X169251333Y-159178381D01*
X169298952Y-159273619D01*
X169346571Y-159321238D01*
X169441810Y-159368857D01*
X169870381Y-157606952D02*
X168870381Y-157606952D01*
X168870381Y-157225999D01*
X168918000Y-157130761D01*
X168965619Y-157083142D01*
X169060857Y-157035523D01*
X169203714Y-157035523D01*
X169298952Y-157083142D01*
X169346571Y-157130761D01*
X169394190Y-157225999D01*
X169394190Y-157606952D01*
X169346571Y-156273618D02*
X169394190Y-156130761D01*
X169441810Y-156083142D01*
X169537048Y-156035523D01*
X169679905Y-156035523D01*
X169775143Y-156083142D01*
X169822762Y-156130761D01*
X169870381Y-156225999D01*
X169870381Y-156606952D01*
X168870381Y-156606952D01*
X168870381Y-156273618D01*
X168918000Y-156178380D01*
X168965619Y-156130761D01*
X169060857Y-156083142D01*
X169156095Y-156083142D01*
X169251333Y-156130761D01*
X169298952Y-156178380D01*
X169346571Y-156273618D01*
X169346571Y-156606952D01*
X168870381Y-155130761D02*
X168870381Y-155606952D01*
X169346571Y-155654571D01*
X169298952Y-155606952D01*
X169251333Y-155511714D01*
X169251333Y-155273618D01*
X169298952Y-155178380D01*
X169346571Y-155130761D01*
X169441810Y-155083142D01*
X169679905Y-155083142D01*
X169775143Y-155130761D01*
X169822762Y-155178380D01*
X169870381Y-155273618D01*
X169870381Y-155511714D01*
X169822762Y-155606952D01*
X169775143Y-155654571D01*
X165806381Y-155963809D02*
X164806381Y-155963809D01*
X164806381Y-155725714D01*
X164854000Y-155582856D01*
X164949238Y-155487618D01*
X165044476Y-155439999D01*
X165234952Y-155392380D01*
X165377810Y-155392380D01*
X165568286Y-155439999D01*
X165663524Y-155487618D01*
X165758762Y-155582856D01*
X165806381Y-155725714D01*
X165806381Y-155963809D01*
X165806381Y-154963809D02*
X164806381Y-154963809D01*
X165806381Y-154487619D02*
X164806381Y-154487619D01*
X165806381Y-153916190D01*
X164806381Y-153916190D01*
X163282381Y-156559047D02*
X163282381Y-157035238D01*
X163758571Y-157082857D01*
X163710952Y-157035238D01*
X163663333Y-156940000D01*
X163663333Y-156701904D01*
X163710952Y-156606666D01*
X163758571Y-156559047D01*
X163853810Y-156511428D01*
X164091905Y-156511428D01*
X164187143Y-156559047D01*
X164234762Y-156606666D01*
X164282381Y-156701904D01*
X164282381Y-156940000D01*
X164234762Y-157035238D01*
X164187143Y-157082857D01*
X164282381Y-155320952D02*
X163282381Y-155320952D01*
X163282381Y-154939999D01*
X163330000Y-154844761D01*
X163377619Y-154797142D01*
X163472857Y-154749523D01*
X163615714Y-154749523D01*
X163710952Y-154797142D01*
X163758571Y-154844761D01*
X163806190Y-154939999D01*
X163806190Y-155320952D01*
X163758571Y-153987618D02*
X163806190Y-153844761D01*
X163853810Y-153797142D01*
X163949048Y-153749523D01*
X164091905Y-153749523D01*
X164187143Y-153797142D01*
X164234762Y-153844761D01*
X164282381Y-153939999D01*
X164282381Y-154320952D01*
X163282381Y-154320952D01*
X163282381Y-153987618D01*
X163330000Y-153892380D01*
X163377619Y-153844761D01*
X163472857Y-153797142D01*
X163568095Y-153797142D01*
X163663333Y-153844761D01*
X163710952Y-153892380D01*
X163758571Y-153987618D01*
X163758571Y-154320952D01*
X163282381Y-153130476D02*
X163282381Y-153035237D01*
X163330000Y-152939999D01*
X163377619Y-152892380D01*
X163472857Y-152844761D01*
X163663333Y-152797142D01*
X163901429Y-152797142D01*
X164091905Y-152844761D01*
X164187143Y-152892380D01*
X164234762Y-152939999D01*
X164282381Y-153035237D01*
X164282381Y-153130476D01*
X164234762Y-153225714D01*
X164187143Y-153273333D01*
X164091905Y-153320952D01*
X163901429Y-153368571D01*
X163663333Y-153368571D01*
X163472857Y-153320952D01*
X163377619Y-153273333D01*
X163330000Y-153225714D01*
X163282381Y-153130476D01*
X163774381Y-151804476D02*
X162774381Y-151804476D01*
X162774381Y-151566381D01*
X162822000Y-151423523D01*
X162917238Y-151328285D01*
X163012476Y-151280666D01*
X163202952Y-151233047D01*
X163345810Y-151233047D01*
X163536286Y-151280666D01*
X163631524Y-151328285D01*
X163726762Y-151423523D01*
X163774381Y-151566381D01*
X163774381Y-151804476D01*
X162774381Y-150614000D02*
X162774381Y-150423523D01*
X162822000Y-150328285D01*
X162917238Y-150233047D01*
X163107714Y-150185428D01*
X163441048Y-150185428D01*
X163631524Y-150233047D01*
X163726762Y-150328285D01*
X163774381Y-150423523D01*
X163774381Y-150614000D01*
X163726762Y-150709238D01*
X163631524Y-150804476D01*
X163441048Y-150852095D01*
X163107714Y-150852095D01*
X162917238Y-150804476D01*
X162822000Y-150709238D01*
X162774381Y-150614000D01*
X162774381Y-149756857D02*
X163583905Y-149756857D01*
X163679143Y-149709238D01*
X163726762Y-149661619D01*
X163774381Y-149566381D01*
X163774381Y-149375904D01*
X163726762Y-149280666D01*
X163679143Y-149233047D01*
X163583905Y-149185428D01*
X162774381Y-149185428D01*
X162774381Y-148852095D02*
X162774381Y-148280666D01*
X163774381Y-148566381D02*
X162774381Y-148566381D01*
X160726381Y-155971619D02*
X160250190Y-156304953D01*
X160726381Y-156543048D02*
X159726381Y-156543048D01*
X159726381Y-156162095D01*
X159774000Y-156066857D01*
X159821619Y-156019238D01*
X159916857Y-155971619D01*
X160059714Y-155971619D01*
X160154952Y-156019238D01*
X160202571Y-156066857D01*
X160250190Y-156162095D01*
X160250190Y-156543048D01*
X159774000Y-155019238D02*
X159726381Y-155114476D01*
X159726381Y-155257333D01*
X159774000Y-155400191D01*
X159869238Y-155495429D01*
X159964476Y-155543048D01*
X160154952Y-155590667D01*
X160297810Y-155590667D01*
X160488286Y-155543048D01*
X160583524Y-155495429D01*
X160678762Y-155400191D01*
X160726381Y-155257333D01*
X160726381Y-155162095D01*
X160678762Y-155019238D01*
X160631143Y-154971619D01*
X160297810Y-154971619D01*
X160297810Y-155162095D01*
X160202571Y-154209714D02*
X160250190Y-154066857D01*
X160297810Y-154019238D01*
X160393048Y-153971619D01*
X160535905Y-153971619D01*
X160631143Y-154019238D01*
X160678762Y-154066857D01*
X160726381Y-154162095D01*
X160726381Y-154543048D01*
X159726381Y-154543048D01*
X159726381Y-154209714D01*
X159774000Y-154114476D01*
X159821619Y-154066857D01*
X159916857Y-154019238D01*
X160012095Y-154019238D01*
X160107333Y-154066857D01*
X160154952Y-154114476D01*
X160202571Y-154209714D01*
X160202571Y-154543048D01*
X160821619Y-153781143D02*
X160821619Y-153019238D01*
X160202571Y-152781143D02*
X160202571Y-152447809D01*
X160726381Y-152304952D02*
X160726381Y-152781143D01*
X159726381Y-152781143D01*
X159726381Y-152304952D01*
X160726381Y-151876381D02*
X159726381Y-151876381D01*
X160726381Y-151304952D01*
X159726381Y-151304952D01*
X161583714Y-153050666D02*
X162250381Y-153050666D01*
X161202762Y-153288762D02*
X161917048Y-153526857D01*
X161917048Y-152907809D01*
X162250381Y-151764952D02*
X161250381Y-151764952D01*
X161250381Y-151383999D01*
X161298000Y-151288761D01*
X161345619Y-151241142D01*
X161440857Y-151193523D01*
X161583714Y-151193523D01*
X161678952Y-151241142D01*
X161726571Y-151288761D01*
X161774190Y-151383999D01*
X161774190Y-151764952D01*
X161726571Y-150431618D02*
X161774190Y-150288761D01*
X161821810Y-150241142D01*
X161917048Y-150193523D01*
X162059905Y-150193523D01*
X162155143Y-150241142D01*
X162202762Y-150288761D01*
X162250381Y-150383999D01*
X162250381Y-150764952D01*
X161250381Y-150764952D01*
X161250381Y-150431618D01*
X161298000Y-150336380D01*
X161345619Y-150288761D01*
X161440857Y-150241142D01*
X161536095Y-150241142D01*
X161631333Y-150288761D01*
X161678952Y-150336380D01*
X161726571Y-150431618D01*
X161726571Y-150764952D01*
X162250381Y-149241142D02*
X162250381Y-149812571D01*
X162250381Y-149526857D02*
X161250381Y-149526857D01*
X161393238Y-149622095D01*
X161488476Y-149717333D01*
X161536095Y-149812571D01*
X158202381Y-156114476D02*
X158202381Y-155495428D01*
X158583333Y-155828762D01*
X158583333Y-155685904D01*
X158630952Y-155590666D01*
X158678571Y-155543047D01*
X158773810Y-155495428D01*
X159011905Y-155495428D01*
X159107143Y-155543047D01*
X159154762Y-155590666D01*
X159202381Y-155685904D01*
X159202381Y-155971619D01*
X159154762Y-156066857D01*
X159107143Y-156114476D01*
X159202381Y-154304952D02*
X158202381Y-154304952D01*
X158202381Y-153923999D01*
X158250000Y-153828761D01*
X158297619Y-153781142D01*
X158392857Y-153733523D01*
X158535714Y-153733523D01*
X158630952Y-153781142D01*
X158678571Y-153828761D01*
X158726190Y-153923999D01*
X158726190Y-154304952D01*
X158678571Y-152971618D02*
X158726190Y-152828761D01*
X158773810Y-152781142D01*
X158869048Y-152733523D01*
X159011905Y-152733523D01*
X159107143Y-152781142D01*
X159154762Y-152828761D01*
X159202381Y-152923999D01*
X159202381Y-153304952D01*
X158202381Y-153304952D01*
X158202381Y-152971618D01*
X158250000Y-152876380D01*
X158297619Y-152828761D01*
X158392857Y-152781142D01*
X158488095Y-152781142D01*
X158583333Y-152828761D01*
X158630952Y-152876380D01*
X158678571Y-152971618D01*
X158678571Y-153304952D01*
X158297619Y-152352571D02*
X158250000Y-152304952D01*
X158202381Y-152209714D01*
X158202381Y-151971618D01*
X158250000Y-151876380D01*
X158297619Y-151828761D01*
X158392857Y-151781142D01*
X158488095Y-151781142D01*
X158630952Y-151828761D01*
X159202381Y-152400190D01*
X159202381Y-151781142D01*
X156519619Y-155098476D02*
X156472000Y-155050857D01*
X156424381Y-154955619D01*
X156424381Y-154717523D01*
X156472000Y-154622285D01*
X156519619Y-154574666D01*
X156614857Y-154527047D01*
X156710095Y-154527047D01*
X156852952Y-154574666D01*
X157424381Y-155146095D01*
X157424381Y-154527047D01*
X156472000Y-152812761D02*
X156424381Y-152907999D01*
X156424381Y-153050856D01*
X156472000Y-153193714D01*
X156567238Y-153288952D01*
X156662476Y-153336571D01*
X156852952Y-153384190D01*
X156995810Y-153384190D01*
X157186286Y-153336571D01*
X157281524Y-153288952D01*
X157376762Y-153193714D01*
X157424381Y-153050856D01*
X157424381Y-152955618D01*
X157376762Y-152812761D01*
X157329143Y-152765142D01*
X156995810Y-152765142D01*
X156995810Y-152955618D01*
X157424381Y-152336571D02*
X156424381Y-152336571D01*
X157424381Y-151765142D01*
X156424381Y-151765142D01*
X157424381Y-151288952D02*
X156424381Y-151288952D01*
X156424381Y-151050857D01*
X156472000Y-150907999D01*
X156567238Y-150812761D01*
X156662476Y-150765142D01*
X156852952Y-150717523D01*
X156995810Y-150717523D01*
X157186286Y-150765142D01*
X157281524Y-150812761D01*
X157376762Y-150907999D01*
X157424381Y-151050857D01*
X157424381Y-151288952D01*
X154630381Y-154431809D02*
X154630381Y-155003238D01*
X154630381Y-154717524D02*
X153630381Y-154717524D01*
X153773238Y-154812762D01*
X153868476Y-154908000D01*
X153916095Y-155003238D01*
X153630381Y-153384190D02*
X154630381Y-153050857D01*
X153630381Y-152717523D01*
X154535143Y-151812761D02*
X154582762Y-151860380D01*
X154630381Y-152003237D01*
X154630381Y-152098475D01*
X154582762Y-152241333D01*
X154487524Y-152336571D01*
X154392286Y-152384190D01*
X154201810Y-152431809D01*
X154058952Y-152431809D01*
X153868476Y-152384190D01*
X153773238Y-152336571D01*
X153678000Y-152241333D01*
X153630381Y-152098475D01*
X153630381Y-152003237D01*
X153678000Y-151860380D01*
X153725619Y-151812761D01*
X154535143Y-150812761D02*
X154582762Y-150860380D01*
X154630381Y-151003237D01*
X154630381Y-151098475D01*
X154582762Y-151241333D01*
X154487524Y-151336571D01*
X154392286Y-151384190D01*
X154201810Y-151431809D01*
X154058952Y-151431809D01*
X153868476Y-151384190D01*
X153773238Y-151336571D01*
X153678000Y-151241333D01*
X153630381Y-151098475D01*
X153630381Y-151003237D01*
X153678000Y-150860380D01*
X153725619Y-150812761D01*
D13*
X135148000Y-166502000D02*
X135148000Y-167762000D01*
X135148000Y-173322000D02*
X135148000Y-172062000D01*
X138908000Y-166502000D02*
X135148000Y-166502000D01*
X141158000Y-173322000D02*
X135148000Y-173322000D01*
X166733788Y-168633428D02*
X166733788Y-169633428D01*
X165373788Y-169633428D02*
X165373788Y-168633428D01*
X135120000Y-178855000D02*
X134120000Y-178855000D01*
X134120000Y-180555000D02*
X135120000Y-180555000D01*
X159045788Y-174783000D02*
X159045788Y-175483000D01*
X157845788Y-175483000D02*
X157845788Y-174783000D01*
X129942298Y-170089852D02*
X129942298Y-171089852D01*
X131642298Y-171089852D02*
X131642298Y-170089852D01*
X153508000Y-185705000D02*
X153508000Y-186405000D01*
X152308000Y-186405000D02*
X152308000Y-185705000D01*
X137277298Y-165900852D02*
X138277298Y-165900852D01*
X138277298Y-164200852D02*
X137277298Y-164200852D01*
X133197298Y-164200852D02*
X132197298Y-164200852D01*
X132197298Y-165900852D02*
X133197298Y-165900852D01*
X154524000Y-168560000D02*
X154524000Y-169260000D01*
X153324000Y-169260000D02*
X153324000Y-168560000D01*
X89246000Y-107600000D02*
X89246000Y-108300000D01*
X88046000Y-108300000D02*
X88046000Y-107600000D01*
X140050000Y-47082000D02*
X139350000Y-47082000D01*
X139350000Y-45882000D02*
X140050000Y-45882000D01*
X200498000Y-100742000D02*
X200498000Y-101442000D01*
X199298000Y-101442000D02*
X199298000Y-100742000D01*
X114320000Y-149450000D02*
X114320000Y-150150000D01*
X113120000Y-150150000D02*
X113120000Y-149450000D01*
X95920000Y-68742000D02*
X95920000Y-68042000D01*
X97120000Y-68042000D02*
X97120000Y-68742000D01*
X170784000Y-49622000D02*
X170084000Y-49622000D01*
X170084000Y-48422000D02*
X170784000Y-48422000D01*
X193970000Y-124114000D02*
X194670000Y-124114000D01*
X194670000Y-125314000D02*
X193970000Y-125314000D01*
X95320000Y-126900000D02*
X95320000Y-127600000D01*
X94120000Y-127600000D02*
X94120000Y-126900000D01*
X113056000Y-51652000D02*
X113056000Y-52352000D01*
X111856000Y-52352000D02*
X111856000Y-51652000D01*
X192948000Y-74264000D02*
X192948000Y-73564000D01*
X194148000Y-73564000D02*
X194148000Y-74264000D01*
X169920000Y-149700000D02*
X169920000Y-150400000D01*
X168720000Y-150400000D02*
X168720000Y-149700000D01*
X133096000Y-184150000D02*
G75*
G03X133096000Y-184150000I-2286000J0D01*
G01*
X140716000Y-184150000D02*
G75*
G03X140716000Y-184150000I-2286000J0D01*
G01*
X148336000Y-184150000D02*
G75*
G03X148336000Y-184150000I-2286000J0D01*
G01*
X150820000Y-161300000D02*
X143820000Y-161300000D01*
X150820000Y-156100000D02*
X143820000Y-156100000D01*
X143820000Y-156100000D02*
X143820000Y-157100000D01*
X115520000Y-147800000D02*
X122520000Y-147800000D01*
X115520000Y-153000000D02*
X122520000Y-153000000D01*
X122520000Y-153000000D02*
X122520000Y-152000000D01*
X97020000Y-125900000D02*
X104020000Y-125900000D01*
X97020000Y-131100000D02*
X104020000Y-131100000D01*
X104020000Y-131100000D02*
X104020000Y-130100000D01*
X87720000Y-105100000D02*
X87720000Y-98100000D01*
X92920000Y-105100000D02*
X92920000Y-98100000D01*
X92920000Y-98100000D02*
X91920000Y-98100000D01*
X94820000Y-71000000D02*
X101820000Y-71000000D01*
X94820000Y-76200000D02*
X101820000Y-76200000D01*
X101820000Y-76200000D02*
X101820000Y-75200000D01*
X115814000Y-49910000D02*
X122814000Y-49910000D01*
X115814000Y-55110000D02*
X122814000Y-55110000D01*
X122814000Y-55110000D02*
X122814000Y-54110000D01*
X143820000Y-45610000D02*
X150820000Y-45610000D01*
X143820000Y-50810000D02*
X150820000Y-50810000D01*
X150820000Y-50810000D02*
X150820000Y-49810000D01*
X173320000Y-48000000D02*
X180320000Y-48000000D01*
X173320000Y-53200000D02*
X180320000Y-53200000D01*
X180320000Y-53200000D02*
X180320000Y-52200000D01*
X195220000Y-76000000D02*
X195220000Y-69000000D01*
X200420000Y-76000000D02*
X200420000Y-69000000D01*
X200420000Y-69000000D02*
X199420000Y-69000000D01*
X201820000Y-99000000D02*
X208820000Y-99000000D01*
X201820000Y-104200000D02*
X208820000Y-104200000D01*
X208820000Y-104200000D02*
X208820000Y-103200000D01*
X190820000Y-125900000D02*
X197820000Y-125900000D01*
X190820000Y-131100000D02*
X197820000Y-131100000D01*
X197820000Y-131100000D02*
X197820000Y-130100000D01*
X172320000Y-148500000D02*
X179320000Y-148500000D01*
X172320000Y-153700000D02*
X179320000Y-153700000D01*
X179320000Y-153700000D02*
X179320000Y-152700000D01*
X154122000Y-174302672D02*
X155052000Y-174302672D01*
X157282000Y-174302672D02*
X156352000Y-174302672D01*
X157282000Y-174302672D02*
X157282000Y-172142672D01*
X154122000Y-174302672D02*
X154122000Y-172842672D01*
X145819688Y-173351202D02*
X145469688Y-173351202D01*
X145469688Y-173351202D02*
X145469688Y-171851202D01*
X150469688Y-173351202D02*
X147269688Y-173351202D01*
X152269688Y-171851202D02*
X152269688Y-173351202D01*
X152269688Y-173351202D02*
X151869688Y-173351202D01*
X152138000Y-183560000D02*
X151138000Y-183560000D01*
X151138000Y-182200000D02*
X152138000Y-182200000D01*
X150323000Y-186555000D02*
X150323000Y-185555000D01*
X151683000Y-185555000D02*
X151683000Y-186555000D01*
X156642000Y-169322672D02*
X157642000Y-169322672D01*
X157642000Y-170682672D02*
X156642000Y-170682672D01*
X144190000Y-175395000D02*
X144190000Y-176395000D01*
X142830000Y-176395000D02*
X142830000Y-175395000D01*
X156382000Y-177638000D02*
X156382000Y-178638000D01*
X155022000Y-178638000D02*
X155022000Y-177638000D01*
X164233788Y-168633428D02*
X164233788Y-169633428D01*
X162873788Y-169633428D02*
X162873788Y-168633428D01*
X161733788Y-168633428D02*
X161733788Y-169633428D01*
X160373788Y-169633428D02*
X160373788Y-168633428D01*
X161623788Y-184883428D02*
X161623788Y-183883428D01*
X162983788Y-183883428D02*
X162983788Y-184883428D01*
X163873788Y-184883428D02*
X163873788Y-183883428D01*
X165233788Y-183883428D02*
X165233788Y-184883428D01*
X156726000Y-181946000D02*
X157726000Y-181946000D01*
X157726000Y-183306000D02*
X156726000Y-183306000D01*
D12*
X160315788Y-178788428D02*
X160365788Y-178788428D01*
X160315788Y-174638428D02*
X160460788Y-174638428D01*
X165465788Y-174638428D02*
X165320788Y-174638428D01*
X165465788Y-178788428D02*
X165320788Y-178788428D01*
X160315788Y-178788428D02*
X160315788Y-174638428D01*
X165465788Y-178788428D02*
X165465788Y-174638428D01*
X160365788Y-178788428D02*
X160365788Y-180188428D01*
D13*
X158842000Y-179228000D02*
X158842000Y-179928000D01*
X157642000Y-179928000D02*
X157642000Y-179228000D01*
X153102000Y-160203000D02*
X153102000Y-157543000D01*
X168462000Y-160203000D02*
X168462000Y-157543000D01*
X153102000Y-157543000D02*
X156212000Y-157543000D01*
X153672000Y-160203000D02*
X153672000Y-161723000D01*
X153102000Y-160203000D02*
X153672000Y-160203000D01*
X167892000Y-157543000D02*
X168462000Y-157543000D01*
X157732000Y-157543000D02*
X161292000Y-157543000D01*
X162812000Y-157543000D02*
X166372000Y-157543000D01*
X155192000Y-160203000D02*
X158752000Y-160203000D01*
X160272000Y-160203000D02*
X163832000Y-160203000D01*
X165352000Y-160203000D02*
X168462000Y-160203000D01*
X141650000Y-175395000D02*
X141650000Y-176395000D01*
X140290000Y-176395000D02*
X140290000Y-175395000D01*
D10*
X150750000Y-180007000D02*
X150750000Y-180282000D01*
X150750000Y-180282000D02*
X151025000Y-180657000D01*
X151025000Y-180657000D02*
X151075000Y-180657000D01*
X151075000Y-180657000D02*
X151075000Y-181432000D01*
X154050000Y-180182000D02*
X154050000Y-180657000D01*
X154050000Y-180657000D02*
X153700000Y-180657000D01*
X153825000Y-179007000D02*
X153700000Y-179007000D01*
X153750000Y-179007000D02*
X154050000Y-179007000D01*
X154050000Y-179007000D02*
X154050000Y-179457000D01*
X150750000Y-179382000D02*
X150750000Y-179007000D01*
X150750000Y-179007000D02*
X151050000Y-179007000D01*
D13*
X187200000Y-150425000D02*
X187200000Y-151625000D01*
X187200000Y-151625000D02*
X184500000Y-151625000D01*
X183200000Y-146825000D02*
X187200000Y-146825000D01*
X187200000Y-146825000D02*
X187200000Y-148025000D01*
X127590000Y-165600000D02*
X127590000Y-164600000D01*
X128950000Y-164600000D02*
X128950000Y-165600000D01*
X181745000Y-152355000D02*
X182745000Y-152355000D01*
X182745000Y-153715000D02*
X181745000Y-153715000D01*
D12*
X136296095Y-173864381D02*
X136296095Y-174673905D01*
X136343714Y-174769143D01*
X136391333Y-174816762D01*
X136486571Y-174864381D01*
X136677048Y-174864381D01*
X136772286Y-174816762D01*
X136819905Y-174769143D01*
X136867524Y-174673905D01*
X136867524Y-173864381D01*
X137867524Y-174864381D02*
X137296095Y-174864381D01*
X137581809Y-174864381D02*
X137581809Y-173864381D01*
X137486571Y-174007238D01*
X137391333Y-174102476D01*
X137296095Y-174150095D01*
X165949334Y-172537381D02*
X165616000Y-172061190D01*
X165377905Y-172537381D02*
X165377905Y-171537381D01*
X165758858Y-171537381D01*
X165854096Y-171585000D01*
X165901715Y-171632619D01*
X165949334Y-171727857D01*
X165949334Y-171870714D01*
X165901715Y-171965952D01*
X165854096Y-172013571D01*
X165758858Y-172061190D01*
X165377905Y-172061190D01*
X166806477Y-171537381D02*
X166616000Y-171537381D01*
X166520762Y-171585000D01*
X166473143Y-171632619D01*
X166377905Y-171775476D01*
X166330286Y-171965952D01*
X166330286Y-172346905D01*
X166377905Y-172442143D01*
X166425524Y-172489762D01*
X166520762Y-172537381D01*
X166711239Y-172537381D01*
X166806477Y-172489762D01*
X166854096Y-172442143D01*
X166901715Y-172346905D01*
X166901715Y-172108810D01*
X166854096Y-172013571D01*
X166806477Y-171965952D01*
X166711239Y-171918333D01*
X166520762Y-171918333D01*
X166425524Y-171965952D01*
X166377905Y-172013571D01*
X166330286Y-172108810D01*
X133945334Y-178157143D02*
X133897715Y-178204762D01*
X133754858Y-178252381D01*
X133659620Y-178252381D01*
X133516762Y-178204762D01*
X133421524Y-178109524D01*
X133373905Y-178014286D01*
X133326286Y-177823810D01*
X133326286Y-177680952D01*
X133373905Y-177490476D01*
X133421524Y-177395238D01*
X133516762Y-177300000D01*
X133659620Y-177252381D01*
X133754858Y-177252381D01*
X133897715Y-177300000D01*
X133945334Y-177347619D01*
X134897715Y-178252381D02*
X134326286Y-178252381D01*
X134612000Y-178252381D02*
X134612000Y-177252381D01*
X134516762Y-177395238D01*
X134421524Y-177490476D01*
X134326286Y-177538095D01*
X159107143Y-172251666D02*
X159154762Y-172299285D01*
X159202381Y-172442142D01*
X159202381Y-172537380D01*
X159154762Y-172680238D01*
X159059524Y-172775476D01*
X158964286Y-172823095D01*
X158773810Y-172870714D01*
X158630952Y-172870714D01*
X158440476Y-172823095D01*
X158345238Y-172775476D01*
X158250000Y-172680238D01*
X158202381Y-172537380D01*
X158202381Y-172442142D01*
X158250000Y-172299285D01*
X158297619Y-172251666D01*
X158297619Y-171870714D02*
X158250000Y-171823095D01*
X158202381Y-171727857D01*
X158202381Y-171489761D01*
X158250000Y-171394523D01*
X158297619Y-171346904D01*
X158392857Y-171299285D01*
X158488095Y-171299285D01*
X158630952Y-171346904D01*
X159202381Y-171918333D01*
X159202381Y-171299285D01*
X129399441Y-170756518D02*
X129447060Y-170804137D01*
X129494679Y-170946994D01*
X129494679Y-171042232D01*
X129447060Y-171185090D01*
X129351822Y-171280328D01*
X129256584Y-171327947D01*
X129066108Y-171375566D01*
X128923250Y-171375566D01*
X128732774Y-171327947D01*
X128637536Y-171280328D01*
X128542298Y-171185090D01*
X128494679Y-171042232D01*
X128494679Y-170946994D01*
X128542298Y-170804137D01*
X128589917Y-170756518D01*
X128494679Y-170423185D02*
X128494679Y-169804137D01*
X128875631Y-170137471D01*
X128875631Y-169994613D01*
X128923250Y-169899375D01*
X128970869Y-169851756D01*
X129066108Y-169804137D01*
X129304203Y-169804137D01*
X129399441Y-169851756D01*
X129447060Y-169899375D01*
X129494679Y-169994613D01*
X129494679Y-170280328D01*
X129447060Y-170375566D01*
X129399441Y-170423185D01*
X154789143Y-186094666D02*
X154836762Y-186142285D01*
X154884381Y-186285142D01*
X154884381Y-186380380D01*
X154836762Y-186523238D01*
X154741524Y-186618476D01*
X154646286Y-186666095D01*
X154455810Y-186713714D01*
X154312952Y-186713714D01*
X154122476Y-186666095D01*
X154027238Y-186618476D01*
X153932000Y-186523238D01*
X153884381Y-186380380D01*
X153884381Y-186285142D01*
X153932000Y-186142285D01*
X153979619Y-186094666D01*
X154217714Y-185237523D02*
X154884381Y-185237523D01*
X153836762Y-185475619D02*
X154551048Y-185713714D01*
X154551048Y-185094666D01*
X137501334Y-163425143D02*
X137453715Y-163472762D01*
X137310858Y-163520381D01*
X137215620Y-163520381D01*
X137072762Y-163472762D01*
X136977524Y-163377524D01*
X136929905Y-163282286D01*
X136882286Y-163091810D01*
X136882286Y-162948952D01*
X136929905Y-162758476D01*
X136977524Y-162663238D01*
X137072762Y-162568000D01*
X137215620Y-162520381D01*
X137310858Y-162520381D01*
X137453715Y-162568000D01*
X137501334Y-162615619D01*
X138406096Y-162520381D02*
X137929905Y-162520381D01*
X137882286Y-162996571D01*
X137929905Y-162948952D01*
X138025143Y-162901333D01*
X138263239Y-162901333D01*
X138358477Y-162948952D01*
X138406096Y-162996571D01*
X138453715Y-163091810D01*
X138453715Y-163329905D01*
X138406096Y-163425143D01*
X138358477Y-163472762D01*
X138263239Y-163520381D01*
X138025143Y-163520381D01*
X137929905Y-163472762D01*
X137882286Y-163425143D01*
X133691334Y-163657995D02*
X133643715Y-163705614D01*
X133500858Y-163753233D01*
X133405620Y-163753233D01*
X133262762Y-163705614D01*
X133167524Y-163610376D01*
X133119905Y-163515138D01*
X133072286Y-163324662D01*
X133072286Y-163181804D01*
X133119905Y-162991328D01*
X133167524Y-162896090D01*
X133262762Y-162800852D01*
X133405620Y-162753233D01*
X133500858Y-162753233D01*
X133643715Y-162800852D01*
X133691334Y-162848471D01*
X134548477Y-162753233D02*
X134358000Y-162753233D01*
X134262762Y-162800852D01*
X134215143Y-162848471D01*
X134119905Y-162991328D01*
X134072286Y-163181804D01*
X134072286Y-163562757D01*
X134119905Y-163657995D01*
X134167524Y-163705614D01*
X134262762Y-163753233D01*
X134453239Y-163753233D01*
X134548477Y-163705614D01*
X134596096Y-163657995D01*
X134643715Y-163562757D01*
X134643715Y-163324662D01*
X134596096Y-163229423D01*
X134548477Y-163181804D01*
X134453239Y-163134185D01*
X134262762Y-163134185D01*
X134167524Y-163181804D01*
X134119905Y-163229423D01*
X134072286Y-163324662D01*
X154281143Y-166028666D02*
X154328762Y-166076285D01*
X154376381Y-166219142D01*
X154376381Y-166314380D01*
X154328762Y-166457238D01*
X154233524Y-166552476D01*
X154138286Y-166600095D01*
X153947810Y-166647714D01*
X153804952Y-166647714D01*
X153614476Y-166600095D01*
X153519238Y-166552476D01*
X153424000Y-166457238D01*
X153376381Y-166314380D01*
X153376381Y-166219142D01*
X153424000Y-166076285D01*
X153471619Y-166028666D01*
X153376381Y-165695333D02*
X153376381Y-165028666D01*
X154376381Y-165457238D01*
X90527143Y-108116666D02*
X90574762Y-108164285D01*
X90622381Y-108307142D01*
X90622381Y-108402380D01*
X90574762Y-108545238D01*
X90479524Y-108640476D01*
X90384286Y-108688095D01*
X90193810Y-108735714D01*
X90050952Y-108735714D01*
X89860476Y-108688095D01*
X89765238Y-108640476D01*
X89670000Y-108545238D01*
X89622381Y-108402380D01*
X89622381Y-108307142D01*
X89670000Y-108164285D01*
X89717619Y-108116666D01*
X90050952Y-107545238D02*
X90003333Y-107640476D01*
X89955714Y-107688095D01*
X89860476Y-107735714D01*
X89812857Y-107735714D01*
X89717619Y-107688095D01*
X89670000Y-107640476D01*
X89622381Y-107545238D01*
X89622381Y-107354761D01*
X89670000Y-107259523D01*
X89717619Y-107211904D01*
X89812857Y-107164285D01*
X89860476Y-107164285D01*
X89955714Y-107211904D01*
X90003333Y-107259523D01*
X90050952Y-107354761D01*
X90050952Y-107545238D01*
X90098571Y-107640476D01*
X90146190Y-107688095D01*
X90241429Y-107735714D01*
X90431905Y-107735714D01*
X90527143Y-107688095D01*
X90574762Y-107640476D01*
X90622381Y-107545238D01*
X90622381Y-107354761D01*
X90574762Y-107259523D01*
X90527143Y-107211904D01*
X90431905Y-107164285D01*
X90241429Y-107164285D01*
X90146190Y-107211904D01*
X90098571Y-107259523D01*
X90050952Y-107354761D01*
X139533334Y-48363143D02*
X139485715Y-48410762D01*
X139342858Y-48458381D01*
X139247620Y-48458381D01*
X139104762Y-48410762D01*
X139009524Y-48315524D01*
X138961905Y-48220286D01*
X138914286Y-48029810D01*
X138914286Y-47886952D01*
X138961905Y-47696476D01*
X139009524Y-47601238D01*
X139104762Y-47506000D01*
X139247620Y-47458381D01*
X139342858Y-47458381D01*
X139485715Y-47506000D01*
X139533334Y-47553619D01*
X140009524Y-48458381D02*
X140200000Y-48458381D01*
X140295239Y-48410762D01*
X140342858Y-48363143D01*
X140438096Y-48220286D01*
X140485715Y-48029810D01*
X140485715Y-47648857D01*
X140438096Y-47553619D01*
X140390477Y-47506000D01*
X140295239Y-47458381D01*
X140104762Y-47458381D01*
X140009524Y-47506000D01*
X139961905Y-47553619D01*
X139914286Y-47648857D01*
X139914286Y-47886952D01*
X139961905Y-47982190D01*
X140009524Y-48029810D01*
X140104762Y-48077429D01*
X140295239Y-48077429D01*
X140390477Y-48029810D01*
X140438096Y-47982190D01*
X140485715Y-47886952D01*
X198747143Y-98782143D02*
X198699524Y-98829762D01*
X198556667Y-98877381D01*
X198461429Y-98877381D01*
X198318571Y-98829762D01*
X198223333Y-98734524D01*
X198175714Y-98639286D01*
X198128095Y-98448810D01*
X198128095Y-98305952D01*
X198175714Y-98115476D01*
X198223333Y-98020238D01*
X198318571Y-97925000D01*
X198461429Y-97877381D01*
X198556667Y-97877381D01*
X198699524Y-97925000D01*
X198747143Y-97972619D01*
X199699524Y-98877381D02*
X199128095Y-98877381D01*
X199413809Y-98877381D02*
X199413809Y-97877381D01*
X199318571Y-98020238D01*
X199223333Y-98115476D01*
X199128095Y-98163095D01*
X200318571Y-97877381D02*
X200413810Y-97877381D01*
X200509048Y-97925000D01*
X200556667Y-97972619D01*
X200604286Y-98067857D01*
X200651905Y-98258333D01*
X200651905Y-98496429D01*
X200604286Y-98686905D01*
X200556667Y-98782143D01*
X200509048Y-98829762D01*
X200413810Y-98877381D01*
X200318571Y-98877381D01*
X200223333Y-98829762D01*
X200175714Y-98782143D01*
X200128095Y-98686905D01*
X200080476Y-98496429D01*
X200080476Y-98258333D01*
X200128095Y-98067857D01*
X200175714Y-97972619D01*
X200223333Y-97925000D01*
X200318571Y-97877381D01*
X112371143Y-150502857D02*
X112418762Y-150550476D01*
X112466381Y-150693333D01*
X112466381Y-150788571D01*
X112418762Y-150931429D01*
X112323524Y-151026667D01*
X112228286Y-151074286D01*
X112037810Y-151121905D01*
X111894952Y-151121905D01*
X111704476Y-151074286D01*
X111609238Y-151026667D01*
X111514000Y-150931429D01*
X111466381Y-150788571D01*
X111466381Y-150693333D01*
X111514000Y-150550476D01*
X111561619Y-150502857D01*
X112466381Y-149550476D02*
X112466381Y-150121905D01*
X112466381Y-149836191D02*
X111466381Y-149836191D01*
X111609238Y-149931429D01*
X111704476Y-150026667D01*
X111752095Y-150121905D01*
X112466381Y-148598095D02*
X112466381Y-149169524D01*
X112466381Y-148883810D02*
X111466381Y-148883810D01*
X111609238Y-148979048D01*
X111704476Y-149074286D01*
X111752095Y-149169524D01*
X95627143Y-69034857D02*
X95674762Y-69082476D01*
X95722381Y-69225333D01*
X95722381Y-69320571D01*
X95674762Y-69463429D01*
X95579524Y-69558667D01*
X95484286Y-69606286D01*
X95293810Y-69653905D01*
X95150952Y-69653905D01*
X94960476Y-69606286D01*
X94865238Y-69558667D01*
X94770000Y-69463429D01*
X94722381Y-69320571D01*
X94722381Y-69225333D01*
X94770000Y-69082476D01*
X94817619Y-69034857D01*
X95722381Y-68082476D02*
X95722381Y-68653905D01*
X95722381Y-68368191D02*
X94722381Y-68368191D01*
X94865238Y-68463429D01*
X94960476Y-68558667D01*
X95008095Y-68653905D01*
X94817619Y-67701524D02*
X94770000Y-67653905D01*
X94722381Y-67558667D01*
X94722381Y-67320571D01*
X94770000Y-67225333D01*
X94817619Y-67177714D01*
X94912857Y-67130095D01*
X95008095Y-67130095D01*
X95150952Y-67177714D01*
X95722381Y-67749143D01*
X95722381Y-67130095D01*
X169791143Y-51157143D02*
X169743524Y-51204762D01*
X169600667Y-51252381D01*
X169505429Y-51252381D01*
X169362571Y-51204762D01*
X169267333Y-51109524D01*
X169219714Y-51014286D01*
X169172095Y-50823810D01*
X169172095Y-50680952D01*
X169219714Y-50490476D01*
X169267333Y-50395238D01*
X169362571Y-50300000D01*
X169505429Y-50252381D01*
X169600667Y-50252381D01*
X169743524Y-50300000D01*
X169791143Y-50347619D01*
X170743524Y-51252381D02*
X170172095Y-51252381D01*
X170457809Y-51252381D02*
X170457809Y-50252381D01*
X170362571Y-50395238D01*
X170267333Y-50490476D01*
X170172095Y-50538095D01*
X171076857Y-50252381D02*
X171695905Y-50252381D01*
X171362571Y-50633333D01*
X171505429Y-50633333D01*
X171600667Y-50680952D01*
X171648286Y-50728571D01*
X171695905Y-50823810D01*
X171695905Y-51061905D01*
X171648286Y-51157143D01*
X171600667Y-51204762D01*
X171505429Y-51252381D01*
X171219714Y-51252381D01*
X171124476Y-51204762D01*
X171076857Y-51157143D01*
X197477143Y-124817143D02*
X197429524Y-124864762D01*
X197286667Y-124912381D01*
X197191429Y-124912381D01*
X197048571Y-124864762D01*
X196953333Y-124769524D01*
X196905714Y-124674286D01*
X196858095Y-124483810D01*
X196858095Y-124340952D01*
X196905714Y-124150476D01*
X196953333Y-124055238D01*
X197048571Y-123960000D01*
X197191429Y-123912381D01*
X197286667Y-123912381D01*
X197429524Y-123960000D01*
X197477143Y-124007619D01*
X198429524Y-124912381D02*
X197858095Y-124912381D01*
X198143809Y-124912381D02*
X198143809Y-123912381D01*
X198048571Y-124055238D01*
X197953333Y-124150476D01*
X197858095Y-124198095D01*
X199286667Y-124245714D02*
X199286667Y-124912381D01*
X199048571Y-123864762D02*
X198810476Y-124579048D01*
X199429524Y-124579048D01*
X93702143Y-128277857D02*
X93749762Y-128325476D01*
X93797381Y-128468333D01*
X93797381Y-128563571D01*
X93749762Y-128706429D01*
X93654524Y-128801667D01*
X93559286Y-128849286D01*
X93368810Y-128896905D01*
X93225952Y-128896905D01*
X93035476Y-128849286D01*
X92940238Y-128801667D01*
X92845000Y-128706429D01*
X92797381Y-128563571D01*
X92797381Y-128468333D01*
X92845000Y-128325476D01*
X92892619Y-128277857D01*
X93797381Y-127325476D02*
X93797381Y-127896905D01*
X93797381Y-127611191D02*
X92797381Y-127611191D01*
X92940238Y-127706429D01*
X93035476Y-127801667D01*
X93083095Y-127896905D01*
X92797381Y-126420714D02*
X92797381Y-126896905D01*
X93273571Y-126944524D01*
X93225952Y-126896905D01*
X93178333Y-126801667D01*
X93178333Y-126563571D01*
X93225952Y-126468333D01*
X93273571Y-126420714D01*
X93368810Y-126373095D01*
X93606905Y-126373095D01*
X93702143Y-126420714D01*
X93749762Y-126468333D01*
X93797381Y-126563571D01*
X93797381Y-126801667D01*
X93749762Y-126896905D01*
X93702143Y-126944524D01*
X111482143Y-53347857D02*
X111529762Y-53395476D01*
X111577381Y-53538333D01*
X111577381Y-53633571D01*
X111529762Y-53776429D01*
X111434524Y-53871667D01*
X111339286Y-53919286D01*
X111148810Y-53966905D01*
X111005952Y-53966905D01*
X110815476Y-53919286D01*
X110720238Y-53871667D01*
X110625000Y-53776429D01*
X110577381Y-53633571D01*
X110577381Y-53538333D01*
X110625000Y-53395476D01*
X110672619Y-53347857D01*
X111577381Y-52395476D02*
X111577381Y-52966905D01*
X111577381Y-52681191D02*
X110577381Y-52681191D01*
X110720238Y-52776429D01*
X110815476Y-52871667D01*
X110863095Y-52966905D01*
X110577381Y-51538333D02*
X110577381Y-51728810D01*
X110625000Y-51824048D01*
X110672619Y-51871667D01*
X110815476Y-51966905D01*
X111005952Y-52014524D01*
X111386905Y-52014524D01*
X111482143Y-51966905D01*
X111529762Y-51919286D01*
X111577381Y-51824048D01*
X111577381Y-51633571D01*
X111529762Y-51538333D01*
X111482143Y-51490714D01*
X111386905Y-51443095D01*
X111148810Y-51443095D01*
X111053571Y-51490714D01*
X111005952Y-51538333D01*
X110958333Y-51633571D01*
X110958333Y-51824048D01*
X111005952Y-51919286D01*
X111053571Y-51966905D01*
X111148810Y-52014524D01*
X192655143Y-74556857D02*
X192702762Y-74604476D01*
X192750381Y-74747333D01*
X192750381Y-74842571D01*
X192702762Y-74985429D01*
X192607524Y-75080667D01*
X192512286Y-75128286D01*
X192321810Y-75175905D01*
X192178952Y-75175905D01*
X191988476Y-75128286D01*
X191893238Y-75080667D01*
X191798000Y-74985429D01*
X191750381Y-74842571D01*
X191750381Y-74747333D01*
X191798000Y-74604476D01*
X191845619Y-74556857D01*
X192750381Y-73604476D02*
X192750381Y-74175905D01*
X192750381Y-73890191D02*
X191750381Y-73890191D01*
X191893238Y-73985429D01*
X191988476Y-74080667D01*
X192036095Y-74175905D01*
X191750381Y-73271143D02*
X191750381Y-72604476D01*
X192750381Y-73033048D01*
X167997143Y-150692857D02*
X168044762Y-150740476D01*
X168092381Y-150883333D01*
X168092381Y-150978571D01*
X168044762Y-151121429D01*
X167949524Y-151216667D01*
X167854286Y-151264286D01*
X167663810Y-151311905D01*
X167520952Y-151311905D01*
X167330476Y-151264286D01*
X167235238Y-151216667D01*
X167140000Y-151121429D01*
X167092381Y-150978571D01*
X167092381Y-150883333D01*
X167140000Y-150740476D01*
X167187619Y-150692857D01*
X168092381Y-149740476D02*
X168092381Y-150311905D01*
X168092381Y-150026191D02*
X167092381Y-150026191D01*
X167235238Y-150121429D01*
X167330476Y-150216667D01*
X167378095Y-150311905D01*
X167520952Y-149169048D02*
X167473333Y-149264286D01*
X167425714Y-149311905D01*
X167330476Y-149359524D01*
X167282857Y-149359524D01*
X167187619Y-149311905D01*
X167140000Y-149264286D01*
X167092381Y-149169048D01*
X167092381Y-148978571D01*
X167140000Y-148883333D01*
X167187619Y-148835714D01*
X167282857Y-148788095D01*
X167330476Y-148788095D01*
X167425714Y-148835714D01*
X167473333Y-148883333D01*
X167520952Y-148978571D01*
X167520952Y-149169048D01*
X167568571Y-149264286D01*
X167616190Y-149311905D01*
X167711429Y-149359524D01*
X167901905Y-149359524D01*
X167997143Y-149311905D01*
X168044762Y-149264286D01*
X168092381Y-149169048D01*
X168092381Y-148978571D01*
X168044762Y-148883333D01*
X167997143Y-148835714D01*
X167901905Y-148788095D01*
X167711429Y-148788095D01*
X167616190Y-148835714D01*
X167568571Y-148883333D01*
X167520952Y-148978571D01*
X127428762Y-186650381D02*
X127762095Y-187650381D01*
X128095429Y-186650381D01*
X128428762Y-187650381D02*
X128428762Y-186650381D01*
X128904952Y-187650381D02*
X128904952Y-186650381D01*
X129476381Y-187650381D01*
X129476381Y-186650381D01*
X135636096Y-186698000D02*
X135540858Y-186650381D01*
X135398001Y-186650381D01*
X135255143Y-186698000D01*
X135159905Y-186793238D01*
X135112286Y-186888476D01*
X135064667Y-187078952D01*
X135064667Y-187221810D01*
X135112286Y-187412286D01*
X135159905Y-187507524D01*
X135255143Y-187602762D01*
X135398001Y-187650381D01*
X135493239Y-187650381D01*
X135636096Y-187602762D01*
X135683715Y-187555143D01*
X135683715Y-187221810D01*
X135493239Y-187221810D01*
X136112286Y-187650381D02*
X136112286Y-186650381D01*
X136683715Y-187650381D01*
X136683715Y-186650381D01*
X137159905Y-187650381D02*
X137159905Y-186650381D01*
X137398000Y-186650381D01*
X137540858Y-186698000D01*
X137636096Y-186793238D01*
X137683715Y-186888476D01*
X137731334Y-187078952D01*
X137731334Y-187221810D01*
X137683715Y-187412286D01*
X137636096Y-187507524D01*
X137540858Y-187602762D01*
X137398000Y-187650381D01*
X137159905Y-187650381D01*
X142994191Y-187904381D02*
X142994191Y-186904381D01*
X143232286Y-186904381D01*
X143375144Y-186952000D01*
X143470382Y-187047238D01*
X143518001Y-187142476D01*
X143565620Y-187332952D01*
X143565620Y-187475810D01*
X143518001Y-187666286D01*
X143470382Y-187761524D01*
X143375144Y-187856762D01*
X143232286Y-187904381D01*
X142994191Y-187904381D01*
X143994191Y-187904381D02*
X143994191Y-186904381D01*
X144470381Y-187904381D02*
X144470381Y-186904381D01*
X145041810Y-187904381D01*
X145041810Y-186904381D01*
X146200953Y-162652381D02*
X145724762Y-162652381D01*
X145724762Y-161652381D01*
X146534286Y-162128571D02*
X146867620Y-162128571D01*
X147010477Y-162652381D02*
X146534286Y-162652381D01*
X146534286Y-161652381D01*
X147010477Y-161652381D01*
X147439048Y-162652381D02*
X147439048Y-161652381D01*
X147677143Y-161652381D01*
X147820001Y-161700000D01*
X147915239Y-161795238D01*
X147962858Y-161890476D01*
X148010477Y-162080952D01*
X148010477Y-162223810D01*
X147962858Y-162414286D01*
X147915239Y-162509524D01*
X147820001Y-162604762D01*
X147677143Y-162652381D01*
X147439048Y-162652381D01*
X148962858Y-162652381D02*
X148391429Y-162652381D01*
X148677143Y-162652381D02*
X148677143Y-161652381D01*
X148581905Y-161795238D01*
X148486667Y-161890476D01*
X148391429Y-161938095D01*
X117900953Y-147352381D02*
X117424762Y-147352381D01*
X117424762Y-146352381D01*
X118234286Y-146828571D02*
X118567620Y-146828571D01*
X118710477Y-147352381D02*
X118234286Y-147352381D01*
X118234286Y-146352381D01*
X118710477Y-146352381D01*
X119139048Y-147352381D02*
X119139048Y-146352381D01*
X119377143Y-146352381D01*
X119520001Y-146400000D01*
X119615239Y-146495238D01*
X119662858Y-146590476D01*
X119710477Y-146780952D01*
X119710477Y-146923810D01*
X119662858Y-147114286D01*
X119615239Y-147209524D01*
X119520001Y-147304762D01*
X119377143Y-147352381D01*
X119139048Y-147352381D01*
X120091429Y-146447619D02*
X120139048Y-146400000D01*
X120234286Y-146352381D01*
X120472382Y-146352381D01*
X120567620Y-146400000D01*
X120615239Y-146447619D01*
X120662858Y-146542857D01*
X120662858Y-146638095D01*
X120615239Y-146780952D01*
X120043810Y-147352381D01*
X120662858Y-147352381D01*
X99400953Y-125452381D02*
X98924762Y-125452381D01*
X98924762Y-124452381D01*
X99734286Y-124928571D02*
X100067620Y-124928571D01*
X100210477Y-125452381D02*
X99734286Y-125452381D01*
X99734286Y-124452381D01*
X100210477Y-124452381D01*
X100639048Y-125452381D02*
X100639048Y-124452381D01*
X100877143Y-124452381D01*
X101020001Y-124500000D01*
X101115239Y-124595238D01*
X101162858Y-124690476D01*
X101210477Y-124880952D01*
X101210477Y-125023810D01*
X101162858Y-125214286D01*
X101115239Y-125309524D01*
X101020001Y-125404762D01*
X100877143Y-125452381D01*
X100639048Y-125452381D01*
X101543810Y-124452381D02*
X102162858Y-124452381D01*
X101829524Y-124833333D01*
X101972382Y-124833333D01*
X102067620Y-124880952D01*
X102115239Y-124928571D01*
X102162858Y-125023810D01*
X102162858Y-125261905D01*
X102115239Y-125357143D01*
X102067620Y-125404762D01*
X101972382Y-125452381D01*
X101686667Y-125452381D01*
X101591429Y-125404762D01*
X101543810Y-125357143D01*
X87272381Y-102719047D02*
X87272381Y-103195238D01*
X86272381Y-103195238D01*
X86748571Y-102385714D02*
X86748571Y-102052380D01*
X87272381Y-101909523D02*
X87272381Y-102385714D01*
X86272381Y-102385714D01*
X86272381Y-101909523D01*
X87272381Y-101480952D02*
X86272381Y-101480952D01*
X86272381Y-101242857D01*
X86320000Y-101099999D01*
X86415238Y-101004761D01*
X86510476Y-100957142D01*
X86700952Y-100909523D01*
X86843810Y-100909523D01*
X87034286Y-100957142D01*
X87129524Y-101004761D01*
X87224762Y-101099999D01*
X87272381Y-101242857D01*
X87272381Y-101480952D01*
X86605714Y-100052380D02*
X87272381Y-100052380D01*
X86224762Y-100290476D02*
X86939048Y-100528571D01*
X86939048Y-99909523D01*
X98575953Y-70552381D02*
X98099762Y-70552381D01*
X98099762Y-69552381D01*
X98909286Y-70028571D02*
X99242620Y-70028571D01*
X99385477Y-70552381D02*
X98909286Y-70552381D01*
X98909286Y-69552381D01*
X99385477Y-69552381D01*
X99814048Y-70552381D02*
X99814048Y-69552381D01*
X100052143Y-69552381D01*
X100195001Y-69600000D01*
X100290239Y-69695238D01*
X100337858Y-69790476D01*
X100385477Y-69980952D01*
X100385477Y-70123810D01*
X100337858Y-70314286D01*
X100290239Y-70409524D01*
X100195001Y-70504762D01*
X100052143Y-70552381D01*
X99814048Y-70552381D01*
X101290239Y-69552381D02*
X100814048Y-69552381D01*
X100766429Y-70028571D01*
X100814048Y-69980952D01*
X100909286Y-69933333D01*
X101147382Y-69933333D01*
X101242620Y-69980952D01*
X101290239Y-70028571D01*
X101337858Y-70123810D01*
X101337858Y-70361905D01*
X101290239Y-70457143D01*
X101242620Y-70504762D01*
X101147382Y-70552381D01*
X100909286Y-70552381D01*
X100814048Y-70504762D01*
X100766429Y-70457143D01*
X118194953Y-49462381D02*
X117718762Y-49462381D01*
X117718762Y-48462381D01*
X118528286Y-48938571D02*
X118861620Y-48938571D01*
X119004477Y-49462381D02*
X118528286Y-49462381D01*
X118528286Y-48462381D01*
X119004477Y-48462381D01*
X119433048Y-49462381D02*
X119433048Y-48462381D01*
X119671143Y-48462381D01*
X119814001Y-48510000D01*
X119909239Y-48605238D01*
X119956858Y-48700476D01*
X120004477Y-48890952D01*
X120004477Y-49033810D01*
X119956858Y-49224286D01*
X119909239Y-49319524D01*
X119814001Y-49414762D01*
X119671143Y-49462381D01*
X119433048Y-49462381D01*
X120861620Y-48462381D02*
X120671143Y-48462381D01*
X120575905Y-48510000D01*
X120528286Y-48557619D01*
X120433048Y-48700476D01*
X120385429Y-48890952D01*
X120385429Y-49271905D01*
X120433048Y-49367143D01*
X120480667Y-49414762D01*
X120575905Y-49462381D01*
X120766382Y-49462381D01*
X120861620Y-49414762D01*
X120909239Y-49367143D01*
X120956858Y-49271905D01*
X120956858Y-49033810D01*
X120909239Y-48938571D01*
X120861620Y-48890952D01*
X120766382Y-48843333D01*
X120575905Y-48843333D01*
X120480667Y-48890952D01*
X120433048Y-48938571D01*
X120385429Y-49033810D01*
X146200953Y-45162381D02*
X145724762Y-45162381D01*
X145724762Y-44162381D01*
X146534286Y-44638571D02*
X146867620Y-44638571D01*
X147010477Y-45162381D02*
X146534286Y-45162381D01*
X146534286Y-44162381D01*
X147010477Y-44162381D01*
X147439048Y-45162381D02*
X147439048Y-44162381D01*
X147677143Y-44162381D01*
X147820001Y-44210000D01*
X147915239Y-44305238D01*
X147962858Y-44400476D01*
X148010477Y-44590952D01*
X148010477Y-44733810D01*
X147962858Y-44924286D01*
X147915239Y-45019524D01*
X147820001Y-45114762D01*
X147677143Y-45162381D01*
X147439048Y-45162381D01*
X148343810Y-44162381D02*
X149010477Y-44162381D01*
X148581905Y-45162381D01*
X175700953Y-47552381D02*
X175224762Y-47552381D01*
X175224762Y-46552381D01*
X176034286Y-47028571D02*
X176367620Y-47028571D01*
X176510477Y-47552381D02*
X176034286Y-47552381D01*
X176034286Y-46552381D01*
X176510477Y-46552381D01*
X176939048Y-47552381D02*
X176939048Y-46552381D01*
X177177143Y-46552381D01*
X177320001Y-46600000D01*
X177415239Y-46695238D01*
X177462858Y-46790476D01*
X177510477Y-46980952D01*
X177510477Y-47123810D01*
X177462858Y-47314286D01*
X177415239Y-47409524D01*
X177320001Y-47504762D01*
X177177143Y-47552381D01*
X176939048Y-47552381D01*
X178081905Y-46980952D02*
X177986667Y-46933333D01*
X177939048Y-46885714D01*
X177891429Y-46790476D01*
X177891429Y-46742857D01*
X177939048Y-46647619D01*
X177986667Y-46600000D01*
X178081905Y-46552381D01*
X178272382Y-46552381D01*
X178367620Y-46600000D01*
X178415239Y-46647619D01*
X178462858Y-46742857D01*
X178462858Y-46790476D01*
X178415239Y-46885714D01*
X178367620Y-46933333D01*
X178272382Y-46980952D01*
X178081905Y-46980952D01*
X177986667Y-47028571D01*
X177939048Y-47076190D01*
X177891429Y-47171429D01*
X177891429Y-47361905D01*
X177939048Y-47457143D01*
X177986667Y-47504762D01*
X178081905Y-47552381D01*
X178272382Y-47552381D01*
X178367620Y-47504762D01*
X178415239Y-47457143D01*
X178462858Y-47361905D01*
X178462858Y-47171429D01*
X178415239Y-47076190D01*
X178367620Y-47028571D01*
X178272382Y-46980952D01*
X194762381Y-69699047D02*
X194762381Y-70175238D01*
X193762381Y-70175238D01*
X194238571Y-69365714D02*
X194238571Y-69032380D01*
X194762381Y-68889523D02*
X194762381Y-69365714D01*
X193762381Y-69365714D01*
X193762381Y-68889523D01*
X194762381Y-68460952D02*
X193762381Y-68460952D01*
X193762381Y-68222857D01*
X193810000Y-68079999D01*
X193905238Y-67984761D01*
X194000476Y-67937142D01*
X194190952Y-67889523D01*
X194333810Y-67889523D01*
X194524286Y-67937142D01*
X194619524Y-67984761D01*
X194714762Y-68079999D01*
X194762381Y-68222857D01*
X194762381Y-68460952D01*
X194762381Y-67413333D02*
X194762381Y-67222857D01*
X194714762Y-67127618D01*
X194667143Y-67079999D01*
X194524286Y-66984761D01*
X194333810Y-66937142D01*
X193952857Y-66937142D01*
X193857619Y-66984761D01*
X193810000Y-67032380D01*
X193762381Y-67127618D01*
X193762381Y-67318095D01*
X193810000Y-67413333D01*
X193857619Y-67460952D01*
X193952857Y-67508571D01*
X194190952Y-67508571D01*
X194286190Y-67460952D01*
X194333810Y-67413333D01*
X194381429Y-67318095D01*
X194381429Y-67127618D01*
X194333810Y-67032380D01*
X194286190Y-66984761D01*
X194190952Y-66937142D01*
X203724762Y-98552381D02*
X203248571Y-98552381D01*
X203248571Y-97552381D01*
X204058095Y-98028571D02*
X204391429Y-98028571D01*
X204534286Y-98552381D02*
X204058095Y-98552381D01*
X204058095Y-97552381D01*
X204534286Y-97552381D01*
X204962857Y-98552381D02*
X204962857Y-97552381D01*
X205200952Y-97552381D01*
X205343810Y-97600000D01*
X205439048Y-97695238D01*
X205486667Y-97790476D01*
X205534286Y-97980952D01*
X205534286Y-98123810D01*
X205486667Y-98314286D01*
X205439048Y-98409524D01*
X205343810Y-98504762D01*
X205200952Y-98552381D01*
X204962857Y-98552381D01*
X206486667Y-98552381D02*
X205915238Y-98552381D01*
X206200952Y-98552381D02*
X206200952Y-97552381D01*
X206105714Y-97695238D01*
X206010476Y-97790476D01*
X205915238Y-97838095D01*
X207105714Y-97552381D02*
X207200953Y-97552381D01*
X207296191Y-97600000D01*
X207343810Y-97647619D01*
X207391429Y-97742857D01*
X207439048Y-97933333D01*
X207439048Y-98171429D01*
X207391429Y-98361905D01*
X207343810Y-98457143D01*
X207296191Y-98504762D01*
X207200953Y-98552381D01*
X207105714Y-98552381D01*
X207010476Y-98504762D01*
X206962857Y-98457143D01*
X206915238Y-98361905D01*
X206867619Y-98171429D01*
X206867619Y-97933333D01*
X206915238Y-97742857D01*
X206962857Y-97647619D01*
X207010476Y-97600000D01*
X207105714Y-97552381D01*
X191444762Y-132532381D02*
X190968571Y-132532381D01*
X190968571Y-131532381D01*
X191778095Y-132008571D02*
X192111429Y-132008571D01*
X192254286Y-132532381D02*
X191778095Y-132532381D01*
X191778095Y-131532381D01*
X192254286Y-131532381D01*
X192682857Y-132532381D02*
X192682857Y-131532381D01*
X192920952Y-131532381D01*
X193063810Y-131580000D01*
X193159048Y-131675238D01*
X193206667Y-131770476D01*
X193254286Y-131960952D01*
X193254286Y-132103810D01*
X193206667Y-132294286D01*
X193159048Y-132389524D01*
X193063810Y-132484762D01*
X192920952Y-132532381D01*
X192682857Y-132532381D01*
X194206667Y-132532381D02*
X193635238Y-132532381D01*
X193920952Y-132532381D02*
X193920952Y-131532381D01*
X193825714Y-131675238D01*
X193730476Y-131770476D01*
X193635238Y-131818095D01*
X195159048Y-132532381D02*
X194587619Y-132532381D01*
X194873333Y-132532381D02*
X194873333Y-131532381D01*
X194778095Y-131675238D01*
X194682857Y-131770476D01*
X194587619Y-131818095D01*
X174224762Y-148052381D02*
X173748571Y-148052381D01*
X173748571Y-147052381D01*
X174558095Y-147528571D02*
X174891429Y-147528571D01*
X175034286Y-148052381D02*
X174558095Y-148052381D01*
X174558095Y-147052381D01*
X175034286Y-147052381D01*
X175462857Y-148052381D02*
X175462857Y-147052381D01*
X175700952Y-147052381D01*
X175843810Y-147100000D01*
X175939048Y-147195238D01*
X175986667Y-147290476D01*
X176034286Y-147480952D01*
X176034286Y-147623810D01*
X175986667Y-147814286D01*
X175939048Y-147909524D01*
X175843810Y-148004762D01*
X175700952Y-148052381D01*
X175462857Y-148052381D01*
X176986667Y-148052381D02*
X176415238Y-148052381D01*
X176700952Y-148052381D02*
X176700952Y-147052381D01*
X176605714Y-147195238D01*
X176510476Y-147290476D01*
X176415238Y-147338095D01*
X177367619Y-147147619D02*
X177415238Y-147100000D01*
X177510476Y-147052381D01*
X177748572Y-147052381D01*
X177843810Y-147100000D01*
X177891429Y-147147619D01*
X177939048Y-147242857D01*
X177939048Y-147338095D01*
X177891429Y-147480952D01*
X177320000Y-148052381D01*
X177939048Y-148052381D01*
X154217619Y-175355238D02*
X154170000Y-175450476D01*
X154074762Y-175545714D01*
X153931905Y-175688571D01*
X153884286Y-175783810D01*
X153884286Y-175879048D01*
X154122381Y-175831429D02*
X154074762Y-175926667D01*
X153979524Y-176021905D01*
X153789048Y-176069524D01*
X153455714Y-176069524D01*
X153265238Y-176021905D01*
X153170000Y-175926667D01*
X153122381Y-175831429D01*
X153122381Y-175640952D01*
X153170000Y-175545714D01*
X153265238Y-175450476D01*
X153455714Y-175402857D01*
X153789048Y-175402857D01*
X153979524Y-175450476D01*
X154074762Y-175545714D01*
X154122381Y-175640952D01*
X154122381Y-175831429D01*
X154122381Y-174450476D02*
X154122381Y-175021905D01*
X154122381Y-174736191D02*
X153122381Y-174736191D01*
X153265238Y-174831429D01*
X153360476Y-174926667D01*
X153408095Y-175021905D01*
X144867307Y-171746440D02*
X144819688Y-171841678D01*
X144724450Y-171936916D01*
X144581593Y-172079773D01*
X144533974Y-172175012D01*
X144533974Y-172270250D01*
X144772069Y-172222631D02*
X144724450Y-172317869D01*
X144629212Y-172413107D01*
X144438736Y-172460726D01*
X144105402Y-172460726D01*
X143914926Y-172413107D01*
X143819688Y-172317869D01*
X143772069Y-172222631D01*
X143772069Y-172032154D01*
X143819688Y-171936916D01*
X143914926Y-171841678D01*
X144105402Y-171794059D01*
X144438736Y-171794059D01*
X144629212Y-171841678D01*
X144724450Y-171936916D01*
X144772069Y-172032154D01*
X144772069Y-172222631D01*
X143867307Y-171413107D02*
X143819688Y-171365488D01*
X143772069Y-171270250D01*
X143772069Y-171032154D01*
X143819688Y-170936916D01*
X143867307Y-170889297D01*
X143962545Y-170841678D01*
X144057783Y-170841678D01*
X144200640Y-170889297D01*
X144772069Y-171460726D01*
X144772069Y-170841678D01*
X148931334Y-181882381D02*
X148598000Y-181406190D01*
X148359905Y-181882381D02*
X148359905Y-180882381D01*
X148740858Y-180882381D01*
X148836096Y-180930000D01*
X148883715Y-180977619D01*
X148931334Y-181072857D01*
X148931334Y-181215714D01*
X148883715Y-181310952D01*
X148836096Y-181358571D01*
X148740858Y-181406190D01*
X148359905Y-181406190D01*
X149883715Y-181882381D02*
X149312286Y-181882381D01*
X149598000Y-181882381D02*
X149598000Y-180882381D01*
X149502762Y-181025238D01*
X149407524Y-181120476D01*
X149312286Y-181168095D01*
X150058381Y-185840666D02*
X149582190Y-186174000D01*
X150058381Y-186412095D02*
X149058381Y-186412095D01*
X149058381Y-186031142D01*
X149106000Y-185935904D01*
X149153619Y-185888285D01*
X149248857Y-185840666D01*
X149391714Y-185840666D01*
X149486952Y-185888285D01*
X149534571Y-185935904D01*
X149582190Y-186031142D01*
X149582190Y-186412095D01*
X149153619Y-185459714D02*
X149106000Y-185412095D01*
X149058381Y-185316857D01*
X149058381Y-185078761D01*
X149106000Y-184983523D01*
X149153619Y-184935904D01*
X149248857Y-184888285D01*
X149344095Y-184888285D01*
X149486952Y-184935904D01*
X150058381Y-185507333D01*
X150058381Y-184888285D01*
X155789334Y-168854381D02*
X155456000Y-168378190D01*
X155217905Y-168854381D02*
X155217905Y-167854381D01*
X155598858Y-167854381D01*
X155694096Y-167902000D01*
X155741715Y-167949619D01*
X155789334Y-168044857D01*
X155789334Y-168187714D01*
X155741715Y-168282952D01*
X155694096Y-168330571D01*
X155598858Y-168378190D01*
X155217905Y-168378190D01*
X156122667Y-167854381D02*
X156741715Y-167854381D01*
X156408381Y-168235333D01*
X156551239Y-168235333D01*
X156646477Y-168282952D01*
X156694096Y-168330571D01*
X156741715Y-168425810D01*
X156741715Y-168663905D01*
X156694096Y-168759143D01*
X156646477Y-168806762D01*
X156551239Y-168854381D01*
X156265524Y-168854381D01*
X156170286Y-168806762D01*
X156122667Y-168759143D01*
X143343334Y-179522381D02*
X143010000Y-179046190D01*
X142771905Y-179522381D02*
X142771905Y-178522381D01*
X143152858Y-178522381D01*
X143248096Y-178570000D01*
X143295715Y-178617619D01*
X143343334Y-178712857D01*
X143343334Y-178855714D01*
X143295715Y-178950952D01*
X143248096Y-178998571D01*
X143152858Y-179046190D01*
X142771905Y-179046190D01*
X144200477Y-178855714D02*
X144200477Y-179522381D01*
X143962381Y-178474762D02*
X143724286Y-179189048D01*
X144343334Y-179189048D01*
X154630381Y-177712666D02*
X154154190Y-178046000D01*
X154630381Y-178284095D02*
X153630381Y-178284095D01*
X153630381Y-177903142D01*
X153678000Y-177807904D01*
X153725619Y-177760285D01*
X153820857Y-177712666D01*
X153963714Y-177712666D01*
X154058952Y-177760285D01*
X154106571Y-177807904D01*
X154154190Y-177903142D01*
X154154190Y-178284095D01*
X153630381Y-176807904D02*
X153630381Y-177284095D01*
X154106571Y-177331714D01*
X154058952Y-177284095D01*
X154011333Y-177188857D01*
X154011333Y-176950761D01*
X154058952Y-176855523D01*
X154106571Y-176807904D01*
X154201810Y-176760285D01*
X154439905Y-176760285D01*
X154535143Y-176807904D01*
X154582762Y-176855523D01*
X154630381Y-176950761D01*
X154630381Y-177188857D01*
X154582762Y-177284095D01*
X154535143Y-177331714D01*
X163028334Y-172537381D02*
X162695000Y-172061190D01*
X162456905Y-172537381D02*
X162456905Y-171537381D01*
X162837858Y-171537381D01*
X162933096Y-171585000D01*
X162980715Y-171632619D01*
X163028334Y-171727857D01*
X163028334Y-171870714D01*
X162980715Y-171965952D01*
X162933096Y-172013571D01*
X162837858Y-172061190D01*
X162456905Y-172061190D01*
X163361667Y-171537381D02*
X164028334Y-171537381D01*
X163599762Y-172537381D01*
X160488334Y-172537381D02*
X160155000Y-172061190D01*
X159916905Y-172537381D02*
X159916905Y-171537381D01*
X160297858Y-171537381D01*
X160393096Y-171585000D01*
X160440715Y-171632619D01*
X160488334Y-171727857D01*
X160488334Y-171870714D01*
X160440715Y-171965952D01*
X160393096Y-172013571D01*
X160297858Y-172061190D01*
X159916905Y-172061190D01*
X161059762Y-171965952D02*
X160964524Y-171918333D01*
X160916905Y-171870714D01*
X160869286Y-171775476D01*
X160869286Y-171727857D01*
X160916905Y-171632619D01*
X160964524Y-171585000D01*
X161059762Y-171537381D01*
X161250239Y-171537381D01*
X161345477Y-171585000D01*
X161393096Y-171632619D01*
X161440715Y-171727857D01*
X161440715Y-171775476D01*
X161393096Y-171870714D01*
X161345477Y-171918333D01*
X161250239Y-171965952D01*
X161059762Y-171965952D01*
X160964524Y-172013571D01*
X160916905Y-172061190D01*
X160869286Y-172156429D01*
X160869286Y-172346905D01*
X160916905Y-172442143D01*
X160964524Y-172489762D01*
X161059762Y-172537381D01*
X161250239Y-172537381D01*
X161345477Y-172489762D01*
X161393096Y-172442143D01*
X161440715Y-172346905D01*
X161440715Y-172156429D01*
X161393096Y-172061190D01*
X161345477Y-172013571D01*
X161250239Y-171965952D01*
X161234381Y-184316666D02*
X160758190Y-184650000D01*
X161234381Y-184888095D02*
X160234381Y-184888095D01*
X160234381Y-184507142D01*
X160282000Y-184411904D01*
X160329619Y-184364285D01*
X160424857Y-184316666D01*
X160567714Y-184316666D01*
X160662952Y-184364285D01*
X160710571Y-184411904D01*
X160758190Y-184507142D01*
X160758190Y-184888095D01*
X161234381Y-183840476D02*
X161234381Y-183650000D01*
X161186762Y-183554761D01*
X161139143Y-183507142D01*
X160996286Y-183411904D01*
X160805810Y-183364285D01*
X160424857Y-183364285D01*
X160329619Y-183411904D01*
X160282000Y-183459523D01*
X160234381Y-183554761D01*
X160234381Y-183745238D01*
X160282000Y-183840476D01*
X160329619Y-183888095D01*
X160424857Y-183935714D01*
X160662952Y-183935714D01*
X160758190Y-183888095D01*
X160805810Y-183840476D01*
X160853429Y-183745238D01*
X160853429Y-183554761D01*
X160805810Y-183459523D01*
X160758190Y-183411904D01*
X160662952Y-183364285D01*
X163949143Y-187904381D02*
X163615809Y-187428190D01*
X163377714Y-187904381D02*
X163377714Y-186904381D01*
X163758667Y-186904381D01*
X163853905Y-186952000D01*
X163901524Y-186999619D01*
X163949143Y-187094857D01*
X163949143Y-187237714D01*
X163901524Y-187332952D01*
X163853905Y-187380571D01*
X163758667Y-187428190D01*
X163377714Y-187428190D01*
X164901524Y-187904381D02*
X164330095Y-187904381D01*
X164615809Y-187904381D02*
X164615809Y-186904381D01*
X164520571Y-187047238D01*
X164425333Y-187142476D01*
X164330095Y-187190095D01*
X165520571Y-186904381D02*
X165615810Y-186904381D01*
X165711048Y-186952000D01*
X165758667Y-186999619D01*
X165806286Y-187094857D01*
X165853905Y-187285333D01*
X165853905Y-187523429D01*
X165806286Y-187713905D01*
X165758667Y-187809143D01*
X165711048Y-187856762D01*
X165615810Y-187904381D01*
X165520571Y-187904381D01*
X165425333Y-187856762D01*
X165377714Y-187809143D01*
X165330095Y-187713905D01*
X165282476Y-187523429D01*
X165282476Y-187285333D01*
X165330095Y-187094857D01*
X165377714Y-186999619D01*
X165425333Y-186952000D01*
X165520571Y-186904381D01*
X156583143Y-184528381D02*
X156249809Y-184052190D01*
X156011714Y-184528381D02*
X156011714Y-183528381D01*
X156392667Y-183528381D01*
X156487905Y-183576000D01*
X156535524Y-183623619D01*
X156583143Y-183718857D01*
X156583143Y-183861714D01*
X156535524Y-183956952D01*
X156487905Y-184004571D01*
X156392667Y-184052190D01*
X156011714Y-184052190D01*
X157535524Y-184528381D02*
X156964095Y-184528381D01*
X157249809Y-184528381D02*
X157249809Y-183528381D01*
X157154571Y-183671238D01*
X157059333Y-183766476D01*
X156964095Y-183814095D01*
X158487905Y-184528381D02*
X157916476Y-184528381D01*
X158202190Y-184528381D02*
X158202190Y-183528381D01*
X158106952Y-183671238D01*
X158011714Y-183766476D01*
X157916476Y-183814095D01*
X166076381Y-177475333D02*
X166885905Y-177475333D01*
X166981143Y-177427714D01*
X167028762Y-177380095D01*
X167076381Y-177284857D01*
X167076381Y-177094380D01*
X167028762Y-176999142D01*
X166981143Y-176951523D01*
X166885905Y-176903904D01*
X166076381Y-176903904D01*
X166171619Y-176475333D02*
X166124000Y-176427714D01*
X166076381Y-176332476D01*
X166076381Y-176094380D01*
X166124000Y-175999142D01*
X166171619Y-175951523D01*
X166266857Y-175903904D01*
X166362095Y-175903904D01*
X166504952Y-175951523D01*
X167076381Y-176522952D01*
X167076381Y-175903904D01*
X159885143Y-181713143D02*
X159837524Y-181760762D01*
X159694667Y-181808381D01*
X159599429Y-181808381D01*
X159456571Y-181760762D01*
X159361333Y-181665524D01*
X159313714Y-181570286D01*
X159266095Y-181379810D01*
X159266095Y-181236952D01*
X159313714Y-181046476D01*
X159361333Y-180951238D01*
X159456571Y-180856000D01*
X159599429Y-180808381D01*
X159694667Y-180808381D01*
X159837524Y-180856000D01*
X159885143Y-180903619D01*
X160837524Y-181808381D02*
X160266095Y-181808381D01*
X160551809Y-181808381D02*
X160551809Y-180808381D01*
X160456571Y-180951238D01*
X160361333Y-181046476D01*
X160266095Y-181094095D01*
X161313714Y-181808381D02*
X161504190Y-181808381D01*
X161599429Y-181760762D01*
X161647048Y-181713143D01*
X161742286Y-181570286D01*
X161789905Y-181379810D01*
X161789905Y-180998857D01*
X161742286Y-180903619D01*
X161694667Y-180856000D01*
X161599429Y-180808381D01*
X161408952Y-180808381D01*
X161313714Y-180856000D01*
X161266095Y-180903619D01*
X161218476Y-180998857D01*
X161218476Y-181236952D01*
X161266095Y-181332190D01*
X161313714Y-181379810D01*
X161408952Y-181427429D01*
X161599429Y-181427429D01*
X161694667Y-181379810D01*
X161742286Y-181332190D01*
X161789905Y-181236952D01*
X139446096Y-154440000D02*
X139350858Y-154392381D01*
X139208001Y-154392381D01*
X139065143Y-154440000D01*
X138969905Y-154535238D01*
X138922286Y-154630476D01*
X138874667Y-154820952D01*
X138874667Y-154963810D01*
X138922286Y-155154286D01*
X138969905Y-155249524D01*
X139065143Y-155344762D01*
X139208001Y-155392381D01*
X139303239Y-155392381D01*
X139446096Y-155344762D01*
X139493715Y-155297143D01*
X139493715Y-154963810D01*
X139303239Y-154963810D01*
X139922286Y-155392381D02*
X139922286Y-154392381D01*
X140493715Y-155392381D01*
X140493715Y-154392381D01*
X140969905Y-155392381D02*
X140969905Y-154392381D01*
X141208000Y-154392381D01*
X141350858Y-154440000D01*
X141446096Y-154535238D01*
X141493715Y-154630476D01*
X141541334Y-154820952D01*
X141541334Y-154963810D01*
X141493715Y-155154286D01*
X141446096Y-155249524D01*
X141350858Y-155344762D01*
X141208000Y-155392381D01*
X140969905Y-155392381D01*
X128262381Y-180800238D02*
X129262381Y-180466905D01*
X128262381Y-180133571D01*
X129262381Y-179800238D02*
X128262381Y-179800238D01*
X129262381Y-179324048D02*
X128262381Y-179324048D01*
X129262381Y-178752619D01*
X128262381Y-178752619D01*
X141414667Y-162552381D02*
X141748000Y-163552381D01*
X142081334Y-162552381D01*
X142986096Y-163457143D02*
X142938477Y-163504762D01*
X142795620Y-163552381D01*
X142700382Y-163552381D01*
X142557524Y-163504762D01*
X142462286Y-163409524D01*
X142414667Y-163314286D01*
X142367048Y-163123810D01*
X142367048Y-162980952D01*
X142414667Y-162790476D01*
X142462286Y-162695238D01*
X142557524Y-162600000D01*
X142700382Y-162552381D01*
X142795620Y-162552381D01*
X142938477Y-162600000D01*
X142986096Y-162647619D01*
X143986096Y-163457143D02*
X143938477Y-163504762D01*
X143795620Y-163552381D01*
X143700382Y-163552381D01*
X143557524Y-163504762D01*
X143462286Y-163409524D01*
X143414667Y-163314286D01*
X143367048Y-163123810D01*
X143367048Y-162980952D01*
X143414667Y-162790476D01*
X143462286Y-162695238D01*
X143557524Y-162600000D01*
X143700382Y-162552381D01*
X143795620Y-162552381D01*
X143938477Y-162600000D01*
X143986096Y-162647619D01*
X130111667Y-160012381D02*
X130445000Y-161012381D01*
X130778334Y-160012381D01*
X131111667Y-161012381D02*
X131111667Y-160012381D01*
X131349762Y-160012381D01*
X131492620Y-160060000D01*
X131587858Y-160155238D01*
X131635477Y-160250476D01*
X131683096Y-160440952D01*
X131683096Y-160583810D01*
X131635477Y-160774286D01*
X131587858Y-160869524D01*
X131492620Y-160964762D01*
X131349762Y-161012381D01*
X131111667Y-161012381D01*
X132111667Y-161012381D02*
X132111667Y-160012381D01*
X132349762Y-160012381D01*
X132492620Y-160060000D01*
X132587858Y-160155238D01*
X132635477Y-160250476D01*
X132683096Y-160440952D01*
X132683096Y-160583810D01*
X132635477Y-160774286D01*
X132587858Y-160869524D01*
X132492620Y-160964762D01*
X132349762Y-161012381D01*
X132111667Y-161012381D01*
X166584381Y-188110476D02*
X167584381Y-187872381D01*
X166870095Y-187681904D01*
X167584381Y-187491428D01*
X166584381Y-187253333D01*
X167584381Y-186872381D02*
X166584381Y-186872381D01*
X167060571Y-186872381D02*
X167060571Y-186300952D01*
X167584381Y-186300952D02*
X166584381Y-186300952D01*
X166584381Y-185967619D02*
X166584381Y-185396190D01*
X167584381Y-185681905D02*
X166584381Y-185681905D01*
X167679619Y-185300952D02*
X167679619Y-184539047D01*
X167060571Y-184300952D02*
X167060571Y-183967618D01*
X167584381Y-183824761D02*
X167584381Y-184300952D01*
X166584381Y-184300952D01*
X166584381Y-183824761D01*
X167584381Y-183396190D02*
X166584381Y-183396190D01*
X167584381Y-182824761D01*
X166584381Y-182824761D01*
X151554381Y-159206333D02*
X152268667Y-159206333D01*
X152411524Y-159253953D01*
X152506762Y-159349191D01*
X152554381Y-159492048D01*
X152554381Y-159587286D01*
X152554381Y-158682524D02*
X152554381Y-158492048D01*
X152506762Y-158396809D01*
X152459143Y-158349190D01*
X152316286Y-158253952D01*
X152125810Y-158206333D01*
X151744857Y-158206333D01*
X151649619Y-158253952D01*
X151602000Y-158301571D01*
X151554381Y-158396809D01*
X151554381Y-158587286D01*
X151602000Y-158682524D01*
X151649619Y-158730143D01*
X151744857Y-158777762D01*
X151982952Y-158777762D01*
X152078190Y-158730143D01*
X152125810Y-158682524D01*
X152173429Y-158587286D01*
X152173429Y-158396809D01*
X152125810Y-158301571D01*
X152078190Y-158253952D01*
X151982952Y-158206333D01*
X165092191Y-163520381D02*
X165092191Y-162520381D01*
X165330286Y-162520381D01*
X165473144Y-162568000D01*
X165568382Y-162663238D01*
X165616001Y-162758476D01*
X165663620Y-162948952D01*
X165663620Y-163091810D01*
X165616001Y-163282286D01*
X165568382Y-163377524D01*
X165473144Y-163472762D01*
X165330286Y-163520381D01*
X165092191Y-163520381D01*
X166092191Y-163520381D02*
X166092191Y-162520381D01*
X166568381Y-163520381D02*
X166568381Y-162520381D01*
X167139810Y-163520381D01*
X167139810Y-162520381D01*
X160361524Y-163520381D02*
X160361524Y-162520381D01*
X160599619Y-162520381D01*
X160742477Y-162568000D01*
X160837715Y-162663238D01*
X160885334Y-162758476D01*
X160932953Y-162948952D01*
X160932953Y-163091810D01*
X160885334Y-163282286D01*
X160837715Y-163377524D01*
X160742477Y-163472762D01*
X160599619Y-163520381D01*
X160361524Y-163520381D01*
X161552000Y-162520381D02*
X161742477Y-162520381D01*
X161837715Y-162568000D01*
X161932953Y-162663238D01*
X161980572Y-162853714D01*
X161980572Y-163187048D01*
X161932953Y-163377524D01*
X161837715Y-163472762D01*
X161742477Y-163520381D01*
X161552000Y-163520381D01*
X161456762Y-163472762D01*
X161361524Y-163377524D01*
X161313905Y-163187048D01*
X161313905Y-162853714D01*
X161361524Y-162663238D01*
X161456762Y-162568000D01*
X161552000Y-162520381D01*
X162409143Y-162520381D02*
X162409143Y-163329905D01*
X162456762Y-163425143D01*
X162504381Y-163472762D01*
X162599619Y-163520381D01*
X162790096Y-163520381D01*
X162885334Y-163472762D01*
X162932953Y-163425143D01*
X162980572Y-163329905D01*
X162980572Y-162520381D01*
X163313905Y-162520381D02*
X163885334Y-162520381D01*
X163599619Y-163520381D02*
X163599619Y-162520381D01*
X156448381Y-165806381D02*
X156115047Y-165330190D01*
X155876952Y-165806381D02*
X155876952Y-164806381D01*
X156257905Y-164806381D01*
X156353143Y-164854000D01*
X156400762Y-164901619D01*
X156448381Y-164996857D01*
X156448381Y-165139714D01*
X156400762Y-165234952D01*
X156353143Y-165282571D01*
X156257905Y-165330190D01*
X155876952Y-165330190D01*
X157400762Y-164854000D02*
X157305524Y-164806381D01*
X157162667Y-164806381D01*
X157019809Y-164854000D01*
X156924571Y-164949238D01*
X156876952Y-165044476D01*
X156829333Y-165234952D01*
X156829333Y-165377810D01*
X156876952Y-165568286D01*
X156924571Y-165663524D01*
X157019809Y-165758762D01*
X157162667Y-165806381D01*
X157257905Y-165806381D01*
X157400762Y-165758762D01*
X157448381Y-165711143D01*
X157448381Y-165377810D01*
X157257905Y-165377810D01*
X158210286Y-165282571D02*
X158353143Y-165330190D01*
X158400762Y-165377810D01*
X158448381Y-165473048D01*
X158448381Y-165615905D01*
X158400762Y-165711143D01*
X158353143Y-165758762D01*
X158257905Y-165806381D01*
X157876952Y-165806381D01*
X157876952Y-164806381D01*
X158210286Y-164806381D01*
X158305524Y-164854000D01*
X158353143Y-164901619D01*
X158400762Y-164996857D01*
X158400762Y-165092095D01*
X158353143Y-165187333D01*
X158305524Y-165234952D01*
X158210286Y-165282571D01*
X157876952Y-165282571D01*
X158638857Y-165901619D02*
X159400762Y-165901619D01*
X159638857Y-165282571D02*
X159972191Y-165282571D01*
X160115048Y-165806381D02*
X159638857Y-165806381D01*
X159638857Y-164806381D01*
X160115048Y-164806381D01*
X160543619Y-165806381D02*
X160543619Y-164806381D01*
X161115048Y-165806381D01*
X161115048Y-164806381D01*
X155591238Y-187158381D02*
X155924571Y-188158381D01*
X156257905Y-187158381D01*
X156591238Y-188158381D02*
X156591238Y-187158381D01*
X157067428Y-188158381D02*
X157067428Y-187158381D01*
X157638857Y-188158381D01*
X157638857Y-187158381D01*
X157876952Y-188253619D02*
X158638857Y-188253619D01*
X158829333Y-187872667D02*
X159305524Y-187872667D01*
X158734095Y-188158381D02*
X159067428Y-187158381D01*
X159400762Y-188158381D01*
X159734095Y-188158381D02*
X159734095Y-187158381D01*
X159972190Y-187158381D01*
X160115048Y-187206000D01*
X160210286Y-187301238D01*
X160257905Y-187396476D01*
X160305524Y-187586952D01*
X160305524Y-187729810D01*
X160257905Y-187920286D01*
X160210286Y-188015524D01*
X160115048Y-188110762D01*
X159972190Y-188158381D01*
X159734095Y-188158381D01*
X161305524Y-188063143D02*
X161257905Y-188110762D01*
X161115048Y-188158381D01*
X161019810Y-188158381D01*
X160876952Y-188110762D01*
X160781714Y-188015524D01*
X160734095Y-187920286D01*
X160686476Y-187729810D01*
X160686476Y-187586952D01*
X160734095Y-187396476D01*
X160781714Y-187301238D01*
X160876952Y-187206000D01*
X161019810Y-187158381D01*
X161115048Y-187158381D01*
X161257905Y-187206000D01*
X161305524Y-187253619D01*
X139565143Y-179522381D02*
X139231809Y-179046190D01*
X138993714Y-179522381D02*
X138993714Y-178522381D01*
X139374667Y-178522381D01*
X139469905Y-178570000D01*
X139517524Y-178617619D01*
X139565143Y-178712857D01*
X139565143Y-178855714D01*
X139517524Y-178950952D01*
X139469905Y-178998571D01*
X139374667Y-179046190D01*
X138993714Y-179046190D01*
X140517524Y-179522381D02*
X139946095Y-179522381D01*
X140231809Y-179522381D02*
X140231809Y-178522381D01*
X140136571Y-178665238D01*
X140041333Y-178760476D01*
X139946095Y-178808095D01*
X140898476Y-178617619D02*
X140946095Y-178570000D01*
X141041333Y-178522381D01*
X141279429Y-178522381D01*
X141374667Y-178570000D01*
X141422286Y-178617619D01*
X141469905Y-178712857D01*
X141469905Y-178808095D01*
X141422286Y-178950952D01*
X140850857Y-179522381D01*
X141469905Y-179522381D01*
X150312381Y-180062095D02*
X149312381Y-180062095D01*
X149312381Y-179824000D01*
X149360000Y-179681142D01*
X149455238Y-179585904D01*
X149550476Y-179538285D01*
X149740952Y-179490666D01*
X149883810Y-179490666D01*
X150074286Y-179538285D01*
X150169524Y-179585904D01*
X150264762Y-179681142D01*
X150312381Y-179824000D01*
X150312381Y-180062095D01*
X150312381Y-179014476D02*
X150312381Y-178824000D01*
X150264762Y-178728761D01*
X150217143Y-178681142D01*
X150074286Y-178585904D01*
X149883810Y-178538285D01*
X149502857Y-178538285D01*
X149407619Y-178585904D01*
X149360000Y-178633523D01*
X149312381Y-178728761D01*
X149312381Y-178919238D01*
X149360000Y-179014476D01*
X149407619Y-179062095D01*
X149502857Y-179109714D01*
X149740952Y-179109714D01*
X149836190Y-179062095D01*
X149883810Y-179014476D01*
X149931429Y-178919238D01*
X149931429Y-178728761D01*
X149883810Y-178633523D01*
X149836190Y-178585904D01*
X149740952Y-178538285D01*
X180879762Y-146597619D02*
X180784524Y-146550000D01*
X180689286Y-146454762D01*
X180546429Y-146311905D01*
X180451190Y-146264286D01*
X180355952Y-146264286D01*
X180403571Y-146502381D02*
X180308333Y-146454762D01*
X180213095Y-146359524D01*
X180165476Y-146169048D01*
X180165476Y-145835714D01*
X180213095Y-145645238D01*
X180308333Y-145550000D01*
X180403571Y-145502381D01*
X180594048Y-145502381D01*
X180689286Y-145550000D01*
X180784524Y-145645238D01*
X180832143Y-145835714D01*
X180832143Y-146169048D01*
X180784524Y-146359524D01*
X180689286Y-146454762D01*
X180594048Y-146502381D01*
X180403571Y-146502381D01*
X181165476Y-145502381D02*
X181784524Y-145502381D01*
X181451190Y-145883333D01*
X181594048Y-145883333D01*
X181689286Y-145930952D01*
X181736905Y-145978571D01*
X181784524Y-146073810D01*
X181784524Y-146311905D01*
X181736905Y-146407143D01*
X181689286Y-146454762D01*
X181594048Y-146502381D01*
X181308333Y-146502381D01*
X181213095Y-146454762D01*
X181165476Y-146407143D01*
X126357143Y-162758381D02*
X126023809Y-162282190D01*
X125785714Y-162758381D02*
X125785714Y-161758381D01*
X126166667Y-161758381D01*
X126261905Y-161806000D01*
X126309524Y-161853619D01*
X126357143Y-161948857D01*
X126357143Y-162091714D01*
X126309524Y-162186952D01*
X126261905Y-162234571D01*
X126166667Y-162282190D01*
X125785714Y-162282190D01*
X127309524Y-162758381D02*
X126738095Y-162758381D01*
X127023809Y-162758381D02*
X127023809Y-161758381D01*
X126928571Y-161901238D01*
X126833333Y-161996476D01*
X126738095Y-162044095D01*
X127642857Y-161758381D02*
X128261905Y-161758381D01*
X127928571Y-162139333D01*
X128071429Y-162139333D01*
X128166667Y-162186952D01*
X128214286Y-162234571D01*
X128261905Y-162329810D01*
X128261905Y-162567905D01*
X128214286Y-162663143D01*
X128166667Y-162710762D01*
X128071429Y-162758381D01*
X127785714Y-162758381D01*
X127690476Y-162710762D01*
X127642857Y-162663143D01*
X181602143Y-154937381D02*
X181268809Y-154461190D01*
X181030714Y-154937381D02*
X181030714Y-153937381D01*
X181411667Y-153937381D01*
X181506905Y-153985000D01*
X181554524Y-154032619D01*
X181602143Y-154127857D01*
X181602143Y-154270714D01*
X181554524Y-154365952D01*
X181506905Y-154413571D01*
X181411667Y-154461190D01*
X181030714Y-154461190D01*
X182554524Y-154937381D02*
X181983095Y-154937381D01*
X182268809Y-154937381D02*
X182268809Y-153937381D01*
X182173571Y-154080238D01*
X182078333Y-154175476D01*
X181983095Y-154223095D01*
X183411667Y-154270714D02*
X183411667Y-154937381D01*
X183173571Y-153889762D02*
X182935476Y-154604048D01*
X183554524Y-154604048D01*
X131981905Y-153852381D02*
X131981905Y-152852381D01*
X132220000Y-152852381D01*
X132362858Y-152900000D01*
X132458096Y-152995238D01*
X132505715Y-153090476D01*
X132553334Y-153280952D01*
X132553334Y-153423810D01*
X132505715Y-153614286D01*
X132458096Y-153709524D01*
X132362858Y-153804762D01*
X132220000Y-153852381D01*
X131981905Y-153852381D01*
X133505715Y-153852381D02*
X132934286Y-153852381D01*
X133220000Y-153852381D02*
X133220000Y-152852381D01*
X133124762Y-152995238D01*
X133029524Y-153090476D01*
X132934286Y-153138095D01*
X127889048Y-159075429D02*
X128650953Y-159075429D01*
X128270001Y-159456381D02*
X128270001Y-158694476D01*
X128143048Y-154821429D02*
X128904953Y-154821429D01*
X106222381Y-142438095D02*
X105222381Y-142438095D01*
X105222381Y-142200000D01*
X105270000Y-142057142D01*
X105365238Y-141961904D01*
X105460476Y-141914285D01*
X105650952Y-141866666D01*
X105793810Y-141866666D01*
X105984286Y-141914285D01*
X106079524Y-141961904D01*
X106174762Y-142057142D01*
X106222381Y-142200000D01*
X106222381Y-142438095D01*
X105317619Y-141485714D02*
X105270000Y-141438095D01*
X105222381Y-141342857D01*
X105222381Y-141104761D01*
X105270000Y-141009523D01*
X105317619Y-140961904D01*
X105412857Y-140914285D01*
X105508095Y-140914285D01*
X105650952Y-140961904D01*
X106222381Y-141533333D01*
X106222381Y-140914285D01*
X112593429Y-144906952D02*
X112593429Y-144145047D01*
X112974381Y-144525999D02*
X112212476Y-144525999D01*
X106243429Y-144906952D02*
X106243429Y-144145047D01*
X90981905Y-84352381D02*
X90981905Y-83352381D01*
X91220000Y-83352381D01*
X91362858Y-83400000D01*
X91458096Y-83495238D01*
X91505715Y-83590476D01*
X91553334Y-83780952D01*
X91553334Y-83923810D01*
X91505715Y-84114286D01*
X91458096Y-84209524D01*
X91362858Y-84304762D01*
X91220000Y-84352381D01*
X90981905Y-84352381D01*
X91886667Y-83352381D02*
X92505715Y-83352381D01*
X92172381Y-83733333D01*
X92315239Y-83733333D01*
X92410477Y-83780952D01*
X92458096Y-83828571D01*
X92505715Y-83923810D01*
X92505715Y-84161905D01*
X92458096Y-84257143D01*
X92410477Y-84304762D01*
X92315239Y-84352381D01*
X92029524Y-84352381D01*
X91934286Y-84304762D01*
X91886667Y-84257143D01*
X88519048Y-90876429D02*
X89280953Y-90876429D01*
X88900001Y-91257381D02*
X88900001Y-90495476D01*
X88519048Y-83891429D02*
X89280953Y-83891429D01*
X105481905Y-59352381D02*
X105481905Y-58352381D01*
X105720000Y-58352381D01*
X105862858Y-58400000D01*
X105958096Y-58495238D01*
X106005715Y-58590476D01*
X106053334Y-58780952D01*
X106053334Y-58923810D01*
X106005715Y-59114286D01*
X105958096Y-59209524D01*
X105862858Y-59304762D01*
X105720000Y-59352381D01*
X105481905Y-59352381D01*
X106910477Y-58685714D02*
X106910477Y-59352381D01*
X106672381Y-58304762D02*
X106434286Y-59019048D01*
X107053334Y-59019048D01*
X103124048Y-66111429D02*
X103885953Y-66111429D01*
X103505001Y-66492381D02*
X103505001Y-65730476D01*
X103124048Y-59126429D02*
X103885953Y-59126429D01*
X159681905Y-52102381D02*
X159681905Y-51102381D01*
X159920000Y-51102381D01*
X160062858Y-51150000D01*
X160158096Y-51245238D01*
X160205715Y-51340476D01*
X160253334Y-51530952D01*
X160253334Y-51673810D01*
X160205715Y-51864286D01*
X160158096Y-51959524D01*
X160062858Y-52054762D01*
X159920000Y-52102381D01*
X159681905Y-52102381D01*
X161158096Y-51102381D02*
X160681905Y-51102381D01*
X160634286Y-51578571D01*
X160681905Y-51530952D01*
X160777143Y-51483333D01*
X161015239Y-51483333D01*
X161110477Y-51530952D01*
X161158096Y-51578571D01*
X161205715Y-51673810D01*
X161205715Y-51911905D01*
X161158096Y-52007143D01*
X161110477Y-52054762D01*
X161015239Y-52102381D01*
X160777143Y-52102381D01*
X160681905Y-52054762D01*
X160634286Y-52007143D01*
X162814048Y-44521429D02*
X163575953Y-44521429D01*
X163195001Y-44902381D02*
X163195001Y-44140476D01*
X162814048Y-51506429D02*
X163575953Y-51506429D01*
X186681905Y-65952381D02*
X186681905Y-64952381D01*
X186920000Y-64952381D01*
X187062858Y-65000000D01*
X187158096Y-65095238D01*
X187205715Y-65190476D01*
X187253334Y-65380952D01*
X187253334Y-65523810D01*
X187205715Y-65714286D01*
X187158096Y-65809524D01*
X187062858Y-65904762D01*
X186920000Y-65952381D01*
X186681905Y-65952381D01*
X188110477Y-64952381D02*
X187920000Y-64952381D01*
X187824762Y-65000000D01*
X187777143Y-65047619D01*
X187681905Y-65190476D01*
X187634286Y-65380952D01*
X187634286Y-65761905D01*
X187681905Y-65857143D01*
X187729524Y-65904762D01*
X187824762Y-65952381D01*
X188015239Y-65952381D01*
X188110477Y-65904762D01*
X188158096Y-65857143D01*
X188205715Y-65761905D01*
X188205715Y-65523810D01*
X188158096Y-65428571D01*
X188110477Y-65380952D01*
X188015239Y-65333333D01*
X187824762Y-65333333D01*
X187729524Y-65380952D01*
X187681905Y-65428571D01*
X187634286Y-65523810D01*
X190119048Y-58491429D02*
X190880953Y-58491429D01*
X190500001Y-58872381D02*
X190500001Y-58110476D01*
X190119048Y-65476429D02*
X190880953Y-65476429D01*
X202681905Y-120102381D02*
X202681905Y-119102381D01*
X202920000Y-119102381D01*
X203062858Y-119150000D01*
X203158096Y-119245238D01*
X203205715Y-119340476D01*
X203253334Y-119530952D01*
X203253334Y-119673810D01*
X203205715Y-119864286D01*
X203158096Y-119959524D01*
X203062858Y-120054762D01*
X202920000Y-120102381D01*
X202681905Y-120102381D01*
X203586667Y-119102381D02*
X204253334Y-119102381D01*
X203824762Y-120102381D01*
X205994048Y-112466429D02*
X206755953Y-112466429D01*
X206375001Y-112847381D02*
X206375001Y-112085476D01*
X205994048Y-119451429D02*
X206755953Y-119451429D01*
X187181905Y-139517381D02*
X187181905Y-138517381D01*
X187420000Y-138517381D01*
X187562858Y-138565000D01*
X187658096Y-138660238D01*
X187705715Y-138755476D01*
X187753334Y-138945952D01*
X187753334Y-139088810D01*
X187705715Y-139279286D01*
X187658096Y-139374524D01*
X187562858Y-139469762D01*
X187420000Y-139517381D01*
X187181905Y-139517381D01*
X188324762Y-138945952D02*
X188229524Y-138898333D01*
X188181905Y-138850714D01*
X188134286Y-138755476D01*
X188134286Y-138707857D01*
X188181905Y-138612619D01*
X188229524Y-138565000D01*
X188324762Y-138517381D01*
X188515239Y-138517381D01*
X188610477Y-138565000D01*
X188658096Y-138612619D01*
X188705715Y-138707857D01*
X188705715Y-138755476D01*
X188658096Y-138850714D01*
X188610477Y-138898333D01*
X188515239Y-138945952D01*
X188324762Y-138945952D01*
X188229524Y-138993571D01*
X188181905Y-139041190D01*
X188134286Y-139136429D01*
X188134286Y-139326905D01*
X188181905Y-139422143D01*
X188229524Y-139469762D01*
X188324762Y-139517381D01*
X188515239Y-139517381D01*
X188610477Y-139469762D01*
X188658096Y-139422143D01*
X188705715Y-139326905D01*
X188705715Y-139136429D01*
X188658096Y-139041190D01*
X188610477Y-138993571D01*
X188515239Y-138945952D01*
X190689048Y-139136429D02*
X191450953Y-139136429D01*
X191070001Y-139517381D02*
X191070001Y-138755476D01*
X190754048Y-146121429D02*
X191515953Y-146121429D01*
M02*
