M48
;DRILL file {KiCad 4.0.7} date 02/08/19 10:13:34
;FORMAT={-:-/ absolute / metric / decimal}
FMAT,2
METRIC,TZ
T1C0.305
T2C3.048
%
G90
G05
M71
T1
X86.36Y-86.36
X86.36Y-87.63
X87.63Y-86.36
X87.63Y-87.63
X88.646Y-105.664
X88.646Y-110.49
X91.948Y-100.584
X95.758Y-128.27
X96.012Y-70.866
X96.266Y-126.746
X97.79Y-67.31
X100.838Y-76.454
X101.6Y-60.96
X101.6Y-62.23
X101.6Y-63.5
X103.124Y-131.572
X106.68Y-146.05
X106.68Y-147.32
X107.95Y-146.05
X107.95Y-147.32
X112.522Y-54.356
X113.792Y-152.146
X114.808Y-50.8
X115.062Y-148.844
X120.142Y-54.102
X123.444Y-152.146
X127.Y-156.21
X127.Y-157.48
X128.27Y-156.21
X128.27Y-157.48
X132.207Y-169.291
X133.858Y-166.751
X135.636Y-178.308
X135.763Y-169.926
X136.652Y-178.308
X136.779Y-169.926
X137.16Y-46.482
X137.16Y-156.21
X137.16Y-157.48
X137.668Y-179.07
X137.668Y-180.34
X137.922Y-169.926
X138.43Y-156.21
X138.43Y-157.48
X142.748Y-46.482
X142.748Y-156.972
X142.748Y-165.1
X146.812Y-168.148
X148.082Y-49.784
X148.844Y-166.37
X148.844Y-168.148
X148.844Y-170.18
X149.352Y-187.198
X150.114Y-163.322
X150.114Y-180.848
X150.876Y-168.148
X153.924Y-171.45
X154.94Y-48.26
X154.94Y-49.53
X156.21Y-48.26
X156.21Y-49.53
X158.496Y-157.226
X159.512Y-178.562
X165.1Y-45.72
X165.1Y-46.99
X165.1Y-163.322
X166.116Y-179.578
X166.37Y-45.72
X166.37Y-181.61
X167.894Y-49.022
X169.418Y-152.654
X171.196Y-149.352
X171.45Y-158.75
X172.72Y-49.022
X176.53Y-152.654
X177.546Y-52.324
X181.61Y-143.51
X182.88Y-142.24
X182.88Y-143.51
X191.77Y-60.96
X191.77Y-62.23
X191.77Y-125.73
X191.77Y-142.24
X191.77Y-143.51
X193.04Y-60.96
X193.04Y-62.23
X193.04Y-142.24
X193.04Y-143.51
X193.548Y-71.374
X194.818Y-74.93
X195.326Y-123.444
X196.85Y-131.572
X199.39Y-71.628
X199.898Y-103.632
X201.168Y-100.076
X207.01Y-115.57
X207.01Y-116.84
X207.772Y-101.854
X208.28Y-115.57
X208.28Y-116.84
T2
X130.81Y-184.15
X138.43Y-184.15
X146.05Y-184.15
T0
M30
