G04 #@! TF.FileFunction,Soldermask,Top*
%FSLAX46Y46*%
G04 Gerber Fmt 4.6, Leading zero omitted, Abs format (unit mm)*
G04 Created by KiCad (PCBNEW 4.0.7) date 02/08/19 08:23:59*
%MOMM*%
%LPD*%
G01*
G04 APERTURE LIST*
%ADD10C,0.100000*%
%ADD11R,2.400000X4.200000*%
%ADD12R,2.400000X1.900000*%
%ADD13R,1.300000X1.600000*%
%ADD14R,1.900000X1.650000*%
%ADD15R,1.150000X1.600000*%
%ADD16R,1.650000X1.900000*%
%ADD17R,1.600000X1.150000*%
%ADD18C,4.464000*%
%ADD19R,2.000000X1.400000*%
%ADD20R,1.400000X2.000000*%
%ADD21R,1.200000X1.300000*%
%ADD22R,2.400000X3.900000*%
%ADD23R,7.400000X7.400000*%
%ADD24R,1.600000X1.300000*%
%ADD25R,1.000000X1.950000*%
%ADD26C,1.900000*%
%ADD27R,1.400000X2.910000*%
%ADD28R,0.740000X1.440000*%
%ADD29R,2.900000X1.400000*%
%ADD30R,4.400000X2.400000*%
%ADD31R,7.180000X0.900000*%
%ADD32R,7.180000X3.180000*%
%ADD33R,0.900000X7.180000*%
%ADD34R,3.180000X7.180000*%
G04 APERTURE END LIST*
D10*
D11*
X133908000Y-169912000D03*
D12*
X140208000Y-169912000D03*
X140208000Y-167612000D03*
X140208000Y-172212000D03*
D13*
X166053788Y-170233428D03*
X166053788Y-168033428D03*
D14*
X133370000Y-179705000D03*
X135870000Y-179705000D03*
D15*
X158445788Y-174183000D03*
X158445788Y-176083000D03*
D16*
X130792298Y-171839852D03*
X130792298Y-169339852D03*
D15*
X152908000Y-185105000D03*
X152908000Y-187005000D03*
D14*
X139027298Y-165050852D03*
X136527298Y-165050852D03*
X131447298Y-165050852D03*
X133947298Y-165050852D03*
D15*
X153924000Y-167960000D03*
X153924000Y-169860000D03*
X88646000Y-107000000D03*
X88646000Y-108900000D03*
D17*
X140650000Y-46482000D03*
X138750000Y-46482000D03*
D15*
X199898000Y-100142000D03*
X199898000Y-102042000D03*
X113720000Y-148850000D03*
X113720000Y-150750000D03*
X96520000Y-69342000D03*
X96520000Y-67442000D03*
D17*
X171384000Y-49022000D03*
X169484000Y-49022000D03*
X193370000Y-124714000D03*
X195270000Y-124714000D03*
D15*
X94720000Y-126300000D03*
X94720000Y-128200000D03*
X112456000Y-51052000D03*
X112456000Y-52952000D03*
X193548000Y-74864000D03*
X193548000Y-72964000D03*
X169320000Y-149100000D03*
X169320000Y-151000000D03*
D18*
X130810000Y-184150000D03*
X138430000Y-184150000D03*
X146050000Y-184150000D03*
D19*
X144820000Y-157100000D03*
X144820000Y-160300000D03*
X149820000Y-157100000D03*
X149820000Y-160300000D03*
X121520000Y-152000000D03*
X121520000Y-148800000D03*
X116520000Y-152000000D03*
X116520000Y-148800000D03*
X103020000Y-130100000D03*
X103020000Y-126900000D03*
X98020000Y-130100000D03*
X98020000Y-126900000D03*
D20*
X91920000Y-99100000D03*
X88720000Y-99100000D03*
X91920000Y-104100000D03*
X88720000Y-104100000D03*
D19*
X100820000Y-75200000D03*
X100820000Y-72000000D03*
X95820000Y-75200000D03*
X95820000Y-72000000D03*
X121814000Y-54110000D03*
X121814000Y-50910000D03*
X116814000Y-54110000D03*
X116814000Y-50910000D03*
X149820000Y-49810000D03*
X149820000Y-46610000D03*
X144820000Y-49810000D03*
X144820000Y-46610000D03*
X179320000Y-52200000D03*
X179320000Y-49000000D03*
X174320000Y-52200000D03*
X174320000Y-49000000D03*
D20*
X199420000Y-70000000D03*
X196220000Y-70000000D03*
X199420000Y-75000000D03*
X196220000Y-75000000D03*
D19*
X207820000Y-103200000D03*
X207820000Y-100000000D03*
X202820000Y-103200000D03*
X202820000Y-100000000D03*
X196820000Y-130100000D03*
X196820000Y-126900000D03*
X191820000Y-130100000D03*
X191820000Y-126900000D03*
X178320000Y-152700000D03*
X178320000Y-149500000D03*
X173320000Y-152700000D03*
X173320000Y-149500000D03*
D21*
X156652000Y-172542672D03*
X154752000Y-172542672D03*
X155702000Y-174542672D03*
D22*
X146569688Y-175651202D03*
X151149688Y-175651202D03*
D23*
X148869688Y-168251202D03*
D24*
X150538000Y-182880000D03*
X152738000Y-182880000D03*
D13*
X151003000Y-184955000D03*
X151003000Y-187155000D03*
D24*
X158242000Y-170002672D03*
X156042000Y-170002672D03*
D13*
X143510000Y-176995000D03*
X143510000Y-174795000D03*
X155702000Y-179238000D03*
X155702000Y-177038000D03*
X163553788Y-170233428D03*
X163553788Y-168033428D03*
X161053788Y-170233428D03*
X161053788Y-168033428D03*
X162303788Y-183283428D03*
X162303788Y-185483428D03*
X164553788Y-183283428D03*
X164553788Y-185483428D03*
D24*
X158326000Y-182626000D03*
X156126000Y-182626000D03*
D25*
X160985788Y-179413428D03*
X162255788Y-179413428D03*
X163525788Y-179413428D03*
X164795788Y-179413428D03*
X164795788Y-174013428D03*
X163525788Y-174013428D03*
X162255788Y-174013428D03*
X160985788Y-174013428D03*
D15*
X158242000Y-178628000D03*
X158242000Y-180528000D03*
D26*
X140335000Y-156845000D03*
X130810000Y-179705000D03*
X142748000Y-165100000D03*
X131445000Y-162560000D03*
X166370000Y-181610000D03*
D27*
X154432000Y-160528000D03*
X159512000Y-160528000D03*
X164592000Y-160528000D03*
X156972000Y-157218000D03*
X162052000Y-157218000D03*
X167132000Y-157218000D03*
D26*
X165826894Y-164903214D03*
X163286894Y-164903214D03*
X158242000Y-167513000D03*
X158496000Y-185928000D03*
D13*
X140970000Y-176995000D03*
X140970000Y-174795000D03*
D28*
X152400000Y-178782000D03*
X153350000Y-180882000D03*
X151450000Y-180882000D03*
D29*
X183440000Y-147725000D03*
X183440000Y-149225000D03*
X183440000Y-150725000D03*
D30*
X187400000Y-149225000D03*
D10*
G36*
X185625000Y-150425000D02*
X184475000Y-149925000D01*
X184475000Y-148525000D01*
X185625000Y-148025000D01*
X185625000Y-150425000D01*
X185625000Y-150425000D01*
G37*
D13*
X128270000Y-164000000D03*
X128270000Y-166200000D03*
D24*
X183345000Y-153035000D03*
X181145000Y-153035000D03*
D31*
X132820000Y-154800000D03*
X132820000Y-159100000D03*
D32*
X132820000Y-156950000D03*
D33*
X107170000Y-141600000D03*
X111470000Y-141600000D03*
D34*
X109320000Y-141600000D03*
D31*
X91820000Y-85300000D03*
X91820000Y-89600000D03*
D32*
X91820000Y-87450000D03*
D31*
X106320000Y-60300000D03*
X106320000Y-64600000D03*
D32*
X106320000Y-62450000D03*
D31*
X160320000Y-50250000D03*
X160320000Y-45950000D03*
D32*
X160320000Y-48100000D03*
D31*
X187320000Y-64100000D03*
X187320000Y-59800000D03*
D32*
X187320000Y-61950000D03*
D31*
X203320000Y-118250000D03*
X203320000Y-113950000D03*
D32*
X203320000Y-116100000D03*
D31*
X187820000Y-144900000D03*
X187820000Y-140600000D03*
D32*
X187820000Y-142750000D03*
M02*
