G04 #@! TF.FileFunction,Profile,NP*
%FSLAX46Y46*%
G04 Gerber Fmt 4.6, Leading zero omitted, Abs format (unit mm)*
G04 Created by KiCad (PCBNEW 4.0.7) date 02/08/19 10:13:27*
%MOMM*%
%LPD*%
G01*
G04 APERTURE LIST*
%ADD10C,0.100000*%
%ADD11C,0.150000*%
G04 APERTURE END LIST*
D10*
D11*
X95420000Y-139550000D02*
X93770000Y-140600000D01*
X199320000Y-139100000D02*
X200970000Y-140400000D01*
X168570000Y-188850000D02*
X168570000Y-164300000D01*
X126070000Y-188850000D02*
X168570000Y-188850000D01*
X126070000Y-177450000D02*
X126070000Y-188850000D01*
X126070000Y-174050000D02*
X126070000Y-177450000D01*
X126070000Y-170950000D02*
X126070000Y-174050000D01*
X126070000Y-167750000D02*
X126070000Y-170950000D01*
X126070000Y-165300000D02*
X126070000Y-167750000D01*
X126070000Y-164350000D02*
X126070000Y-165300000D01*
X204770000Y-132050000D02*
X205770000Y-132650000D01*
X90320000Y-131600000D02*
X88720000Y-132450000D01*
X142270000Y-37000000D02*
X142270000Y-37100000D01*
X142270000Y-36600000D02*
X142270000Y-37000000D01*
X134670000Y-36600000D02*
X142270000Y-36600000D01*
X159820000Y-36600000D02*
X152320000Y-36600000D01*
X142270371Y-37097519D02*
G75*
G03X152320000Y-36600000I5049629J-252481D01*
G01*
X204740674Y-132039102D02*
G75*
G03X199320000Y-139100000I-2670674J-3560898D01*
G01*
X95436516Y-139524774D02*
G75*
G03X90320000Y-131600000I-2616516J3924774D01*
G01*
X134705727Y-36587981D02*
G75*
G03X88720000Y-132450000I12614273J-65012019D01*
G01*
X93766812Y-140602322D02*
G75*
G03X126070000Y-164350000I53553188J39002322D01*
G01*
X168572202Y-164306510D02*
G75*
G03X200970000Y-140400000I-21252202J62706510D01*
G01*
X205774970Y-132652640D02*
G75*
G03X159820000Y-36600000I-58454970J31052640D01*
G01*
X195820000Y-101600000D02*
G75*
G03X195820000Y-101600000I-48500000J0D01*
G01*
M02*
