G04 #@! TF.FileFunction,Copper,L2,Bot,Plane*
%FSLAX46Y46*%
G04 Gerber Fmt 4.6, Leading zero omitted, Abs format (unit mm)*
G04 Created by KiCad (PCBNEW 4.0.7) date 02/08/19 08:23:58*
%MOMM*%
%LPD*%
G01*
G04 APERTURE LIST*
%ADD10C,0.100000*%
%ADD11C,0.558800*%
%ADD12C,4.064000*%
%ADD13C,0.635000*%
%ADD14C,0.304800*%
%ADD15C,0.254000*%
G04 APERTURE END LIST*
D10*
D11*
X181610000Y-143510000D03*
X182880000Y-143510000D03*
X182880000Y-142240000D03*
X193040000Y-143510000D03*
X191770000Y-143510000D03*
X193040000Y-142240000D03*
X191770000Y-142240000D03*
X208280000Y-116840000D03*
X208280000Y-115570000D03*
X207010000Y-116840000D03*
X207010000Y-115570000D03*
X193040000Y-60960000D03*
X193040000Y-62230000D03*
X191770000Y-62230000D03*
X191770000Y-60960000D03*
X165100000Y-45720000D03*
X166370000Y-45720000D03*
X165100000Y-46990000D03*
X154940000Y-48260000D03*
X154940000Y-49530000D03*
X156210000Y-49530000D03*
X156210000Y-48260000D03*
X101600000Y-63500000D03*
X101600000Y-62230000D03*
X101600000Y-60960000D03*
X86360000Y-86360000D03*
X86360000Y-87630000D03*
X87630000Y-87630000D03*
X87630000Y-86360000D03*
X106680000Y-147320000D03*
X106680000Y-146050000D03*
X107950000Y-147320000D03*
X107950000Y-146050000D03*
X138430000Y-156210000D03*
X138430000Y-157480000D03*
X137160000Y-157480000D03*
X137160000Y-156210000D03*
X127000000Y-156210000D03*
X127000000Y-157480000D03*
X128270000Y-157480000D03*
X128270000Y-156210000D03*
X133858000Y-166751000D03*
X137922000Y-169926000D03*
X136779000Y-169926000D03*
X135763000Y-169926000D03*
X171196000Y-149352000D03*
X191770000Y-125730000D03*
X201168000Y-100076000D03*
X194818000Y-74930000D03*
X172720000Y-49022000D03*
X142748000Y-46482000D03*
X114808000Y-50800000D03*
X96012000Y-70866000D03*
X88646000Y-105664000D03*
X96266000Y-126746000D03*
X115062000Y-148844000D03*
X158496000Y-157226000D03*
X169418000Y-152654000D03*
X176530000Y-152654000D03*
X195326000Y-123444000D03*
X196850000Y-131572000D03*
X199898000Y-103632000D03*
X207772000Y-101854000D03*
X193548000Y-71374000D03*
X199390000Y-71628000D03*
X167894000Y-49022000D03*
X177546000Y-52324000D03*
X137160000Y-46482000D03*
X148082000Y-49784000D03*
X112522000Y-54356000D03*
X120142000Y-54102000D03*
X100838000Y-76454000D03*
X97790000Y-67310000D03*
X91948000Y-100584000D03*
X88646000Y-110490000D03*
X95758000Y-128270000D03*
X103124000Y-131572000D03*
X113792000Y-152146000D03*
X123444000Y-152146000D03*
X142748000Y-156972000D03*
X150876000Y-168148000D03*
X146812000Y-168148000D03*
X148844000Y-170180000D03*
X148844000Y-166370000D03*
X148844000Y-168148000D03*
X132207000Y-169291000D03*
X153924000Y-171450000D03*
X159512000Y-178562000D03*
X166116000Y-179578000D03*
X149352000Y-187198000D03*
X137668000Y-180340000D03*
X137668000Y-179070000D03*
X136652000Y-178308000D03*
D12*
X130810000Y-184150000D03*
X138430000Y-184150000D03*
X146050000Y-184150000D03*
D11*
X135636000Y-178308000D03*
X150114000Y-180848000D03*
X165100000Y-163322000D03*
X142748000Y-165100000D03*
X150114000Y-163322000D03*
X166370000Y-181610000D03*
X171450000Y-158750000D03*
D13*
X103124000Y-131572000D02*
X101346000Y-133350000D01*
X91668601Y-100304601D02*
X91186000Y-99822000D01*
X91948000Y-100584000D02*
X91668601Y-100304601D01*
X120142000Y-54102000D02*
X120142000Y-49530000D01*
X112522000Y-54356000D02*
X109728000Y-54356000D01*
X100838000Y-76454000D02*
X93091000Y-76454000D01*
D14*
X164846000Y-166370000D02*
X165100000Y-166116000D01*
X165100000Y-166116000D02*
X165100000Y-163322000D01*
X164846000Y-176276000D02*
X156972000Y-184150000D01*
X156972000Y-184150000D02*
X146050000Y-184150000D01*
X164846000Y-166370000D02*
X164846000Y-176276000D01*
X144526000Y-163322000D02*
X142748000Y-165100000D01*
X144526000Y-163322000D02*
X150114000Y-163322000D01*
X166878000Y-181102000D02*
X166370000Y-181610000D01*
X166878000Y-177546000D02*
X166878000Y-181102000D01*
X166116000Y-176784000D02*
X166878000Y-177546000D01*
X166116000Y-165964618D02*
X166116000Y-176784000D01*
X166116000Y-164084000D02*
X166116000Y-165964618D01*
X171450000Y-158750000D02*
X166116000Y-164084000D01*
D15*
G36*
X141610868Y-38135107D02*
X141636358Y-38236702D01*
X141651894Y-38340280D01*
X142319509Y-40196607D01*
X142356952Y-40258846D01*
X142462317Y-40433990D01*
X143789497Y-41893526D01*
X143853946Y-41941162D01*
X144012277Y-42058190D01*
X145796973Y-42898736D01*
X145931391Y-42932173D01*
X146065808Y-42965611D01*
X148036316Y-43059201D01*
X148274545Y-43023466D01*
X148310280Y-43018106D01*
X150166607Y-42350491D01*
X150285298Y-42279087D01*
X150403990Y-42207683D01*
X151863526Y-40880503D01*
X151961642Y-40747758D01*
X152028190Y-40657723D01*
X152868736Y-38873027D01*
X152902173Y-38738610D01*
X152935611Y-38604192D01*
X152997079Y-37310000D01*
X159681117Y-37310000D01*
X183344573Y-46935829D01*
X201521437Y-64882897D01*
X211446625Y-88419812D01*
X211609226Y-113980628D01*
X205394581Y-131596754D01*
X205135292Y-131441180D01*
X205079179Y-131421074D01*
X205054850Y-131402396D01*
X203585453Y-130677337D01*
X203455460Y-130642473D01*
X203325836Y-130606141D01*
X201594230Y-130472682D01*
X201456703Y-130489186D01*
X201319175Y-130505689D01*
X199668306Y-131045045D01*
X199582028Y-131093547D01*
X199426819Y-131180798D01*
X198108018Y-132310859D01*
X198074849Y-132353075D01*
X197936864Y-132528691D01*
X197150906Y-134077414D01*
X197103046Y-134248171D01*
X197076141Y-134344164D01*
X196942682Y-136075770D01*
X196950818Y-136143563D01*
X196975689Y-136350825D01*
X197515045Y-138001694D01*
X197601946Y-138156280D01*
X197650798Y-138243181D01*
X198780859Y-139561982D01*
X198835477Y-139604896D01*
X198880601Y-139657699D01*
X199878877Y-140444220D01*
X181635950Y-157381956D01*
X168322975Y-163639137D01*
X168298295Y-163644046D01*
X168067954Y-163797954D01*
X168047889Y-163827984D01*
X168047283Y-163828431D01*
X168044458Y-163833119D01*
X167914046Y-164028295D01*
X167907748Y-164059956D01*
X167904286Y-164065701D01*
X167897015Y-164113912D01*
X167860000Y-164300000D01*
X167860000Y-188140000D01*
X126780000Y-188140000D01*
X126780000Y-184678172D01*
X128142538Y-184678172D01*
X128547709Y-185658761D01*
X129297293Y-186409655D01*
X130277173Y-186816536D01*
X131338172Y-186817462D01*
X132318761Y-186412291D01*
X132683567Y-186048121D01*
X136711484Y-186048121D01*
X136936154Y-186422168D01*
X137919388Y-186820880D01*
X138980357Y-186812975D01*
X139923846Y-186422168D01*
X140148516Y-186048121D01*
X138430000Y-184329605D01*
X136711484Y-186048121D01*
X132683567Y-186048121D01*
X133069655Y-185662707D01*
X133476536Y-184682827D01*
X133477446Y-183639388D01*
X135759120Y-183639388D01*
X135767025Y-184700357D01*
X136157832Y-185643846D01*
X136531879Y-185868516D01*
X138250395Y-184150000D01*
X138609605Y-184150000D01*
X140328121Y-185868516D01*
X140702168Y-185643846D01*
X141093759Y-184678172D01*
X143382538Y-184678172D01*
X143787709Y-185658761D01*
X144537293Y-186409655D01*
X145517173Y-186816536D01*
X146578172Y-186817462D01*
X147558761Y-186412291D01*
X148309655Y-185662707D01*
X148610828Y-184937400D01*
X156972000Y-184937400D01*
X157273325Y-184877463D01*
X157528776Y-184706776D01*
X165348999Y-176886553D01*
X165388537Y-177085325D01*
X165559224Y-177340776D01*
X166090600Y-177872152D01*
X166090600Y-180736064D01*
X165852711Y-180834358D01*
X165595262Y-181091358D01*
X165455759Y-181427317D01*
X165455442Y-181791087D01*
X165594358Y-182127289D01*
X165851358Y-182384738D01*
X166187317Y-182524241D01*
X166551087Y-182524558D01*
X166887289Y-182385642D01*
X167144738Y-182128642D01*
X167272433Y-181821119D01*
X167434776Y-181658776D01*
X167605463Y-181403325D01*
X167665400Y-181102000D01*
X167665400Y-177546000D01*
X167605463Y-177244675D01*
X167434776Y-176989224D01*
X166903400Y-176457848D01*
X166903400Y-164410152D01*
X171661603Y-159651949D01*
X171967289Y-159525642D01*
X172224738Y-159268642D01*
X172364241Y-158932683D01*
X172364558Y-158568913D01*
X172225642Y-158232711D01*
X171968642Y-157975262D01*
X171632683Y-157835759D01*
X171268913Y-157835442D01*
X170932711Y-157974358D01*
X170675262Y-158231358D01*
X170547567Y-158538881D01*
X165994377Y-163092071D01*
X165875642Y-162804711D01*
X165618642Y-162547262D01*
X165282683Y-162407759D01*
X164918913Y-162407442D01*
X164582711Y-162546358D01*
X164325262Y-162803358D01*
X164185759Y-163139317D01*
X164185442Y-163503087D01*
X164312600Y-163810833D01*
X164312600Y-165789848D01*
X164289224Y-165813224D01*
X164118537Y-166068675D01*
X164058600Y-166370000D01*
X164058600Y-175949848D01*
X156645848Y-183362600D01*
X148610351Y-183362600D01*
X148312291Y-182641239D01*
X147562707Y-181890345D01*
X146582827Y-181483464D01*
X145521828Y-181482538D01*
X144541239Y-181887709D01*
X143790345Y-182637293D01*
X143383464Y-183617173D01*
X143382538Y-184678172D01*
X141093759Y-184678172D01*
X141100880Y-184660612D01*
X141092975Y-183599643D01*
X140702168Y-182656154D01*
X140328121Y-182431484D01*
X138609605Y-184150000D01*
X138250395Y-184150000D01*
X136531879Y-182431484D01*
X136157832Y-182656154D01*
X135759120Y-183639388D01*
X133477446Y-183639388D01*
X133477462Y-183621828D01*
X133072291Y-182641239D01*
X132683611Y-182251879D01*
X136711484Y-182251879D01*
X138430000Y-183970395D01*
X140148516Y-182251879D01*
X139923846Y-181877832D01*
X138940612Y-181479120D01*
X137879643Y-181487025D01*
X136936154Y-181877832D01*
X136711484Y-182251879D01*
X132683611Y-182251879D01*
X132322707Y-181890345D01*
X131342827Y-181483464D01*
X130281828Y-181482538D01*
X129301239Y-181887709D01*
X128550345Y-182637293D01*
X128143464Y-183617173D01*
X128142538Y-184678172D01*
X126780000Y-184678172D01*
X126780000Y-164350000D01*
X126761832Y-164258663D01*
X126755674Y-164165741D01*
X126735041Y-164123978D01*
X126725954Y-164078295D01*
X126674217Y-164000864D01*
X126632967Y-163917371D01*
X126597925Y-163886685D01*
X126572046Y-163847954D01*
X126494616Y-163796217D01*
X126424554Y-163734864D01*
X104124030Y-150881213D01*
X94861145Y-140747205D01*
X95801182Y-140149000D01*
X95900265Y-140054243D01*
X95930594Y-140034662D01*
X97154511Y-138848699D01*
X97230363Y-138738960D01*
X97307812Y-138630359D01*
X98063573Y-136952209D01*
X98097492Y-136805223D01*
X98125865Y-136682276D01*
X98181898Y-134842651D01*
X98136149Y-134569426D01*
X97483922Y-132848391D01*
X97458959Y-132808450D01*
X97337098Y-132613471D01*
X96075908Y-131273039D01*
X95850360Y-131112189D01*
X94172209Y-130356427D01*
X94051204Y-130328503D01*
X93902276Y-130294135D01*
X92062651Y-130238102D01*
X91789426Y-130283851D01*
X90068391Y-130936078D01*
X90030121Y-130959997D01*
X89986900Y-130972988D01*
X89153845Y-131415548D01*
X82095732Y-107610010D01*
X82392973Y-104775000D01*
X87630000Y-104775000D01*
X87630000Y-107315000D01*
X87676672Y-107553946D01*
X87815987Y-107764013D01*
X94615000Y-114563026D01*
X94615000Y-125730000D01*
X94682039Y-126013981D01*
X95317039Y-127283981D01*
X95429827Y-127442767D01*
X95637949Y-127584971D01*
X95885000Y-127635000D01*
X96022530Y-127635000D01*
X96083317Y-127660241D01*
X96282388Y-127660414D01*
X108585000Y-139963026D01*
X108585000Y-147320000D01*
X108631672Y-147558946D01*
X108770987Y-147769013D01*
X111310987Y-150309013D01*
X111512949Y-150444971D01*
X111760000Y-150495000D01*
X122926974Y-150495000D01*
X126550987Y-154119013D01*
X126752949Y-154254971D01*
X127000000Y-154305000D01*
X145786974Y-154305000D01*
X150495000Y-159013026D01*
X150495000Y-162490108D01*
X150296683Y-162407759D01*
X149932913Y-162407442D01*
X149625167Y-162534600D01*
X144526000Y-162534600D01*
X144224675Y-162594537D01*
X143969224Y-162765224D01*
X142536397Y-164198051D01*
X142230711Y-164324358D01*
X141973262Y-164581358D01*
X141833759Y-164917317D01*
X141833442Y-165281087D01*
X141972358Y-165617289D01*
X142229358Y-165874738D01*
X142565317Y-166014241D01*
X142929087Y-166014558D01*
X143265289Y-165875642D01*
X143522738Y-165618642D01*
X143650433Y-165311119D01*
X144145000Y-164816552D01*
X144145000Y-172720000D01*
X144188427Y-172950795D01*
X144324827Y-173162767D01*
X144532949Y-173304971D01*
X144780000Y-173355000D01*
X152400000Y-173355000D01*
X152630795Y-173311573D01*
X152842767Y-173175173D01*
X152984971Y-172967051D01*
X153035000Y-172720000D01*
X153035000Y-167903026D01*
X156659013Y-164279013D01*
X156794971Y-164077051D01*
X156845000Y-163830000D01*
X156845000Y-155203026D01*
X159013026Y-153035000D01*
X165100000Y-153035000D01*
X165338946Y-152988328D01*
X165549013Y-152849013D01*
X167903026Y-150495000D01*
X173990000Y-150495000D01*
X174228946Y-150448328D01*
X174439013Y-150309013D01*
X194759013Y-129989013D01*
X194894971Y-129787051D01*
X194945000Y-129540000D01*
X194945000Y-123453026D01*
X199839013Y-118559013D01*
X199974971Y-118357051D01*
X200025000Y-118110000D01*
X200025000Y-103133026D01*
X202379013Y-100779013D01*
X202514971Y-100577051D01*
X202565000Y-100330000D01*
X202565000Y-88900000D01*
X202518328Y-88661054D01*
X202379013Y-88450987D01*
X197485000Y-83556974D01*
X197485000Y-74930000D01*
X197438328Y-74691054D01*
X197299013Y-74480987D01*
X196029013Y-73210987D01*
X195827051Y-73075029D01*
X195580000Y-73025000D01*
X194573026Y-73025000D01*
X177165000Y-55616974D01*
X177165000Y-49530000D01*
X177118328Y-49291054D01*
X176979013Y-49080987D01*
X175709013Y-47810987D01*
X175507051Y-47675029D01*
X175260000Y-47625000D01*
X171450000Y-47625000D01*
X171211054Y-47671672D01*
X171000987Y-47810987D01*
X168646974Y-50165000D01*
X147583026Y-50165000D01*
X146685000Y-49266974D01*
X146685000Y-46990000D01*
X146638328Y-46751054D01*
X146499013Y-46540987D01*
X145229013Y-45270987D01*
X145027051Y-45135029D01*
X144780000Y-45085000D01*
X140970000Y-45085000D01*
X140731054Y-45131672D01*
X140520987Y-45270987D01*
X135626974Y-50165000D01*
X117103026Y-50165000D01*
X116654013Y-49715987D01*
X116452051Y-49580029D01*
X116205000Y-49530000D01*
X114300000Y-49530000D01*
X114061054Y-49576672D01*
X113850987Y-49715987D01*
X111310987Y-52255987D01*
X111175029Y-52457949D01*
X111125000Y-52705000D01*
X111125000Y-54346974D01*
X96256974Y-69215000D01*
X95885000Y-69215000D01*
X95646054Y-69261672D01*
X95435987Y-69400987D01*
X94800987Y-70035987D01*
X94665029Y-70237949D01*
X94615000Y-70485000D01*
X94615000Y-97526974D01*
X87815987Y-104325987D01*
X87680029Y-104527949D01*
X87630000Y-104775000D01*
X82392973Y-104775000D01*
X84760700Y-82192281D01*
X96949756Y-59729198D01*
X116821462Y-43629032D01*
X134792734Y-37310000D01*
X141570020Y-37310000D01*
X141610868Y-38135107D01*
X141610868Y-38135107D01*
G37*
X141610868Y-38135107D02*
X141636358Y-38236702D01*
X141651894Y-38340280D01*
X142319509Y-40196607D01*
X142356952Y-40258846D01*
X142462317Y-40433990D01*
X143789497Y-41893526D01*
X143853946Y-41941162D01*
X144012277Y-42058190D01*
X145796973Y-42898736D01*
X145931391Y-42932173D01*
X146065808Y-42965611D01*
X148036316Y-43059201D01*
X148274545Y-43023466D01*
X148310280Y-43018106D01*
X150166607Y-42350491D01*
X150285298Y-42279087D01*
X150403990Y-42207683D01*
X151863526Y-40880503D01*
X151961642Y-40747758D01*
X152028190Y-40657723D01*
X152868736Y-38873027D01*
X152902173Y-38738610D01*
X152935611Y-38604192D01*
X152997079Y-37310000D01*
X159681117Y-37310000D01*
X183344573Y-46935829D01*
X201521437Y-64882897D01*
X211446625Y-88419812D01*
X211609226Y-113980628D01*
X205394581Y-131596754D01*
X205135292Y-131441180D01*
X205079179Y-131421074D01*
X205054850Y-131402396D01*
X203585453Y-130677337D01*
X203455460Y-130642473D01*
X203325836Y-130606141D01*
X201594230Y-130472682D01*
X201456703Y-130489186D01*
X201319175Y-130505689D01*
X199668306Y-131045045D01*
X199582028Y-131093547D01*
X199426819Y-131180798D01*
X198108018Y-132310859D01*
X198074849Y-132353075D01*
X197936864Y-132528691D01*
X197150906Y-134077414D01*
X197103046Y-134248171D01*
X197076141Y-134344164D01*
X196942682Y-136075770D01*
X196950818Y-136143563D01*
X196975689Y-136350825D01*
X197515045Y-138001694D01*
X197601946Y-138156280D01*
X197650798Y-138243181D01*
X198780859Y-139561982D01*
X198835477Y-139604896D01*
X198880601Y-139657699D01*
X199878877Y-140444220D01*
X181635950Y-157381956D01*
X168322975Y-163639137D01*
X168298295Y-163644046D01*
X168067954Y-163797954D01*
X168047889Y-163827984D01*
X168047283Y-163828431D01*
X168044458Y-163833119D01*
X167914046Y-164028295D01*
X167907748Y-164059956D01*
X167904286Y-164065701D01*
X167897015Y-164113912D01*
X167860000Y-164300000D01*
X167860000Y-188140000D01*
X126780000Y-188140000D01*
X126780000Y-184678172D01*
X128142538Y-184678172D01*
X128547709Y-185658761D01*
X129297293Y-186409655D01*
X130277173Y-186816536D01*
X131338172Y-186817462D01*
X132318761Y-186412291D01*
X132683567Y-186048121D01*
X136711484Y-186048121D01*
X136936154Y-186422168D01*
X137919388Y-186820880D01*
X138980357Y-186812975D01*
X139923846Y-186422168D01*
X140148516Y-186048121D01*
X138430000Y-184329605D01*
X136711484Y-186048121D01*
X132683567Y-186048121D01*
X133069655Y-185662707D01*
X133476536Y-184682827D01*
X133477446Y-183639388D01*
X135759120Y-183639388D01*
X135767025Y-184700357D01*
X136157832Y-185643846D01*
X136531879Y-185868516D01*
X138250395Y-184150000D01*
X138609605Y-184150000D01*
X140328121Y-185868516D01*
X140702168Y-185643846D01*
X141093759Y-184678172D01*
X143382538Y-184678172D01*
X143787709Y-185658761D01*
X144537293Y-186409655D01*
X145517173Y-186816536D01*
X146578172Y-186817462D01*
X147558761Y-186412291D01*
X148309655Y-185662707D01*
X148610828Y-184937400D01*
X156972000Y-184937400D01*
X157273325Y-184877463D01*
X157528776Y-184706776D01*
X165348999Y-176886553D01*
X165388537Y-177085325D01*
X165559224Y-177340776D01*
X166090600Y-177872152D01*
X166090600Y-180736064D01*
X165852711Y-180834358D01*
X165595262Y-181091358D01*
X165455759Y-181427317D01*
X165455442Y-181791087D01*
X165594358Y-182127289D01*
X165851358Y-182384738D01*
X166187317Y-182524241D01*
X166551087Y-182524558D01*
X166887289Y-182385642D01*
X167144738Y-182128642D01*
X167272433Y-181821119D01*
X167434776Y-181658776D01*
X167605463Y-181403325D01*
X167665400Y-181102000D01*
X167665400Y-177546000D01*
X167605463Y-177244675D01*
X167434776Y-176989224D01*
X166903400Y-176457848D01*
X166903400Y-164410152D01*
X171661603Y-159651949D01*
X171967289Y-159525642D01*
X172224738Y-159268642D01*
X172364241Y-158932683D01*
X172364558Y-158568913D01*
X172225642Y-158232711D01*
X171968642Y-157975262D01*
X171632683Y-157835759D01*
X171268913Y-157835442D01*
X170932711Y-157974358D01*
X170675262Y-158231358D01*
X170547567Y-158538881D01*
X165994377Y-163092071D01*
X165875642Y-162804711D01*
X165618642Y-162547262D01*
X165282683Y-162407759D01*
X164918913Y-162407442D01*
X164582711Y-162546358D01*
X164325262Y-162803358D01*
X164185759Y-163139317D01*
X164185442Y-163503087D01*
X164312600Y-163810833D01*
X164312600Y-165789848D01*
X164289224Y-165813224D01*
X164118537Y-166068675D01*
X164058600Y-166370000D01*
X164058600Y-175949848D01*
X156645848Y-183362600D01*
X148610351Y-183362600D01*
X148312291Y-182641239D01*
X147562707Y-181890345D01*
X146582827Y-181483464D01*
X145521828Y-181482538D01*
X144541239Y-181887709D01*
X143790345Y-182637293D01*
X143383464Y-183617173D01*
X143382538Y-184678172D01*
X141093759Y-184678172D01*
X141100880Y-184660612D01*
X141092975Y-183599643D01*
X140702168Y-182656154D01*
X140328121Y-182431484D01*
X138609605Y-184150000D01*
X138250395Y-184150000D01*
X136531879Y-182431484D01*
X136157832Y-182656154D01*
X135759120Y-183639388D01*
X133477446Y-183639388D01*
X133477462Y-183621828D01*
X133072291Y-182641239D01*
X132683611Y-182251879D01*
X136711484Y-182251879D01*
X138430000Y-183970395D01*
X140148516Y-182251879D01*
X139923846Y-181877832D01*
X138940612Y-181479120D01*
X137879643Y-181487025D01*
X136936154Y-181877832D01*
X136711484Y-182251879D01*
X132683611Y-182251879D01*
X132322707Y-181890345D01*
X131342827Y-181483464D01*
X130281828Y-181482538D01*
X129301239Y-181887709D01*
X128550345Y-182637293D01*
X128143464Y-183617173D01*
X128142538Y-184678172D01*
X126780000Y-184678172D01*
X126780000Y-164350000D01*
X126761832Y-164258663D01*
X126755674Y-164165741D01*
X126735041Y-164123978D01*
X126725954Y-164078295D01*
X126674217Y-164000864D01*
X126632967Y-163917371D01*
X126597925Y-163886685D01*
X126572046Y-163847954D01*
X126494616Y-163796217D01*
X126424554Y-163734864D01*
X104124030Y-150881213D01*
X94861145Y-140747205D01*
X95801182Y-140149000D01*
X95900265Y-140054243D01*
X95930594Y-140034662D01*
X97154511Y-138848699D01*
X97230363Y-138738960D01*
X97307812Y-138630359D01*
X98063573Y-136952209D01*
X98097492Y-136805223D01*
X98125865Y-136682276D01*
X98181898Y-134842651D01*
X98136149Y-134569426D01*
X97483922Y-132848391D01*
X97458959Y-132808450D01*
X97337098Y-132613471D01*
X96075908Y-131273039D01*
X95850360Y-131112189D01*
X94172209Y-130356427D01*
X94051204Y-130328503D01*
X93902276Y-130294135D01*
X92062651Y-130238102D01*
X91789426Y-130283851D01*
X90068391Y-130936078D01*
X90030121Y-130959997D01*
X89986900Y-130972988D01*
X89153845Y-131415548D01*
X82095732Y-107610010D01*
X82392973Y-104775000D01*
X87630000Y-104775000D01*
X87630000Y-107315000D01*
X87676672Y-107553946D01*
X87815987Y-107764013D01*
X94615000Y-114563026D01*
X94615000Y-125730000D01*
X94682039Y-126013981D01*
X95317039Y-127283981D01*
X95429827Y-127442767D01*
X95637949Y-127584971D01*
X95885000Y-127635000D01*
X96022530Y-127635000D01*
X96083317Y-127660241D01*
X96282388Y-127660414D01*
X108585000Y-139963026D01*
X108585000Y-147320000D01*
X108631672Y-147558946D01*
X108770987Y-147769013D01*
X111310987Y-150309013D01*
X111512949Y-150444971D01*
X111760000Y-150495000D01*
X122926974Y-150495000D01*
X126550987Y-154119013D01*
X126752949Y-154254971D01*
X127000000Y-154305000D01*
X145786974Y-154305000D01*
X150495000Y-159013026D01*
X150495000Y-162490108D01*
X150296683Y-162407759D01*
X149932913Y-162407442D01*
X149625167Y-162534600D01*
X144526000Y-162534600D01*
X144224675Y-162594537D01*
X143969224Y-162765224D01*
X142536397Y-164198051D01*
X142230711Y-164324358D01*
X141973262Y-164581358D01*
X141833759Y-164917317D01*
X141833442Y-165281087D01*
X141972358Y-165617289D01*
X142229358Y-165874738D01*
X142565317Y-166014241D01*
X142929087Y-166014558D01*
X143265289Y-165875642D01*
X143522738Y-165618642D01*
X143650433Y-165311119D01*
X144145000Y-164816552D01*
X144145000Y-172720000D01*
X144188427Y-172950795D01*
X144324827Y-173162767D01*
X144532949Y-173304971D01*
X144780000Y-173355000D01*
X152400000Y-173355000D01*
X152630795Y-173311573D01*
X152842767Y-173175173D01*
X152984971Y-172967051D01*
X153035000Y-172720000D01*
X153035000Y-167903026D01*
X156659013Y-164279013D01*
X156794971Y-164077051D01*
X156845000Y-163830000D01*
X156845000Y-155203026D01*
X159013026Y-153035000D01*
X165100000Y-153035000D01*
X165338946Y-152988328D01*
X165549013Y-152849013D01*
X167903026Y-150495000D01*
X173990000Y-150495000D01*
X174228946Y-150448328D01*
X174439013Y-150309013D01*
X194759013Y-129989013D01*
X194894971Y-129787051D01*
X194945000Y-129540000D01*
X194945000Y-123453026D01*
X199839013Y-118559013D01*
X199974971Y-118357051D01*
X200025000Y-118110000D01*
X200025000Y-103133026D01*
X202379013Y-100779013D01*
X202514971Y-100577051D01*
X202565000Y-100330000D01*
X202565000Y-88900000D01*
X202518328Y-88661054D01*
X202379013Y-88450987D01*
X197485000Y-83556974D01*
X197485000Y-74930000D01*
X197438328Y-74691054D01*
X197299013Y-74480987D01*
X196029013Y-73210987D01*
X195827051Y-73075029D01*
X195580000Y-73025000D01*
X194573026Y-73025000D01*
X177165000Y-55616974D01*
X177165000Y-49530000D01*
X177118328Y-49291054D01*
X176979013Y-49080987D01*
X175709013Y-47810987D01*
X175507051Y-47675029D01*
X175260000Y-47625000D01*
X171450000Y-47625000D01*
X171211054Y-47671672D01*
X171000987Y-47810987D01*
X168646974Y-50165000D01*
X147583026Y-50165000D01*
X146685000Y-49266974D01*
X146685000Y-46990000D01*
X146638328Y-46751054D01*
X146499013Y-46540987D01*
X145229013Y-45270987D01*
X145027051Y-45135029D01*
X144780000Y-45085000D01*
X140970000Y-45085000D01*
X140731054Y-45131672D01*
X140520987Y-45270987D01*
X135626974Y-50165000D01*
X117103026Y-50165000D01*
X116654013Y-49715987D01*
X116452051Y-49580029D01*
X116205000Y-49530000D01*
X114300000Y-49530000D01*
X114061054Y-49576672D01*
X113850987Y-49715987D01*
X111310987Y-52255987D01*
X111175029Y-52457949D01*
X111125000Y-52705000D01*
X111125000Y-54346974D01*
X96256974Y-69215000D01*
X95885000Y-69215000D01*
X95646054Y-69261672D01*
X95435987Y-69400987D01*
X94800987Y-70035987D01*
X94665029Y-70237949D01*
X94615000Y-70485000D01*
X94615000Y-97526974D01*
X87815987Y-104325987D01*
X87680029Y-104527949D01*
X87630000Y-104775000D01*
X82392973Y-104775000D01*
X84760700Y-82192281D01*
X96949756Y-59729198D01*
X116821462Y-43629032D01*
X134792734Y-37310000D01*
X141570020Y-37310000D01*
X141610868Y-38135107D01*
G36*
X145923000Y-47042606D02*
X145923000Y-49530000D01*
X145933006Y-49579410D01*
X145960197Y-49619803D01*
X147230197Y-50889803D01*
X147272211Y-50917666D01*
X147320000Y-50927000D01*
X168910000Y-50927000D01*
X168959410Y-50916994D01*
X168999803Y-50889803D01*
X171502606Y-48387000D01*
X175207394Y-48387000D01*
X176403000Y-49582606D01*
X176403000Y-55880000D01*
X176413006Y-55929410D01*
X176440197Y-55969803D01*
X194220197Y-73749803D01*
X194262211Y-73777666D01*
X194310000Y-73787000D01*
X195527394Y-73787000D01*
X196723000Y-74982606D01*
X196723000Y-83820000D01*
X196733006Y-83869410D01*
X196760197Y-83909803D01*
X201803000Y-88952606D01*
X201803000Y-100277394D01*
X199300197Y-102780197D01*
X199272334Y-102822211D01*
X199263000Y-102870000D01*
X199263000Y-102973864D01*
X199123262Y-103113358D01*
X198983759Y-103449317D01*
X198983442Y-103813087D01*
X199122358Y-104149289D01*
X199263000Y-104290177D01*
X199263000Y-118057394D01*
X194220197Y-123100197D01*
X194192334Y-123142211D01*
X194183000Y-123190000D01*
X194183000Y-129487394D01*
X173937394Y-149733000D01*
X167640000Y-149733000D01*
X167590590Y-149743006D01*
X167550197Y-149770197D01*
X165047394Y-152273000D01*
X158750000Y-152273000D01*
X158700590Y-152283006D01*
X158660197Y-152310197D01*
X156120197Y-154850197D01*
X156092334Y-154892211D01*
X156083000Y-154940000D01*
X156083000Y-163777394D01*
X152310197Y-167550197D01*
X152282334Y-167592211D01*
X152273000Y-167640000D01*
X152273000Y-172593000D01*
X144907000Y-172593000D01*
X144907000Y-165227000D01*
X149860000Y-165227000D01*
X149909410Y-165216994D01*
X149949803Y-165189803D01*
X151219803Y-163919803D01*
X151247666Y-163877789D01*
X151257000Y-163830000D01*
X151257000Y-158750000D01*
X151246994Y-158700590D01*
X151219803Y-158660197D01*
X146139803Y-153580197D01*
X146097789Y-153552334D01*
X146050000Y-153543000D01*
X127052606Y-153543000D01*
X123279803Y-149770197D01*
X123237789Y-149742334D01*
X123190000Y-149733000D01*
X111812606Y-149733000D01*
X109347000Y-147267394D01*
X109347000Y-139700000D01*
X109336994Y-139650590D01*
X109309803Y-139610197D01*
X102871322Y-133171716D01*
X103797519Y-132245519D01*
X104003995Y-131936506D01*
X104076500Y-131572000D01*
X104003995Y-131207494D01*
X103797519Y-130898481D01*
X103488506Y-130692005D01*
X103124000Y-130619500D01*
X102759494Y-130692005D01*
X102450481Y-130898481D01*
X101524284Y-131824678D01*
X96609803Y-126910197D01*
X96567789Y-126882334D01*
X96520000Y-126873000D01*
X95963490Y-126873000D01*
X95377000Y-125700020D01*
X95377000Y-114300000D01*
X95366994Y-114250590D01*
X95339803Y-114210197D01*
X88392000Y-107262394D01*
X88392000Y-104827606D01*
X91619606Y-101600000D01*
X98110000Y-101600000D01*
X101855888Y-120431852D01*
X112523275Y-136396725D01*
X128488148Y-147064112D01*
X147320000Y-150810000D01*
X166151852Y-147064112D01*
X182116725Y-136396725D01*
X192784112Y-120431852D01*
X196530000Y-101600000D01*
X192784112Y-82768148D01*
X182116725Y-66803275D01*
X166151852Y-56135888D01*
X147320000Y-52390000D01*
X128488148Y-56135888D01*
X112523275Y-66803275D01*
X101855888Y-82768148D01*
X98110000Y-101600000D01*
X91619606Y-101600000D01*
X91727055Y-101492551D01*
X91948000Y-101536500D01*
X92312506Y-101463995D01*
X92621519Y-101257519D01*
X92827995Y-100948506D01*
X92900500Y-100584000D01*
X92856551Y-100363055D01*
X95339803Y-97879803D01*
X95367666Y-97837789D01*
X95377000Y-97790000D01*
X95377000Y-77406500D01*
X100838000Y-77406500D01*
X101202506Y-77333995D01*
X101511519Y-77127519D01*
X101717995Y-76818506D01*
X101790500Y-76454000D01*
X101717995Y-76089494D01*
X101511519Y-75780481D01*
X101202506Y-75574005D01*
X100838000Y-75501500D01*
X95377000Y-75501500D01*
X95377000Y-70537606D01*
X95937606Y-69977000D01*
X96520000Y-69977000D01*
X96569410Y-69966994D01*
X96609803Y-69939803D01*
X111241106Y-55308500D01*
X112522000Y-55308500D01*
X112886506Y-55235995D01*
X113195519Y-55029519D01*
X113401995Y-54720506D01*
X113474500Y-54356000D01*
X113401995Y-53991494D01*
X113195519Y-53682481D01*
X112886506Y-53476005D01*
X112522000Y-53403500D01*
X111887000Y-53403500D01*
X111887000Y-52757606D01*
X114352606Y-50292000D01*
X116152394Y-50292000D01*
X116750197Y-50889803D01*
X116792211Y-50917666D01*
X116840000Y-50927000D01*
X119189500Y-50927000D01*
X119189500Y-54102000D01*
X119262005Y-54466506D01*
X119468481Y-54775519D01*
X119777494Y-54981995D01*
X120142000Y-55054500D01*
X120506506Y-54981995D01*
X120815519Y-54775519D01*
X121021995Y-54466506D01*
X121094500Y-54102000D01*
X121094500Y-50927000D01*
X135890000Y-50927000D01*
X135939410Y-50916994D01*
X135979803Y-50889803D01*
X141022606Y-45847000D01*
X144727394Y-45847000D01*
X145923000Y-47042606D01*
X145923000Y-47042606D01*
G37*
X145923000Y-47042606D02*
X145923000Y-49530000D01*
X145933006Y-49579410D01*
X145960197Y-49619803D01*
X147230197Y-50889803D01*
X147272211Y-50917666D01*
X147320000Y-50927000D01*
X168910000Y-50927000D01*
X168959410Y-50916994D01*
X168999803Y-50889803D01*
X171502606Y-48387000D01*
X175207394Y-48387000D01*
X176403000Y-49582606D01*
X176403000Y-55880000D01*
X176413006Y-55929410D01*
X176440197Y-55969803D01*
X194220197Y-73749803D01*
X194262211Y-73777666D01*
X194310000Y-73787000D01*
X195527394Y-73787000D01*
X196723000Y-74982606D01*
X196723000Y-83820000D01*
X196733006Y-83869410D01*
X196760197Y-83909803D01*
X201803000Y-88952606D01*
X201803000Y-100277394D01*
X199300197Y-102780197D01*
X199272334Y-102822211D01*
X199263000Y-102870000D01*
X199263000Y-102973864D01*
X199123262Y-103113358D01*
X198983759Y-103449317D01*
X198983442Y-103813087D01*
X199122358Y-104149289D01*
X199263000Y-104290177D01*
X199263000Y-118057394D01*
X194220197Y-123100197D01*
X194192334Y-123142211D01*
X194183000Y-123190000D01*
X194183000Y-129487394D01*
X173937394Y-149733000D01*
X167640000Y-149733000D01*
X167590590Y-149743006D01*
X167550197Y-149770197D01*
X165047394Y-152273000D01*
X158750000Y-152273000D01*
X158700590Y-152283006D01*
X158660197Y-152310197D01*
X156120197Y-154850197D01*
X156092334Y-154892211D01*
X156083000Y-154940000D01*
X156083000Y-163777394D01*
X152310197Y-167550197D01*
X152282334Y-167592211D01*
X152273000Y-167640000D01*
X152273000Y-172593000D01*
X144907000Y-172593000D01*
X144907000Y-165227000D01*
X149860000Y-165227000D01*
X149909410Y-165216994D01*
X149949803Y-165189803D01*
X151219803Y-163919803D01*
X151247666Y-163877789D01*
X151257000Y-163830000D01*
X151257000Y-158750000D01*
X151246994Y-158700590D01*
X151219803Y-158660197D01*
X146139803Y-153580197D01*
X146097789Y-153552334D01*
X146050000Y-153543000D01*
X127052606Y-153543000D01*
X123279803Y-149770197D01*
X123237789Y-149742334D01*
X123190000Y-149733000D01*
X111812606Y-149733000D01*
X109347000Y-147267394D01*
X109347000Y-139700000D01*
X109336994Y-139650590D01*
X109309803Y-139610197D01*
X102871322Y-133171716D01*
X103797519Y-132245519D01*
X104003995Y-131936506D01*
X104076500Y-131572000D01*
X104003995Y-131207494D01*
X103797519Y-130898481D01*
X103488506Y-130692005D01*
X103124000Y-130619500D01*
X102759494Y-130692005D01*
X102450481Y-130898481D01*
X101524284Y-131824678D01*
X96609803Y-126910197D01*
X96567789Y-126882334D01*
X96520000Y-126873000D01*
X95963490Y-126873000D01*
X95377000Y-125700020D01*
X95377000Y-114300000D01*
X95366994Y-114250590D01*
X95339803Y-114210197D01*
X88392000Y-107262394D01*
X88392000Y-104827606D01*
X91619606Y-101600000D01*
X98110000Y-101600000D01*
X101855888Y-120431852D01*
X112523275Y-136396725D01*
X128488148Y-147064112D01*
X147320000Y-150810000D01*
X166151852Y-147064112D01*
X182116725Y-136396725D01*
X192784112Y-120431852D01*
X196530000Y-101600000D01*
X192784112Y-82768148D01*
X182116725Y-66803275D01*
X166151852Y-56135888D01*
X147320000Y-52390000D01*
X128488148Y-56135888D01*
X112523275Y-66803275D01*
X101855888Y-82768148D01*
X98110000Y-101600000D01*
X91619606Y-101600000D01*
X91727055Y-101492551D01*
X91948000Y-101536500D01*
X92312506Y-101463995D01*
X92621519Y-101257519D01*
X92827995Y-100948506D01*
X92900500Y-100584000D01*
X92856551Y-100363055D01*
X95339803Y-97879803D01*
X95367666Y-97837789D01*
X95377000Y-97790000D01*
X95377000Y-77406500D01*
X100838000Y-77406500D01*
X101202506Y-77333995D01*
X101511519Y-77127519D01*
X101717995Y-76818506D01*
X101790500Y-76454000D01*
X101717995Y-76089494D01*
X101511519Y-75780481D01*
X101202506Y-75574005D01*
X100838000Y-75501500D01*
X95377000Y-75501500D01*
X95377000Y-70537606D01*
X95937606Y-69977000D01*
X96520000Y-69977000D01*
X96569410Y-69966994D01*
X96609803Y-69939803D01*
X111241106Y-55308500D01*
X112522000Y-55308500D01*
X112886506Y-55235995D01*
X113195519Y-55029519D01*
X113401995Y-54720506D01*
X113474500Y-54356000D01*
X113401995Y-53991494D01*
X113195519Y-53682481D01*
X112886506Y-53476005D01*
X112522000Y-53403500D01*
X111887000Y-53403500D01*
X111887000Y-52757606D01*
X114352606Y-50292000D01*
X116152394Y-50292000D01*
X116750197Y-50889803D01*
X116792211Y-50917666D01*
X116840000Y-50927000D01*
X119189500Y-50927000D01*
X119189500Y-54102000D01*
X119262005Y-54466506D01*
X119468481Y-54775519D01*
X119777494Y-54981995D01*
X120142000Y-55054500D01*
X120506506Y-54981995D01*
X120815519Y-54775519D01*
X121021995Y-54466506D01*
X121094500Y-54102000D01*
X121094500Y-50927000D01*
X135890000Y-50927000D01*
X135939410Y-50916994D01*
X135979803Y-50889803D01*
X141022606Y-45847000D01*
X144727394Y-45847000D01*
X145923000Y-47042606D01*
M02*
