M48
;DRILL file {KiCad 4.0.7} date 02/27/19 21:10:52
;FORMAT={-:-/ absolute / metric / decimal}
FMAT,2
METRIC,TZ
T1C0.305
T2C0.330
T3C0.650
T4C0.700
T5C1.000
T6C3.048
%
G90
G05
M71
T1
X51.778Y-78.41
X51.778Y-82.22
X52.032Y-73.076
X52.032Y-74.6
X52.286Y-87.3
X52.54Y-90.856
X52.54Y-94.158
X53.556Y-76.632
X53.556Y-80.188
X53.556Y-83.998
X64.224Y-92.38
X66.002Y-92.38
X66.256Y-65.202
X66.256Y-66.218
X66.256Y-67.234
X66.256Y-68.758
X67.272Y-92.38
X68.542Y-92.38
X69.812Y-92.38
X71.844Y-91.872
X72.86Y-92.38
X74.765Y-89.332
X75.654Y-92.888
X75.908Y-95.682
X77.94Y-56.566
X77.94Y-57.836
X77.94Y-59.106
X77.94Y-60.122
X79.464Y-56.566
X79.464Y-57.836
X79.464Y-59.106
X79.464Y-60.122
X83.782Y-88.316
X85.306Y-62.662
X85.56Y-90.348
X85.814Y-75.362
X86.83Y-90.348
X87.846Y-94.158
X88.1Y-90.348
X89.116Y-75.362
X89.116Y-76.378
X89.37Y-90.348
X90.005Y-67.488
X90.132Y-68.885
X90.132Y-72.568
X91.275Y-74.6
X94.919Y-69.98
T2
X78.33Y-87.857
X78.33Y-89.357
X78.33Y-90.857
X79.83Y-87.857
X79.83Y-89.357
X79.83Y-90.857
T5
X60.16Y-93.015
X60.16Y-95.555
X91.44Y-93.345
X91.44Y-95.885
X94.45Y-74.6
X96.99Y-74.6
X108.42Y-65.075
X110.96Y-65.075
X112.23Y-69.52
X114.77Y-69.52
T6
X103.975Y-65.075
X116.04Y-65.075
X116.04Y-73.33
T3
X82.125Y-52.82G85X81.725Y-52.82
G05
X82.125Y-57.66G85X81.725Y-57.66
G05
T4
X85.175Y-52.51G85X84.675Y-52.51
G05
X85.175Y-57.97G85X84.675Y-57.97
G05
T5
X68.765Y-58.455G85X68.765Y-56.455
G05
X72.765Y-52.755G85X70.765Y-52.755
G05
X74.765Y-58.455G85X74.765Y-56.455
G05
T0
M30
