G04 #@! TF.FileFunction,Copper,L2,Bot,Signal*
%FSLAX46Y46*%
G04 Gerber Fmt 4.6, Leading zero omitted, Abs format (unit mm)*
G04 Created by KiCad (PCBNEW 4.0.7) date 02/27/19 21:10:27*
%MOMM*%
%LPD*%
G01*
G04 APERTURE LIST*
%ADD10C,0.100000*%
%ADD11R,3.500000X3.500000*%
%ADD12R,2.000000X1.600000*%
%ADD13R,1.200000X0.750000*%
%ADD14R,3.360000X4.860000*%
%ADD15R,1.390000X1.400000*%
%ADD16O,1.500000X1.100000*%
%ADD17O,1.700000X1.200000*%
%ADD18R,1.700000X1.700000*%
%ADD19O,1.700000X1.700000*%
%ADD20C,4.064000*%
%ADD21R,3.500000X2.000000*%
%ADD22R,7.000000X7.000000*%
%ADD23R,0.900000X1.200000*%
%ADD24R,1.700000X2.000000*%
%ADD25R,1.200000X0.900000*%
%ADD26R,2.000000X0.600000*%
%ADD27C,0.430000*%
%ADD28C,0.558800*%
%ADD29C,0.254000*%
%ADD30C,0.304800*%
%ADD31C,1.016000*%
%ADD32C,0.635000*%
G04 APERTURE END LIST*
D10*
D11*
X68765000Y-57455000D03*
X74765000Y-57455000D03*
X71765000Y-52755000D03*
D12*
X79305000Y-62535000D03*
X75305000Y-62535000D03*
X68320000Y-62535000D03*
X72320000Y-62535000D03*
X68415000Y-65710000D03*
X72415000Y-65710000D03*
D13*
X92482048Y-65842709D03*
X94382048Y-65842709D03*
D14*
X63685000Y-66980000D03*
D15*
X62700000Y-62998000D03*
X64670000Y-62998000D03*
D16*
X81925000Y-57660000D03*
X81925000Y-52820000D03*
D17*
X84925000Y-57970000D03*
X84925000Y-52510000D03*
D18*
X60160000Y-93015000D03*
D19*
X60160000Y-95555000D03*
D18*
X114770000Y-69520000D03*
D19*
X112230000Y-69520000D03*
D18*
X108420000Y-65075000D03*
D19*
X110960000Y-65075000D03*
D18*
X96990000Y-74600000D03*
D19*
X94450000Y-74600000D03*
D20*
X116040000Y-65075000D03*
X116040000Y-73330000D03*
X103975000Y-65075000D03*
D21*
X68920000Y-74360000D03*
X68920000Y-69780000D03*
D22*
X76320000Y-72060000D03*
D23*
X65240000Y-71765000D03*
X65240000Y-73965000D03*
D24*
X108606048Y-73285096D03*
X108606048Y-69285096D03*
D25*
X102807048Y-71920096D03*
X105007048Y-71920096D03*
D23*
X100000249Y-71727709D03*
X100000249Y-73927709D03*
D25*
X102710249Y-69017709D03*
X104910249Y-69017709D03*
D23*
X100000249Y-67282709D03*
X100000249Y-69482709D03*
D26*
X96832048Y-68745096D03*
X96832048Y-70015096D03*
X96832048Y-72555096D03*
X91932048Y-72555096D03*
X91932048Y-71285096D03*
X91932048Y-70015096D03*
X91932048Y-68745096D03*
X96832048Y-71285096D03*
D27*
X78329775Y-89357335D03*
X79829775Y-89357335D03*
X78329775Y-90857335D03*
X79829775Y-90857335D03*
X78329775Y-87857335D03*
X79829775Y-87857335D03*
D18*
X91440000Y-93345000D03*
D19*
X91440000Y-95885000D03*
D28*
X79464000Y-60122000D03*
X77940000Y-60122000D03*
X77940000Y-59106000D03*
X79464000Y-59106000D03*
X79464000Y-57836000D03*
X77940000Y-57836000D03*
X77940000Y-56566000D03*
X79464000Y-56566000D03*
X66256000Y-68758000D03*
X66256000Y-67234000D03*
X66256000Y-66218000D03*
X66256000Y-65202000D03*
X75654000Y-92888000D03*
X52540000Y-94158000D03*
X52540000Y-90856000D03*
X52286000Y-87300000D03*
X51778000Y-82220000D03*
X51778000Y-78410000D03*
X53556000Y-83998000D03*
X53556000Y-80188000D03*
X53556000Y-76632000D03*
X52032000Y-74600000D03*
X52032000Y-73076000D03*
X85306000Y-62662000D03*
X90132000Y-72568000D03*
X89116000Y-76378000D03*
X89116000Y-75362000D03*
X85814000Y-75362000D03*
X89370000Y-90348000D03*
X88100000Y-90348000D03*
X86830000Y-90348000D03*
X85560000Y-90348000D03*
X83782000Y-88316000D03*
X75908000Y-95682000D03*
X87846000Y-94158000D03*
X72860000Y-92380000D03*
X71844000Y-91872000D03*
X69812000Y-92380000D03*
X68542000Y-92380000D03*
X67272000Y-92380000D03*
X66002000Y-92380000D03*
X64224000Y-92380000D03*
X90132000Y-68885000D03*
X94919473Y-69979668D03*
X90005000Y-67488000D03*
X91275000Y-74600000D03*
X74765000Y-89332000D03*
D29*
X68920000Y-74360000D02*
X69670000Y-74360000D01*
X69670000Y-74360000D02*
X71208000Y-72822000D01*
X72415000Y-67171000D02*
X72415000Y-65710000D01*
X71208000Y-72822000D02*
X71208000Y-72696000D01*
X71208000Y-72696000D02*
X71844000Y-72060000D01*
X71844000Y-67742000D02*
X72415000Y-67171000D01*
X71844000Y-72060000D02*
X71844000Y-67742000D01*
X65240000Y-73965000D02*
X68525000Y-73965000D01*
X68525000Y-73965000D02*
X68920000Y-74360000D01*
D30*
X77940000Y-60122000D02*
X79464000Y-60122000D01*
X79464000Y-59106000D02*
X77940000Y-59106000D01*
X77940000Y-57836000D02*
X79464000Y-57836000D01*
X79464000Y-56566000D02*
X77940000Y-56566000D01*
X66256000Y-67234000D02*
X66256000Y-68758000D01*
X66256000Y-65202000D02*
X66256000Y-66218000D01*
D31*
X112230000Y-69520000D02*
X112230000Y-66345000D01*
X112230000Y-66345000D02*
X110960000Y-65075000D01*
X108606048Y-69285096D02*
X111995096Y-69285096D01*
X111995096Y-69285096D02*
X112230000Y-69520000D01*
D29*
X94382048Y-65842709D02*
X95841291Y-65842709D01*
X95841291Y-65842709D02*
X95974000Y-65710000D01*
X99419958Y-75362000D02*
X99276000Y-75362000D01*
X100000249Y-73927709D02*
X100000249Y-74781709D01*
X100000249Y-74781709D02*
X99419958Y-75362000D01*
X90665144Y-72568000D02*
X90132000Y-72568000D01*
X91932048Y-72555096D02*
X90678048Y-72555096D01*
X90678048Y-72555096D02*
X90665144Y-72568000D01*
X104910249Y-69017709D02*
X108338661Y-69017709D01*
X108338661Y-69017709D02*
X108606048Y-69285096D01*
X100000249Y-73927709D02*
X98904661Y-73927709D01*
X98904661Y-73927709D02*
X97532048Y-72555096D01*
X97532048Y-72555096D02*
X96832048Y-72555096D01*
D32*
X91932048Y-68745096D02*
X90271904Y-68745096D01*
X90271904Y-68745096D02*
X90132000Y-68885000D01*
X92360757Y-65964000D02*
X92482048Y-65842709D01*
D29*
X91932048Y-68745096D02*
X91932048Y-66392709D01*
X91932048Y-66392709D02*
X92482048Y-65842709D01*
X108420000Y-65075000D02*
X103975000Y-65075000D01*
X94919473Y-69979668D02*
X94919473Y-72783473D01*
X94919473Y-72783473D02*
X95720000Y-73584000D01*
X95720000Y-73584000D02*
X95974000Y-73584000D01*
X95974000Y-73584000D02*
X96990000Y-74600000D01*
X91275000Y-74600000D02*
X90755714Y-74600000D01*
X90755714Y-74600000D02*
X88481000Y-72325286D01*
X88481000Y-72325286D02*
X88481000Y-69012000D01*
X88481000Y-69012000D02*
X90005000Y-67488000D01*
X91275000Y-89586000D02*
X91275000Y-74600000D01*
X88354000Y-92507000D02*
X91275000Y-89586000D01*
X77051000Y-92507000D02*
X88354000Y-92507000D01*
X74765000Y-90221000D02*
X77051000Y-92507000D01*
X74765000Y-89332000D02*
X74765000Y-90221000D01*
D31*
X108606048Y-73285096D02*
X115995096Y-73285096D01*
X115995096Y-73285096D02*
X116040000Y-73330000D01*
D29*
X105007048Y-71920096D02*
X107391048Y-71920096D01*
X107391048Y-71920096D02*
X108606048Y-73135096D01*
X108606048Y-73135096D02*
X108606048Y-73285096D01*
X102807048Y-71920096D02*
X100192636Y-71920096D01*
X100192636Y-71920096D02*
X100000249Y-71727709D01*
X96832048Y-71285096D02*
X99557636Y-71285096D01*
X99557636Y-71285096D02*
X100000249Y-71727709D01*
X102710249Y-69017709D02*
X100465249Y-69017709D01*
X100465249Y-69017709D02*
X100000249Y-69482709D01*
X96832048Y-70015096D02*
X99467862Y-70015096D01*
X99467862Y-70015096D02*
X100000249Y-69482709D01*
X89243000Y-71171000D02*
X89357096Y-71285096D01*
X89357096Y-71285096D02*
X91932048Y-71285096D01*
X89243000Y-70536000D02*
X89243000Y-71171000D01*
X89763904Y-70015096D02*
X89243000Y-70536000D01*
X91932048Y-70015096D02*
X89763904Y-70015096D01*
X93688000Y-73203000D02*
X93688000Y-69597621D01*
X93688000Y-69597621D02*
X94540525Y-68745096D01*
X94540525Y-68745096D02*
X95578048Y-68745096D01*
X95578048Y-68745096D02*
X96832048Y-68745096D01*
X92545000Y-74346000D02*
X93688000Y-73203000D01*
X92545000Y-89713000D02*
X92545000Y-74346000D01*
X89751000Y-92507000D02*
X92545000Y-89713000D01*
X89751000Y-94196000D02*
X89751000Y-92507000D01*
X91440000Y-95885000D02*
X89751000Y-94196000D01*
X96832048Y-68745096D02*
X98687862Y-68745096D01*
X98687862Y-68745096D02*
X100000249Y-67432709D01*
X100000249Y-67432709D02*
X100000249Y-67282709D01*
G36*
X70955000Y-59561394D02*
X69722197Y-60794197D01*
X69694334Y-60836211D01*
X69685000Y-60884000D01*
X69685000Y-63805000D01*
X61303000Y-63805000D01*
X61303000Y-59412606D01*
X65292606Y-55423000D01*
X70955000Y-55423000D01*
X70955000Y-59561394D01*
X70955000Y-59561394D01*
G37*
X70955000Y-59561394D02*
X69722197Y-60794197D01*
X69694334Y-60836211D01*
X69685000Y-60884000D01*
X69685000Y-63805000D01*
X61303000Y-63805000D01*
X61303000Y-59412606D01*
X65292606Y-55423000D01*
X70955000Y-55423000D01*
X70955000Y-59561394D01*
G36*
X69939000Y-67234000D02*
X69949006Y-67283410D01*
X69976197Y-67323803D01*
X70955000Y-68302606D01*
X70955000Y-71753394D01*
X70267394Y-72441000D01*
X61303000Y-72441000D01*
X61303000Y-64567000D01*
X69939000Y-64567000D01*
X69939000Y-67234000D01*
X69939000Y-67234000D01*
G37*
X69939000Y-67234000D02*
X69949006Y-67283410D01*
X69976197Y-67323803D01*
X70955000Y-68302606D01*
X70955000Y-71753394D01*
X70267394Y-72441000D01*
X61303000Y-72441000D01*
X61303000Y-64567000D01*
X69939000Y-64567000D01*
X69939000Y-67234000D01*
G36*
X80353000Y-59360000D02*
X80363006Y-59409410D01*
X80390197Y-59449803D01*
X82893000Y-61952606D01*
X82893000Y-75997000D01*
X72733000Y-75997000D01*
X72733000Y-68123000D01*
X74130000Y-68123000D01*
X74179410Y-68112994D01*
X74219803Y-68085803D01*
X77267803Y-65037803D01*
X77295666Y-64995789D01*
X77305000Y-64948000D01*
X77305000Y-56185000D01*
X80353000Y-56185000D01*
X80353000Y-59360000D01*
X80353000Y-59360000D01*
G37*
X80353000Y-59360000D02*
X80363006Y-59409410D01*
X80390197Y-59449803D01*
X82893000Y-61952606D01*
X82893000Y-75997000D01*
X72733000Y-75997000D01*
X72733000Y-68123000D01*
X74130000Y-68123000D01*
X74179410Y-68112994D01*
X74219803Y-68085803D01*
X77267803Y-65037803D01*
X77295666Y-64995789D01*
X77305000Y-64948000D01*
X77305000Y-56185000D01*
X80353000Y-56185000D01*
X80353000Y-59360000D01*
G36*
X69380815Y-50468534D02*
X69354800Y-50597000D01*
X69354800Y-54788000D01*
X69377382Y-54908014D01*
X69414566Y-54965800D01*
X65240000Y-54965800D01*
X65115748Y-54990069D01*
X65006513Y-55062513D01*
X60942513Y-59126513D01*
X60871815Y-59231534D01*
X60845800Y-59360000D01*
X60845800Y-63932000D01*
X60868382Y-64052014D01*
X60939310Y-64162239D01*
X60973395Y-64185528D01*
X60945761Y-64203310D01*
X60871815Y-64311534D01*
X60845800Y-64440000D01*
X60845800Y-72568000D01*
X60868382Y-72688014D01*
X60939310Y-72798239D01*
X61047534Y-72872185D01*
X61176000Y-72898200D01*
X70320000Y-72898200D01*
X70444252Y-72873931D01*
X70553487Y-72801487D01*
X70773600Y-72581374D01*
X70766537Y-72616884D01*
X70360090Y-73023331D01*
X67170000Y-73023331D01*
X67047635Y-73046356D01*
X66935251Y-73118673D01*
X66859856Y-73229017D01*
X66833331Y-73360000D01*
X66833331Y-73507800D01*
X66026669Y-73507800D01*
X66026669Y-73365000D01*
X66003644Y-73242635D01*
X65931327Y-73130251D01*
X65820983Y-73054856D01*
X65690000Y-73028331D01*
X64790000Y-73028331D01*
X64667635Y-73051356D01*
X64555251Y-73123673D01*
X64479856Y-73234017D01*
X64453331Y-73365000D01*
X64453331Y-74565000D01*
X64476356Y-74687365D01*
X64548673Y-74799749D01*
X64659017Y-74875144D01*
X64790000Y-74901669D01*
X65690000Y-74901669D01*
X65812365Y-74878644D01*
X65924749Y-74806327D01*
X66000144Y-74695983D01*
X66026669Y-74565000D01*
X66026669Y-74422200D01*
X66833331Y-74422200D01*
X66833331Y-75360000D01*
X66856356Y-75482365D01*
X66928673Y-75594749D01*
X67039017Y-75670144D01*
X67170000Y-75696669D01*
X70670000Y-75696669D01*
X70792365Y-75673644D01*
X70904749Y-75601327D01*
X70980144Y-75490983D01*
X71006669Y-75360000D01*
X71006669Y-73669910D01*
X71531289Y-73145290D01*
X71630398Y-72996963D01*
X71638061Y-72958436D01*
X71649463Y-72901115D01*
X72167289Y-72383289D01*
X72266398Y-72234963D01*
X72275800Y-72187696D01*
X72275800Y-76124000D01*
X72298382Y-76244014D01*
X72369310Y-76354239D01*
X72477534Y-76428185D01*
X72606000Y-76454200D01*
X83020000Y-76454200D01*
X83140014Y-76431618D01*
X83250239Y-76360690D01*
X83324185Y-76252466D01*
X83350200Y-76124000D01*
X83350200Y-61900000D01*
X83325931Y-61775748D01*
X83253487Y-61666513D01*
X80810200Y-59223226D01*
X80810200Y-57660000D01*
X80823638Y-57660000D01*
X80890639Y-57996838D01*
X81081443Y-58282395D01*
X81367000Y-58473199D01*
X81703838Y-58540200D01*
X82146162Y-58540200D01*
X82483000Y-58473199D01*
X82768557Y-58282395D01*
X82959361Y-57996838D01*
X82964699Y-57970000D01*
X83721679Y-57970000D01*
X83792486Y-58325972D01*
X83994128Y-58627751D01*
X84295907Y-58829393D01*
X84651879Y-58900200D01*
X85198121Y-58900200D01*
X85554093Y-58829393D01*
X85855872Y-58627751D01*
X86057514Y-58325972D01*
X86128321Y-57970000D01*
X86057514Y-57614028D01*
X85855872Y-57312249D01*
X85554093Y-57110607D01*
X85198121Y-57039800D01*
X84651879Y-57039800D01*
X84295907Y-57110607D01*
X83994128Y-57312249D01*
X83792486Y-57614028D01*
X83721679Y-57970000D01*
X82964699Y-57970000D01*
X83026362Y-57660000D01*
X82959361Y-57323162D01*
X82768557Y-57037605D01*
X82483000Y-56846801D01*
X82146162Y-56779800D01*
X81703838Y-56779800D01*
X81367000Y-56846801D01*
X81081443Y-57037605D01*
X80890639Y-57323162D01*
X80823638Y-57660000D01*
X80810200Y-57660000D01*
X80810200Y-56058000D01*
X80787618Y-55937986D01*
X80716690Y-55827761D01*
X80608466Y-55753815D01*
X80480000Y-55727800D01*
X77178000Y-55727800D01*
X77057986Y-55750382D01*
X77000200Y-55787566D01*
X77000200Y-52820000D01*
X80823638Y-52820000D01*
X80890639Y-53156838D01*
X81081443Y-53442395D01*
X81367000Y-53633199D01*
X81703838Y-53700200D01*
X82146162Y-53700200D01*
X82483000Y-53633199D01*
X82768557Y-53442395D01*
X82959361Y-53156838D01*
X83026362Y-52820000D01*
X82964700Y-52510000D01*
X83721679Y-52510000D01*
X83792486Y-52865972D01*
X83994128Y-53167751D01*
X84295907Y-53369393D01*
X84651879Y-53440200D01*
X85198121Y-53440200D01*
X85554093Y-53369393D01*
X85855872Y-53167751D01*
X86057514Y-52865972D01*
X86128321Y-52510000D01*
X86057514Y-52154028D01*
X85855872Y-51852249D01*
X85554093Y-51650607D01*
X85198121Y-51579800D01*
X84651879Y-51579800D01*
X84295907Y-51650607D01*
X83994128Y-51852249D01*
X83792486Y-52154028D01*
X83721679Y-52510000D01*
X82964700Y-52510000D01*
X82959361Y-52483162D01*
X82768557Y-52197605D01*
X82483000Y-52006801D01*
X82146162Y-51939800D01*
X81703838Y-51939800D01*
X81367000Y-52006801D01*
X81081443Y-52197605D01*
X80890639Y-52483162D01*
X80823638Y-52820000D01*
X77000200Y-52820000D01*
X77000200Y-51740000D01*
X76975931Y-51615748D01*
X76903487Y-51506513D01*
X75802174Y-50405200D01*
X87594800Y-50405200D01*
X87594800Y-61500000D01*
X87625644Y-61655063D01*
X87713480Y-61786520D01*
X87844937Y-61874356D01*
X88000000Y-61905200D01*
X119594800Y-61905200D01*
X119594800Y-77594800D01*
X94500000Y-77594800D01*
X94344937Y-77625644D01*
X94213480Y-77713480D01*
X94125644Y-77844937D01*
X94094800Y-78000000D01*
X94094800Y-99594800D01*
X50405200Y-99594800D01*
X50405200Y-95911890D01*
X58718524Y-95911890D01*
X58888355Y-96321924D01*
X59278642Y-96750183D01*
X59803108Y-96996486D01*
X60033000Y-96875819D01*
X60033000Y-95682000D01*
X60287000Y-95682000D01*
X60287000Y-96875819D01*
X60516892Y-96996486D01*
X61041358Y-96750183D01*
X61431645Y-96321924D01*
X61601476Y-95911890D01*
X61480155Y-95682000D01*
X60287000Y-95682000D01*
X60033000Y-95682000D01*
X58839845Y-95682000D01*
X58718524Y-95911890D01*
X50405200Y-95911890D01*
X50405200Y-95198110D01*
X58718524Y-95198110D01*
X58839845Y-95428000D01*
X60033000Y-95428000D01*
X60033000Y-95408000D01*
X60287000Y-95408000D01*
X60287000Y-95428000D01*
X61480155Y-95428000D01*
X61601476Y-95198110D01*
X61431645Y-94788076D01*
X61041358Y-94359817D01*
X60704605Y-94201669D01*
X61010000Y-94201669D01*
X61132365Y-94178644D01*
X61244749Y-94106327D01*
X61320144Y-93995983D01*
X61346669Y-93865000D01*
X61346669Y-92165000D01*
X61323644Y-92042635D01*
X61251327Y-91930251D01*
X61140983Y-91854856D01*
X61010000Y-91828331D01*
X59310000Y-91828331D01*
X59187635Y-91851356D01*
X59075251Y-91923673D01*
X58999856Y-92034017D01*
X58973331Y-92165000D01*
X58973331Y-93865000D01*
X58996356Y-93987365D01*
X59068673Y-94099749D01*
X59179017Y-94175144D01*
X59310000Y-94201669D01*
X59615395Y-94201669D01*
X59278642Y-94359817D01*
X58888355Y-94788076D01*
X58718524Y-95198110D01*
X50405200Y-95198110D01*
X50405200Y-89452725D01*
X74155294Y-89452725D01*
X74247905Y-89676860D01*
X74307800Y-89736860D01*
X74307800Y-90221000D01*
X74342602Y-90395963D01*
X74441711Y-90544289D01*
X76727711Y-92830289D01*
X76876037Y-92929398D01*
X77051000Y-92964200D01*
X88354000Y-92964200D01*
X88528963Y-92929398D01*
X88677289Y-92830289D01*
X91598289Y-89909289D01*
X91697398Y-89760963D01*
X91732200Y-89586000D01*
X91732200Y-75004951D01*
X91791493Y-74945762D01*
X91884494Y-74721789D01*
X91884706Y-74479275D01*
X91792095Y-74255140D01*
X91620762Y-74083507D01*
X91396789Y-73990506D01*
X91154275Y-73990294D01*
X90930140Y-74082905D01*
X90907649Y-74105357D01*
X89643138Y-72840846D01*
X90297048Y-72840846D01*
X90297048Y-72981405D01*
X90393721Y-73214794D01*
X90572349Y-73393423D01*
X90805738Y-73490096D01*
X91646298Y-73490096D01*
X91805048Y-73331346D01*
X91805048Y-72682096D01*
X90455798Y-72682096D01*
X90297048Y-72840846D01*
X89643138Y-72840846D01*
X88938200Y-72135908D01*
X88938200Y-71512778D01*
X89033807Y-71608385D01*
X89182133Y-71707494D01*
X89357096Y-71742296D01*
X90546822Y-71742296D01*
X90393721Y-71895398D01*
X90297048Y-72128787D01*
X90297048Y-72269346D01*
X90455798Y-72428096D01*
X91805048Y-72428096D01*
X91805048Y-72408096D01*
X92059048Y-72408096D01*
X92059048Y-72428096D01*
X92079048Y-72428096D01*
X92079048Y-72682096D01*
X92059048Y-72682096D01*
X92059048Y-73331346D01*
X92217798Y-73490096D01*
X92754326Y-73490096D01*
X92221711Y-74022711D01*
X92122602Y-74171037D01*
X92087800Y-74346000D01*
X92087800Y-89523622D01*
X89427711Y-92183711D01*
X89328602Y-92332037D01*
X89293800Y-92507000D01*
X89293800Y-94196000D01*
X89328602Y-94370963D01*
X89427711Y-94519289D01*
X90332630Y-95424208D01*
X90326516Y-95433357D01*
X90236679Y-95885000D01*
X90326516Y-96336643D01*
X90582352Y-96719527D01*
X90965236Y-96975363D01*
X91416879Y-97065200D01*
X91463121Y-97065200D01*
X91914764Y-96975363D01*
X92297648Y-96719527D01*
X92553484Y-96336643D01*
X92643321Y-95885000D01*
X92553484Y-95433357D01*
X92297648Y-95050473D01*
X91914764Y-94794637D01*
X91463121Y-94704800D01*
X91416879Y-94704800D01*
X90991075Y-94789497D01*
X90733247Y-94531669D01*
X92290000Y-94531669D01*
X92412365Y-94508644D01*
X92524749Y-94436327D01*
X92600144Y-94325983D01*
X92626669Y-94195000D01*
X92626669Y-92495000D01*
X92603644Y-92372635D01*
X92531327Y-92260251D01*
X92420983Y-92184856D01*
X92290000Y-92158331D01*
X90746247Y-92158331D01*
X92868289Y-90036289D01*
X92967398Y-89887963D01*
X93002200Y-89713000D01*
X93002200Y-74535378D01*
X93346550Y-74191028D01*
X93269800Y-74576879D01*
X93269800Y-74623121D01*
X93359637Y-75074764D01*
X93615473Y-75457648D01*
X93998357Y-75713484D01*
X94450000Y-75803321D01*
X94901643Y-75713484D01*
X95284527Y-75457648D01*
X95540363Y-75074764D01*
X95630200Y-74623121D01*
X95630200Y-74576879D01*
X95540363Y-74125236D01*
X95390755Y-73901333D01*
X95396711Y-73907289D01*
X95545037Y-74006398D01*
X95720000Y-74041200D01*
X95784622Y-74041200D01*
X95803331Y-74059909D01*
X95803331Y-75450000D01*
X95826356Y-75572365D01*
X95898673Y-75684749D01*
X96009017Y-75760144D01*
X96140000Y-75786669D01*
X97840000Y-75786669D01*
X97962365Y-75763644D01*
X98074749Y-75691327D01*
X98150144Y-75580983D01*
X98176669Y-75450000D01*
X98176669Y-74213459D01*
X98915249Y-74213459D01*
X98915249Y-74654018D01*
X99011922Y-74887407D01*
X99190550Y-75066036D01*
X99423939Y-75162709D01*
X99714499Y-75162709D01*
X99873249Y-75003959D01*
X99873249Y-74054709D01*
X100127249Y-74054709D01*
X100127249Y-75003959D01*
X100285999Y-75162709D01*
X100576559Y-75162709D01*
X100809948Y-75066036D01*
X100988576Y-74887407D01*
X101085249Y-74654018D01*
X101085249Y-74213459D01*
X100926499Y-74054709D01*
X100127249Y-74054709D01*
X99873249Y-74054709D01*
X99073999Y-74054709D01*
X98915249Y-74213459D01*
X98176669Y-74213459D01*
X98176669Y-73750000D01*
X98153644Y-73627635D01*
X98081327Y-73515251D01*
X98011995Y-73467879D01*
X98191747Y-73393423D01*
X98370375Y-73214794D01*
X98375922Y-73201400D01*
X98915249Y-73201400D01*
X98915249Y-73641959D01*
X99073999Y-73800709D01*
X99873249Y-73800709D01*
X99873249Y-72851459D01*
X100127249Y-72851459D01*
X100127249Y-73800709D01*
X100926499Y-73800709D01*
X101085249Y-73641959D01*
X101085249Y-73201400D01*
X100988576Y-72968011D01*
X100809948Y-72789382D01*
X100576559Y-72692709D01*
X100285999Y-72692709D01*
X100127249Y-72851459D01*
X99873249Y-72851459D01*
X99714499Y-72692709D01*
X99423939Y-72692709D01*
X99190550Y-72789382D01*
X99011922Y-72968011D01*
X98915249Y-73201400D01*
X98375922Y-73201400D01*
X98467048Y-72981405D01*
X98467048Y-72840846D01*
X98308298Y-72682096D01*
X96959048Y-72682096D01*
X96959048Y-72702096D01*
X96705048Y-72702096D01*
X96705048Y-72682096D01*
X96685048Y-72682096D01*
X96685048Y-72428096D01*
X96705048Y-72428096D01*
X96705048Y-72408096D01*
X96959048Y-72408096D01*
X96959048Y-72428096D01*
X98308298Y-72428096D01*
X98467048Y-72269346D01*
X98467048Y-72128787D01*
X98370375Y-71895398D01*
X98217274Y-71742296D01*
X99213580Y-71742296D01*
X99213580Y-72327709D01*
X99236605Y-72450074D01*
X99308922Y-72562458D01*
X99419266Y-72637853D01*
X99550249Y-72664378D01*
X100450249Y-72664378D01*
X100572614Y-72641353D01*
X100684998Y-72569036D01*
X100760393Y-72458692D01*
X100776876Y-72377296D01*
X101871734Y-72377296D01*
X101893404Y-72492461D01*
X101965721Y-72604845D01*
X102076065Y-72680240D01*
X102207048Y-72706765D01*
X103407048Y-72706765D01*
X103529413Y-72683740D01*
X103641797Y-72611423D01*
X103717192Y-72501079D01*
X103743717Y-72370096D01*
X103743717Y-71470096D01*
X104070379Y-71470096D01*
X104070379Y-72370096D01*
X104093404Y-72492461D01*
X104165721Y-72604845D01*
X104276065Y-72680240D01*
X104407048Y-72706765D01*
X105607048Y-72706765D01*
X105729413Y-72683740D01*
X105841797Y-72611423D01*
X105917192Y-72501079D01*
X105942259Y-72377296D01*
X107201670Y-72377296D01*
X107419379Y-72595005D01*
X107419379Y-74285096D01*
X107442404Y-74407461D01*
X107514721Y-74519845D01*
X107625065Y-74595240D01*
X107756048Y-74621765D01*
X109456048Y-74621765D01*
X109578413Y-74598740D01*
X109690797Y-74526423D01*
X109766192Y-74416079D01*
X109792717Y-74285096D01*
X109792717Y-74123296D01*
X113811879Y-74123296D01*
X114036257Y-74666331D01*
X114700174Y-75331408D01*
X115568068Y-75691789D01*
X116507809Y-75692609D01*
X117376331Y-75333743D01*
X118041408Y-74669826D01*
X118401789Y-73801932D01*
X118402609Y-72862191D01*
X118043743Y-71993669D01*
X117379826Y-71328592D01*
X116511932Y-70968211D01*
X115572191Y-70967391D01*
X114703669Y-71326257D01*
X114038592Y-71990174D01*
X113848944Y-72446896D01*
X109792717Y-72446896D01*
X109792717Y-72285096D01*
X109769692Y-72162731D01*
X109697375Y-72050347D01*
X109587031Y-71974952D01*
X109456048Y-71948427D01*
X108065957Y-71948427D01*
X107714337Y-71596807D01*
X107566011Y-71497698D01*
X107391048Y-71462896D01*
X105942362Y-71462896D01*
X105920692Y-71347731D01*
X105848375Y-71235347D01*
X105738031Y-71159952D01*
X105607048Y-71133427D01*
X104407048Y-71133427D01*
X104284683Y-71156452D01*
X104172299Y-71228769D01*
X104096904Y-71339113D01*
X104070379Y-71470096D01*
X103743717Y-71470096D01*
X103720692Y-71347731D01*
X103648375Y-71235347D01*
X103538031Y-71159952D01*
X103407048Y-71133427D01*
X102207048Y-71133427D01*
X102084683Y-71156452D01*
X101972299Y-71228769D01*
X101896904Y-71339113D01*
X101871837Y-71462896D01*
X100786918Y-71462896D01*
X100786918Y-71127709D01*
X100763893Y-71005344D01*
X100691576Y-70892960D01*
X100581232Y-70817565D01*
X100450249Y-70791040D01*
X99550249Y-70791040D01*
X99427884Y-70814065D01*
X99406390Y-70827896D01*
X98123276Y-70827896D01*
X98073375Y-70750347D01*
X97963031Y-70674952D01*
X97840592Y-70650157D01*
X97954413Y-70628740D01*
X98066797Y-70556423D01*
X98124279Y-70472296D01*
X99467862Y-70472296D01*
X99642825Y-70437494D01*
X99669937Y-70419378D01*
X100450249Y-70419378D01*
X100572614Y-70396353D01*
X100684998Y-70324036D01*
X100760393Y-70213692D01*
X100786918Y-70082709D01*
X100786918Y-69474909D01*
X101774935Y-69474909D01*
X101796605Y-69590074D01*
X101868922Y-69702458D01*
X101979266Y-69777853D01*
X102110249Y-69804378D01*
X103310249Y-69804378D01*
X103432614Y-69781353D01*
X103544998Y-69709036D01*
X103620393Y-69598692D01*
X103646918Y-69467709D01*
X103646918Y-69303459D01*
X103675249Y-69303459D01*
X103675249Y-69594019D01*
X103771922Y-69827408D01*
X103950551Y-70006036D01*
X104183940Y-70102709D01*
X104624499Y-70102709D01*
X104783249Y-69943959D01*
X104783249Y-69144709D01*
X105037249Y-69144709D01*
X105037249Y-69943959D01*
X105195999Y-70102709D01*
X105636558Y-70102709D01*
X105869947Y-70006036D01*
X106048576Y-69827408D01*
X106145249Y-69594019D01*
X106145249Y-69570846D01*
X107121048Y-69570846D01*
X107121048Y-70411405D01*
X107217721Y-70644794D01*
X107396349Y-70823423D01*
X107629738Y-70920096D01*
X108320298Y-70920096D01*
X108479048Y-70761346D01*
X108479048Y-69412096D01*
X108733048Y-69412096D01*
X108733048Y-70761346D01*
X108891798Y-70920096D01*
X109582358Y-70920096D01*
X109815747Y-70823423D01*
X109994375Y-70644794D01*
X110091048Y-70411405D01*
X110091048Y-69876892D01*
X110788514Y-69876892D01*
X111034817Y-70401358D01*
X111463076Y-70791645D01*
X111873110Y-70961476D01*
X112103000Y-70840155D01*
X112103000Y-69647000D01*
X110909181Y-69647000D01*
X110788514Y-69876892D01*
X110091048Y-69876892D01*
X110091048Y-69570846D01*
X109932298Y-69412096D01*
X108733048Y-69412096D01*
X108479048Y-69412096D01*
X107279798Y-69412096D01*
X107121048Y-69570846D01*
X106145249Y-69570846D01*
X106145249Y-69303459D01*
X106004898Y-69163108D01*
X110788514Y-69163108D01*
X110909181Y-69393000D01*
X112103000Y-69393000D01*
X112103000Y-68199845D01*
X112357000Y-68199845D01*
X112357000Y-69393000D01*
X112377000Y-69393000D01*
X112377000Y-69647000D01*
X112357000Y-69647000D01*
X112357000Y-70840155D01*
X112586890Y-70961476D01*
X112996924Y-70791645D01*
X113425183Y-70401358D01*
X113583331Y-70064605D01*
X113583331Y-70370000D01*
X113606356Y-70492365D01*
X113678673Y-70604749D01*
X113789017Y-70680144D01*
X113920000Y-70706669D01*
X115620000Y-70706669D01*
X115742365Y-70683644D01*
X115854749Y-70611327D01*
X115930144Y-70500983D01*
X115956669Y-70370000D01*
X115956669Y-68670000D01*
X115933644Y-68547635D01*
X115861327Y-68435251D01*
X115750983Y-68359856D01*
X115620000Y-68333331D01*
X113920000Y-68333331D01*
X113797635Y-68356356D01*
X113685251Y-68428673D01*
X113609856Y-68539017D01*
X113583331Y-68670000D01*
X113583331Y-68975395D01*
X113425183Y-68638642D01*
X112996924Y-68248355D01*
X112586890Y-68078524D01*
X112357000Y-68199845D01*
X112103000Y-68199845D01*
X111873110Y-68078524D01*
X111463076Y-68248355D01*
X111034817Y-68638642D01*
X110788514Y-69163108D01*
X106004898Y-69163108D01*
X105986499Y-69144709D01*
X105037249Y-69144709D01*
X104783249Y-69144709D01*
X103833999Y-69144709D01*
X103675249Y-69303459D01*
X103646918Y-69303459D01*
X103646918Y-68567709D01*
X103623893Y-68445344D01*
X103621355Y-68441399D01*
X103675249Y-68441399D01*
X103675249Y-68731959D01*
X103833999Y-68890709D01*
X104783249Y-68890709D01*
X104783249Y-68091459D01*
X105037249Y-68091459D01*
X105037249Y-68890709D01*
X105986499Y-68890709D01*
X106145249Y-68731959D01*
X106145249Y-68441399D01*
X106048576Y-68208010D01*
X105999353Y-68158787D01*
X107121048Y-68158787D01*
X107121048Y-68999346D01*
X107279798Y-69158096D01*
X108479048Y-69158096D01*
X108479048Y-67808846D01*
X108733048Y-67808846D01*
X108733048Y-69158096D01*
X109932298Y-69158096D01*
X110091048Y-68999346D01*
X110091048Y-68158787D01*
X109994375Y-67925398D01*
X109815747Y-67746769D01*
X109582358Y-67650096D01*
X108891798Y-67650096D01*
X108733048Y-67808846D01*
X108479048Y-67808846D01*
X108320298Y-67650096D01*
X107629738Y-67650096D01*
X107396349Y-67746769D01*
X107217721Y-67925398D01*
X107121048Y-68158787D01*
X105999353Y-68158787D01*
X105869947Y-68029382D01*
X105636558Y-67932709D01*
X105195999Y-67932709D01*
X105037249Y-68091459D01*
X104783249Y-68091459D01*
X104624499Y-67932709D01*
X104183940Y-67932709D01*
X103950551Y-68029382D01*
X103771922Y-68208010D01*
X103675249Y-68441399D01*
X103621355Y-68441399D01*
X103551576Y-68332960D01*
X103441232Y-68257565D01*
X103310249Y-68231040D01*
X102110249Y-68231040D01*
X101987884Y-68254065D01*
X101875500Y-68326382D01*
X101800105Y-68436726D01*
X101775038Y-68560509D01*
X100521698Y-68560509D01*
X100450249Y-68546040D01*
X99550249Y-68546040D01*
X99529613Y-68549923D01*
X99860159Y-68219378D01*
X100450249Y-68219378D01*
X100572614Y-68196353D01*
X100684998Y-68124036D01*
X100760393Y-68013692D01*
X100786918Y-67882709D01*
X100786918Y-66682709D01*
X100763893Y-66560344D01*
X100691576Y-66447960D01*
X100581232Y-66372565D01*
X100450249Y-66346040D01*
X99550249Y-66346040D01*
X99427884Y-66369065D01*
X99315500Y-66441382D01*
X99240105Y-66551726D01*
X99213580Y-66682709D01*
X99213580Y-67572799D01*
X98498484Y-68287896D01*
X98123276Y-68287896D01*
X98073375Y-68210347D01*
X97963031Y-68134952D01*
X97832048Y-68108427D01*
X95832048Y-68108427D01*
X95709683Y-68131452D01*
X95597299Y-68203769D01*
X95539817Y-68287896D01*
X94540525Y-68287896D01*
X94365562Y-68322698D01*
X94217235Y-68421807D01*
X93364711Y-69274332D01*
X93265602Y-69422658D01*
X93235059Y-69576207D01*
X93173375Y-69480347D01*
X93063031Y-69404952D01*
X92940592Y-69380157D01*
X93054413Y-69358740D01*
X93166797Y-69286423D01*
X93242192Y-69176079D01*
X93268717Y-69045096D01*
X93268717Y-68445096D01*
X93245692Y-68322731D01*
X93173375Y-68210347D01*
X93063031Y-68134952D01*
X92932048Y-68108427D01*
X92389248Y-68108427D01*
X92389248Y-66606033D01*
X92608621Y-66562397D01*
X92620622Y-66554378D01*
X93082048Y-66554378D01*
X93204413Y-66531353D01*
X93220387Y-66521074D01*
X93243721Y-66577408D01*
X93422350Y-66756036D01*
X93655739Y-66852709D01*
X94096298Y-66852709D01*
X94255048Y-66693959D01*
X94255048Y-65969709D01*
X94509048Y-65969709D01*
X94509048Y-66693959D01*
X94667798Y-66852709D01*
X95108357Y-66852709D01*
X95341746Y-66756036D01*
X95520375Y-66577408D01*
X95617048Y-66344019D01*
X95617048Y-66128459D01*
X95458298Y-65969709D01*
X94509048Y-65969709D01*
X94255048Y-65969709D01*
X94235048Y-65969709D01*
X94235048Y-65715709D01*
X94255048Y-65715709D01*
X94255048Y-64991459D01*
X94509048Y-64991459D01*
X94509048Y-65715709D01*
X95458298Y-65715709D01*
X95617048Y-65556959D01*
X95617048Y-65542809D01*
X101612391Y-65542809D01*
X101971257Y-66411331D01*
X102635174Y-67076408D01*
X103503068Y-67436789D01*
X104442809Y-67437609D01*
X105311331Y-67078743D01*
X105976408Y-66414826D01*
X106336789Y-65546932D01*
X106336802Y-65532200D01*
X107233331Y-65532200D01*
X107233331Y-65925000D01*
X107256356Y-66047365D01*
X107328673Y-66159749D01*
X107439017Y-66235144D01*
X107570000Y-66261669D01*
X109270000Y-66261669D01*
X109392365Y-66238644D01*
X109504749Y-66166327D01*
X109580144Y-66055983D01*
X109606669Y-65925000D01*
X109606669Y-65619605D01*
X109764817Y-65956358D01*
X110193076Y-66346645D01*
X110603110Y-66516476D01*
X110833000Y-66395155D01*
X110833000Y-65202000D01*
X111087000Y-65202000D01*
X111087000Y-66395155D01*
X111316890Y-66516476D01*
X111726924Y-66346645D01*
X112155183Y-65956358D01*
X112349396Y-65542809D01*
X113677391Y-65542809D01*
X114036257Y-66411331D01*
X114700174Y-67076408D01*
X115568068Y-67436789D01*
X116507809Y-67437609D01*
X117376331Y-67078743D01*
X118041408Y-66414826D01*
X118401789Y-65546932D01*
X118402609Y-64607191D01*
X118043743Y-63738669D01*
X117379826Y-63073592D01*
X116511932Y-62713211D01*
X115572191Y-62712391D01*
X114703669Y-63071257D01*
X114038592Y-63735174D01*
X113678211Y-64603068D01*
X113677391Y-65542809D01*
X112349396Y-65542809D01*
X112401486Y-65431892D01*
X112280819Y-65202000D01*
X111087000Y-65202000D01*
X110833000Y-65202000D01*
X110813000Y-65202000D01*
X110813000Y-64948000D01*
X110833000Y-64948000D01*
X110833000Y-63754845D01*
X111087000Y-63754845D01*
X111087000Y-64948000D01*
X112280819Y-64948000D01*
X112401486Y-64718108D01*
X112155183Y-64193642D01*
X111726924Y-63803355D01*
X111316890Y-63633524D01*
X111087000Y-63754845D01*
X110833000Y-63754845D01*
X110603110Y-63633524D01*
X110193076Y-63803355D01*
X109764817Y-64193642D01*
X109606669Y-64530395D01*
X109606669Y-64225000D01*
X109583644Y-64102635D01*
X109511327Y-63990251D01*
X109400983Y-63914856D01*
X109270000Y-63888331D01*
X107570000Y-63888331D01*
X107447635Y-63911356D01*
X107335251Y-63983673D01*
X107259856Y-64094017D01*
X107233331Y-64225000D01*
X107233331Y-64617800D01*
X106337600Y-64617800D01*
X106337609Y-64607191D01*
X105978743Y-63738669D01*
X105314826Y-63073592D01*
X104446932Y-62713211D01*
X103507191Y-62712391D01*
X102638669Y-63071257D01*
X101973592Y-63735174D01*
X101613211Y-64603068D01*
X101612391Y-65542809D01*
X95617048Y-65542809D01*
X95617048Y-65341399D01*
X95520375Y-65108010D01*
X95341746Y-64929382D01*
X95108357Y-64832709D01*
X94667798Y-64832709D01*
X94509048Y-64991459D01*
X94255048Y-64991459D01*
X94096298Y-64832709D01*
X93655739Y-64832709D01*
X93422350Y-64929382D01*
X93243721Y-65108010D01*
X93220953Y-65162978D01*
X93213031Y-65157565D01*
X93082048Y-65131040D01*
X91882048Y-65131040D01*
X91759683Y-65154065D01*
X91647299Y-65226382D01*
X91571904Y-65336726D01*
X91545379Y-65467709D01*
X91545379Y-66164274D01*
X91509650Y-66217746D01*
X91474848Y-66392709D01*
X91474848Y-68097396D01*
X90271904Y-68097396D01*
X90024040Y-68146699D01*
X89930133Y-68209446D01*
X90041946Y-68097633D01*
X90125725Y-68097706D01*
X90349860Y-68005095D01*
X90521493Y-67833762D01*
X90614494Y-67609789D01*
X90614706Y-67367275D01*
X90522095Y-67143140D01*
X90350762Y-66971507D01*
X90126789Y-66878506D01*
X89884275Y-66878294D01*
X89660140Y-66970905D01*
X89488507Y-67142238D01*
X89395506Y-67366211D01*
X89395432Y-67450989D01*
X88157711Y-68688711D01*
X88058602Y-68837037D01*
X88023800Y-69012000D01*
X88023800Y-72325286D01*
X88058602Y-72500249D01*
X88157711Y-72648575D01*
X90432425Y-74923289D01*
X90580751Y-75022398D01*
X90755714Y-75057200D01*
X90817800Y-75057200D01*
X90817800Y-89396622D01*
X88164622Y-92049800D01*
X77240378Y-92049800D01*
X76618684Y-91428106D01*
X77911032Y-91428106D01*
X77911273Y-91616244D01*
X78233552Y-91718629D01*
X78570479Y-91689890D01*
X78748277Y-91616244D01*
X78748518Y-91428106D01*
X79411032Y-91428106D01*
X79411273Y-91616244D01*
X79733552Y-91718629D01*
X80070479Y-91689890D01*
X80248277Y-91616244D01*
X80248518Y-91428106D01*
X79829775Y-91009363D01*
X79411032Y-91428106D01*
X78748518Y-91428106D01*
X78329775Y-91009363D01*
X77911032Y-91428106D01*
X76618684Y-91428106D01*
X75951690Y-90761112D01*
X77468481Y-90761112D01*
X77497220Y-91098039D01*
X77570866Y-91275837D01*
X77759004Y-91276078D01*
X78177747Y-90857335D01*
X78481803Y-90857335D01*
X78900546Y-91276078D01*
X79079775Y-91275848D01*
X79259004Y-91276078D01*
X79677747Y-90857335D01*
X79981803Y-90857335D01*
X80400546Y-91276078D01*
X80588684Y-91275837D01*
X80691069Y-90953558D01*
X80662330Y-90616631D01*
X80588684Y-90438833D01*
X80400546Y-90438592D01*
X79981803Y-90857335D01*
X79677747Y-90857335D01*
X79259004Y-90438592D01*
X79079775Y-90438822D01*
X78900546Y-90438592D01*
X78481803Y-90857335D01*
X78177747Y-90857335D01*
X77759004Y-90438592D01*
X77570866Y-90438833D01*
X77468481Y-90761112D01*
X75951690Y-90761112D01*
X75222200Y-90031622D01*
X75222200Y-89928106D01*
X77911032Y-89928106D01*
X77911262Y-90107335D01*
X77911032Y-90286564D01*
X78329775Y-90705307D01*
X78748518Y-90286564D01*
X78748288Y-90107335D01*
X78748518Y-89928106D01*
X79411032Y-89928106D01*
X79411262Y-90107335D01*
X79411032Y-90286564D01*
X79829775Y-90705307D01*
X80248518Y-90286564D01*
X80248288Y-90107335D01*
X80248518Y-89928106D01*
X79829775Y-89509363D01*
X79411032Y-89928106D01*
X78748518Y-89928106D01*
X78329775Y-89509363D01*
X77911032Y-89928106D01*
X75222200Y-89928106D01*
X75222200Y-89736951D01*
X75281493Y-89677762D01*
X75374494Y-89453789D01*
X75374662Y-89261112D01*
X77468481Y-89261112D01*
X77497220Y-89598039D01*
X77570866Y-89775837D01*
X77759004Y-89776078D01*
X78177747Y-89357335D01*
X78481803Y-89357335D01*
X78900546Y-89776078D01*
X79079775Y-89775848D01*
X79259004Y-89776078D01*
X79677747Y-89357335D01*
X79981803Y-89357335D01*
X80400546Y-89776078D01*
X80588684Y-89775837D01*
X80691069Y-89453558D01*
X80662330Y-89116631D01*
X80588684Y-88938833D01*
X80400546Y-88938592D01*
X79981803Y-89357335D01*
X79677747Y-89357335D01*
X79259004Y-88938592D01*
X79079775Y-88938822D01*
X78900546Y-88938592D01*
X78481803Y-89357335D01*
X78177747Y-89357335D01*
X77759004Y-88938592D01*
X77570866Y-88938833D01*
X77468481Y-89261112D01*
X75374662Y-89261112D01*
X75374706Y-89211275D01*
X75282095Y-88987140D01*
X75110762Y-88815507D01*
X74886789Y-88722506D01*
X74644275Y-88722294D01*
X74420140Y-88814905D01*
X74248507Y-88986238D01*
X74155506Y-89210211D01*
X74155294Y-89452725D01*
X50405200Y-89452725D01*
X50405200Y-88428106D01*
X77911032Y-88428106D01*
X77911262Y-88607335D01*
X77911032Y-88786564D01*
X78329775Y-89205307D01*
X78748518Y-88786564D01*
X78748288Y-88607335D01*
X78748518Y-88428106D01*
X79411032Y-88428106D01*
X79411262Y-88607335D01*
X79411032Y-88786564D01*
X79829775Y-89205307D01*
X80248518Y-88786564D01*
X80248288Y-88607335D01*
X80248518Y-88428106D01*
X79829775Y-88009363D01*
X79411032Y-88428106D01*
X78748518Y-88428106D01*
X78329775Y-88009363D01*
X77911032Y-88428106D01*
X50405200Y-88428106D01*
X50405200Y-87761112D01*
X77468481Y-87761112D01*
X77497220Y-88098039D01*
X77570866Y-88275837D01*
X77759004Y-88276078D01*
X78177747Y-87857335D01*
X78481803Y-87857335D01*
X78900546Y-88276078D01*
X79079775Y-88275848D01*
X79259004Y-88276078D01*
X79677747Y-87857335D01*
X79981803Y-87857335D01*
X80400546Y-88276078D01*
X80588684Y-88275837D01*
X80691069Y-87953558D01*
X80662330Y-87616631D01*
X80588684Y-87438833D01*
X80400546Y-87438592D01*
X79981803Y-87857335D01*
X79677747Y-87857335D01*
X79259004Y-87438592D01*
X79079775Y-87438822D01*
X78900546Y-87438592D01*
X78481803Y-87857335D01*
X78177747Y-87857335D01*
X77759004Y-87438592D01*
X77570866Y-87438833D01*
X77468481Y-87761112D01*
X50405200Y-87761112D01*
X50405200Y-87286564D01*
X77911032Y-87286564D01*
X78329775Y-87705307D01*
X78748518Y-87286564D01*
X79411032Y-87286564D01*
X79829775Y-87705307D01*
X80248518Y-87286564D01*
X80248277Y-87098426D01*
X79925998Y-86996041D01*
X79589071Y-87024780D01*
X79411273Y-87098426D01*
X79411032Y-87286564D01*
X78748518Y-87286564D01*
X78748277Y-87098426D01*
X78425998Y-86996041D01*
X78089071Y-87024780D01*
X77911273Y-87098426D01*
X77911032Y-87286564D01*
X50405200Y-87286564D01*
X50405200Y-81312942D01*
X84919526Y-81312942D01*
X85159590Y-81893942D01*
X85603720Y-82338847D01*
X86184300Y-82579925D01*
X86812942Y-82580474D01*
X87393942Y-82340410D01*
X87838847Y-81896280D01*
X88079925Y-81315700D01*
X88080474Y-80687058D01*
X87840410Y-80106058D01*
X87396280Y-79661153D01*
X86815700Y-79420075D01*
X86187058Y-79419526D01*
X85606058Y-79659590D01*
X85161153Y-80103720D01*
X84920075Y-80684300D01*
X84919526Y-81312942D01*
X50405200Y-81312942D01*
X50405200Y-65196360D01*
X69140670Y-50405200D01*
X69424089Y-50405200D01*
X69380815Y-50468534D01*
X69380815Y-50468534D01*
G37*
X69380815Y-50468534D02*
X69354800Y-50597000D01*
X69354800Y-54788000D01*
X69377382Y-54908014D01*
X69414566Y-54965800D01*
X65240000Y-54965800D01*
X65115748Y-54990069D01*
X65006513Y-55062513D01*
X60942513Y-59126513D01*
X60871815Y-59231534D01*
X60845800Y-59360000D01*
X60845800Y-63932000D01*
X60868382Y-64052014D01*
X60939310Y-64162239D01*
X60973395Y-64185528D01*
X60945761Y-64203310D01*
X60871815Y-64311534D01*
X60845800Y-64440000D01*
X60845800Y-72568000D01*
X60868382Y-72688014D01*
X60939310Y-72798239D01*
X61047534Y-72872185D01*
X61176000Y-72898200D01*
X70320000Y-72898200D01*
X70444252Y-72873931D01*
X70553487Y-72801487D01*
X70773600Y-72581374D01*
X70766537Y-72616884D01*
X70360090Y-73023331D01*
X67170000Y-73023331D01*
X67047635Y-73046356D01*
X66935251Y-73118673D01*
X66859856Y-73229017D01*
X66833331Y-73360000D01*
X66833331Y-73507800D01*
X66026669Y-73507800D01*
X66026669Y-73365000D01*
X66003644Y-73242635D01*
X65931327Y-73130251D01*
X65820983Y-73054856D01*
X65690000Y-73028331D01*
X64790000Y-73028331D01*
X64667635Y-73051356D01*
X64555251Y-73123673D01*
X64479856Y-73234017D01*
X64453331Y-73365000D01*
X64453331Y-74565000D01*
X64476356Y-74687365D01*
X64548673Y-74799749D01*
X64659017Y-74875144D01*
X64790000Y-74901669D01*
X65690000Y-74901669D01*
X65812365Y-74878644D01*
X65924749Y-74806327D01*
X66000144Y-74695983D01*
X66026669Y-74565000D01*
X66026669Y-74422200D01*
X66833331Y-74422200D01*
X66833331Y-75360000D01*
X66856356Y-75482365D01*
X66928673Y-75594749D01*
X67039017Y-75670144D01*
X67170000Y-75696669D01*
X70670000Y-75696669D01*
X70792365Y-75673644D01*
X70904749Y-75601327D01*
X70980144Y-75490983D01*
X71006669Y-75360000D01*
X71006669Y-73669910D01*
X71531289Y-73145290D01*
X71630398Y-72996963D01*
X71638061Y-72958436D01*
X71649463Y-72901115D01*
X72167289Y-72383289D01*
X72266398Y-72234963D01*
X72275800Y-72187696D01*
X72275800Y-76124000D01*
X72298382Y-76244014D01*
X72369310Y-76354239D01*
X72477534Y-76428185D01*
X72606000Y-76454200D01*
X83020000Y-76454200D01*
X83140014Y-76431618D01*
X83250239Y-76360690D01*
X83324185Y-76252466D01*
X83350200Y-76124000D01*
X83350200Y-61900000D01*
X83325931Y-61775748D01*
X83253487Y-61666513D01*
X80810200Y-59223226D01*
X80810200Y-57660000D01*
X80823638Y-57660000D01*
X80890639Y-57996838D01*
X81081443Y-58282395D01*
X81367000Y-58473199D01*
X81703838Y-58540200D01*
X82146162Y-58540200D01*
X82483000Y-58473199D01*
X82768557Y-58282395D01*
X82959361Y-57996838D01*
X82964699Y-57970000D01*
X83721679Y-57970000D01*
X83792486Y-58325972D01*
X83994128Y-58627751D01*
X84295907Y-58829393D01*
X84651879Y-58900200D01*
X85198121Y-58900200D01*
X85554093Y-58829393D01*
X85855872Y-58627751D01*
X86057514Y-58325972D01*
X86128321Y-57970000D01*
X86057514Y-57614028D01*
X85855872Y-57312249D01*
X85554093Y-57110607D01*
X85198121Y-57039800D01*
X84651879Y-57039800D01*
X84295907Y-57110607D01*
X83994128Y-57312249D01*
X83792486Y-57614028D01*
X83721679Y-57970000D01*
X82964699Y-57970000D01*
X83026362Y-57660000D01*
X82959361Y-57323162D01*
X82768557Y-57037605D01*
X82483000Y-56846801D01*
X82146162Y-56779800D01*
X81703838Y-56779800D01*
X81367000Y-56846801D01*
X81081443Y-57037605D01*
X80890639Y-57323162D01*
X80823638Y-57660000D01*
X80810200Y-57660000D01*
X80810200Y-56058000D01*
X80787618Y-55937986D01*
X80716690Y-55827761D01*
X80608466Y-55753815D01*
X80480000Y-55727800D01*
X77178000Y-55727800D01*
X77057986Y-55750382D01*
X77000200Y-55787566D01*
X77000200Y-52820000D01*
X80823638Y-52820000D01*
X80890639Y-53156838D01*
X81081443Y-53442395D01*
X81367000Y-53633199D01*
X81703838Y-53700200D01*
X82146162Y-53700200D01*
X82483000Y-53633199D01*
X82768557Y-53442395D01*
X82959361Y-53156838D01*
X83026362Y-52820000D01*
X82964700Y-52510000D01*
X83721679Y-52510000D01*
X83792486Y-52865972D01*
X83994128Y-53167751D01*
X84295907Y-53369393D01*
X84651879Y-53440200D01*
X85198121Y-53440200D01*
X85554093Y-53369393D01*
X85855872Y-53167751D01*
X86057514Y-52865972D01*
X86128321Y-52510000D01*
X86057514Y-52154028D01*
X85855872Y-51852249D01*
X85554093Y-51650607D01*
X85198121Y-51579800D01*
X84651879Y-51579800D01*
X84295907Y-51650607D01*
X83994128Y-51852249D01*
X83792486Y-52154028D01*
X83721679Y-52510000D01*
X82964700Y-52510000D01*
X82959361Y-52483162D01*
X82768557Y-52197605D01*
X82483000Y-52006801D01*
X82146162Y-51939800D01*
X81703838Y-51939800D01*
X81367000Y-52006801D01*
X81081443Y-52197605D01*
X80890639Y-52483162D01*
X80823638Y-52820000D01*
X77000200Y-52820000D01*
X77000200Y-51740000D01*
X76975931Y-51615748D01*
X76903487Y-51506513D01*
X75802174Y-50405200D01*
X87594800Y-50405200D01*
X87594800Y-61500000D01*
X87625644Y-61655063D01*
X87713480Y-61786520D01*
X87844937Y-61874356D01*
X88000000Y-61905200D01*
X119594800Y-61905200D01*
X119594800Y-77594800D01*
X94500000Y-77594800D01*
X94344937Y-77625644D01*
X94213480Y-77713480D01*
X94125644Y-77844937D01*
X94094800Y-78000000D01*
X94094800Y-99594800D01*
X50405200Y-99594800D01*
X50405200Y-95911890D01*
X58718524Y-95911890D01*
X58888355Y-96321924D01*
X59278642Y-96750183D01*
X59803108Y-96996486D01*
X60033000Y-96875819D01*
X60033000Y-95682000D01*
X60287000Y-95682000D01*
X60287000Y-96875819D01*
X60516892Y-96996486D01*
X61041358Y-96750183D01*
X61431645Y-96321924D01*
X61601476Y-95911890D01*
X61480155Y-95682000D01*
X60287000Y-95682000D01*
X60033000Y-95682000D01*
X58839845Y-95682000D01*
X58718524Y-95911890D01*
X50405200Y-95911890D01*
X50405200Y-95198110D01*
X58718524Y-95198110D01*
X58839845Y-95428000D01*
X60033000Y-95428000D01*
X60033000Y-95408000D01*
X60287000Y-95408000D01*
X60287000Y-95428000D01*
X61480155Y-95428000D01*
X61601476Y-95198110D01*
X61431645Y-94788076D01*
X61041358Y-94359817D01*
X60704605Y-94201669D01*
X61010000Y-94201669D01*
X61132365Y-94178644D01*
X61244749Y-94106327D01*
X61320144Y-93995983D01*
X61346669Y-93865000D01*
X61346669Y-92165000D01*
X61323644Y-92042635D01*
X61251327Y-91930251D01*
X61140983Y-91854856D01*
X61010000Y-91828331D01*
X59310000Y-91828331D01*
X59187635Y-91851356D01*
X59075251Y-91923673D01*
X58999856Y-92034017D01*
X58973331Y-92165000D01*
X58973331Y-93865000D01*
X58996356Y-93987365D01*
X59068673Y-94099749D01*
X59179017Y-94175144D01*
X59310000Y-94201669D01*
X59615395Y-94201669D01*
X59278642Y-94359817D01*
X58888355Y-94788076D01*
X58718524Y-95198110D01*
X50405200Y-95198110D01*
X50405200Y-89452725D01*
X74155294Y-89452725D01*
X74247905Y-89676860D01*
X74307800Y-89736860D01*
X74307800Y-90221000D01*
X74342602Y-90395963D01*
X74441711Y-90544289D01*
X76727711Y-92830289D01*
X76876037Y-92929398D01*
X77051000Y-92964200D01*
X88354000Y-92964200D01*
X88528963Y-92929398D01*
X88677289Y-92830289D01*
X91598289Y-89909289D01*
X91697398Y-89760963D01*
X91732200Y-89586000D01*
X91732200Y-75004951D01*
X91791493Y-74945762D01*
X91884494Y-74721789D01*
X91884706Y-74479275D01*
X91792095Y-74255140D01*
X91620762Y-74083507D01*
X91396789Y-73990506D01*
X91154275Y-73990294D01*
X90930140Y-74082905D01*
X90907649Y-74105357D01*
X89643138Y-72840846D01*
X90297048Y-72840846D01*
X90297048Y-72981405D01*
X90393721Y-73214794D01*
X90572349Y-73393423D01*
X90805738Y-73490096D01*
X91646298Y-73490096D01*
X91805048Y-73331346D01*
X91805048Y-72682096D01*
X90455798Y-72682096D01*
X90297048Y-72840846D01*
X89643138Y-72840846D01*
X88938200Y-72135908D01*
X88938200Y-71512778D01*
X89033807Y-71608385D01*
X89182133Y-71707494D01*
X89357096Y-71742296D01*
X90546822Y-71742296D01*
X90393721Y-71895398D01*
X90297048Y-72128787D01*
X90297048Y-72269346D01*
X90455798Y-72428096D01*
X91805048Y-72428096D01*
X91805048Y-72408096D01*
X92059048Y-72408096D01*
X92059048Y-72428096D01*
X92079048Y-72428096D01*
X92079048Y-72682096D01*
X92059048Y-72682096D01*
X92059048Y-73331346D01*
X92217798Y-73490096D01*
X92754326Y-73490096D01*
X92221711Y-74022711D01*
X92122602Y-74171037D01*
X92087800Y-74346000D01*
X92087800Y-89523622D01*
X89427711Y-92183711D01*
X89328602Y-92332037D01*
X89293800Y-92507000D01*
X89293800Y-94196000D01*
X89328602Y-94370963D01*
X89427711Y-94519289D01*
X90332630Y-95424208D01*
X90326516Y-95433357D01*
X90236679Y-95885000D01*
X90326516Y-96336643D01*
X90582352Y-96719527D01*
X90965236Y-96975363D01*
X91416879Y-97065200D01*
X91463121Y-97065200D01*
X91914764Y-96975363D01*
X92297648Y-96719527D01*
X92553484Y-96336643D01*
X92643321Y-95885000D01*
X92553484Y-95433357D01*
X92297648Y-95050473D01*
X91914764Y-94794637D01*
X91463121Y-94704800D01*
X91416879Y-94704800D01*
X90991075Y-94789497D01*
X90733247Y-94531669D01*
X92290000Y-94531669D01*
X92412365Y-94508644D01*
X92524749Y-94436327D01*
X92600144Y-94325983D01*
X92626669Y-94195000D01*
X92626669Y-92495000D01*
X92603644Y-92372635D01*
X92531327Y-92260251D01*
X92420983Y-92184856D01*
X92290000Y-92158331D01*
X90746247Y-92158331D01*
X92868289Y-90036289D01*
X92967398Y-89887963D01*
X93002200Y-89713000D01*
X93002200Y-74535378D01*
X93346550Y-74191028D01*
X93269800Y-74576879D01*
X93269800Y-74623121D01*
X93359637Y-75074764D01*
X93615473Y-75457648D01*
X93998357Y-75713484D01*
X94450000Y-75803321D01*
X94901643Y-75713484D01*
X95284527Y-75457648D01*
X95540363Y-75074764D01*
X95630200Y-74623121D01*
X95630200Y-74576879D01*
X95540363Y-74125236D01*
X95390755Y-73901333D01*
X95396711Y-73907289D01*
X95545037Y-74006398D01*
X95720000Y-74041200D01*
X95784622Y-74041200D01*
X95803331Y-74059909D01*
X95803331Y-75450000D01*
X95826356Y-75572365D01*
X95898673Y-75684749D01*
X96009017Y-75760144D01*
X96140000Y-75786669D01*
X97840000Y-75786669D01*
X97962365Y-75763644D01*
X98074749Y-75691327D01*
X98150144Y-75580983D01*
X98176669Y-75450000D01*
X98176669Y-74213459D01*
X98915249Y-74213459D01*
X98915249Y-74654018D01*
X99011922Y-74887407D01*
X99190550Y-75066036D01*
X99423939Y-75162709D01*
X99714499Y-75162709D01*
X99873249Y-75003959D01*
X99873249Y-74054709D01*
X100127249Y-74054709D01*
X100127249Y-75003959D01*
X100285999Y-75162709D01*
X100576559Y-75162709D01*
X100809948Y-75066036D01*
X100988576Y-74887407D01*
X101085249Y-74654018D01*
X101085249Y-74213459D01*
X100926499Y-74054709D01*
X100127249Y-74054709D01*
X99873249Y-74054709D01*
X99073999Y-74054709D01*
X98915249Y-74213459D01*
X98176669Y-74213459D01*
X98176669Y-73750000D01*
X98153644Y-73627635D01*
X98081327Y-73515251D01*
X98011995Y-73467879D01*
X98191747Y-73393423D01*
X98370375Y-73214794D01*
X98375922Y-73201400D01*
X98915249Y-73201400D01*
X98915249Y-73641959D01*
X99073999Y-73800709D01*
X99873249Y-73800709D01*
X99873249Y-72851459D01*
X100127249Y-72851459D01*
X100127249Y-73800709D01*
X100926499Y-73800709D01*
X101085249Y-73641959D01*
X101085249Y-73201400D01*
X100988576Y-72968011D01*
X100809948Y-72789382D01*
X100576559Y-72692709D01*
X100285999Y-72692709D01*
X100127249Y-72851459D01*
X99873249Y-72851459D01*
X99714499Y-72692709D01*
X99423939Y-72692709D01*
X99190550Y-72789382D01*
X99011922Y-72968011D01*
X98915249Y-73201400D01*
X98375922Y-73201400D01*
X98467048Y-72981405D01*
X98467048Y-72840846D01*
X98308298Y-72682096D01*
X96959048Y-72682096D01*
X96959048Y-72702096D01*
X96705048Y-72702096D01*
X96705048Y-72682096D01*
X96685048Y-72682096D01*
X96685048Y-72428096D01*
X96705048Y-72428096D01*
X96705048Y-72408096D01*
X96959048Y-72408096D01*
X96959048Y-72428096D01*
X98308298Y-72428096D01*
X98467048Y-72269346D01*
X98467048Y-72128787D01*
X98370375Y-71895398D01*
X98217274Y-71742296D01*
X99213580Y-71742296D01*
X99213580Y-72327709D01*
X99236605Y-72450074D01*
X99308922Y-72562458D01*
X99419266Y-72637853D01*
X99550249Y-72664378D01*
X100450249Y-72664378D01*
X100572614Y-72641353D01*
X100684998Y-72569036D01*
X100760393Y-72458692D01*
X100776876Y-72377296D01*
X101871734Y-72377296D01*
X101893404Y-72492461D01*
X101965721Y-72604845D01*
X102076065Y-72680240D01*
X102207048Y-72706765D01*
X103407048Y-72706765D01*
X103529413Y-72683740D01*
X103641797Y-72611423D01*
X103717192Y-72501079D01*
X103743717Y-72370096D01*
X103743717Y-71470096D01*
X104070379Y-71470096D01*
X104070379Y-72370096D01*
X104093404Y-72492461D01*
X104165721Y-72604845D01*
X104276065Y-72680240D01*
X104407048Y-72706765D01*
X105607048Y-72706765D01*
X105729413Y-72683740D01*
X105841797Y-72611423D01*
X105917192Y-72501079D01*
X105942259Y-72377296D01*
X107201670Y-72377296D01*
X107419379Y-72595005D01*
X107419379Y-74285096D01*
X107442404Y-74407461D01*
X107514721Y-74519845D01*
X107625065Y-74595240D01*
X107756048Y-74621765D01*
X109456048Y-74621765D01*
X109578413Y-74598740D01*
X109690797Y-74526423D01*
X109766192Y-74416079D01*
X109792717Y-74285096D01*
X109792717Y-74123296D01*
X113811879Y-74123296D01*
X114036257Y-74666331D01*
X114700174Y-75331408D01*
X115568068Y-75691789D01*
X116507809Y-75692609D01*
X117376331Y-75333743D01*
X118041408Y-74669826D01*
X118401789Y-73801932D01*
X118402609Y-72862191D01*
X118043743Y-71993669D01*
X117379826Y-71328592D01*
X116511932Y-70968211D01*
X115572191Y-70967391D01*
X114703669Y-71326257D01*
X114038592Y-71990174D01*
X113848944Y-72446896D01*
X109792717Y-72446896D01*
X109792717Y-72285096D01*
X109769692Y-72162731D01*
X109697375Y-72050347D01*
X109587031Y-71974952D01*
X109456048Y-71948427D01*
X108065957Y-71948427D01*
X107714337Y-71596807D01*
X107566011Y-71497698D01*
X107391048Y-71462896D01*
X105942362Y-71462896D01*
X105920692Y-71347731D01*
X105848375Y-71235347D01*
X105738031Y-71159952D01*
X105607048Y-71133427D01*
X104407048Y-71133427D01*
X104284683Y-71156452D01*
X104172299Y-71228769D01*
X104096904Y-71339113D01*
X104070379Y-71470096D01*
X103743717Y-71470096D01*
X103720692Y-71347731D01*
X103648375Y-71235347D01*
X103538031Y-71159952D01*
X103407048Y-71133427D01*
X102207048Y-71133427D01*
X102084683Y-71156452D01*
X101972299Y-71228769D01*
X101896904Y-71339113D01*
X101871837Y-71462896D01*
X100786918Y-71462896D01*
X100786918Y-71127709D01*
X100763893Y-71005344D01*
X100691576Y-70892960D01*
X100581232Y-70817565D01*
X100450249Y-70791040D01*
X99550249Y-70791040D01*
X99427884Y-70814065D01*
X99406390Y-70827896D01*
X98123276Y-70827896D01*
X98073375Y-70750347D01*
X97963031Y-70674952D01*
X97840592Y-70650157D01*
X97954413Y-70628740D01*
X98066797Y-70556423D01*
X98124279Y-70472296D01*
X99467862Y-70472296D01*
X99642825Y-70437494D01*
X99669937Y-70419378D01*
X100450249Y-70419378D01*
X100572614Y-70396353D01*
X100684998Y-70324036D01*
X100760393Y-70213692D01*
X100786918Y-70082709D01*
X100786918Y-69474909D01*
X101774935Y-69474909D01*
X101796605Y-69590074D01*
X101868922Y-69702458D01*
X101979266Y-69777853D01*
X102110249Y-69804378D01*
X103310249Y-69804378D01*
X103432614Y-69781353D01*
X103544998Y-69709036D01*
X103620393Y-69598692D01*
X103646918Y-69467709D01*
X103646918Y-69303459D01*
X103675249Y-69303459D01*
X103675249Y-69594019D01*
X103771922Y-69827408D01*
X103950551Y-70006036D01*
X104183940Y-70102709D01*
X104624499Y-70102709D01*
X104783249Y-69943959D01*
X104783249Y-69144709D01*
X105037249Y-69144709D01*
X105037249Y-69943959D01*
X105195999Y-70102709D01*
X105636558Y-70102709D01*
X105869947Y-70006036D01*
X106048576Y-69827408D01*
X106145249Y-69594019D01*
X106145249Y-69570846D01*
X107121048Y-69570846D01*
X107121048Y-70411405D01*
X107217721Y-70644794D01*
X107396349Y-70823423D01*
X107629738Y-70920096D01*
X108320298Y-70920096D01*
X108479048Y-70761346D01*
X108479048Y-69412096D01*
X108733048Y-69412096D01*
X108733048Y-70761346D01*
X108891798Y-70920096D01*
X109582358Y-70920096D01*
X109815747Y-70823423D01*
X109994375Y-70644794D01*
X110091048Y-70411405D01*
X110091048Y-69876892D01*
X110788514Y-69876892D01*
X111034817Y-70401358D01*
X111463076Y-70791645D01*
X111873110Y-70961476D01*
X112103000Y-70840155D01*
X112103000Y-69647000D01*
X110909181Y-69647000D01*
X110788514Y-69876892D01*
X110091048Y-69876892D01*
X110091048Y-69570846D01*
X109932298Y-69412096D01*
X108733048Y-69412096D01*
X108479048Y-69412096D01*
X107279798Y-69412096D01*
X107121048Y-69570846D01*
X106145249Y-69570846D01*
X106145249Y-69303459D01*
X106004898Y-69163108D01*
X110788514Y-69163108D01*
X110909181Y-69393000D01*
X112103000Y-69393000D01*
X112103000Y-68199845D01*
X112357000Y-68199845D01*
X112357000Y-69393000D01*
X112377000Y-69393000D01*
X112377000Y-69647000D01*
X112357000Y-69647000D01*
X112357000Y-70840155D01*
X112586890Y-70961476D01*
X112996924Y-70791645D01*
X113425183Y-70401358D01*
X113583331Y-70064605D01*
X113583331Y-70370000D01*
X113606356Y-70492365D01*
X113678673Y-70604749D01*
X113789017Y-70680144D01*
X113920000Y-70706669D01*
X115620000Y-70706669D01*
X115742365Y-70683644D01*
X115854749Y-70611327D01*
X115930144Y-70500983D01*
X115956669Y-70370000D01*
X115956669Y-68670000D01*
X115933644Y-68547635D01*
X115861327Y-68435251D01*
X115750983Y-68359856D01*
X115620000Y-68333331D01*
X113920000Y-68333331D01*
X113797635Y-68356356D01*
X113685251Y-68428673D01*
X113609856Y-68539017D01*
X113583331Y-68670000D01*
X113583331Y-68975395D01*
X113425183Y-68638642D01*
X112996924Y-68248355D01*
X112586890Y-68078524D01*
X112357000Y-68199845D01*
X112103000Y-68199845D01*
X111873110Y-68078524D01*
X111463076Y-68248355D01*
X111034817Y-68638642D01*
X110788514Y-69163108D01*
X106004898Y-69163108D01*
X105986499Y-69144709D01*
X105037249Y-69144709D01*
X104783249Y-69144709D01*
X103833999Y-69144709D01*
X103675249Y-69303459D01*
X103646918Y-69303459D01*
X103646918Y-68567709D01*
X103623893Y-68445344D01*
X103621355Y-68441399D01*
X103675249Y-68441399D01*
X103675249Y-68731959D01*
X103833999Y-68890709D01*
X104783249Y-68890709D01*
X104783249Y-68091459D01*
X105037249Y-68091459D01*
X105037249Y-68890709D01*
X105986499Y-68890709D01*
X106145249Y-68731959D01*
X106145249Y-68441399D01*
X106048576Y-68208010D01*
X105999353Y-68158787D01*
X107121048Y-68158787D01*
X107121048Y-68999346D01*
X107279798Y-69158096D01*
X108479048Y-69158096D01*
X108479048Y-67808846D01*
X108733048Y-67808846D01*
X108733048Y-69158096D01*
X109932298Y-69158096D01*
X110091048Y-68999346D01*
X110091048Y-68158787D01*
X109994375Y-67925398D01*
X109815747Y-67746769D01*
X109582358Y-67650096D01*
X108891798Y-67650096D01*
X108733048Y-67808846D01*
X108479048Y-67808846D01*
X108320298Y-67650096D01*
X107629738Y-67650096D01*
X107396349Y-67746769D01*
X107217721Y-67925398D01*
X107121048Y-68158787D01*
X105999353Y-68158787D01*
X105869947Y-68029382D01*
X105636558Y-67932709D01*
X105195999Y-67932709D01*
X105037249Y-68091459D01*
X104783249Y-68091459D01*
X104624499Y-67932709D01*
X104183940Y-67932709D01*
X103950551Y-68029382D01*
X103771922Y-68208010D01*
X103675249Y-68441399D01*
X103621355Y-68441399D01*
X103551576Y-68332960D01*
X103441232Y-68257565D01*
X103310249Y-68231040D01*
X102110249Y-68231040D01*
X101987884Y-68254065D01*
X101875500Y-68326382D01*
X101800105Y-68436726D01*
X101775038Y-68560509D01*
X100521698Y-68560509D01*
X100450249Y-68546040D01*
X99550249Y-68546040D01*
X99529613Y-68549923D01*
X99860159Y-68219378D01*
X100450249Y-68219378D01*
X100572614Y-68196353D01*
X100684998Y-68124036D01*
X100760393Y-68013692D01*
X100786918Y-67882709D01*
X100786918Y-66682709D01*
X100763893Y-66560344D01*
X100691576Y-66447960D01*
X100581232Y-66372565D01*
X100450249Y-66346040D01*
X99550249Y-66346040D01*
X99427884Y-66369065D01*
X99315500Y-66441382D01*
X99240105Y-66551726D01*
X99213580Y-66682709D01*
X99213580Y-67572799D01*
X98498484Y-68287896D01*
X98123276Y-68287896D01*
X98073375Y-68210347D01*
X97963031Y-68134952D01*
X97832048Y-68108427D01*
X95832048Y-68108427D01*
X95709683Y-68131452D01*
X95597299Y-68203769D01*
X95539817Y-68287896D01*
X94540525Y-68287896D01*
X94365562Y-68322698D01*
X94217235Y-68421807D01*
X93364711Y-69274332D01*
X93265602Y-69422658D01*
X93235059Y-69576207D01*
X93173375Y-69480347D01*
X93063031Y-69404952D01*
X92940592Y-69380157D01*
X93054413Y-69358740D01*
X93166797Y-69286423D01*
X93242192Y-69176079D01*
X93268717Y-69045096D01*
X93268717Y-68445096D01*
X93245692Y-68322731D01*
X93173375Y-68210347D01*
X93063031Y-68134952D01*
X92932048Y-68108427D01*
X92389248Y-68108427D01*
X92389248Y-66606033D01*
X92608621Y-66562397D01*
X92620622Y-66554378D01*
X93082048Y-66554378D01*
X93204413Y-66531353D01*
X93220387Y-66521074D01*
X93243721Y-66577408D01*
X93422350Y-66756036D01*
X93655739Y-66852709D01*
X94096298Y-66852709D01*
X94255048Y-66693959D01*
X94255048Y-65969709D01*
X94509048Y-65969709D01*
X94509048Y-66693959D01*
X94667798Y-66852709D01*
X95108357Y-66852709D01*
X95341746Y-66756036D01*
X95520375Y-66577408D01*
X95617048Y-66344019D01*
X95617048Y-66128459D01*
X95458298Y-65969709D01*
X94509048Y-65969709D01*
X94255048Y-65969709D01*
X94235048Y-65969709D01*
X94235048Y-65715709D01*
X94255048Y-65715709D01*
X94255048Y-64991459D01*
X94509048Y-64991459D01*
X94509048Y-65715709D01*
X95458298Y-65715709D01*
X95617048Y-65556959D01*
X95617048Y-65542809D01*
X101612391Y-65542809D01*
X101971257Y-66411331D01*
X102635174Y-67076408D01*
X103503068Y-67436789D01*
X104442809Y-67437609D01*
X105311331Y-67078743D01*
X105976408Y-66414826D01*
X106336789Y-65546932D01*
X106336802Y-65532200D01*
X107233331Y-65532200D01*
X107233331Y-65925000D01*
X107256356Y-66047365D01*
X107328673Y-66159749D01*
X107439017Y-66235144D01*
X107570000Y-66261669D01*
X109270000Y-66261669D01*
X109392365Y-66238644D01*
X109504749Y-66166327D01*
X109580144Y-66055983D01*
X109606669Y-65925000D01*
X109606669Y-65619605D01*
X109764817Y-65956358D01*
X110193076Y-66346645D01*
X110603110Y-66516476D01*
X110833000Y-66395155D01*
X110833000Y-65202000D01*
X111087000Y-65202000D01*
X111087000Y-66395155D01*
X111316890Y-66516476D01*
X111726924Y-66346645D01*
X112155183Y-65956358D01*
X112349396Y-65542809D01*
X113677391Y-65542809D01*
X114036257Y-66411331D01*
X114700174Y-67076408D01*
X115568068Y-67436789D01*
X116507809Y-67437609D01*
X117376331Y-67078743D01*
X118041408Y-66414826D01*
X118401789Y-65546932D01*
X118402609Y-64607191D01*
X118043743Y-63738669D01*
X117379826Y-63073592D01*
X116511932Y-62713211D01*
X115572191Y-62712391D01*
X114703669Y-63071257D01*
X114038592Y-63735174D01*
X113678211Y-64603068D01*
X113677391Y-65542809D01*
X112349396Y-65542809D01*
X112401486Y-65431892D01*
X112280819Y-65202000D01*
X111087000Y-65202000D01*
X110833000Y-65202000D01*
X110813000Y-65202000D01*
X110813000Y-64948000D01*
X110833000Y-64948000D01*
X110833000Y-63754845D01*
X111087000Y-63754845D01*
X111087000Y-64948000D01*
X112280819Y-64948000D01*
X112401486Y-64718108D01*
X112155183Y-64193642D01*
X111726924Y-63803355D01*
X111316890Y-63633524D01*
X111087000Y-63754845D01*
X110833000Y-63754845D01*
X110603110Y-63633524D01*
X110193076Y-63803355D01*
X109764817Y-64193642D01*
X109606669Y-64530395D01*
X109606669Y-64225000D01*
X109583644Y-64102635D01*
X109511327Y-63990251D01*
X109400983Y-63914856D01*
X109270000Y-63888331D01*
X107570000Y-63888331D01*
X107447635Y-63911356D01*
X107335251Y-63983673D01*
X107259856Y-64094017D01*
X107233331Y-64225000D01*
X107233331Y-64617800D01*
X106337600Y-64617800D01*
X106337609Y-64607191D01*
X105978743Y-63738669D01*
X105314826Y-63073592D01*
X104446932Y-62713211D01*
X103507191Y-62712391D01*
X102638669Y-63071257D01*
X101973592Y-63735174D01*
X101613211Y-64603068D01*
X101612391Y-65542809D01*
X95617048Y-65542809D01*
X95617048Y-65341399D01*
X95520375Y-65108010D01*
X95341746Y-64929382D01*
X95108357Y-64832709D01*
X94667798Y-64832709D01*
X94509048Y-64991459D01*
X94255048Y-64991459D01*
X94096298Y-64832709D01*
X93655739Y-64832709D01*
X93422350Y-64929382D01*
X93243721Y-65108010D01*
X93220953Y-65162978D01*
X93213031Y-65157565D01*
X93082048Y-65131040D01*
X91882048Y-65131040D01*
X91759683Y-65154065D01*
X91647299Y-65226382D01*
X91571904Y-65336726D01*
X91545379Y-65467709D01*
X91545379Y-66164274D01*
X91509650Y-66217746D01*
X91474848Y-66392709D01*
X91474848Y-68097396D01*
X90271904Y-68097396D01*
X90024040Y-68146699D01*
X89930133Y-68209446D01*
X90041946Y-68097633D01*
X90125725Y-68097706D01*
X90349860Y-68005095D01*
X90521493Y-67833762D01*
X90614494Y-67609789D01*
X90614706Y-67367275D01*
X90522095Y-67143140D01*
X90350762Y-66971507D01*
X90126789Y-66878506D01*
X89884275Y-66878294D01*
X89660140Y-66970905D01*
X89488507Y-67142238D01*
X89395506Y-67366211D01*
X89395432Y-67450989D01*
X88157711Y-68688711D01*
X88058602Y-68837037D01*
X88023800Y-69012000D01*
X88023800Y-72325286D01*
X88058602Y-72500249D01*
X88157711Y-72648575D01*
X90432425Y-74923289D01*
X90580751Y-75022398D01*
X90755714Y-75057200D01*
X90817800Y-75057200D01*
X90817800Y-89396622D01*
X88164622Y-92049800D01*
X77240378Y-92049800D01*
X76618684Y-91428106D01*
X77911032Y-91428106D01*
X77911273Y-91616244D01*
X78233552Y-91718629D01*
X78570479Y-91689890D01*
X78748277Y-91616244D01*
X78748518Y-91428106D01*
X79411032Y-91428106D01*
X79411273Y-91616244D01*
X79733552Y-91718629D01*
X80070479Y-91689890D01*
X80248277Y-91616244D01*
X80248518Y-91428106D01*
X79829775Y-91009363D01*
X79411032Y-91428106D01*
X78748518Y-91428106D01*
X78329775Y-91009363D01*
X77911032Y-91428106D01*
X76618684Y-91428106D01*
X75951690Y-90761112D01*
X77468481Y-90761112D01*
X77497220Y-91098039D01*
X77570866Y-91275837D01*
X77759004Y-91276078D01*
X78177747Y-90857335D01*
X78481803Y-90857335D01*
X78900546Y-91276078D01*
X79079775Y-91275848D01*
X79259004Y-91276078D01*
X79677747Y-90857335D01*
X79981803Y-90857335D01*
X80400546Y-91276078D01*
X80588684Y-91275837D01*
X80691069Y-90953558D01*
X80662330Y-90616631D01*
X80588684Y-90438833D01*
X80400546Y-90438592D01*
X79981803Y-90857335D01*
X79677747Y-90857335D01*
X79259004Y-90438592D01*
X79079775Y-90438822D01*
X78900546Y-90438592D01*
X78481803Y-90857335D01*
X78177747Y-90857335D01*
X77759004Y-90438592D01*
X77570866Y-90438833D01*
X77468481Y-90761112D01*
X75951690Y-90761112D01*
X75222200Y-90031622D01*
X75222200Y-89928106D01*
X77911032Y-89928106D01*
X77911262Y-90107335D01*
X77911032Y-90286564D01*
X78329775Y-90705307D01*
X78748518Y-90286564D01*
X78748288Y-90107335D01*
X78748518Y-89928106D01*
X79411032Y-89928106D01*
X79411262Y-90107335D01*
X79411032Y-90286564D01*
X79829775Y-90705307D01*
X80248518Y-90286564D01*
X80248288Y-90107335D01*
X80248518Y-89928106D01*
X79829775Y-89509363D01*
X79411032Y-89928106D01*
X78748518Y-89928106D01*
X78329775Y-89509363D01*
X77911032Y-89928106D01*
X75222200Y-89928106D01*
X75222200Y-89736951D01*
X75281493Y-89677762D01*
X75374494Y-89453789D01*
X75374662Y-89261112D01*
X77468481Y-89261112D01*
X77497220Y-89598039D01*
X77570866Y-89775837D01*
X77759004Y-89776078D01*
X78177747Y-89357335D01*
X78481803Y-89357335D01*
X78900546Y-89776078D01*
X79079775Y-89775848D01*
X79259004Y-89776078D01*
X79677747Y-89357335D01*
X79981803Y-89357335D01*
X80400546Y-89776078D01*
X80588684Y-89775837D01*
X80691069Y-89453558D01*
X80662330Y-89116631D01*
X80588684Y-88938833D01*
X80400546Y-88938592D01*
X79981803Y-89357335D01*
X79677747Y-89357335D01*
X79259004Y-88938592D01*
X79079775Y-88938822D01*
X78900546Y-88938592D01*
X78481803Y-89357335D01*
X78177747Y-89357335D01*
X77759004Y-88938592D01*
X77570866Y-88938833D01*
X77468481Y-89261112D01*
X75374662Y-89261112D01*
X75374706Y-89211275D01*
X75282095Y-88987140D01*
X75110762Y-88815507D01*
X74886789Y-88722506D01*
X74644275Y-88722294D01*
X74420140Y-88814905D01*
X74248507Y-88986238D01*
X74155506Y-89210211D01*
X74155294Y-89452725D01*
X50405200Y-89452725D01*
X50405200Y-88428106D01*
X77911032Y-88428106D01*
X77911262Y-88607335D01*
X77911032Y-88786564D01*
X78329775Y-89205307D01*
X78748518Y-88786564D01*
X78748288Y-88607335D01*
X78748518Y-88428106D01*
X79411032Y-88428106D01*
X79411262Y-88607335D01*
X79411032Y-88786564D01*
X79829775Y-89205307D01*
X80248518Y-88786564D01*
X80248288Y-88607335D01*
X80248518Y-88428106D01*
X79829775Y-88009363D01*
X79411032Y-88428106D01*
X78748518Y-88428106D01*
X78329775Y-88009363D01*
X77911032Y-88428106D01*
X50405200Y-88428106D01*
X50405200Y-87761112D01*
X77468481Y-87761112D01*
X77497220Y-88098039D01*
X77570866Y-88275837D01*
X77759004Y-88276078D01*
X78177747Y-87857335D01*
X78481803Y-87857335D01*
X78900546Y-88276078D01*
X79079775Y-88275848D01*
X79259004Y-88276078D01*
X79677747Y-87857335D01*
X79981803Y-87857335D01*
X80400546Y-88276078D01*
X80588684Y-88275837D01*
X80691069Y-87953558D01*
X80662330Y-87616631D01*
X80588684Y-87438833D01*
X80400546Y-87438592D01*
X79981803Y-87857335D01*
X79677747Y-87857335D01*
X79259004Y-87438592D01*
X79079775Y-87438822D01*
X78900546Y-87438592D01*
X78481803Y-87857335D01*
X78177747Y-87857335D01*
X77759004Y-87438592D01*
X77570866Y-87438833D01*
X77468481Y-87761112D01*
X50405200Y-87761112D01*
X50405200Y-87286564D01*
X77911032Y-87286564D01*
X78329775Y-87705307D01*
X78748518Y-87286564D01*
X79411032Y-87286564D01*
X79829775Y-87705307D01*
X80248518Y-87286564D01*
X80248277Y-87098426D01*
X79925998Y-86996041D01*
X79589071Y-87024780D01*
X79411273Y-87098426D01*
X79411032Y-87286564D01*
X78748518Y-87286564D01*
X78748277Y-87098426D01*
X78425998Y-86996041D01*
X78089071Y-87024780D01*
X77911273Y-87098426D01*
X77911032Y-87286564D01*
X50405200Y-87286564D01*
X50405200Y-81312942D01*
X84919526Y-81312942D01*
X85159590Y-81893942D01*
X85603720Y-82338847D01*
X86184300Y-82579925D01*
X86812942Y-82580474D01*
X87393942Y-82340410D01*
X87838847Y-81896280D01*
X88079925Y-81315700D01*
X88080474Y-80687058D01*
X87840410Y-80106058D01*
X87396280Y-79661153D01*
X86815700Y-79420075D01*
X86187058Y-79419526D01*
X85606058Y-79659590D01*
X85161153Y-80103720D01*
X84920075Y-80684300D01*
X84919526Y-81312942D01*
X50405200Y-81312942D01*
X50405200Y-65196360D01*
X69140670Y-50405200D01*
X69424089Y-50405200D01*
X69380815Y-50468534D01*
G36*
X76543000Y-51792606D02*
X76543000Y-64387394D01*
X74077394Y-66853000D01*
X70701000Y-66853000D01*
X70701000Y-64238606D01*
X70790803Y-64148803D01*
X70818666Y-64106789D01*
X70828000Y-64059000D01*
X70828000Y-61190606D01*
X71806803Y-60211803D01*
X71834666Y-60169789D01*
X71844000Y-60122000D01*
X71844000Y-55042000D01*
X71833994Y-54992590D01*
X71806803Y-54952197D01*
X71552803Y-54698197D01*
X71510789Y-54670334D01*
X71463000Y-54661000D01*
X69812000Y-54661000D01*
X69812000Y-50724000D01*
X75474394Y-50724000D01*
X76543000Y-51792606D01*
X76543000Y-51792606D01*
G37*
X76543000Y-51792606D02*
X76543000Y-64387394D01*
X74077394Y-66853000D01*
X70701000Y-66853000D01*
X70701000Y-64238606D01*
X70790803Y-64148803D01*
X70818666Y-64106789D01*
X70828000Y-64059000D01*
X70828000Y-61190606D01*
X71806803Y-60211803D01*
X71834666Y-60169789D01*
X71844000Y-60122000D01*
X71844000Y-55042000D01*
X71833994Y-54992590D01*
X71806803Y-54952197D01*
X71552803Y-54698197D01*
X71510789Y-54670334D01*
X71463000Y-54661000D01*
X69812000Y-54661000D01*
X69812000Y-50724000D01*
X75474394Y-50724000D01*
X76543000Y-51792606D01*
M02*
