G04 #@! TF.FileFunction,Legend,Bot*
%FSLAX46Y46*%
G04 Gerber Fmt 4.6, Leading zero omitted, Abs format (unit mm)*
G04 Created by KiCad (PCBNEW 4.0.7) date 02/27/19 21:10:27*
%MOMM*%
%LPD*%
G01*
G04 APERTURE LIST*
%ADD10C,0.100000*%
%ADD11C,0.300000*%
%ADD12C,0.120000*%
%ADD13C,0.150000*%
G04 APERTURE END LIST*
D10*
D11*
X73965999Y-85311571D02*
X73965999Y-83811571D01*
X73394571Y-83811571D01*
X73251713Y-83883000D01*
X73180285Y-83954429D01*
X73108856Y-84097286D01*
X73108856Y-84311571D01*
X73180285Y-84454429D01*
X73251713Y-84525857D01*
X73394571Y-84597286D01*
X73965999Y-84597286D01*
X72180285Y-83811571D02*
X71894571Y-83811571D01*
X71751713Y-83883000D01*
X71608856Y-84025857D01*
X71537428Y-84311571D01*
X71537428Y-84811571D01*
X71608856Y-85097286D01*
X71751713Y-85240143D01*
X71894571Y-85311571D01*
X72180285Y-85311571D01*
X72323142Y-85240143D01*
X72465999Y-85097286D01*
X72537428Y-84811571D01*
X72537428Y-84311571D01*
X72465999Y-84025857D01*
X72323142Y-83883000D01*
X72180285Y-83811571D01*
X71037427Y-83811571D02*
X70680284Y-85311571D01*
X70394570Y-84240143D01*
X70108856Y-85311571D01*
X69751713Y-83811571D01*
X69180284Y-84525857D02*
X68680284Y-84525857D01*
X68465998Y-85311571D02*
X69180284Y-85311571D01*
X69180284Y-83811571D01*
X68465998Y-83811571D01*
X66965998Y-85311571D02*
X67465998Y-84597286D01*
X67823141Y-85311571D02*
X67823141Y-83811571D01*
X67251713Y-83811571D01*
X67108855Y-83883000D01*
X67037427Y-83954429D01*
X66965998Y-84097286D01*
X66965998Y-84311571D01*
X67037427Y-84454429D01*
X67108855Y-84525857D01*
X67251713Y-84597286D01*
X67823141Y-84597286D01*
X66680284Y-85454429D02*
X65537427Y-85454429D01*
X65180284Y-85311571D02*
X65180284Y-83811571D01*
X64608856Y-83811571D01*
X64465998Y-83883000D01*
X64394570Y-83954429D01*
X64323141Y-84097286D01*
X64323141Y-84311571D01*
X64394570Y-84454429D01*
X64465998Y-84525857D01*
X64608856Y-84597286D01*
X65180284Y-84597286D01*
X62823141Y-85168714D02*
X62894570Y-85240143D01*
X63108856Y-85311571D01*
X63251713Y-85311571D01*
X63465998Y-85240143D01*
X63608856Y-85097286D01*
X63680284Y-84954429D01*
X63751713Y-84668714D01*
X63751713Y-84454429D01*
X63680284Y-84168714D01*
X63608856Y-84025857D01*
X63465998Y-83883000D01*
X63251713Y-83811571D01*
X63108856Y-83811571D01*
X62894570Y-83883000D01*
X62823141Y-83954429D01*
X61680284Y-84525857D02*
X61465998Y-84597286D01*
X61394570Y-84668714D01*
X61323141Y-84811571D01*
X61323141Y-85025857D01*
X61394570Y-85168714D01*
X61465998Y-85240143D01*
X61608856Y-85311571D01*
X62180284Y-85311571D01*
X62180284Y-83811571D01*
X61680284Y-83811571D01*
X61537427Y-83883000D01*
X61465998Y-83954429D01*
X61394570Y-84097286D01*
X61394570Y-84240143D01*
X61465998Y-84383000D01*
X61537427Y-84454429D01*
X61680284Y-84525857D01*
X62180284Y-84525857D01*
X58680284Y-85311571D02*
X59180284Y-84597286D01*
X59537427Y-85311571D02*
X59537427Y-83811571D01*
X58965999Y-83811571D01*
X58823141Y-83883000D01*
X58751713Y-83954429D01*
X58680284Y-84097286D01*
X58680284Y-84311571D01*
X58751713Y-84454429D01*
X58823141Y-84525857D01*
X58965999Y-84597286D01*
X59537427Y-84597286D01*
X57465999Y-85240143D02*
X57608856Y-85311571D01*
X57894570Y-85311571D01*
X58037427Y-85240143D01*
X58108856Y-85097286D01*
X58108856Y-84525857D01*
X58037427Y-84383000D01*
X57894570Y-84311571D01*
X57608856Y-84311571D01*
X57465999Y-84383000D01*
X57394570Y-84525857D01*
X57394570Y-84668714D01*
X58108856Y-84811571D01*
X56894570Y-84311571D02*
X56537427Y-85311571D01*
X56180285Y-84311571D01*
X55323142Y-83811571D02*
X55180285Y-83811571D01*
X55037428Y-83883000D01*
X54965999Y-83954429D01*
X54894570Y-84097286D01*
X54823142Y-84383000D01*
X54823142Y-84740143D01*
X54894570Y-85025857D01*
X54965999Y-85168714D01*
X55037428Y-85240143D01*
X55180285Y-85311571D01*
X55323142Y-85311571D01*
X55465999Y-85240143D01*
X55537428Y-85168714D01*
X55608856Y-85025857D01*
X55680285Y-84740143D01*
X55680285Y-84383000D01*
X55608856Y-84097286D01*
X55537428Y-83954429D01*
X55465999Y-83883000D01*
X55323142Y-83811571D01*
X53394571Y-85311571D02*
X54251714Y-85311571D01*
X53823142Y-85311571D02*
X53823142Y-83811571D01*
X53965999Y-84025857D01*
X54108857Y-84168714D01*
X54251714Y-84240143D01*
D12*
X76305000Y-61515000D02*
X78305000Y-61515000D01*
X78305000Y-63555000D02*
X76305000Y-63555000D01*
X71320000Y-63555000D02*
X69320000Y-63555000D01*
X69320000Y-61515000D02*
X71320000Y-61515000D01*
X71415000Y-66730000D02*
X69415000Y-66730000D01*
X69415000Y-64690000D02*
X71415000Y-64690000D01*
X93082048Y-66442709D02*
X93782048Y-66442709D01*
X93782048Y-65242709D02*
X93082048Y-65242709D01*
D13*
X61425000Y-69890000D02*
X61425000Y-61780000D01*
X61435000Y-61780000D02*
X65935000Y-61780000D01*
X65935000Y-69890000D02*
X65935000Y-61780000D01*
X61435000Y-69890000D02*
X65935000Y-69890000D01*
D12*
X71220000Y-75110000D02*
X71220000Y-75460000D01*
X71220000Y-75460000D02*
X72720000Y-75460000D01*
X71220000Y-70460000D02*
X71220000Y-73660000D01*
X72720000Y-68660000D02*
X71220000Y-68660000D01*
X71220000Y-68660000D02*
X71220000Y-69060000D01*
X65920000Y-73365000D02*
X65920000Y-72365000D01*
X64560000Y-72365000D02*
X64560000Y-73365000D01*
X107536048Y-70285096D02*
X107536048Y-72285096D01*
X109676048Y-72285096D02*
X109676048Y-70285096D01*
X104407048Y-71240096D02*
X103407048Y-71240096D01*
X103407048Y-72600096D02*
X104407048Y-72600096D01*
X100680249Y-73327709D02*
X100680249Y-72327709D01*
X99320249Y-72327709D02*
X99320249Y-73327709D01*
X104310249Y-68337709D02*
X103310249Y-68337709D01*
X103310249Y-69697709D02*
X104310249Y-69697709D01*
X100680249Y-68882709D02*
X100680249Y-67882709D01*
X99320249Y-67882709D02*
X99320249Y-68882709D01*
D10*
X95582048Y-68050096D02*
X95982048Y-68050096D01*
X95982048Y-68050096D02*
X96282048Y-68350096D01*
X96282048Y-68350096D02*
X97082048Y-68350096D01*
X96482048Y-72950096D02*
X96482048Y-73250096D01*
X96482048Y-73250096D02*
X96182048Y-73250096D01*
X92282048Y-68350096D02*
X92282048Y-68050096D01*
X92282048Y-68050096D02*
X92582048Y-68050096D01*
X92282048Y-72950096D02*
X92282048Y-73250096D01*
X92282048Y-73250096D02*
X92582048Y-73250096D01*
D13*
X77344666Y-60860143D02*
X77392285Y-60907762D01*
X77535142Y-60955381D01*
X77630380Y-60955381D01*
X77773238Y-60907762D01*
X77868476Y-60812524D01*
X77916095Y-60717286D01*
X77963714Y-60526810D01*
X77963714Y-60383952D01*
X77916095Y-60193476D01*
X77868476Y-60098238D01*
X77773238Y-60003000D01*
X77630380Y-59955381D01*
X77535142Y-59955381D01*
X77392285Y-60003000D01*
X77344666Y-60050619D01*
X76963714Y-60050619D02*
X76916095Y-60003000D01*
X76820857Y-59955381D01*
X76582761Y-59955381D01*
X76487523Y-60003000D01*
X76439904Y-60050619D01*
X76392285Y-60145857D01*
X76392285Y-60241095D01*
X76439904Y-60383952D01*
X77011333Y-60955381D01*
X76392285Y-60955381D01*
X71375666Y-60987143D02*
X71423285Y-61034762D01*
X71566142Y-61082381D01*
X71661380Y-61082381D01*
X71804238Y-61034762D01*
X71899476Y-60939524D01*
X71947095Y-60844286D01*
X71994714Y-60653810D01*
X71994714Y-60510952D01*
X71947095Y-60320476D01*
X71899476Y-60225238D01*
X71804238Y-60130000D01*
X71661380Y-60082381D01*
X71566142Y-60082381D01*
X71423285Y-60130000D01*
X71375666Y-60177619D01*
X71042333Y-60082381D02*
X70423285Y-60082381D01*
X70756619Y-60463333D01*
X70613761Y-60463333D01*
X70518523Y-60510952D01*
X70470904Y-60558571D01*
X70423285Y-60653810D01*
X70423285Y-60891905D01*
X70470904Y-60987143D01*
X70518523Y-61034762D01*
X70613761Y-61082381D01*
X70899476Y-61082381D01*
X70994714Y-61034762D01*
X71042333Y-60987143D01*
X75058666Y-66194143D02*
X75106285Y-66241762D01*
X75249142Y-66289381D01*
X75344380Y-66289381D01*
X75487238Y-66241762D01*
X75582476Y-66146524D01*
X75630095Y-66051286D01*
X75677714Y-65860810D01*
X75677714Y-65717952D01*
X75630095Y-65527476D01*
X75582476Y-65432238D01*
X75487238Y-65337000D01*
X75344380Y-65289381D01*
X75249142Y-65289381D01*
X75106285Y-65337000D01*
X75058666Y-65384619D01*
X74201523Y-65622714D02*
X74201523Y-66289381D01*
X74439619Y-65241762D02*
X74677714Y-65956048D01*
X74058666Y-65956048D01*
X90393857Y-66194143D02*
X90441476Y-66241762D01*
X90584333Y-66289381D01*
X90679571Y-66289381D01*
X90822429Y-66241762D01*
X90917667Y-66146524D01*
X90965286Y-66051286D01*
X91012905Y-65860810D01*
X91012905Y-65717952D01*
X90965286Y-65527476D01*
X90917667Y-65432238D01*
X90822429Y-65337000D01*
X90679571Y-65289381D01*
X90584333Y-65289381D01*
X90441476Y-65337000D01*
X90393857Y-65384619D01*
X89441476Y-66289381D02*
X90012905Y-66289381D01*
X89727191Y-66289381D02*
X89727191Y-65289381D01*
X89822429Y-65432238D01*
X89917667Y-65527476D01*
X90012905Y-65575095D01*
X88584333Y-65622714D02*
X88584333Y-66289381D01*
X88822429Y-65241762D02*
X89060524Y-65956048D01*
X88441476Y-65956048D01*
X64863095Y-61242381D02*
X64863095Y-60242381D01*
X64625000Y-60242381D01*
X64482142Y-60290000D01*
X64386904Y-60385238D01*
X64339285Y-60480476D01*
X64291666Y-60670952D01*
X64291666Y-60813810D01*
X64339285Y-61004286D01*
X64386904Y-61099524D01*
X64482142Y-61194762D01*
X64625000Y-61242381D01*
X64863095Y-61242381D01*
X63339285Y-61242381D02*
X63910714Y-61242381D01*
X63625000Y-61242381D02*
X63625000Y-60242381D01*
X63720238Y-60385238D01*
X63815476Y-60480476D01*
X63910714Y-60528095D01*
X72193238Y-77179619D02*
X72288476Y-77132000D01*
X72383714Y-77036762D01*
X72526571Y-76893905D01*
X72621810Y-76846286D01*
X72717048Y-76846286D01*
X72669429Y-77084381D02*
X72764667Y-77036762D01*
X72859905Y-76941524D01*
X72907524Y-76751048D01*
X72907524Y-76417714D01*
X72859905Y-76227238D01*
X72764667Y-76132000D01*
X72669429Y-76084381D01*
X72478952Y-76084381D01*
X72383714Y-76132000D01*
X72288476Y-76227238D01*
X72240857Y-76417714D01*
X72240857Y-76751048D01*
X72288476Y-76941524D01*
X72383714Y-77036762D01*
X72478952Y-77084381D01*
X72669429Y-77084381D01*
X71288476Y-77084381D02*
X71859905Y-77084381D01*
X71574191Y-77084381D02*
X71574191Y-76084381D01*
X71669429Y-76227238D01*
X71764667Y-76322476D01*
X71859905Y-76370095D01*
X63914381Y-72528334D02*
X63438190Y-72195000D01*
X63914381Y-71956905D02*
X62914381Y-71956905D01*
X62914381Y-72337858D01*
X62962000Y-72433096D01*
X63009619Y-72480715D01*
X63104857Y-72528334D01*
X63247714Y-72528334D01*
X63342952Y-72480715D01*
X63390571Y-72433096D01*
X63438190Y-72337858D01*
X63438190Y-71956905D01*
X63009619Y-72909286D02*
X62962000Y-72956905D01*
X62914381Y-73052143D01*
X62914381Y-73290239D01*
X62962000Y-73385477D01*
X63009619Y-73433096D01*
X63104857Y-73480715D01*
X63200095Y-73480715D01*
X63342952Y-73433096D01*
X63914381Y-72861667D01*
X63914381Y-73480715D01*
X110908429Y-71118430D02*
X110432238Y-70785096D01*
X110908429Y-70547001D02*
X109908429Y-70547001D01*
X109908429Y-70927954D01*
X109956048Y-71023192D01*
X110003667Y-71070811D01*
X110098905Y-71118430D01*
X110241762Y-71118430D01*
X110337000Y-71070811D01*
X110384619Y-71023192D01*
X110432238Y-70927954D01*
X110432238Y-70547001D01*
X110337000Y-71689858D02*
X110289381Y-71594620D01*
X110241762Y-71547001D01*
X110146524Y-71499382D01*
X110098905Y-71499382D01*
X110003667Y-71547001D01*
X109956048Y-71594620D01*
X109908429Y-71689858D01*
X109908429Y-71880335D01*
X109956048Y-71975573D01*
X110003667Y-72023192D01*
X110098905Y-72070811D01*
X110146524Y-72070811D01*
X110241762Y-72023192D01*
X110289381Y-71975573D01*
X110337000Y-71880335D01*
X110337000Y-71689858D01*
X110384619Y-71594620D01*
X110432238Y-71547001D01*
X110527477Y-71499382D01*
X110717953Y-71499382D01*
X110813191Y-71547001D01*
X110860810Y-71594620D01*
X110908429Y-71689858D01*
X110908429Y-71880335D01*
X110860810Y-71975573D01*
X110813191Y-72023192D01*
X110717953Y-72070811D01*
X110527477Y-72070811D01*
X110432238Y-72023192D01*
X110384619Y-71975573D01*
X110337000Y-71880335D01*
X104549905Y-73822477D02*
X104883239Y-73346286D01*
X105121334Y-73822477D02*
X105121334Y-72822477D01*
X104740381Y-72822477D01*
X104645143Y-72870096D01*
X104597524Y-72917715D01*
X104549905Y-73012953D01*
X104549905Y-73155810D01*
X104597524Y-73251048D01*
X104645143Y-73298667D01*
X104740381Y-73346286D01*
X105121334Y-73346286D01*
X103597524Y-73822477D02*
X104168953Y-73822477D01*
X103883239Y-73822477D02*
X103883239Y-72822477D01*
X103978477Y-72965334D01*
X104073715Y-73060572D01*
X104168953Y-73108191D01*
X102978477Y-72822477D02*
X102883238Y-72822477D01*
X102788000Y-72870096D01*
X102740381Y-72917715D01*
X102692762Y-73012953D01*
X102645143Y-73203429D01*
X102645143Y-73441525D01*
X102692762Y-73632001D01*
X102740381Y-73727239D01*
X102788000Y-73774858D01*
X102883238Y-73822477D01*
X102978477Y-73822477D01*
X103073715Y-73774858D01*
X103121334Y-73727239D01*
X103168953Y-73632001D01*
X103216572Y-73441525D01*
X103216572Y-73203429D01*
X103168953Y-73012953D01*
X103121334Y-72917715D01*
X103073715Y-72870096D01*
X102978477Y-72822477D01*
X100680857Y-76068381D02*
X101014191Y-75592190D01*
X101252286Y-76068381D02*
X101252286Y-75068381D01*
X100871333Y-75068381D01*
X100776095Y-75116000D01*
X100728476Y-75163619D01*
X100680857Y-75258857D01*
X100680857Y-75401714D01*
X100728476Y-75496952D01*
X100776095Y-75544571D01*
X100871333Y-75592190D01*
X101252286Y-75592190D01*
X99728476Y-76068381D02*
X100299905Y-76068381D01*
X100014191Y-76068381D02*
X100014191Y-75068381D01*
X100109429Y-75211238D01*
X100204667Y-75306476D01*
X100299905Y-75354095D01*
X98776095Y-76068381D02*
X99347524Y-76068381D01*
X99061810Y-76068381D02*
X99061810Y-75068381D01*
X99157048Y-75211238D01*
X99252286Y-75306476D01*
X99347524Y-75354095D01*
X104453106Y-70920090D02*
X104786440Y-70443899D01*
X105024535Y-70920090D02*
X105024535Y-69920090D01*
X104643582Y-69920090D01*
X104548344Y-69967709D01*
X104500725Y-70015328D01*
X104453106Y-70110566D01*
X104453106Y-70253423D01*
X104500725Y-70348661D01*
X104548344Y-70396280D01*
X104643582Y-70443899D01*
X105024535Y-70443899D01*
X103500725Y-70920090D02*
X104072154Y-70920090D01*
X103786440Y-70920090D02*
X103786440Y-69920090D01*
X103881678Y-70062947D01*
X103976916Y-70158185D01*
X104072154Y-70205804D01*
X103119773Y-70015328D02*
X103072154Y-69967709D01*
X102976916Y-69920090D01*
X102738820Y-69920090D01*
X102643582Y-69967709D01*
X102595963Y-70015328D01*
X102548344Y-70110566D01*
X102548344Y-70205804D01*
X102595963Y-70348661D01*
X103167392Y-70920090D01*
X102548344Y-70920090D01*
X99664857Y-65908381D02*
X99998191Y-65432190D01*
X100236286Y-65908381D02*
X100236286Y-64908381D01*
X99855333Y-64908381D01*
X99760095Y-64956000D01*
X99712476Y-65003619D01*
X99664857Y-65098857D01*
X99664857Y-65241714D01*
X99712476Y-65336952D01*
X99760095Y-65384571D01*
X99855333Y-65432190D01*
X100236286Y-65432190D01*
X98712476Y-65908381D02*
X99283905Y-65908381D01*
X98998191Y-65908381D02*
X98998191Y-64908381D01*
X99093429Y-65051238D01*
X99188667Y-65146476D01*
X99283905Y-65194095D01*
X98379143Y-64908381D02*
X97760095Y-64908381D01*
X98093429Y-65289333D01*
X97950571Y-65289333D01*
X97855333Y-65336952D01*
X97807714Y-65384571D01*
X97760095Y-65479810D01*
X97760095Y-65717905D01*
X97807714Y-65813143D01*
X97855333Y-65860762D01*
X97950571Y-65908381D01*
X98236286Y-65908381D01*
X98331524Y-65860762D01*
X98379143Y-65813143D01*
X89264969Y-69905971D02*
X90074493Y-69905971D01*
X90169731Y-69953590D01*
X90217350Y-70001209D01*
X90264969Y-70096447D01*
X90264969Y-70286924D01*
X90217350Y-70382162D01*
X90169731Y-70429781D01*
X90074493Y-70477400D01*
X89264969Y-70477400D01*
X90264969Y-71477400D02*
X90264969Y-70905971D01*
X90264969Y-71191685D02*
X89264969Y-71191685D01*
X89407826Y-71096447D01*
X89503064Y-71001209D01*
X89550683Y-70905971D01*
M02*
