G04 #@! TF.FileFunction,Legend,Top*
%FSLAX46Y46*%
G04 Gerber Fmt 4.6, Leading zero omitted, Abs format (unit mm)*
G04 Created by KiCad (PCBNEW 4.0.7) date 02/27/19 21:10:27*
%MOMM*%
%LPD*%
G01*
G04 APERTURE LIST*
%ADD10C,0.100000*%
%ADD11C,0.120000*%
%ADD12C,0.150000*%
%ADD13C,0.200000*%
%ADD14C,0.127000*%
%ADD15C,0.203200*%
G04 APERTURE END LIST*
D10*
D11*
X73765000Y-52855000D02*
X82565000Y-52855000D01*
X82565000Y-52855000D02*
X82565000Y-62055000D01*
X67865000Y-55555000D02*
X67865000Y-52855000D01*
X67865000Y-52855000D02*
X69765000Y-52855000D01*
X82565000Y-62055000D02*
X67865000Y-62055000D01*
X67865000Y-62055000D02*
X67865000Y-59455000D01*
X79175000Y-52660000D02*
X79175000Y-53360000D01*
X77975000Y-53360000D02*
X77975000Y-52660000D01*
X58525000Y-64825000D02*
X60525000Y-64825000D01*
X60525000Y-62785000D02*
X58525000Y-62785000D01*
X54715000Y-79430000D02*
X56715000Y-79430000D01*
X56715000Y-77390000D02*
X54715000Y-77390000D01*
X53445000Y-90225000D02*
X55445000Y-90225000D01*
X55445000Y-88185000D02*
X53445000Y-88185000D01*
X65679775Y-89932335D02*
X65679775Y-88932335D01*
X63979775Y-88932335D02*
X63979775Y-89932335D01*
X80830000Y-98695000D02*
X80130000Y-98695000D01*
X80130000Y-97495000D02*
X80830000Y-97495000D01*
X68219775Y-89932335D02*
X68219775Y-88932335D01*
X66519775Y-88932335D02*
X66519775Y-89932335D01*
X80830000Y-96155000D02*
X80130000Y-96155000D01*
X80130000Y-94955000D02*
X80830000Y-94955000D01*
X72414775Y-89082335D02*
X72414775Y-89782335D01*
X71214775Y-89782335D02*
X71214775Y-89082335D01*
X74484775Y-90997335D02*
X74484775Y-91697335D01*
X73284775Y-91697335D02*
X73284775Y-90997335D01*
X88539775Y-88027335D02*
X88539775Y-87027335D01*
X86839775Y-87027335D02*
X86839775Y-88027335D01*
X85999775Y-88027335D02*
X85999775Y-87027335D01*
X84299775Y-87027335D02*
X84299775Y-88027335D01*
X70759775Y-89932335D02*
X70759775Y-88932335D01*
X69059775Y-88932335D02*
X69059775Y-89932335D01*
X91079775Y-88027335D02*
X91079775Y-87027335D01*
X89379775Y-87027335D02*
X89379775Y-88027335D01*
D12*
X83562000Y-80517335D02*
X75452000Y-80517335D01*
X75452000Y-80527335D02*
X75452000Y-85027335D01*
X83562000Y-85027335D02*
X75452000Y-85027335D01*
X83562000Y-80527335D02*
X83562000Y-85027335D01*
D11*
X87745000Y-59240000D02*
X87745000Y-51240000D01*
X80425000Y-59240000D02*
X80425000Y-51240000D01*
X80425000Y-51240000D02*
X87745000Y-51240000D01*
X87125000Y-51240000D02*
X87125000Y-59240000D01*
X87745000Y-59240000D02*
X80425000Y-59240000D01*
X58830000Y-96885000D02*
X61490000Y-96885000D01*
X58830000Y-94285000D02*
X58830000Y-96885000D01*
X61490000Y-94285000D02*
X61490000Y-96885000D01*
X58830000Y-94285000D02*
X61490000Y-94285000D01*
X58830000Y-93015000D02*
X58830000Y-91685000D01*
X58830000Y-91685000D02*
X60160000Y-91685000D01*
X110900000Y-68190000D02*
X110900000Y-70850000D01*
X113500000Y-68190000D02*
X110900000Y-68190000D01*
X113500000Y-70850000D02*
X110900000Y-70850000D01*
X113500000Y-68190000D02*
X113500000Y-70850000D01*
X114770000Y-68190000D02*
X116100000Y-68190000D01*
X116100000Y-68190000D02*
X116100000Y-69520000D01*
X112290000Y-66405000D02*
X112290000Y-63745000D01*
X109690000Y-66405000D02*
X112290000Y-66405000D01*
X109690000Y-63745000D02*
X112290000Y-63745000D01*
X109690000Y-66405000D02*
X109690000Y-63745000D01*
X108420000Y-66405000D02*
X107090000Y-66405000D01*
X107090000Y-66405000D02*
X107090000Y-65075000D01*
X93120000Y-73270000D02*
X93120000Y-75930000D01*
X95720000Y-73270000D02*
X93120000Y-73270000D01*
X95720000Y-75930000D02*
X93120000Y-75930000D01*
X95720000Y-73270000D02*
X95720000Y-75930000D01*
X96990000Y-73270000D02*
X98320000Y-73270000D01*
X98320000Y-73270000D02*
X98320000Y-74600000D01*
X118326000Y-65075000D02*
G75*
G03X118326000Y-65075000I-2286000J0D01*
G01*
X118326000Y-73330000D02*
G75*
G03X118326000Y-73330000I-2286000J0D01*
G01*
X106261000Y-65075000D02*
G75*
G03X106261000Y-65075000I-2286000J0D01*
G01*
X86840000Y-67470000D02*
X87770000Y-67470000D01*
X90000000Y-67470000D02*
X89070000Y-67470000D01*
X90000000Y-67470000D02*
X90000000Y-65310000D01*
X86840000Y-67470000D02*
X86840000Y-66010000D01*
X83530000Y-63495000D02*
X83530000Y-64425000D01*
X83530000Y-66655000D02*
X83530000Y-65725000D01*
X83530000Y-66655000D02*
X85690000Y-66655000D01*
X83530000Y-63495000D02*
X84990000Y-63495000D01*
X73475000Y-67740000D02*
X73475000Y-67390000D01*
X73475000Y-67390000D02*
X74975000Y-67390000D01*
X73475000Y-72390000D02*
X73475000Y-69190000D01*
X74975000Y-74190000D02*
X73475000Y-74190000D01*
X73475000Y-74190000D02*
X73475000Y-73790000D01*
X75990000Y-53510000D02*
X75990000Y-52510000D01*
X77350000Y-52510000D02*
X77350000Y-53510000D01*
X88235000Y-63125000D02*
X89235000Y-63125000D01*
X89235000Y-64485000D02*
X88235000Y-64485000D01*
X93680000Y-68295000D02*
X92680000Y-68295000D01*
X92680000Y-66935000D02*
X93680000Y-66935000D01*
X67990000Y-68885000D02*
X67990000Y-69885000D01*
X66630000Y-69885000D02*
X66630000Y-68885000D01*
X83610000Y-75100000D02*
X83610000Y-74100000D01*
X84970000Y-74100000D02*
X84970000Y-75100000D01*
X79075000Y-65755000D02*
X78075000Y-65755000D01*
X78075000Y-64395000D02*
X79075000Y-64395000D01*
X77985000Y-96325000D02*
X77985000Y-97325000D01*
X76625000Y-97325000D02*
X76625000Y-96325000D01*
X87330000Y-93695000D02*
X86330000Y-93695000D01*
X86330000Y-92335000D02*
X87330000Y-92335000D01*
X86785000Y-97325000D02*
X86785000Y-96325000D01*
X88145000Y-96325000D02*
X88145000Y-97325000D01*
D13*
X75769775Y-86717335D02*
G75*
G03X75769775Y-86717335I-100000J0D01*
G01*
D14*
X76879775Y-86857335D02*
X81279775Y-86857335D01*
X76879775Y-91857335D02*
X81279775Y-91857335D01*
D11*
X53540000Y-93400000D02*
X55540000Y-93400000D01*
X55540000Y-91360000D02*
X53540000Y-91360000D01*
X88485000Y-74330000D02*
X88485000Y-72330000D01*
X86445000Y-72330000D02*
X86445000Y-74330000D01*
D15*
X59700000Y-81525000D02*
X59700000Y-74025000D01*
X65700000Y-81525000D02*
X65700000Y-74025000D01*
D11*
X90110000Y-97215000D02*
X92770000Y-97215000D01*
X90110000Y-94615000D02*
X90110000Y-97215000D01*
X92770000Y-94615000D02*
X92770000Y-97215000D01*
X90110000Y-94615000D02*
X92770000Y-94615000D01*
X90110000Y-93345000D02*
X90110000Y-92015000D01*
X90110000Y-92015000D02*
X91440000Y-92015000D01*
X54620000Y-83240000D02*
X56620000Y-83240000D01*
X56620000Y-81200000D02*
X54620000Y-81200000D01*
D13*
X58715000Y-67290000D02*
X58715000Y-74290000D01*
X52715000Y-74290000D02*
X52715000Y-67290000D01*
X58715000Y-67290000D02*
X58165000Y-67290000D01*
X53265000Y-67290000D02*
X52715000Y-67290000D01*
X58715000Y-74290000D02*
X58165000Y-74290000D01*
X52715000Y-74290000D02*
X53265000Y-74290000D01*
X58526800Y-66590000D02*
G75*
G03X58526800Y-66590000I-111800J0D01*
G01*
D11*
X62238000Y-85168000D02*
X62927000Y-85168000D01*
X62927000Y-85168000D02*
X62927000Y-89432000D01*
X62927000Y-89432000D02*
X62238000Y-89432000D01*
X59352000Y-85168000D02*
X58663000Y-85168000D01*
X58663000Y-85168000D02*
X58663000Y-89432000D01*
X58663000Y-89432000D02*
X59352000Y-89432000D01*
X67680000Y-80762835D02*
X67680000Y-79502335D01*
X67680000Y-79502335D02*
X74230000Y-79502335D01*
X74230000Y-79502335D02*
X74230000Y-80762835D01*
X67680000Y-84791835D02*
X67680000Y-86052335D01*
X67680000Y-86052335D02*
X74230000Y-86052335D01*
X74230000Y-86052335D02*
X74230000Y-84791835D01*
D12*
X65922667Y-60463381D02*
X65922667Y-61177667D01*
X65875047Y-61320524D01*
X65779809Y-61415762D01*
X65636952Y-61463381D01*
X65541714Y-61463381D01*
X66351238Y-60558619D02*
X66398857Y-60511000D01*
X66494095Y-60463381D01*
X66732191Y-60463381D01*
X66827429Y-60511000D01*
X66875048Y-60558619D01*
X66922667Y-60653857D01*
X66922667Y-60749095D01*
X66875048Y-60891952D01*
X66303619Y-61463381D01*
X66922667Y-61463381D01*
X79186143Y-55970666D02*
X79233762Y-56018285D01*
X79281381Y-56161142D01*
X79281381Y-56256380D01*
X79233762Y-56399238D01*
X79138524Y-56494476D01*
X79043286Y-56542095D01*
X78852810Y-56589714D01*
X78709952Y-56589714D01*
X78519476Y-56542095D01*
X78424238Y-56494476D01*
X78329000Y-56399238D01*
X78281381Y-56256380D01*
X78281381Y-56161142D01*
X78329000Y-56018285D01*
X78376619Y-55970666D01*
X79281381Y-55018285D02*
X79281381Y-55589714D01*
X79281381Y-55304000D02*
X78281381Y-55304000D01*
X78424238Y-55399238D01*
X78519476Y-55494476D01*
X78567095Y-55589714D01*
X60374334Y-66067143D02*
X60326715Y-66114762D01*
X60183858Y-66162381D01*
X60088620Y-66162381D01*
X59945762Y-66114762D01*
X59850524Y-66019524D01*
X59802905Y-65924286D01*
X59755286Y-65733810D01*
X59755286Y-65590952D01*
X59802905Y-65400476D01*
X59850524Y-65305238D01*
X59945762Y-65210000D01*
X60088620Y-65162381D01*
X60183858Y-65162381D01*
X60326715Y-65210000D01*
X60374334Y-65257619D01*
X61279096Y-65162381D02*
X60802905Y-65162381D01*
X60755286Y-65638571D01*
X60802905Y-65590952D01*
X60898143Y-65543333D01*
X61136239Y-65543333D01*
X61231477Y-65590952D01*
X61279096Y-65638571D01*
X61326715Y-65733810D01*
X61326715Y-65971905D01*
X61279096Y-66067143D01*
X61231477Y-66114762D01*
X61136239Y-66162381D01*
X60898143Y-66162381D01*
X60802905Y-66114762D01*
X60755286Y-66067143D01*
X52008143Y-78703666D02*
X52055762Y-78751285D01*
X52103381Y-78894142D01*
X52103381Y-78989380D01*
X52055762Y-79132238D01*
X51960524Y-79227476D01*
X51865286Y-79275095D01*
X51674810Y-79322714D01*
X51531952Y-79322714D01*
X51341476Y-79275095D01*
X51246238Y-79227476D01*
X51151000Y-79132238D01*
X51103381Y-78989380D01*
X51103381Y-78894142D01*
X51151000Y-78751285D01*
X51198619Y-78703666D01*
X51103381Y-77846523D02*
X51103381Y-78037000D01*
X51151000Y-78132238D01*
X51198619Y-78179857D01*
X51341476Y-78275095D01*
X51531952Y-78322714D01*
X51912905Y-78322714D01*
X52008143Y-78275095D01*
X52055762Y-78227476D01*
X52103381Y-78132238D01*
X52103381Y-77941761D01*
X52055762Y-77846523D01*
X52008143Y-77798904D01*
X51912905Y-77751285D01*
X51674810Y-77751285D01*
X51579571Y-77798904D01*
X51531952Y-77846523D01*
X51484333Y-77941761D01*
X51484333Y-78132238D01*
X51531952Y-78227476D01*
X51579571Y-78275095D01*
X51674810Y-78322714D01*
X52754334Y-87403143D02*
X52706715Y-87450762D01*
X52563858Y-87498381D01*
X52468620Y-87498381D01*
X52325762Y-87450762D01*
X52230524Y-87355524D01*
X52182905Y-87260286D01*
X52135286Y-87069810D01*
X52135286Y-86926952D01*
X52182905Y-86736476D01*
X52230524Y-86641238D01*
X52325762Y-86546000D01*
X52468620Y-86498381D01*
X52563858Y-86498381D01*
X52706715Y-86546000D01*
X52754334Y-86593619D01*
X53087667Y-86498381D02*
X53754334Y-86498381D01*
X53325762Y-87498381D01*
X65089143Y-93054666D02*
X65136762Y-93102285D01*
X65184381Y-93245142D01*
X65184381Y-93340380D01*
X65136762Y-93483238D01*
X65041524Y-93578476D01*
X64946286Y-93626095D01*
X64755810Y-93673714D01*
X64612952Y-93673714D01*
X64422476Y-93626095D01*
X64327238Y-93578476D01*
X64232000Y-93483238D01*
X64184381Y-93340380D01*
X64184381Y-93245142D01*
X64232000Y-93102285D01*
X64279619Y-93054666D01*
X65184381Y-92578476D02*
X65184381Y-92388000D01*
X65136762Y-92292761D01*
X65089143Y-92245142D01*
X64946286Y-92149904D01*
X64755810Y-92102285D01*
X64374857Y-92102285D01*
X64279619Y-92149904D01*
X64232000Y-92197523D01*
X64184381Y-92292761D01*
X64184381Y-92483238D01*
X64232000Y-92578476D01*
X64279619Y-92626095D01*
X64374857Y-92673714D01*
X64612952Y-92673714D01*
X64708190Y-92626095D01*
X64755810Y-92578476D01*
X64803429Y-92483238D01*
X64803429Y-92292761D01*
X64755810Y-92197523D01*
X64708190Y-92149904D01*
X64612952Y-92102285D01*
X83393143Y-98452143D02*
X83345524Y-98499762D01*
X83202667Y-98547381D01*
X83107429Y-98547381D01*
X82964571Y-98499762D01*
X82869333Y-98404524D01*
X82821714Y-98309286D01*
X82774095Y-98118810D01*
X82774095Y-97975952D01*
X82821714Y-97785476D01*
X82869333Y-97690238D01*
X82964571Y-97595000D01*
X83107429Y-97547381D01*
X83202667Y-97547381D01*
X83345524Y-97595000D01*
X83393143Y-97642619D01*
X84345524Y-98547381D02*
X83774095Y-98547381D01*
X84059809Y-98547381D02*
X84059809Y-97547381D01*
X83964571Y-97690238D01*
X83869333Y-97785476D01*
X83774095Y-97833095D01*
X84964571Y-97547381D02*
X85059810Y-97547381D01*
X85155048Y-97595000D01*
X85202667Y-97642619D01*
X85250286Y-97737857D01*
X85297905Y-97928333D01*
X85297905Y-98166429D01*
X85250286Y-98356905D01*
X85202667Y-98452143D01*
X85155048Y-98499762D01*
X85059810Y-98547381D01*
X84964571Y-98547381D01*
X84869333Y-98499762D01*
X84821714Y-98452143D01*
X84774095Y-98356905D01*
X84726476Y-98166429D01*
X84726476Y-97928333D01*
X84774095Y-97737857D01*
X84821714Y-97642619D01*
X84869333Y-97595000D01*
X84964571Y-97547381D01*
X67756143Y-93911857D02*
X67803762Y-93959476D01*
X67851381Y-94102333D01*
X67851381Y-94197571D01*
X67803762Y-94340429D01*
X67708524Y-94435667D01*
X67613286Y-94483286D01*
X67422810Y-94530905D01*
X67279952Y-94530905D01*
X67089476Y-94483286D01*
X66994238Y-94435667D01*
X66899000Y-94340429D01*
X66851381Y-94197571D01*
X66851381Y-94102333D01*
X66899000Y-93959476D01*
X66946619Y-93911857D01*
X67851381Y-92959476D02*
X67851381Y-93530905D01*
X67851381Y-93245191D02*
X66851381Y-93245191D01*
X66994238Y-93340429D01*
X67089476Y-93435667D01*
X67137095Y-93530905D01*
X67851381Y-92007095D02*
X67851381Y-92578524D01*
X67851381Y-92292810D02*
X66851381Y-92292810D01*
X66994238Y-92388048D01*
X67089476Y-92483286D01*
X67137095Y-92578524D01*
X83393143Y-96039143D02*
X83345524Y-96086762D01*
X83202667Y-96134381D01*
X83107429Y-96134381D01*
X82964571Y-96086762D01*
X82869333Y-95991524D01*
X82821714Y-95896286D01*
X82774095Y-95705810D01*
X82774095Y-95562952D01*
X82821714Y-95372476D01*
X82869333Y-95277238D01*
X82964571Y-95182000D01*
X83107429Y-95134381D01*
X83202667Y-95134381D01*
X83345524Y-95182000D01*
X83393143Y-95229619D01*
X84345524Y-96134381D02*
X83774095Y-96134381D01*
X84059809Y-96134381D02*
X84059809Y-95134381D01*
X83964571Y-95277238D01*
X83869333Y-95372476D01*
X83774095Y-95420095D01*
X84726476Y-95229619D02*
X84774095Y-95182000D01*
X84869333Y-95134381D01*
X85107429Y-95134381D01*
X85202667Y-95182000D01*
X85250286Y-95229619D01*
X85297905Y-95324857D01*
X85297905Y-95420095D01*
X85250286Y-95562952D01*
X84678857Y-96134381D01*
X85297905Y-96134381D01*
X72201143Y-93657857D02*
X72248762Y-93705476D01*
X72296381Y-93848333D01*
X72296381Y-93943571D01*
X72248762Y-94086429D01*
X72153524Y-94181667D01*
X72058286Y-94229286D01*
X71867810Y-94276905D01*
X71724952Y-94276905D01*
X71534476Y-94229286D01*
X71439238Y-94181667D01*
X71344000Y-94086429D01*
X71296381Y-93943571D01*
X71296381Y-93848333D01*
X71344000Y-93705476D01*
X71391619Y-93657857D01*
X72296381Y-92705476D02*
X72296381Y-93276905D01*
X72296381Y-92991191D02*
X71296381Y-92991191D01*
X71439238Y-93086429D01*
X71534476Y-93181667D01*
X71582095Y-93276905D01*
X71296381Y-92372143D02*
X71296381Y-91753095D01*
X71677333Y-92086429D01*
X71677333Y-91943571D01*
X71724952Y-91848333D01*
X71772571Y-91800714D01*
X71867810Y-91753095D01*
X72105905Y-91753095D01*
X72201143Y-91800714D01*
X72248762Y-91848333D01*
X72296381Y-91943571D01*
X72296381Y-92229286D01*
X72248762Y-92324524D01*
X72201143Y-92372143D01*
X74233143Y-95435857D02*
X74280762Y-95483476D01*
X74328381Y-95626333D01*
X74328381Y-95721571D01*
X74280762Y-95864429D01*
X74185524Y-95959667D01*
X74090286Y-96007286D01*
X73899810Y-96054905D01*
X73756952Y-96054905D01*
X73566476Y-96007286D01*
X73471238Y-95959667D01*
X73376000Y-95864429D01*
X73328381Y-95721571D01*
X73328381Y-95626333D01*
X73376000Y-95483476D01*
X73423619Y-95435857D01*
X74328381Y-94483476D02*
X74328381Y-95054905D01*
X74328381Y-94769191D02*
X73328381Y-94769191D01*
X73471238Y-94864429D01*
X73566476Y-94959667D01*
X73614095Y-95054905D01*
X73328381Y-93578714D02*
X73328381Y-94054905D01*
X73804571Y-94102524D01*
X73756952Y-94054905D01*
X73709333Y-93959667D01*
X73709333Y-93721571D01*
X73756952Y-93626333D01*
X73804571Y-93578714D01*
X73899810Y-93531095D01*
X74137905Y-93531095D01*
X74233143Y-93578714D01*
X74280762Y-93626333D01*
X74328381Y-93721571D01*
X74328381Y-93959667D01*
X74280762Y-94054905D01*
X74233143Y-94102524D01*
X88584143Y-84132857D02*
X88631762Y-84180476D01*
X88679381Y-84323333D01*
X88679381Y-84418571D01*
X88631762Y-84561429D01*
X88536524Y-84656667D01*
X88441286Y-84704286D01*
X88250810Y-84751905D01*
X88107952Y-84751905D01*
X87917476Y-84704286D01*
X87822238Y-84656667D01*
X87727000Y-84561429D01*
X87679381Y-84418571D01*
X87679381Y-84323333D01*
X87727000Y-84180476D01*
X87774619Y-84132857D01*
X88679381Y-83180476D02*
X88679381Y-83751905D01*
X88679381Y-83466191D02*
X87679381Y-83466191D01*
X87822238Y-83561429D01*
X87917476Y-83656667D01*
X87965095Y-83751905D01*
X87679381Y-82323333D02*
X87679381Y-82513810D01*
X87727000Y-82609048D01*
X87774619Y-82656667D01*
X87917476Y-82751905D01*
X88107952Y-82799524D01*
X88488905Y-82799524D01*
X88584143Y-82751905D01*
X88631762Y-82704286D01*
X88679381Y-82609048D01*
X88679381Y-82418571D01*
X88631762Y-82323333D01*
X88584143Y-82275714D01*
X88488905Y-82228095D01*
X88250810Y-82228095D01*
X88155571Y-82275714D01*
X88107952Y-82323333D01*
X88060333Y-82418571D01*
X88060333Y-82609048D01*
X88107952Y-82704286D01*
X88155571Y-82751905D01*
X88250810Y-82799524D01*
X84917143Y-84736143D02*
X84869524Y-84783762D01*
X84726667Y-84831381D01*
X84631429Y-84831381D01*
X84488571Y-84783762D01*
X84393333Y-84688524D01*
X84345714Y-84593286D01*
X84298095Y-84402810D01*
X84298095Y-84259952D01*
X84345714Y-84069476D01*
X84393333Y-83974238D01*
X84488571Y-83879000D01*
X84631429Y-83831381D01*
X84726667Y-83831381D01*
X84869524Y-83879000D01*
X84917143Y-83926619D01*
X85869524Y-84831381D02*
X85298095Y-84831381D01*
X85583809Y-84831381D02*
X85583809Y-83831381D01*
X85488571Y-83974238D01*
X85393333Y-84069476D01*
X85298095Y-84117095D01*
X86202857Y-83831381D02*
X86869524Y-83831381D01*
X86440952Y-84831381D01*
X70296143Y-93911857D02*
X70343762Y-93959476D01*
X70391381Y-94102333D01*
X70391381Y-94197571D01*
X70343762Y-94340429D01*
X70248524Y-94435667D01*
X70153286Y-94483286D01*
X69962810Y-94530905D01*
X69819952Y-94530905D01*
X69629476Y-94483286D01*
X69534238Y-94435667D01*
X69439000Y-94340429D01*
X69391381Y-94197571D01*
X69391381Y-94102333D01*
X69439000Y-93959476D01*
X69486619Y-93911857D01*
X70391381Y-92959476D02*
X70391381Y-93530905D01*
X70391381Y-93245191D02*
X69391381Y-93245191D01*
X69534238Y-93340429D01*
X69629476Y-93435667D01*
X69677095Y-93530905D01*
X69819952Y-92388048D02*
X69772333Y-92483286D01*
X69724714Y-92530905D01*
X69629476Y-92578524D01*
X69581857Y-92578524D01*
X69486619Y-92530905D01*
X69439000Y-92483286D01*
X69391381Y-92388048D01*
X69391381Y-92197571D01*
X69439000Y-92102333D01*
X69486619Y-92054714D01*
X69581857Y-92007095D01*
X69629476Y-92007095D01*
X69724714Y-92054714D01*
X69772333Y-92102333D01*
X69819952Y-92197571D01*
X69819952Y-92388048D01*
X69867571Y-92483286D01*
X69915190Y-92530905D01*
X70010429Y-92578524D01*
X70200905Y-92578524D01*
X70296143Y-92530905D01*
X70343762Y-92483286D01*
X70391381Y-92388048D01*
X70391381Y-92197571D01*
X70343762Y-92102333D01*
X70296143Y-92054714D01*
X70200905Y-92007095D01*
X70010429Y-92007095D01*
X69915190Y-92054714D01*
X69867571Y-92102333D01*
X69819952Y-92197571D01*
X92336918Y-88170192D02*
X92384537Y-88217811D01*
X92432156Y-88360668D01*
X92432156Y-88455906D01*
X92384537Y-88598764D01*
X92289299Y-88694002D01*
X92194061Y-88741621D01*
X92003585Y-88789240D01*
X91860727Y-88789240D01*
X91670251Y-88741621D01*
X91575013Y-88694002D01*
X91479775Y-88598764D01*
X91432156Y-88455906D01*
X91432156Y-88360668D01*
X91479775Y-88217811D01*
X91527394Y-88170192D01*
X92432156Y-87217811D02*
X92432156Y-87789240D01*
X92432156Y-87503526D02*
X91432156Y-87503526D01*
X91575013Y-87598764D01*
X91670251Y-87694002D01*
X91717870Y-87789240D01*
X92432156Y-86741621D02*
X92432156Y-86551145D01*
X92384537Y-86455906D01*
X92336918Y-86408287D01*
X92194061Y-86313049D01*
X92003585Y-86265430D01*
X91622632Y-86265430D01*
X91527394Y-86313049D01*
X91479775Y-86360668D01*
X91432156Y-86455906D01*
X91432156Y-86646383D01*
X91479775Y-86741621D01*
X91527394Y-86789240D01*
X91622632Y-86836859D01*
X91860727Y-86836859D01*
X91955965Y-86789240D01*
X92003585Y-86741621D01*
X92051204Y-86646383D01*
X92051204Y-86455906D01*
X92003585Y-86360668D01*
X91955965Y-86313049D01*
X91860727Y-86265430D01*
X76312905Y-79751381D02*
X76312905Y-78751381D01*
X76551000Y-78751381D01*
X76693858Y-78799000D01*
X76789096Y-78894238D01*
X76836715Y-78989476D01*
X76884334Y-79179952D01*
X76884334Y-79322810D01*
X76836715Y-79513286D01*
X76789096Y-79608524D01*
X76693858Y-79703762D01*
X76551000Y-79751381D01*
X76312905Y-79751381D01*
X77265286Y-78846619D02*
X77312905Y-78799000D01*
X77408143Y-78751381D01*
X77646239Y-78751381D01*
X77741477Y-78799000D01*
X77789096Y-78846619D01*
X77836715Y-78941857D01*
X77836715Y-79037095D01*
X77789096Y-79179952D01*
X77217667Y-79751381D01*
X77836715Y-79751381D01*
X84123381Y-60836333D02*
X84837667Y-60836333D01*
X84980524Y-60883953D01*
X85075762Y-60979191D01*
X85123381Y-61122048D01*
X85123381Y-61217286D01*
X85123381Y-59836333D02*
X85123381Y-60407762D01*
X85123381Y-60122048D02*
X84123381Y-60122048D01*
X84266238Y-60217286D01*
X84361476Y-60312524D01*
X84409095Y-60407762D01*
X62073000Y-98539190D02*
X62025381Y-98634428D01*
X62025381Y-98777285D01*
X62073000Y-98920143D01*
X62168238Y-99015381D01*
X62263476Y-99063000D01*
X62453952Y-99110619D01*
X62596810Y-99110619D01*
X62787286Y-99063000D01*
X62882524Y-99015381D01*
X62977762Y-98920143D01*
X63025381Y-98777285D01*
X63025381Y-98682047D01*
X62977762Y-98539190D01*
X62930143Y-98491571D01*
X62596810Y-98491571D01*
X62596810Y-98682047D01*
X63025381Y-98063000D02*
X62025381Y-98063000D01*
X63025381Y-97491571D01*
X62025381Y-97491571D01*
X63025381Y-97015381D02*
X62025381Y-97015381D01*
X62025381Y-96777286D01*
X62073000Y-96634428D01*
X62168238Y-96539190D01*
X62263476Y-96491571D01*
X62453952Y-96443952D01*
X62596810Y-96443952D01*
X62787286Y-96491571D01*
X62882524Y-96539190D01*
X62977762Y-96634428D01*
X63025381Y-96777286D01*
X63025381Y-97015381D01*
X61977762Y-95301095D02*
X63263476Y-96158238D01*
X62025381Y-95110619D02*
X63025381Y-94777286D01*
X62025381Y-94443952D01*
X63025381Y-94110619D02*
X62025381Y-94110619D01*
X63025381Y-93634429D02*
X62025381Y-93634429D01*
X63025381Y-93063000D01*
X62025381Y-93063000D01*
X103499143Y-69909000D02*
X103403905Y-69861381D01*
X103261048Y-69861381D01*
X103118190Y-69909000D01*
X103022952Y-70004238D01*
X102975333Y-70099476D01*
X102927714Y-70289952D01*
X102927714Y-70432810D01*
X102975333Y-70623286D01*
X103022952Y-70718524D01*
X103118190Y-70813762D01*
X103261048Y-70861381D01*
X103356286Y-70861381D01*
X103499143Y-70813762D01*
X103546762Y-70766143D01*
X103546762Y-70432810D01*
X103356286Y-70432810D01*
X103975333Y-70861381D02*
X103975333Y-69861381D01*
X104546762Y-70861381D01*
X104546762Y-69861381D01*
X105022952Y-70861381D02*
X105022952Y-69861381D01*
X105261047Y-69861381D01*
X105403905Y-69909000D01*
X105499143Y-70004238D01*
X105546762Y-70099476D01*
X105594381Y-70289952D01*
X105594381Y-70432810D01*
X105546762Y-70623286D01*
X105499143Y-70718524D01*
X105403905Y-70813762D01*
X105261047Y-70861381D01*
X105022952Y-70861381D01*
X106737238Y-69813762D02*
X105880095Y-71099476D01*
X106927714Y-69861381D02*
X107261047Y-70861381D01*
X107594381Y-69861381D01*
X108118190Y-69861381D02*
X108308667Y-69861381D01*
X108403905Y-69909000D01*
X108499143Y-70004238D01*
X108546762Y-70194714D01*
X108546762Y-70528048D01*
X108499143Y-70718524D01*
X108403905Y-70813762D01*
X108308667Y-70861381D01*
X108118190Y-70861381D01*
X108022952Y-70813762D01*
X107927714Y-70718524D01*
X107880095Y-70528048D01*
X107880095Y-70194714D01*
X107927714Y-70004238D01*
X108022952Y-69909000D01*
X108118190Y-69861381D01*
X108975333Y-69861381D02*
X108975333Y-70670905D01*
X109022952Y-70766143D01*
X109070571Y-70813762D01*
X109165809Y-70861381D01*
X109356286Y-70861381D01*
X109451524Y-70813762D01*
X109499143Y-70766143D01*
X109546762Y-70670905D01*
X109546762Y-69861381D01*
X109880095Y-69861381D02*
X110451524Y-69861381D01*
X110165809Y-70861381D02*
X110165809Y-69861381D01*
X105824905Y-67813381D02*
X105824905Y-66813381D01*
X106063000Y-66813381D01*
X106205858Y-66861000D01*
X106301096Y-66956238D01*
X106348715Y-67051476D01*
X106396334Y-67241952D01*
X106396334Y-67384810D01*
X106348715Y-67575286D01*
X106301096Y-67670524D01*
X106205858Y-67765762D01*
X106063000Y-67813381D01*
X105824905Y-67813381D01*
X107015381Y-66813381D02*
X107205858Y-66813381D01*
X107301096Y-66861000D01*
X107396334Y-66956238D01*
X107443953Y-67146714D01*
X107443953Y-67480048D01*
X107396334Y-67670524D01*
X107301096Y-67765762D01*
X107205858Y-67813381D01*
X107015381Y-67813381D01*
X106920143Y-67765762D01*
X106824905Y-67670524D01*
X106777286Y-67480048D01*
X106777286Y-67146714D01*
X106824905Y-66956238D01*
X106920143Y-66861000D01*
X107015381Y-66813381D01*
X107872524Y-66813381D02*
X107872524Y-67622905D01*
X107920143Y-67718143D01*
X107967762Y-67765762D01*
X108063000Y-67813381D01*
X108253477Y-67813381D01*
X108348715Y-67765762D01*
X108396334Y-67718143D01*
X108443953Y-67622905D01*
X108443953Y-66813381D01*
X108777286Y-66813381D02*
X109348715Y-66813381D01*
X109063000Y-67813381D02*
X109063000Y-66813381D01*
X110396334Y-66765762D02*
X109539191Y-68051476D01*
X111253477Y-66861000D02*
X111158239Y-66813381D01*
X111015382Y-66813381D01*
X110872524Y-66861000D01*
X110777286Y-66956238D01*
X110729667Y-67051476D01*
X110682048Y-67241952D01*
X110682048Y-67384810D01*
X110729667Y-67575286D01*
X110777286Y-67670524D01*
X110872524Y-67765762D01*
X111015382Y-67813381D01*
X111110620Y-67813381D01*
X111253477Y-67765762D01*
X111301096Y-67718143D01*
X111301096Y-67384810D01*
X111110620Y-67384810D01*
X111729667Y-67813381D02*
X111729667Y-66813381D01*
X112301096Y-67813381D01*
X112301096Y-66813381D01*
X112777286Y-67813381D02*
X112777286Y-66813381D01*
X113015381Y-66813381D01*
X113158239Y-66861000D01*
X113253477Y-66956238D01*
X113301096Y-67051476D01*
X113348715Y-67241952D01*
X113348715Y-67384810D01*
X113301096Y-67575286D01*
X113253477Y-67670524D01*
X113158239Y-67765762D01*
X113015381Y-67813381D01*
X112777286Y-67813381D01*
X92386762Y-71861571D02*
X92529619Y-71909190D01*
X92577238Y-71956810D01*
X92624857Y-72052048D01*
X92624857Y-72194905D01*
X92577238Y-72290143D01*
X92529619Y-72337762D01*
X92434381Y-72385381D01*
X92053428Y-72385381D01*
X92053428Y-71385381D01*
X92386762Y-71385381D01*
X92482000Y-71433000D01*
X92529619Y-71480619D01*
X92577238Y-71575857D01*
X92577238Y-71671095D01*
X92529619Y-71766333D01*
X92482000Y-71813952D01*
X92386762Y-71861571D01*
X92053428Y-71861571D01*
X93005809Y-72337762D02*
X93148666Y-72385381D01*
X93386762Y-72385381D01*
X93482000Y-72337762D01*
X93529619Y-72290143D01*
X93577238Y-72194905D01*
X93577238Y-72099667D01*
X93529619Y-72004429D01*
X93482000Y-71956810D01*
X93386762Y-71909190D01*
X93196285Y-71861571D01*
X93101047Y-71813952D01*
X93053428Y-71766333D01*
X93005809Y-71671095D01*
X93005809Y-71575857D01*
X93053428Y-71480619D01*
X93101047Y-71433000D01*
X93196285Y-71385381D01*
X93434381Y-71385381D01*
X93577238Y-71433000D01*
X93862952Y-71385381D02*
X94434381Y-71385381D01*
X94148666Y-72385381D02*
X94148666Y-71385381D01*
X94529619Y-72480619D02*
X95291524Y-72480619D01*
X95529619Y-71861571D02*
X95862953Y-71861571D01*
X96005810Y-72385381D02*
X95529619Y-72385381D01*
X95529619Y-71385381D01*
X96005810Y-71385381D01*
X96434381Y-72385381D02*
X96434381Y-71385381D01*
X97005810Y-72385381D01*
X97005810Y-71385381D01*
X98196286Y-71337762D02*
X97339143Y-72623476D01*
X98862953Y-71861571D02*
X99005810Y-71909190D01*
X99053429Y-71956810D01*
X99101048Y-72052048D01*
X99101048Y-72194905D01*
X99053429Y-72290143D01*
X99005810Y-72337762D01*
X98910572Y-72385381D01*
X98529619Y-72385381D01*
X98529619Y-71385381D01*
X98862953Y-71385381D01*
X98958191Y-71433000D01*
X99005810Y-71480619D01*
X99053429Y-71575857D01*
X99053429Y-71671095D01*
X99005810Y-71766333D01*
X98958191Y-71813952D01*
X98862953Y-71861571D01*
X98529619Y-71861571D01*
X99720095Y-71909190D02*
X99720095Y-72385381D01*
X99386762Y-71385381D02*
X99720095Y-71909190D01*
X100053429Y-71385381D01*
X100386762Y-72385381D02*
X100386762Y-71385381D01*
X100767715Y-71385381D01*
X100862953Y-71433000D01*
X100910572Y-71480619D01*
X100958191Y-71575857D01*
X100958191Y-71718714D01*
X100910572Y-71813952D01*
X100862953Y-71861571D01*
X100767715Y-71909190D01*
X100386762Y-71909190D01*
X118159381Y-70011905D02*
X119159381Y-69678572D01*
X118159381Y-69345238D01*
X118159381Y-68821429D02*
X118159381Y-68630952D01*
X118207000Y-68535714D01*
X118302238Y-68440476D01*
X118492714Y-68392857D01*
X118826048Y-68392857D01*
X119016524Y-68440476D01*
X119111762Y-68535714D01*
X119159381Y-68630952D01*
X119159381Y-68821429D01*
X119111762Y-68916667D01*
X119016524Y-69011905D01*
X118826048Y-69059524D01*
X118492714Y-69059524D01*
X118302238Y-69011905D01*
X118207000Y-68916667D01*
X118159381Y-68821429D01*
X118159381Y-67964286D02*
X118968905Y-67964286D01*
X119064143Y-67916667D01*
X119111762Y-67869048D01*
X119159381Y-67773810D01*
X119159381Y-67583333D01*
X119111762Y-67488095D01*
X119064143Y-67440476D01*
X118968905Y-67392857D01*
X118159381Y-67392857D01*
X118159381Y-67059524D02*
X118159381Y-66488095D01*
X119159381Y-66773810D02*
X118159381Y-66773810D01*
X107642429Y-73401381D02*
X107166238Y-73401381D01*
X107166238Y-72401381D01*
X107975762Y-72877571D02*
X108309096Y-72877571D01*
X108451953Y-73401381D02*
X107975762Y-73401381D01*
X107975762Y-72401381D01*
X108451953Y-72401381D01*
X108880524Y-73401381D02*
X108880524Y-72401381D01*
X109118619Y-72401381D01*
X109261477Y-72449000D01*
X109356715Y-72544238D01*
X109404334Y-72639476D01*
X109451953Y-72829952D01*
X109451953Y-72972810D01*
X109404334Y-73163286D01*
X109356715Y-73258524D01*
X109261477Y-73353762D01*
X109118619Y-73401381D01*
X108880524Y-73401381D01*
X109642429Y-73496619D02*
X110404334Y-73496619D01*
X111213858Y-73401381D02*
X110880524Y-72925190D01*
X110642429Y-73401381D02*
X110642429Y-72401381D01*
X111023382Y-72401381D01*
X111118620Y-72449000D01*
X111166239Y-72496619D01*
X111213858Y-72591857D01*
X111213858Y-72734714D01*
X111166239Y-72829952D01*
X111118620Y-72877571D01*
X111023382Y-72925190D01*
X110642429Y-72925190D01*
X111499572Y-72401381D02*
X112071001Y-72401381D01*
X111785286Y-73401381D02*
X111785286Y-72401381D01*
X112404334Y-73401381D02*
X112404334Y-72401381D01*
X112975763Y-73401381D01*
X112975763Y-72401381D01*
X96950524Y-65400381D02*
X96950524Y-64400381D01*
X97188619Y-64400381D01*
X97331477Y-64448000D01*
X97426715Y-64543238D01*
X97474334Y-64638476D01*
X97521953Y-64828952D01*
X97521953Y-64971810D01*
X97474334Y-65162286D01*
X97426715Y-65257524D01*
X97331477Y-65352762D01*
X97188619Y-65400381D01*
X96950524Y-65400381D01*
X98141000Y-64400381D02*
X98331477Y-64400381D01*
X98426715Y-64448000D01*
X98521953Y-64543238D01*
X98569572Y-64733714D01*
X98569572Y-65067048D01*
X98521953Y-65257524D01*
X98426715Y-65352762D01*
X98331477Y-65400381D01*
X98141000Y-65400381D01*
X98045762Y-65352762D01*
X97950524Y-65257524D01*
X97902905Y-65067048D01*
X97902905Y-64733714D01*
X97950524Y-64543238D01*
X98045762Y-64448000D01*
X98141000Y-64400381D01*
X98998143Y-64400381D02*
X98998143Y-65209905D01*
X99045762Y-65305143D01*
X99093381Y-65352762D01*
X99188619Y-65400381D01*
X99379096Y-65400381D01*
X99474334Y-65352762D01*
X99521953Y-65305143D01*
X99569572Y-65209905D01*
X99569572Y-64400381D01*
X99902905Y-64400381D02*
X100474334Y-64400381D01*
X100188619Y-65400381D02*
X100188619Y-64400381D01*
X91052762Y-66257619D02*
X90957524Y-66210000D01*
X90862286Y-66114762D01*
X90719429Y-65971905D01*
X90624190Y-65924286D01*
X90528952Y-65924286D01*
X90576571Y-66162381D02*
X90481333Y-66114762D01*
X90386095Y-66019524D01*
X90338476Y-65829048D01*
X90338476Y-65495714D01*
X90386095Y-65305238D01*
X90481333Y-65210000D01*
X90576571Y-65162381D01*
X90767048Y-65162381D01*
X90862286Y-65210000D01*
X90957524Y-65305238D01*
X91005143Y-65495714D01*
X91005143Y-65829048D01*
X90957524Y-66019524D01*
X90862286Y-66114762D01*
X90767048Y-66162381D01*
X90576571Y-66162381D01*
X91386095Y-65257619D02*
X91433714Y-65210000D01*
X91528952Y-65162381D01*
X91767048Y-65162381D01*
X91862286Y-65210000D01*
X91909905Y-65257619D01*
X91957524Y-65352857D01*
X91957524Y-65448095D01*
X91909905Y-65590952D01*
X91338476Y-66162381D01*
X91957524Y-66162381D01*
X81908762Y-64098619D02*
X81813524Y-64051000D01*
X81718286Y-63955762D01*
X81575429Y-63812905D01*
X81480190Y-63765286D01*
X81384952Y-63765286D01*
X81432571Y-64003381D02*
X81337333Y-63955762D01*
X81242095Y-63860524D01*
X81194476Y-63670048D01*
X81194476Y-63336714D01*
X81242095Y-63146238D01*
X81337333Y-63051000D01*
X81432571Y-63003381D01*
X81623048Y-63003381D01*
X81718286Y-63051000D01*
X81813524Y-63146238D01*
X81861143Y-63336714D01*
X81861143Y-63670048D01*
X81813524Y-63860524D01*
X81718286Y-63955762D01*
X81623048Y-64003381D01*
X81432571Y-64003381D01*
X82194476Y-63003381D02*
X82813524Y-63003381D01*
X82480190Y-63384333D01*
X82623048Y-63384333D01*
X82718286Y-63431952D01*
X82765905Y-63479571D01*
X82813524Y-63574810D01*
X82813524Y-63812905D01*
X82765905Y-63908143D01*
X82718286Y-63955762D01*
X82623048Y-64003381D01*
X82337333Y-64003381D01*
X82242095Y-63955762D01*
X82194476Y-63908143D01*
X75079762Y-66787619D02*
X74984524Y-66740000D01*
X74889286Y-66644762D01*
X74746429Y-66501905D01*
X74651190Y-66454286D01*
X74555952Y-66454286D01*
X74603571Y-66692381D02*
X74508333Y-66644762D01*
X74413095Y-66549524D01*
X74365476Y-66359048D01*
X74365476Y-66025714D01*
X74413095Y-65835238D01*
X74508333Y-65740000D01*
X74603571Y-65692381D01*
X74794048Y-65692381D01*
X74889286Y-65740000D01*
X74984524Y-65835238D01*
X75032143Y-66025714D01*
X75032143Y-66359048D01*
X74984524Y-66549524D01*
X74889286Y-66644762D01*
X74794048Y-66692381D01*
X74603571Y-66692381D01*
X75889286Y-66025714D02*
X75889286Y-66692381D01*
X75651190Y-65644762D02*
X75413095Y-66359048D01*
X76032143Y-66359048D01*
X75471381Y-54192666D02*
X74995190Y-54526000D01*
X75471381Y-54764095D02*
X74471381Y-54764095D01*
X74471381Y-54383142D01*
X74519000Y-54287904D01*
X74566619Y-54240285D01*
X74661857Y-54192666D01*
X74804714Y-54192666D01*
X74899952Y-54240285D01*
X74947571Y-54287904D01*
X74995190Y-54383142D01*
X74995190Y-54764095D01*
X75471381Y-53240285D02*
X75471381Y-53811714D01*
X75471381Y-53526000D02*
X74471381Y-53526000D01*
X74614238Y-53621238D01*
X74709476Y-53716476D01*
X74757095Y-53811714D01*
X91616334Y-64257381D02*
X91283000Y-63781190D01*
X91044905Y-64257381D02*
X91044905Y-63257381D01*
X91425858Y-63257381D01*
X91521096Y-63305000D01*
X91568715Y-63352619D01*
X91616334Y-63447857D01*
X91616334Y-63590714D01*
X91568715Y-63685952D01*
X91521096Y-63733571D01*
X91425858Y-63781190D01*
X91044905Y-63781190D01*
X91949667Y-63257381D02*
X92568715Y-63257381D01*
X92235381Y-63638333D01*
X92378239Y-63638333D01*
X92473477Y-63685952D01*
X92521096Y-63733571D01*
X92568715Y-63828810D01*
X92568715Y-64066905D01*
X92521096Y-64162143D01*
X92473477Y-64209762D01*
X92378239Y-64257381D01*
X92092524Y-64257381D01*
X91997286Y-64209762D01*
X91949667Y-64162143D01*
X93902334Y-66543381D02*
X93569000Y-66067190D01*
X93330905Y-66543381D02*
X93330905Y-65543381D01*
X93711858Y-65543381D01*
X93807096Y-65591000D01*
X93854715Y-65638619D01*
X93902334Y-65733857D01*
X93902334Y-65876714D01*
X93854715Y-65971952D01*
X93807096Y-66019571D01*
X93711858Y-66067190D01*
X93330905Y-66067190D01*
X94759477Y-65876714D02*
X94759477Y-66543381D01*
X94521381Y-65495762D02*
X94283286Y-66210048D01*
X94902334Y-66210048D01*
X66073381Y-69305666D02*
X65597190Y-69639000D01*
X66073381Y-69877095D02*
X65073381Y-69877095D01*
X65073381Y-69496142D01*
X65121000Y-69400904D01*
X65168619Y-69353285D01*
X65263857Y-69305666D01*
X65406714Y-69305666D01*
X65501952Y-69353285D01*
X65549571Y-69400904D01*
X65597190Y-69496142D01*
X65597190Y-69877095D01*
X65073381Y-68400904D02*
X65073381Y-68877095D01*
X65549571Y-68924714D01*
X65501952Y-68877095D01*
X65454333Y-68781857D01*
X65454333Y-68543761D01*
X65501952Y-68448523D01*
X65549571Y-68400904D01*
X65644810Y-68353285D01*
X65882905Y-68353285D01*
X65978143Y-68400904D01*
X66025762Y-68448523D01*
X66073381Y-68543761D01*
X66073381Y-68781857D01*
X66025762Y-68877095D01*
X65978143Y-68924714D01*
X83869334Y-77846381D02*
X83536000Y-77370190D01*
X83297905Y-77846381D02*
X83297905Y-76846381D01*
X83678858Y-76846381D01*
X83774096Y-76894000D01*
X83821715Y-76941619D01*
X83869334Y-77036857D01*
X83869334Y-77179714D01*
X83821715Y-77274952D01*
X83774096Y-77322571D01*
X83678858Y-77370190D01*
X83297905Y-77370190D01*
X84726477Y-76846381D02*
X84536000Y-76846381D01*
X84440762Y-76894000D01*
X84393143Y-76941619D01*
X84297905Y-77084476D01*
X84250286Y-77274952D01*
X84250286Y-77655905D01*
X84297905Y-77751143D01*
X84345524Y-77798762D01*
X84440762Y-77846381D01*
X84631239Y-77846381D01*
X84726477Y-77798762D01*
X84774096Y-77751143D01*
X84821715Y-77655905D01*
X84821715Y-77417810D01*
X84774096Y-77322571D01*
X84726477Y-77274952D01*
X84631239Y-77227333D01*
X84440762Y-77227333D01*
X84345524Y-77274952D01*
X84297905Y-77322571D01*
X84250286Y-77417810D01*
X78408334Y-64077381D02*
X78075000Y-63601190D01*
X77836905Y-64077381D02*
X77836905Y-63077381D01*
X78217858Y-63077381D01*
X78313096Y-63125000D01*
X78360715Y-63172619D01*
X78408334Y-63267857D01*
X78408334Y-63410714D01*
X78360715Y-63505952D01*
X78313096Y-63553571D01*
X78217858Y-63601190D01*
X77836905Y-63601190D01*
X78741667Y-63077381D02*
X79408334Y-63077381D01*
X78979762Y-64077381D01*
X76106381Y-97880666D02*
X75630190Y-98214000D01*
X76106381Y-98452095D02*
X75106381Y-98452095D01*
X75106381Y-98071142D01*
X75154000Y-97975904D01*
X75201619Y-97928285D01*
X75296857Y-97880666D01*
X75439714Y-97880666D01*
X75534952Y-97928285D01*
X75582571Y-97975904D01*
X75630190Y-98071142D01*
X75630190Y-98452095D01*
X76106381Y-97404476D02*
X76106381Y-97214000D01*
X76058762Y-97118761D01*
X76011143Y-97071142D01*
X75868286Y-96975904D01*
X75677810Y-96928285D01*
X75296857Y-96928285D01*
X75201619Y-96975904D01*
X75154000Y-97023523D01*
X75106381Y-97118761D01*
X75106381Y-97309238D01*
X75154000Y-97404476D01*
X75201619Y-97452095D01*
X75296857Y-97499714D01*
X75534952Y-97499714D01*
X75630190Y-97452095D01*
X75677810Y-97404476D01*
X75725429Y-97309238D01*
X75725429Y-97118761D01*
X75677810Y-97023523D01*
X75630190Y-96975904D01*
X75534952Y-96928285D01*
X86187143Y-92017381D02*
X85853809Y-91541190D01*
X85615714Y-92017381D02*
X85615714Y-91017381D01*
X85996667Y-91017381D01*
X86091905Y-91065000D01*
X86139524Y-91112619D01*
X86187143Y-91207857D01*
X86187143Y-91350714D01*
X86139524Y-91445952D01*
X86091905Y-91493571D01*
X85996667Y-91541190D01*
X85615714Y-91541190D01*
X87139524Y-92017381D02*
X86568095Y-92017381D01*
X86853809Y-92017381D02*
X86853809Y-91017381D01*
X86758571Y-91160238D01*
X86663333Y-91255476D01*
X86568095Y-91303095D01*
X87996667Y-91350714D02*
X87996667Y-92017381D01*
X87758571Y-90969762D02*
X87520476Y-91684048D01*
X88139524Y-91684048D01*
X89108143Y-99182381D02*
X88774809Y-98706190D01*
X88536714Y-99182381D02*
X88536714Y-98182381D01*
X88917667Y-98182381D01*
X89012905Y-98230000D01*
X89060524Y-98277619D01*
X89108143Y-98372857D01*
X89108143Y-98515714D01*
X89060524Y-98610952D01*
X89012905Y-98658571D01*
X88917667Y-98706190D01*
X88536714Y-98706190D01*
X90060524Y-99182381D02*
X89489095Y-99182381D01*
X89774809Y-99182381D02*
X89774809Y-98182381D01*
X89679571Y-98325238D01*
X89584333Y-98420476D01*
X89489095Y-98468095D01*
X90965286Y-98182381D02*
X90489095Y-98182381D01*
X90441476Y-98658571D01*
X90489095Y-98610952D01*
X90584333Y-98563333D01*
X90822429Y-98563333D01*
X90917667Y-98610952D01*
X90965286Y-98658571D01*
X91012905Y-98753810D01*
X91012905Y-98991905D01*
X90965286Y-99087143D01*
X90917667Y-99134762D01*
X90822429Y-99182381D01*
X90584333Y-99182381D01*
X90489095Y-99134762D01*
X90441476Y-99087143D01*
X53683096Y-97214000D02*
X53587858Y-97166381D01*
X53445001Y-97166381D01*
X53302143Y-97214000D01*
X53206905Y-97309238D01*
X53159286Y-97404476D01*
X53111667Y-97594952D01*
X53111667Y-97737810D01*
X53159286Y-97928286D01*
X53206905Y-98023524D01*
X53302143Y-98118762D01*
X53445001Y-98166381D01*
X53540239Y-98166381D01*
X53683096Y-98118762D01*
X53730715Y-98071143D01*
X53730715Y-97737810D01*
X53540239Y-97737810D01*
X54159286Y-98166381D02*
X54159286Y-97166381D01*
X54730715Y-98166381D01*
X54730715Y-97166381D01*
X55206905Y-98166381D02*
X55206905Y-97166381D01*
X55445000Y-97166381D01*
X55587858Y-97214000D01*
X55683096Y-97309238D01*
X55730715Y-97404476D01*
X55778334Y-97594952D01*
X55778334Y-97737810D01*
X55730715Y-97928286D01*
X55683096Y-98023524D01*
X55587858Y-98118762D01*
X55445000Y-98166381D01*
X55206905Y-98166381D01*
X66684762Y-75227381D02*
X67018095Y-76227381D01*
X67351429Y-75227381D01*
X67684762Y-76227381D02*
X67684762Y-75227381D01*
X68160952Y-76227381D02*
X68160952Y-75227381D01*
X68732381Y-76227381D01*
X68732381Y-75227381D01*
X75979762Y-76338571D02*
X76122619Y-76386190D01*
X76170238Y-76433810D01*
X76217857Y-76529048D01*
X76217857Y-76671905D01*
X76170238Y-76767143D01*
X76122619Y-76814762D01*
X76027381Y-76862381D01*
X75646428Y-76862381D01*
X75646428Y-75862381D01*
X75979762Y-75862381D01*
X76075000Y-75910000D01*
X76122619Y-75957619D01*
X76170238Y-76052857D01*
X76170238Y-76148095D01*
X76122619Y-76243333D01*
X76075000Y-76290952D01*
X75979762Y-76338571D01*
X75646428Y-76338571D01*
X76598809Y-76814762D02*
X76741666Y-76862381D01*
X76979762Y-76862381D01*
X77075000Y-76814762D01*
X77122619Y-76767143D01*
X77170238Y-76671905D01*
X77170238Y-76576667D01*
X77122619Y-76481429D01*
X77075000Y-76433810D01*
X76979762Y-76386190D01*
X76789285Y-76338571D01*
X76694047Y-76290952D01*
X76646428Y-76243333D01*
X76598809Y-76148095D01*
X76598809Y-76052857D01*
X76646428Y-75957619D01*
X76694047Y-75910000D01*
X76789285Y-75862381D01*
X77027381Y-75862381D01*
X77170238Y-75910000D01*
X77455952Y-75862381D02*
X78027381Y-75862381D01*
X77741666Y-76862381D02*
X77741666Y-75862381D01*
X78122619Y-76957619D02*
X78884524Y-76957619D01*
X79313095Y-75862381D02*
X79503572Y-75862381D01*
X79598810Y-75910000D01*
X79694048Y-76005238D01*
X79741667Y-76195714D01*
X79741667Y-76529048D01*
X79694048Y-76719524D01*
X79598810Y-76814762D01*
X79503572Y-76862381D01*
X79313095Y-76862381D01*
X79217857Y-76814762D01*
X79122619Y-76719524D01*
X79075000Y-76529048D01*
X79075000Y-76195714D01*
X79122619Y-76005238D01*
X79217857Y-75910000D01*
X79313095Y-75862381D01*
X80170238Y-75862381D02*
X80170238Y-76671905D01*
X80217857Y-76767143D01*
X80265476Y-76814762D01*
X80360714Y-76862381D01*
X80551191Y-76862381D01*
X80646429Y-76814762D01*
X80694048Y-76767143D01*
X80741667Y-76671905D01*
X80741667Y-75862381D01*
X81075000Y-75862381D02*
X81646429Y-75862381D01*
X81360714Y-76862381D02*
X81360714Y-75862381D01*
X82782095Y-68337381D02*
X83115428Y-69337381D01*
X83448762Y-68337381D01*
X83972571Y-68337381D02*
X84163048Y-68337381D01*
X84258286Y-68385000D01*
X84353524Y-68480238D01*
X84401143Y-68670714D01*
X84401143Y-69004048D01*
X84353524Y-69194524D01*
X84258286Y-69289762D01*
X84163048Y-69337381D01*
X83972571Y-69337381D01*
X83877333Y-69289762D01*
X83782095Y-69194524D01*
X83734476Y-69004048D01*
X83734476Y-68670714D01*
X83782095Y-68480238D01*
X83877333Y-68385000D01*
X83972571Y-68337381D01*
X84829714Y-68337381D02*
X84829714Y-69146905D01*
X84877333Y-69242143D01*
X84924952Y-69289762D01*
X85020190Y-69337381D01*
X85210667Y-69337381D01*
X85305905Y-69289762D01*
X85353524Y-69242143D01*
X85401143Y-69146905D01*
X85401143Y-68337381D01*
X85734476Y-68337381D02*
X86305905Y-68337381D01*
X86020190Y-69337381D02*
X86020190Y-68337381D01*
X99942858Y-76306571D02*
X100085715Y-76354190D01*
X100133334Y-76401810D01*
X100180953Y-76497048D01*
X100180953Y-76639905D01*
X100133334Y-76735143D01*
X100085715Y-76782762D01*
X99990477Y-76830381D01*
X99609524Y-76830381D01*
X99609524Y-75830381D01*
X99942858Y-75830381D01*
X100038096Y-75878000D01*
X100085715Y-75925619D01*
X100133334Y-76020857D01*
X100133334Y-76116095D01*
X100085715Y-76211333D01*
X100038096Y-76258952D01*
X99942858Y-76306571D01*
X99609524Y-76306571D01*
X100800000Y-76354190D02*
X100800000Y-76830381D01*
X100466667Y-75830381D02*
X100800000Y-76354190D01*
X101133334Y-75830381D01*
X101466667Y-76830381D02*
X101466667Y-75830381D01*
X101847620Y-75830381D01*
X101942858Y-75878000D01*
X101990477Y-75925619D01*
X102038096Y-76020857D01*
X102038096Y-76163714D01*
X101990477Y-76258952D01*
X101942858Y-76306571D01*
X101847620Y-76354190D01*
X101466667Y-76354190D01*
X89552571Y-75218857D02*
X89600190Y-75076000D01*
X89647810Y-75028381D01*
X89743048Y-74980762D01*
X89885905Y-74980762D01*
X89981143Y-75028381D01*
X90028762Y-75076000D01*
X90076381Y-75171238D01*
X90076381Y-75552191D01*
X89076381Y-75552191D01*
X89076381Y-75218857D01*
X89124000Y-75123619D01*
X89171619Y-75076000D01*
X89266857Y-75028381D01*
X89362095Y-75028381D01*
X89457333Y-75076000D01*
X89504952Y-75123619D01*
X89552571Y-75218857D01*
X89552571Y-75552191D01*
X90028762Y-74599810D02*
X90076381Y-74456953D01*
X90076381Y-74218857D01*
X90028762Y-74123619D01*
X89981143Y-74076000D01*
X89885905Y-74028381D01*
X89790667Y-74028381D01*
X89695429Y-74076000D01*
X89647810Y-74123619D01*
X89600190Y-74218857D01*
X89552571Y-74409334D01*
X89504952Y-74504572D01*
X89457333Y-74552191D01*
X89362095Y-74599810D01*
X89266857Y-74599810D01*
X89171619Y-74552191D01*
X89124000Y-74504572D01*
X89076381Y-74409334D01*
X89076381Y-74171238D01*
X89124000Y-74028381D01*
X89076381Y-73742667D02*
X89076381Y-73171238D01*
X90076381Y-73456953D02*
X89076381Y-73456953D01*
X90171619Y-73076000D02*
X90171619Y-72314095D01*
X89552571Y-72076000D02*
X89552571Y-71742666D01*
X90076381Y-71599809D02*
X90076381Y-72076000D01*
X89076381Y-72076000D01*
X89076381Y-71599809D01*
X90076381Y-71171238D02*
X89076381Y-71171238D01*
X90076381Y-70599809D01*
X89076381Y-70599809D01*
X105102429Y-76957381D02*
X104626238Y-76957381D01*
X104626238Y-75957381D01*
X105435762Y-76433571D02*
X105769096Y-76433571D01*
X105911953Y-76957381D02*
X105435762Y-76957381D01*
X105435762Y-75957381D01*
X105911953Y-75957381D01*
X106340524Y-76957381D02*
X106340524Y-75957381D01*
X106578619Y-75957381D01*
X106721477Y-76005000D01*
X106816715Y-76100238D01*
X106864334Y-76195476D01*
X106911953Y-76385952D01*
X106911953Y-76528810D01*
X106864334Y-76719286D01*
X106816715Y-76814524D01*
X106721477Y-76909762D01*
X106578619Y-76957381D01*
X106340524Y-76957381D01*
X107102429Y-77052619D02*
X107864334Y-77052619D01*
X108673858Y-76957381D02*
X108340524Y-76481190D01*
X108102429Y-76957381D02*
X108102429Y-75957381D01*
X108483382Y-75957381D01*
X108578620Y-76005000D01*
X108626239Y-76052619D01*
X108673858Y-76147857D01*
X108673858Y-76290714D01*
X108626239Y-76385952D01*
X108578620Y-76433571D01*
X108483382Y-76481190D01*
X108102429Y-76481190D01*
X108959572Y-75957381D02*
X109531001Y-75957381D01*
X109245286Y-76957381D02*
X109245286Y-75957381D01*
X109864334Y-76957381D02*
X109864334Y-75957381D01*
X110435763Y-76957381D01*
X110435763Y-75957381D01*
X73241095Y-87006381D02*
X73241095Y-87815905D01*
X73288714Y-87911143D01*
X73336333Y-87958762D01*
X73431571Y-88006381D01*
X73622048Y-88006381D01*
X73717286Y-87958762D01*
X73764905Y-87911143D01*
X73812524Y-87815905D01*
X73812524Y-87006381D01*
X74241095Y-87101619D02*
X74288714Y-87054000D01*
X74383952Y-87006381D01*
X74622048Y-87006381D01*
X74717286Y-87054000D01*
X74764905Y-87101619D01*
X74812524Y-87196857D01*
X74812524Y-87292095D01*
X74764905Y-87434952D01*
X74193476Y-88006381D01*
X74812524Y-88006381D01*
X55072143Y-94642143D02*
X55024524Y-94689762D01*
X54881667Y-94737381D01*
X54786429Y-94737381D01*
X54643571Y-94689762D01*
X54548333Y-94594524D01*
X54500714Y-94499286D01*
X54453095Y-94308810D01*
X54453095Y-94165952D01*
X54500714Y-93975476D01*
X54548333Y-93880238D01*
X54643571Y-93785000D01*
X54786429Y-93737381D01*
X54881667Y-93737381D01*
X55024524Y-93785000D01*
X55072143Y-93832619D01*
X55453095Y-93832619D02*
X55500714Y-93785000D01*
X55595952Y-93737381D01*
X55834048Y-93737381D01*
X55929286Y-93785000D01*
X55976905Y-93832619D01*
X56024524Y-93927857D01*
X56024524Y-94023095D01*
X55976905Y-94165952D01*
X55405476Y-94737381D01*
X56024524Y-94737381D01*
X56643571Y-93737381D02*
X56738810Y-93737381D01*
X56834048Y-93785000D01*
X56881667Y-93832619D01*
X56929286Y-93927857D01*
X56976905Y-94118333D01*
X56976905Y-94356429D01*
X56929286Y-94546905D01*
X56881667Y-94642143D01*
X56834048Y-94689762D01*
X56738810Y-94737381D01*
X56643571Y-94737381D01*
X56548333Y-94689762D01*
X56500714Y-94642143D01*
X56453095Y-94546905D01*
X56405476Y-94356429D01*
X56405476Y-94118333D01*
X56453095Y-93927857D01*
X56500714Y-93832619D01*
X56548333Y-93785000D01*
X56643571Y-93737381D01*
X86822143Y-77878143D02*
X86774524Y-77925762D01*
X86631667Y-77973381D01*
X86536429Y-77973381D01*
X86393571Y-77925762D01*
X86298333Y-77830524D01*
X86250714Y-77735286D01*
X86203095Y-77544810D01*
X86203095Y-77401952D01*
X86250714Y-77211476D01*
X86298333Y-77116238D01*
X86393571Y-77021000D01*
X86536429Y-76973381D01*
X86631667Y-76973381D01*
X86774524Y-77021000D01*
X86822143Y-77068619D01*
X87203095Y-77068619D02*
X87250714Y-77021000D01*
X87345952Y-76973381D01*
X87584048Y-76973381D01*
X87679286Y-77021000D01*
X87726905Y-77068619D01*
X87774524Y-77163857D01*
X87774524Y-77259095D01*
X87726905Y-77401952D01*
X87155476Y-77973381D01*
X87774524Y-77973381D01*
X88726905Y-77973381D02*
X88155476Y-77973381D01*
X88441190Y-77973381D02*
X88441190Y-76973381D01*
X88345952Y-77116238D01*
X88250714Y-77211476D01*
X88155476Y-77259095D01*
X63763667Y-83164571D02*
X63430333Y-83164571D01*
X63430333Y-83688381D02*
X63430333Y-82688381D01*
X63906524Y-82688381D01*
X64811286Y-83688381D02*
X64239857Y-83688381D01*
X64525571Y-83688381D02*
X64525571Y-82688381D01*
X64430333Y-82831238D01*
X64335095Y-82926476D01*
X64239857Y-82974095D01*
X90630477Y-90467381D02*
X90630477Y-91181667D01*
X90582857Y-91324524D01*
X90487619Y-91419762D01*
X90344762Y-91467381D01*
X90249524Y-91467381D01*
X91630477Y-91467381D02*
X91059048Y-91467381D01*
X91344762Y-91467381D02*
X91344762Y-90467381D01*
X91249524Y-90610238D01*
X91154286Y-90705476D01*
X91059048Y-90753095D01*
X92249524Y-90467381D02*
X92344763Y-90467381D01*
X92440001Y-90515000D01*
X92487620Y-90562619D01*
X92535239Y-90657857D01*
X92582858Y-90848333D01*
X92582858Y-91086429D01*
X92535239Y-91276905D01*
X92487620Y-91372143D01*
X92440001Y-91419762D01*
X92344763Y-91467381D01*
X92249524Y-91467381D01*
X92154286Y-91419762D01*
X92106667Y-91372143D01*
X92059048Y-91276905D01*
X92011429Y-91086429D01*
X92011429Y-90848333D01*
X92059048Y-90657857D01*
X92106667Y-90562619D01*
X92154286Y-90515000D01*
X92249524Y-90467381D01*
X51881143Y-82386666D02*
X51928762Y-82434285D01*
X51976381Y-82577142D01*
X51976381Y-82672380D01*
X51928762Y-82815238D01*
X51833524Y-82910476D01*
X51738286Y-82958095D01*
X51547810Y-83005714D01*
X51404952Y-83005714D01*
X51214476Y-82958095D01*
X51119238Y-82910476D01*
X51024000Y-82815238D01*
X50976381Y-82672380D01*
X50976381Y-82577142D01*
X51024000Y-82434285D01*
X51071619Y-82386666D01*
X51404952Y-81815238D02*
X51357333Y-81910476D01*
X51309714Y-81958095D01*
X51214476Y-82005714D01*
X51166857Y-82005714D01*
X51071619Y-81958095D01*
X51024000Y-81910476D01*
X50976381Y-81815238D01*
X50976381Y-81624761D01*
X51024000Y-81529523D01*
X51071619Y-81481904D01*
X51166857Y-81434285D01*
X51214476Y-81434285D01*
X51309714Y-81481904D01*
X51357333Y-81529523D01*
X51404952Y-81624761D01*
X51404952Y-81815238D01*
X51452571Y-81910476D01*
X51500190Y-81958095D01*
X51595429Y-82005714D01*
X51785905Y-82005714D01*
X51881143Y-81958095D01*
X51928762Y-81910476D01*
X51976381Y-81815238D01*
X51976381Y-81624761D01*
X51928762Y-81529523D01*
X51881143Y-81481904D01*
X51785905Y-81434285D01*
X51595429Y-81434285D01*
X51500190Y-81481904D01*
X51452571Y-81529523D01*
X51404952Y-81624761D01*
X59834571Y-71020095D02*
X59834571Y-71353429D01*
X60358381Y-71353429D02*
X59358381Y-71353429D01*
X59358381Y-70877238D01*
X60358381Y-70020095D02*
X60358381Y-70496286D01*
X59358381Y-70496286D01*
X60358381Y-69162952D02*
X60358381Y-69734381D01*
X60358381Y-69448667D02*
X59358381Y-69448667D01*
X59501238Y-69543905D01*
X59596476Y-69639143D01*
X59644095Y-69734381D01*
X58199381Y-85942666D02*
X58199381Y-86418857D01*
X57199381Y-86418857D01*
X58199381Y-85085523D02*
X58199381Y-85656952D01*
X58199381Y-85371238D02*
X57199381Y-85371238D01*
X57342238Y-85466476D01*
X57437476Y-85561714D01*
X57485095Y-85656952D01*
X70788334Y-79054716D02*
X70312143Y-79054716D01*
X70312143Y-78054716D01*
X71074048Y-78149954D02*
X71121667Y-78102335D01*
X71216905Y-78054716D01*
X71455001Y-78054716D01*
X71550239Y-78102335D01*
X71597858Y-78149954D01*
X71645477Y-78245192D01*
X71645477Y-78340430D01*
X71597858Y-78483287D01*
X71026429Y-79054716D01*
X71645477Y-79054716D01*
M02*
