G04 #@! TF.FileFunction,Copper,L1,Top,Signal*
%FSLAX46Y46*%
G04 Gerber Fmt 4.6, Leading zero omitted, Abs format (unit mm)*
G04 Created by KiCad (PCBNEW 4.0.7) date 02/27/19 21:10:27*
%MOMM*%
%LPD*%
G01*
G04 APERTURE LIST*
%ADD10C,0.100000*%
%ADD11R,3.500000X3.500000*%
%ADD12R,0.750000X1.200000*%
%ADD13R,2.000000X1.600000*%
%ADD14R,1.250000X1.500000*%
%ADD15R,1.200000X0.750000*%
%ADD16R,4.860000X3.360000*%
%ADD17R,1.400000X1.390000*%
%ADD18R,1.650000X0.400000*%
%ADD19O,1.500000X1.100000*%
%ADD20O,1.700000X1.200000*%
%ADD21R,2.500000X1.430000*%
%ADD22R,1.700000X1.700000*%
%ADD23O,1.700000X1.700000*%
%ADD24C,4.064000*%
%ADD25R,0.800000X0.900000*%
%ADD26R,0.900000X0.800000*%
%ADD27R,3.500000X2.000000*%
%ADD28R,7.000000X7.000000*%
%ADD29R,0.900000X1.200000*%
%ADD30R,1.200000X0.900000*%
%ADD31C,1.500000*%
%ADD32R,1.570000X0.410000*%
%ADD33R,2.460000X8.000000*%
%ADD34C,0.430000*%
%ADD35R,1.600000X2.000000*%
%ADD36R,5.300000X2.000000*%
%ADD37R,1.500000X2.500000*%
%ADD38R,2.286000X1.854500*%
%ADD39R,2.413000X3.429000*%
%ADD40C,0.558800*%
%ADD41C,0.304800*%
%ADD42C,0.254000*%
%ADD43C,0.635000*%
%ADD44C,1.016000*%
G04 APERTURE END LIST*
D10*
D11*
X68765000Y-57455000D03*
X74765000Y-57455000D03*
X71765000Y-52755000D03*
D12*
X78575000Y-52060000D03*
X78575000Y-53960000D03*
D13*
X61525000Y-63805000D03*
X57525000Y-63805000D03*
X57715000Y-78410000D03*
X53715000Y-78410000D03*
X56445000Y-89205000D03*
X52445000Y-89205000D03*
D14*
X64829775Y-88182335D03*
X64829775Y-90682335D03*
D15*
X81430000Y-98095000D03*
X79530000Y-98095000D03*
D14*
X67369775Y-88182335D03*
X67369775Y-90682335D03*
D15*
X81430000Y-95555000D03*
X79530000Y-95555000D03*
D12*
X71814775Y-88482335D03*
X71814775Y-90382335D03*
X73884775Y-90397335D03*
X73884775Y-92297335D03*
D14*
X87689775Y-86277335D03*
X87689775Y-88777335D03*
X85149775Y-86277335D03*
X85149775Y-88777335D03*
X69909775Y-88182335D03*
X69909775Y-90682335D03*
X90229775Y-86277335D03*
X90229775Y-88777335D03*
D16*
X80652000Y-82777335D03*
D17*
X76670000Y-81792335D03*
X76670000Y-83762335D03*
D18*
X82045000Y-56540000D03*
X82045000Y-55890000D03*
X82045000Y-55240000D03*
X82045000Y-54590000D03*
X82045000Y-53940000D03*
D19*
X81925000Y-57660000D03*
X81925000Y-52820000D03*
D20*
X84925000Y-57970000D03*
X84925000Y-52510000D03*
D21*
X85165000Y-56200000D03*
X85165000Y-54280000D03*
D22*
X60160000Y-93015000D03*
D23*
X60160000Y-95555000D03*
D22*
X114770000Y-69520000D03*
D23*
X112230000Y-69520000D03*
D22*
X108420000Y-65075000D03*
D23*
X110960000Y-65075000D03*
D22*
X96990000Y-74600000D03*
D23*
X94450000Y-74600000D03*
D24*
X116040000Y-65075000D03*
X116040000Y-73330000D03*
X103975000Y-65075000D03*
D25*
X89370000Y-65710000D03*
X87470000Y-65710000D03*
X88420000Y-67710000D03*
D26*
X85290000Y-66025000D03*
X85290000Y-64125000D03*
X83290000Y-65075000D03*
D27*
X71175000Y-68490000D03*
X71175000Y-73070000D03*
D28*
X78575000Y-70790000D03*
D29*
X76670000Y-51910000D03*
X76670000Y-54110000D03*
D30*
X89835000Y-63805000D03*
X87635000Y-63805000D03*
X92080000Y-67615000D03*
X94280000Y-67615000D03*
D29*
X67310000Y-70485000D03*
X67310000Y-68285000D03*
X84290000Y-73500000D03*
X84290000Y-75700000D03*
D30*
X77475000Y-65075000D03*
X79675000Y-65075000D03*
D29*
X77305000Y-97925000D03*
X77305000Y-95725000D03*
D30*
X85730000Y-93015000D03*
X87930000Y-93015000D03*
D29*
X87465000Y-95725000D03*
X87465000Y-97925000D03*
D31*
X52540000Y-96190000D03*
X67780000Y-77775000D03*
X79845000Y-78410000D03*
X84290000Y-70790000D03*
X100800000Y-74600000D03*
X91275000Y-74600000D03*
X104610000Y-74600000D03*
D32*
X76209775Y-87407335D03*
X76209775Y-88057335D03*
X76209775Y-88707335D03*
X76209775Y-89357335D03*
X76209775Y-90007335D03*
X76209775Y-90657335D03*
X76209775Y-91307335D03*
X81949775Y-91307335D03*
X81949775Y-90657335D03*
X81949775Y-90007335D03*
X81949775Y-89357335D03*
X81949775Y-88707335D03*
X81949775Y-88057335D03*
X81949775Y-87407335D03*
D33*
X79079775Y-89357335D03*
D34*
X78329775Y-89357335D03*
X79829775Y-89357335D03*
X78329775Y-90857335D03*
X79829775Y-90857335D03*
X78329775Y-87857335D03*
X79829775Y-87857335D03*
D13*
X56540000Y-92380000D03*
X52540000Y-92380000D03*
D35*
X87465000Y-71330000D03*
X87465000Y-75330000D03*
D36*
X62700000Y-81075000D03*
X62700000Y-74475000D03*
D22*
X91440000Y-93345000D03*
D23*
X91440000Y-95885000D03*
D13*
X57620000Y-82220000D03*
X53620000Y-82220000D03*
D37*
X57215000Y-67540000D03*
X54215000Y-67540000D03*
X54215000Y-74040000D03*
X57215000Y-74040000D03*
D38*
X60795000Y-85407750D03*
X60795000Y-89192250D03*
D39*
X68034000Y-82777335D03*
X73876000Y-82777335D03*
D40*
X79464000Y-60122000D03*
X77940000Y-60122000D03*
X77940000Y-59106000D03*
X79464000Y-59106000D03*
X79464000Y-57836000D03*
X77940000Y-57836000D03*
X77940000Y-56566000D03*
X79464000Y-56566000D03*
X66256000Y-68758000D03*
X66256000Y-67234000D03*
X66256000Y-66218000D03*
X66256000Y-65202000D03*
X75654000Y-92888000D03*
X52540000Y-94158000D03*
X52540000Y-90856000D03*
X52286000Y-87300000D03*
X51778000Y-82220000D03*
X51778000Y-78410000D03*
X53556000Y-83998000D03*
X53556000Y-80188000D03*
X53556000Y-76632000D03*
X52032000Y-74600000D03*
X52032000Y-73076000D03*
X85306000Y-62662000D03*
X90132000Y-72568000D03*
X89116000Y-76378000D03*
X89116000Y-75362000D03*
X85814000Y-75362000D03*
X89370000Y-90348000D03*
X88100000Y-90348000D03*
X86830000Y-90348000D03*
X85560000Y-90348000D03*
X83782000Y-88316000D03*
X75908000Y-95682000D03*
X87846000Y-94158000D03*
X72860000Y-92380000D03*
X71844000Y-91872000D03*
X69812000Y-92380000D03*
X68542000Y-92380000D03*
X67272000Y-92380000D03*
X66002000Y-92380000D03*
X64224000Y-92380000D03*
X90132000Y-68885000D03*
X94919473Y-69979668D03*
X90005000Y-67488000D03*
X91275000Y-74600000D03*
X74765000Y-89332000D03*
D41*
X78575000Y-52060000D02*
X81165000Y-52060000D01*
X81165000Y-52060000D02*
X81925000Y-52820000D01*
X76670000Y-51910000D02*
X78425000Y-51910000D01*
X78425000Y-51910000D02*
X78575000Y-52060000D01*
X78575000Y-53960000D02*
X76820000Y-53960000D01*
X76820000Y-53960000D02*
X76670000Y-54110000D01*
X82045000Y-53940000D02*
X78595000Y-53940000D01*
X78595000Y-53940000D02*
X78575000Y-53960000D01*
X77940000Y-59106000D02*
X77940000Y-60122000D01*
X79464000Y-57836000D02*
X79464000Y-59106000D01*
X77940000Y-56566000D02*
X77940000Y-57836000D01*
X82045000Y-56540000D02*
X79490000Y-56540000D01*
X79490000Y-56540000D02*
X79464000Y-56566000D01*
X79210000Y-57455000D02*
X79210000Y-59360000D01*
X80125000Y-56540000D02*
X79210000Y-57455000D01*
X82045000Y-56540000D02*
X80125000Y-56540000D01*
X66256000Y-66218000D02*
X66256000Y-67234000D01*
X61525000Y-63805000D02*
X64859000Y-63805000D01*
X64859000Y-63805000D02*
X66256000Y-65202000D01*
X73884775Y-92297335D02*
X75063335Y-92297335D01*
X75063335Y-92297335D02*
X75654000Y-92888000D01*
X52540000Y-92380000D02*
X52540000Y-94158000D01*
X52540000Y-92380000D02*
X52540000Y-90856000D01*
X52445000Y-89205000D02*
X52445000Y-87459000D01*
X52445000Y-87459000D02*
X52286000Y-87300000D01*
X53620000Y-82220000D02*
X51778000Y-82220000D01*
X53715000Y-78410000D02*
X51778000Y-78410000D01*
X53620000Y-82220000D02*
X53620000Y-83934000D01*
X53620000Y-83934000D02*
X53556000Y-83998000D01*
X53715000Y-78410000D02*
X53715000Y-80029000D01*
X53715000Y-80029000D02*
X53556000Y-80188000D01*
X53715000Y-78410000D02*
X53715000Y-76791000D01*
X53715000Y-76791000D02*
X53556000Y-76632000D01*
X54215000Y-74040000D02*
X52592000Y-74040000D01*
X52592000Y-74040000D02*
X52032000Y-74600000D01*
X54215000Y-74040000D02*
X52996000Y-74040000D01*
X52996000Y-74040000D02*
X52032000Y-73076000D01*
D42*
X85290000Y-64125000D02*
X85290000Y-62678000D01*
X85290000Y-62678000D02*
X85306000Y-62662000D01*
X87465000Y-75330000D02*
X88068000Y-75330000D01*
X88068000Y-75330000D02*
X89116000Y-76378000D01*
X87465000Y-75330000D02*
X89084000Y-75330000D01*
X89084000Y-75330000D02*
X89116000Y-75362000D01*
X87465000Y-75330000D02*
X85846000Y-75330000D01*
X85846000Y-75330000D02*
X85814000Y-75362000D01*
X90229775Y-88777335D02*
X90229775Y-89488225D01*
X90229775Y-89488225D02*
X89370000Y-90348000D01*
X87689775Y-88777335D02*
X87689775Y-89937775D01*
X87689775Y-89937775D02*
X88100000Y-90348000D01*
X87689775Y-88777335D02*
X87689775Y-89488225D01*
X87689775Y-89488225D02*
X86830000Y-90348000D01*
X85149775Y-88777335D02*
X85149775Y-89937775D01*
X85149775Y-89937775D02*
X85560000Y-90348000D01*
X85149775Y-88777335D02*
X84243335Y-88777335D01*
X84243335Y-88777335D02*
X83782000Y-88316000D01*
X77305000Y-95725000D02*
X75951000Y-95725000D01*
X75951000Y-95725000D02*
X75908000Y-95682000D01*
X87930000Y-93015000D02*
X87930000Y-94074000D01*
X87930000Y-94074000D02*
X87846000Y-94158000D01*
X73884775Y-92297335D02*
X72942665Y-92297335D01*
X72942665Y-92297335D02*
X72860000Y-92380000D01*
X71814775Y-90382335D02*
X71814775Y-91842775D01*
X71814775Y-91842775D02*
X71844000Y-91872000D01*
X69909775Y-90682335D02*
X69909775Y-92282225D01*
X69909775Y-92282225D02*
X69812000Y-92380000D01*
X67369775Y-90682335D02*
X67369775Y-91207775D01*
X67369775Y-91207775D02*
X68542000Y-92380000D01*
X67369775Y-90682335D02*
X67369775Y-92282225D01*
X67369775Y-92282225D02*
X67272000Y-92380000D01*
X64829775Y-90682335D02*
X64829775Y-91207775D01*
X64829775Y-91207775D02*
X66002000Y-92380000D01*
X64829775Y-90682335D02*
X64829775Y-91774225D01*
X64829775Y-91774225D02*
X64224000Y-92380000D01*
X79530000Y-95555000D02*
X77475000Y-95555000D01*
X77475000Y-95555000D02*
X77305000Y-95725000D01*
X87470000Y-65710000D02*
X87470000Y-63970000D01*
X87470000Y-63970000D02*
X87635000Y-63805000D01*
X85290000Y-64125000D02*
X87315000Y-64125000D01*
X87315000Y-64125000D02*
X87635000Y-63805000D01*
D43*
X89716966Y-68885000D02*
X90132000Y-68885000D01*
X84798000Y-68885000D02*
X89716966Y-68885000D01*
X83909000Y-67996000D02*
X84798000Y-68885000D01*
X83909000Y-67234000D02*
X83909000Y-67996000D01*
X83020000Y-66345000D02*
X83909000Y-67234000D01*
X80353000Y-66345000D02*
X83020000Y-66345000D01*
X74638000Y-66345000D02*
X80353000Y-66345000D01*
X74003000Y-66980000D02*
X74638000Y-66345000D01*
X74003000Y-69520000D02*
X74003000Y-66980000D01*
X74003000Y-70917000D02*
X74003000Y-69520000D01*
X71850000Y-73070000D02*
X74003000Y-70917000D01*
X71175000Y-73070000D02*
X71850000Y-73070000D01*
D41*
X76209775Y-88707335D02*
X72039775Y-88707335D01*
X72039775Y-88707335D02*
X71814775Y-88482335D01*
D42*
X67310000Y-70485000D02*
X70549855Y-70485000D01*
X70549855Y-70485000D02*
X71175000Y-71110145D01*
X71175000Y-71110145D02*
X71175000Y-73070000D01*
D44*
X67780000Y-77775000D02*
X67780000Y-75616000D01*
X67780000Y-75616000D02*
X70326000Y-73070000D01*
X70326000Y-73070000D02*
X71175000Y-73070000D01*
X68034000Y-82777335D02*
X68034000Y-78029000D01*
X68034000Y-78029000D02*
X67780000Y-77775000D01*
D42*
X81430000Y-95555000D02*
X81430000Y-98095000D01*
X81949775Y-93831225D02*
X81430000Y-94351000D01*
X81430000Y-94351000D02*
X81430000Y-95555000D01*
X81949775Y-91307335D02*
X81949775Y-93831225D01*
X79530000Y-98095000D02*
X77475000Y-98095000D01*
X77475000Y-98095000D02*
X77305000Y-97925000D01*
X76209775Y-90007335D02*
X74274775Y-90007335D01*
X74274775Y-90007335D02*
X73884775Y-90397335D01*
X80226000Y-55550000D02*
X80566000Y-55890000D01*
X80566000Y-55890000D02*
X82045000Y-55890000D01*
X80226000Y-55296000D02*
X80226000Y-55550000D01*
X80282000Y-55240000D02*
X80226000Y-55296000D01*
X82045000Y-55240000D02*
X80282000Y-55240000D01*
D44*
X84290000Y-73500000D02*
X84290000Y-70790000D01*
X114262000Y-67869000D02*
X113754000Y-67361000D01*
X114770000Y-68377000D02*
X114262000Y-67869000D01*
X114770000Y-69520000D02*
X114770000Y-68377000D01*
X108547000Y-67361000D02*
X113754000Y-67361000D01*
X113754000Y-67361000D02*
X116040000Y-65075000D01*
X104578000Y-71330000D02*
X108547000Y-67361000D01*
X87465000Y-71330000D02*
X104578000Y-71330000D01*
X84290000Y-70790000D02*
X86925000Y-70790000D01*
X86925000Y-70790000D02*
X87465000Y-71330000D01*
X78575000Y-70790000D02*
X84290000Y-70790000D01*
D42*
X94640074Y-69700269D02*
X94919473Y-69979668D01*
X94280000Y-67615000D02*
X94280000Y-69340195D01*
X94280000Y-69340195D02*
X94640074Y-69700269D01*
X100800000Y-74600000D02*
X96990000Y-74600000D01*
X90005000Y-67488000D02*
X90005000Y-66345000D01*
X90005000Y-66345000D02*
X89370000Y-65710000D01*
X91275000Y-74600000D02*
X94450000Y-74600000D01*
X75145440Y-89332000D02*
X74765000Y-89332000D01*
X76209775Y-89357335D02*
X75170775Y-89357335D01*
X75170775Y-89357335D02*
X75145440Y-89332000D01*
X89370000Y-65710000D02*
X89370000Y-64270000D01*
X89370000Y-64270000D02*
X89835000Y-63805000D01*
X116040000Y-73330000D02*
X105880000Y-73330000D01*
X105880000Y-73330000D02*
X104610000Y-74600000D01*
X88420000Y-67710000D02*
X89074000Y-67710000D01*
X89074000Y-67710000D02*
X89410801Y-68046801D01*
X89410801Y-68046801D02*
X90794199Y-68046801D01*
X90794199Y-68046801D02*
X91226000Y-67615000D01*
X91226000Y-67615000D02*
X92080000Y-67615000D01*
X88420000Y-67710000D02*
X85456459Y-67710000D01*
X85456459Y-67710000D02*
X85290000Y-67543541D01*
X85290000Y-67543541D02*
X85290000Y-66025000D01*
X79675000Y-65075000D02*
X83290000Y-65075000D01*
X67310000Y-68285000D02*
X70970000Y-68285000D01*
X70970000Y-68285000D02*
X71175000Y-68490000D01*
X71175000Y-68490000D02*
X71175000Y-67236000D01*
X73336000Y-65075000D02*
X76621000Y-65075000D01*
X71175000Y-67236000D02*
X73336000Y-65075000D01*
X76621000Y-65075000D02*
X77475000Y-65075000D01*
X83695335Y-90007335D02*
X85730000Y-92042000D01*
X85730000Y-92042000D02*
X85730000Y-93015000D01*
X81949775Y-90007335D02*
X83695335Y-90007335D01*
X87465000Y-95725000D02*
X89060000Y-95725000D01*
X89060000Y-95725000D02*
X91440000Y-93345000D01*
X83655000Y-93713500D02*
X85666500Y-95725000D01*
X85666500Y-95725000D02*
X87465000Y-95725000D01*
X83655000Y-90856000D02*
X83655000Y-93713500D01*
X83456335Y-90657335D02*
X83655000Y-90856000D01*
X81949775Y-90657335D02*
X83456335Y-90657335D01*
X87465000Y-97925000D02*
X89400000Y-97925000D01*
X89400000Y-97925000D02*
X90590001Y-96734999D01*
X90590001Y-96734999D02*
X91440000Y-95885000D01*
G36*
X84925000Y-75118530D02*
X84899759Y-75179317D01*
X84899442Y-75543087D01*
X84925000Y-75604942D01*
X84925000Y-76957619D01*
X83187583Y-78570935D01*
X83184197Y-78574197D01*
X83057197Y-78701197D01*
X83029334Y-78743211D01*
X83020000Y-78791000D01*
X83020000Y-83490000D01*
X83030006Y-83539410D01*
X83063824Y-83585973D01*
X84968824Y-85236973D01*
X85012716Y-85261771D01*
X85052000Y-85268000D01*
X91275000Y-85268000D01*
X91275000Y-87173000D01*
X84469606Y-87173000D01*
X81966803Y-84670197D01*
X81924789Y-84642334D01*
X81877000Y-84633000D01*
X78295282Y-84633000D01*
X78321000Y-84506000D01*
X78321000Y-79680000D01*
X78277573Y-79449205D01*
X78194000Y-79319329D01*
X78194000Y-78211489D01*
X81545768Y-75108000D01*
X84925000Y-75108000D01*
X84925000Y-75118530D01*
X84925000Y-75118530D01*
G37*
X84925000Y-75118530D02*
X84899759Y-75179317D01*
X84899442Y-75543087D01*
X84925000Y-75604942D01*
X84925000Y-76957619D01*
X83187583Y-78570935D01*
X83184197Y-78574197D01*
X83057197Y-78701197D01*
X83029334Y-78743211D01*
X83020000Y-78791000D01*
X83020000Y-83490000D01*
X83030006Y-83539410D01*
X83063824Y-83585973D01*
X84968824Y-85236973D01*
X85012716Y-85261771D01*
X85052000Y-85268000D01*
X91275000Y-85268000D01*
X91275000Y-87173000D01*
X84469606Y-87173000D01*
X81966803Y-84670197D01*
X81924789Y-84642334D01*
X81877000Y-84633000D01*
X78295282Y-84633000D01*
X78321000Y-84506000D01*
X78321000Y-79680000D01*
X78277573Y-79449205D01*
X78194000Y-79319329D01*
X78194000Y-78211489D01*
X81545768Y-75108000D01*
X84925000Y-75108000D01*
X84925000Y-75118530D01*
G36*
X77559000Y-84453394D02*
X76961197Y-85051197D01*
X76933334Y-85093211D01*
X76924000Y-85141000D01*
X76924000Y-88165666D01*
X75424775Y-88165666D01*
X75302410Y-88188691D01*
X75301930Y-88189000D01*
X74815708Y-88189000D01*
X72313671Y-85812065D01*
X70955000Y-84453394D01*
X70955000Y-79807000D01*
X77559000Y-79807000D01*
X77559000Y-84453394D01*
X77559000Y-84453394D01*
G37*
X77559000Y-84453394D02*
X76961197Y-85051197D01*
X76933334Y-85093211D01*
X76924000Y-85141000D01*
X76924000Y-88165666D01*
X75424775Y-88165666D01*
X75302410Y-88188691D01*
X75301930Y-88189000D01*
X74815708Y-88189000D01*
X72313671Y-85812065D01*
X70955000Y-84453394D01*
X70955000Y-79807000D01*
X77559000Y-79807000D01*
X77559000Y-84453394D01*
G36*
X70066000Y-85014000D02*
X70076006Y-85063410D01*
X70105048Y-85105616D01*
X73279098Y-88152704D01*
X73659197Y-88532803D01*
X73701211Y-88560666D01*
X73749000Y-88570000D01*
X74559882Y-88570000D01*
X74636534Y-88620185D01*
X74765000Y-88646200D01*
X76924000Y-88646200D01*
X76924000Y-88815666D01*
X75424775Y-88815666D01*
X75380484Y-88824000D01*
X75119240Y-88824000D01*
X75110762Y-88815507D01*
X74886789Y-88722506D01*
X74644275Y-88722294D01*
X74420140Y-88814905D01*
X74411029Y-88824000D01*
X73241000Y-88824000D01*
X73191590Y-88834006D01*
X73151197Y-88861197D01*
X72934394Y-89078000D01*
X64097000Y-89078000D01*
X64047590Y-89088006D01*
X64007197Y-89115197D01*
X61467197Y-91655197D01*
X61439334Y-91697211D01*
X61430000Y-91745000D01*
X61430000Y-93904000D01*
X55334000Y-93904000D01*
X55334000Y-87808000D01*
X62700000Y-87808000D01*
X62749410Y-87797994D01*
X62789803Y-87770803D01*
X66218803Y-84341803D01*
X66246666Y-84299789D01*
X66256000Y-84252000D01*
X66256000Y-79807000D01*
X70066000Y-79807000D01*
X70066000Y-85014000D01*
X70066000Y-85014000D01*
G37*
X70066000Y-85014000D02*
X70076006Y-85063410D01*
X70105048Y-85105616D01*
X73279098Y-88152704D01*
X73659197Y-88532803D01*
X73701211Y-88560666D01*
X73749000Y-88570000D01*
X74559882Y-88570000D01*
X74636534Y-88620185D01*
X74765000Y-88646200D01*
X76924000Y-88646200D01*
X76924000Y-88815666D01*
X75424775Y-88815666D01*
X75380484Y-88824000D01*
X75119240Y-88824000D01*
X75110762Y-88815507D01*
X74886789Y-88722506D01*
X74644275Y-88722294D01*
X74420140Y-88814905D01*
X74411029Y-88824000D01*
X73241000Y-88824000D01*
X73191590Y-88834006D01*
X73151197Y-88861197D01*
X72934394Y-89078000D01*
X64097000Y-89078000D01*
X64047590Y-89088006D01*
X64007197Y-89115197D01*
X61467197Y-91655197D01*
X61439334Y-91697211D01*
X61430000Y-91745000D01*
X61430000Y-93904000D01*
X55334000Y-93904000D01*
X55334000Y-87808000D01*
X62700000Y-87808000D01*
X62749410Y-87797994D01*
X62789803Y-87770803D01*
X66218803Y-84341803D01*
X66246666Y-84299789D01*
X66256000Y-84252000D01*
X66256000Y-79807000D01*
X70066000Y-79807000D01*
X70066000Y-85014000D01*
G36*
X55334000Y-85977394D02*
X54609197Y-86702197D01*
X54581334Y-86744211D01*
X54572000Y-86792000D01*
X54572000Y-87300000D01*
X54572021Y-87302309D01*
X54699021Y-94287309D01*
X54709923Y-94336529D01*
X54736197Y-94374803D01*
X54990197Y-94628803D01*
X55032211Y-94656666D01*
X55080000Y-94666000D01*
X62700000Y-94666000D01*
X62749410Y-94655994D01*
X62796426Y-94621651D01*
X63558426Y-93732651D01*
X63582984Y-93688624D01*
X63589000Y-93650000D01*
X63589000Y-90654606D01*
X64530606Y-89713000D01*
X72172394Y-89713000D01*
X72860000Y-90400606D01*
X72860000Y-91237000D01*
X72870006Y-91286410D01*
X72897197Y-91326803D01*
X73151197Y-91580803D01*
X73193211Y-91608666D01*
X73241000Y-91618000D01*
X74511000Y-91618000D01*
X74560410Y-91607994D01*
X74600803Y-91580803D01*
X75235803Y-90945803D01*
X75263666Y-90903789D01*
X75273000Y-90856000D01*
X75273000Y-90602000D01*
X77432000Y-90602000D01*
X77481410Y-90591994D01*
X77521803Y-90564803D01*
X77775803Y-90310803D01*
X77803666Y-90268789D01*
X77813000Y-90221000D01*
X77813000Y-85447606D01*
X77865606Y-85395000D01*
X81443394Y-85395000D01*
X83946197Y-87897803D01*
X83988211Y-87925666D01*
X84036000Y-87935000D01*
X91275000Y-87935000D01*
X91275000Y-90983000D01*
X85612606Y-90983000D01*
X83490803Y-88861197D01*
X83448789Y-88833334D01*
X83401000Y-88824000D01*
X82775929Y-88824000D01*
X82734775Y-88815666D01*
X81164775Y-88815666D01*
X81120484Y-88824000D01*
X80734000Y-88824000D01*
X80684590Y-88834006D01*
X80644197Y-88861197D01*
X80390197Y-89115197D01*
X80362334Y-89157211D01*
X80353000Y-89205000D01*
X80353000Y-93904000D01*
X74130000Y-93904000D01*
X74080590Y-93914006D01*
X74040197Y-93941197D01*
X70267394Y-97714000D01*
X51397000Y-97714000D01*
X51397000Y-71552000D01*
X55334000Y-71552000D01*
X55334000Y-85977394D01*
X55334000Y-85977394D01*
G37*
X55334000Y-85977394D02*
X54609197Y-86702197D01*
X54581334Y-86744211D01*
X54572000Y-86792000D01*
X54572000Y-87300000D01*
X54572021Y-87302309D01*
X54699021Y-94287309D01*
X54709923Y-94336529D01*
X54736197Y-94374803D01*
X54990197Y-94628803D01*
X55032211Y-94656666D01*
X55080000Y-94666000D01*
X62700000Y-94666000D01*
X62749410Y-94655994D01*
X62796426Y-94621651D01*
X63558426Y-93732651D01*
X63582984Y-93688624D01*
X63589000Y-93650000D01*
X63589000Y-90654606D01*
X64530606Y-89713000D01*
X72172394Y-89713000D01*
X72860000Y-90400606D01*
X72860000Y-91237000D01*
X72870006Y-91286410D01*
X72897197Y-91326803D01*
X73151197Y-91580803D01*
X73193211Y-91608666D01*
X73241000Y-91618000D01*
X74511000Y-91618000D01*
X74560410Y-91607994D01*
X74600803Y-91580803D01*
X75235803Y-90945803D01*
X75263666Y-90903789D01*
X75273000Y-90856000D01*
X75273000Y-90602000D01*
X77432000Y-90602000D01*
X77481410Y-90591994D01*
X77521803Y-90564803D01*
X77775803Y-90310803D01*
X77803666Y-90268789D01*
X77813000Y-90221000D01*
X77813000Y-85447606D01*
X77865606Y-85395000D01*
X81443394Y-85395000D01*
X83946197Y-87897803D01*
X83988211Y-87925666D01*
X84036000Y-87935000D01*
X91275000Y-87935000D01*
X91275000Y-90983000D01*
X85612606Y-90983000D01*
X83490803Y-88861197D01*
X83448789Y-88833334D01*
X83401000Y-88824000D01*
X82775929Y-88824000D01*
X82734775Y-88815666D01*
X81164775Y-88815666D01*
X81120484Y-88824000D01*
X80734000Y-88824000D01*
X80684590Y-88834006D01*
X80644197Y-88861197D01*
X80390197Y-89115197D01*
X80362334Y-89157211D01*
X80353000Y-89205000D01*
X80353000Y-93904000D01*
X74130000Y-93904000D01*
X74080590Y-93914006D01*
X74040197Y-93941197D01*
X70267394Y-97714000D01*
X51397000Y-97714000D01*
X51397000Y-71552000D01*
X55334000Y-71552000D01*
X55334000Y-85977394D01*
G36*
X65621000Y-82929394D02*
X62012394Y-86538000D01*
X56477000Y-86538000D01*
X56477000Y-79807000D01*
X65621000Y-79807000D01*
X65621000Y-82929394D01*
X65621000Y-82929394D01*
G37*
X65621000Y-82929394D02*
X62012394Y-86538000D01*
X56477000Y-86538000D01*
X56477000Y-79807000D01*
X65621000Y-79807000D01*
X65621000Y-82929394D01*
G36*
X65621000Y-79299000D02*
X56223000Y-79299000D01*
X56223000Y-71679000D01*
X65621000Y-71679000D01*
X65621000Y-79299000D01*
X65621000Y-79299000D01*
G37*
X65621000Y-79299000D02*
X56223000Y-79299000D01*
X56223000Y-71679000D01*
X65621000Y-71679000D01*
X65621000Y-79299000D01*
G36*
X80099000Y-60503000D02*
X77305000Y-60503000D01*
X77305000Y-56185000D01*
X80099000Y-56185000D01*
X80099000Y-60503000D01*
X80099000Y-60503000D01*
G37*
X80099000Y-60503000D02*
X77305000Y-60503000D01*
X77305000Y-56185000D01*
X80099000Y-56185000D01*
X80099000Y-60503000D01*
G36*
X74003000Y-51486000D02*
X74013006Y-51535410D01*
X74040197Y-51575803D01*
X75818197Y-53353803D01*
X75860211Y-53381666D01*
X75908000Y-53391000D01*
X79927451Y-53391000D01*
X80527664Y-53871170D01*
X80572497Y-53894223D01*
X80607000Y-53899000D01*
X82893000Y-53899000D01*
X82893000Y-54026000D01*
X80099000Y-54026000D01*
X80049590Y-54036006D01*
X80009197Y-54063197D01*
X79157394Y-54915000D01*
X77178000Y-54915000D01*
X77128590Y-54925006D01*
X77088197Y-54952197D01*
X76580197Y-55460197D01*
X76552334Y-55502211D01*
X76543000Y-55550000D01*
X76543000Y-59868000D01*
X71717000Y-59868000D01*
X71717000Y-55042000D01*
X71706994Y-54992590D01*
X71678553Y-54950965D01*
X71636159Y-54923685D01*
X71590000Y-54915000D01*
X66764000Y-54915000D01*
X66714590Y-54925006D01*
X66674197Y-54952197D01*
X65912197Y-55714197D01*
X65884334Y-55756211D01*
X65875000Y-55804000D01*
X65875000Y-60503000D01*
X61684000Y-60503000D01*
X61634590Y-60513006D01*
X61604664Y-60530830D01*
X59064664Y-62562830D01*
X59032331Y-62601509D01*
X59017000Y-62662000D01*
X59017000Y-64641394D01*
X58837394Y-64821000D01*
X56350000Y-64821000D01*
X56300590Y-64831006D01*
X56260197Y-64858197D01*
X55498197Y-65620197D01*
X55470334Y-65662211D01*
X55461000Y-65710000D01*
X55461000Y-70155000D01*
X51397000Y-70155000D01*
X51397000Y-69521762D01*
X51522414Y-65006859D01*
X55669223Y-61362694D01*
X64556463Y-54379862D01*
X64556979Y-54379455D01*
X68840293Y-50978000D01*
X74003000Y-50978000D01*
X74003000Y-51486000D01*
X74003000Y-51486000D01*
G37*
X74003000Y-51486000D02*
X74013006Y-51535410D01*
X74040197Y-51575803D01*
X75818197Y-53353803D01*
X75860211Y-53381666D01*
X75908000Y-53391000D01*
X79927451Y-53391000D01*
X80527664Y-53871170D01*
X80572497Y-53894223D01*
X80607000Y-53899000D01*
X82893000Y-53899000D01*
X82893000Y-54026000D01*
X80099000Y-54026000D01*
X80049590Y-54036006D01*
X80009197Y-54063197D01*
X79157394Y-54915000D01*
X77178000Y-54915000D01*
X77128590Y-54925006D01*
X77088197Y-54952197D01*
X76580197Y-55460197D01*
X76552334Y-55502211D01*
X76543000Y-55550000D01*
X76543000Y-59868000D01*
X71717000Y-59868000D01*
X71717000Y-55042000D01*
X71706994Y-54992590D01*
X71678553Y-54950965D01*
X71636159Y-54923685D01*
X71590000Y-54915000D01*
X66764000Y-54915000D01*
X66714590Y-54925006D01*
X66674197Y-54952197D01*
X65912197Y-55714197D01*
X65884334Y-55756211D01*
X65875000Y-55804000D01*
X65875000Y-60503000D01*
X61684000Y-60503000D01*
X61634590Y-60513006D01*
X61604664Y-60530830D01*
X59064664Y-62562830D01*
X59032331Y-62601509D01*
X59017000Y-62662000D01*
X59017000Y-64641394D01*
X58837394Y-64821000D01*
X56350000Y-64821000D01*
X56300590Y-64831006D01*
X56260197Y-64858197D01*
X55498197Y-65620197D01*
X55470334Y-65662211D01*
X55461000Y-65710000D01*
X55461000Y-70155000D01*
X51397000Y-70155000D01*
X51397000Y-69521762D01*
X51522414Y-65006859D01*
X55669223Y-61362694D01*
X64556463Y-54379862D01*
X64556979Y-54379455D01*
X68840293Y-50978000D01*
X74003000Y-50978000D01*
X74003000Y-51486000D01*
G36*
X89243000Y-76759000D02*
X85687000Y-76759000D01*
X85687000Y-74219000D01*
X89243000Y-74219000D01*
X89243000Y-76759000D01*
X89243000Y-76759000D01*
G37*
X89243000Y-76759000D02*
X85687000Y-76759000D01*
X85687000Y-74219000D01*
X89243000Y-74219000D01*
X89243000Y-76759000D01*
G36*
X67653000Y-65911394D02*
X66420197Y-67144197D01*
X66392334Y-67186211D01*
X66383000Y-67234000D01*
X66383000Y-70155000D01*
X56477000Y-70155000D01*
X56477000Y-66091000D01*
X59144000Y-66091000D01*
X59193410Y-66080994D01*
X59233803Y-66053803D01*
X60249803Y-65037803D01*
X60277666Y-64995789D01*
X60287000Y-64948000D01*
X60287000Y-62535000D01*
X67653000Y-62535000D01*
X67653000Y-65911394D01*
X67653000Y-65911394D01*
G37*
X67653000Y-65911394D02*
X66420197Y-67144197D01*
X66392334Y-67186211D01*
X66383000Y-67234000D01*
X66383000Y-70155000D01*
X56477000Y-70155000D01*
X56477000Y-66091000D01*
X59144000Y-66091000D01*
X59193410Y-66080994D01*
X59233803Y-66053803D01*
X60249803Y-65037803D01*
X60277666Y-64995789D01*
X60287000Y-64948000D01*
X60287000Y-62535000D01*
X67653000Y-62535000D01*
X67653000Y-65911394D01*
M02*
