G04 #@! TF.FileFunction,Soldermask,Top*
%FSLAX46Y46*%
G04 Gerber Fmt 4.6, Leading zero omitted, Abs format (unit mm)*
G04 Created by KiCad (PCBNEW 4.0.7) date 02/27/19 21:10:27*
%MOMM*%
%LPD*%
G01*
G04 APERTURE LIST*
%ADD10C,0.100000*%
%ADD11R,3.900000X3.900000*%
%ADD12R,1.150000X1.600000*%
%ADD13R,2.400000X2.000000*%
%ADD14R,1.650000X1.900000*%
%ADD15R,1.600000X1.150000*%
%ADD16R,5.260000X3.760000*%
%ADD17R,1.800000X1.790000*%
%ADD18R,2.050000X0.800000*%
%ADD19O,1.900000X1.500000*%
%ADD20O,2.100000X1.600000*%
%ADD21R,2.900000X1.830000*%
%ADD22R,2.100000X2.100000*%
%ADD23O,2.100000X2.100000*%
%ADD24C,4.464000*%
%ADD25R,1.200000X1.300000*%
%ADD26R,1.300000X1.200000*%
%ADD27R,3.900000X2.400000*%
%ADD28R,7.400000X7.400000*%
%ADD29R,1.300000X1.600000*%
%ADD30R,1.600000X1.300000*%
%ADD31C,1.900000*%
%ADD32R,1.970000X0.810000*%
%ADD33R,2.860000X8.400000*%
%ADD34C,0.830000*%
%ADD35R,2.000000X2.400000*%
%ADD36R,5.700000X2.400000*%
%ADD37R,1.900000X2.900000*%
%ADD38R,2.686000X2.254500*%
%ADD39R,2.813000X3.829000*%
%ADD40C,2.900000*%
G04 APERTURE END LIST*
D10*
G36*
X77371665Y-86857335D02*
X80779775Y-86857335D01*
X80779775Y-91869255D01*
X77371665Y-91869255D01*
X77371665Y-86857335D01*
G37*
D11*
X68765000Y-57455000D03*
X74765000Y-57455000D03*
X71765000Y-52755000D03*
D12*
X78575000Y-52060000D03*
X78575000Y-53960000D03*
D13*
X61525000Y-63805000D03*
X57525000Y-63805000D03*
X57715000Y-78410000D03*
X53715000Y-78410000D03*
X56445000Y-89205000D03*
X52445000Y-89205000D03*
D14*
X64829775Y-88182335D03*
X64829775Y-90682335D03*
D15*
X81430000Y-98095000D03*
X79530000Y-98095000D03*
D14*
X67369775Y-88182335D03*
X67369775Y-90682335D03*
D15*
X81430000Y-95555000D03*
X79530000Y-95555000D03*
D12*
X71814775Y-88482335D03*
X71814775Y-90382335D03*
X73884775Y-90397335D03*
X73884775Y-92297335D03*
D14*
X87689775Y-86277335D03*
X87689775Y-88777335D03*
X85149775Y-86277335D03*
X85149775Y-88777335D03*
X69909775Y-88182335D03*
X69909775Y-90682335D03*
X90229775Y-86277335D03*
X90229775Y-88777335D03*
D16*
X80652000Y-82777335D03*
D17*
X76670000Y-81792335D03*
X76670000Y-83762335D03*
D18*
X82045000Y-56540000D03*
X82045000Y-55890000D03*
X82045000Y-55240000D03*
X82045000Y-54590000D03*
X82045000Y-53940000D03*
D19*
X81925000Y-57660000D03*
X81925000Y-52820000D03*
D20*
X84925000Y-57970000D03*
X84925000Y-52510000D03*
D21*
X85165000Y-56200000D03*
X85165000Y-54280000D03*
D22*
X60160000Y-93015000D03*
D23*
X60160000Y-95555000D03*
D22*
X114770000Y-69520000D03*
D23*
X112230000Y-69520000D03*
D22*
X108420000Y-65075000D03*
D23*
X110960000Y-65075000D03*
D22*
X96990000Y-74600000D03*
D23*
X94450000Y-74600000D03*
D24*
X116040000Y-65075000D03*
X116040000Y-73330000D03*
X103975000Y-65075000D03*
D25*
X89370000Y-65710000D03*
X87470000Y-65710000D03*
X88420000Y-67710000D03*
D26*
X85290000Y-66025000D03*
X85290000Y-64125000D03*
X83290000Y-65075000D03*
D27*
X71175000Y-68490000D03*
X71175000Y-73070000D03*
D28*
X78575000Y-70790000D03*
D29*
X76670000Y-51910000D03*
X76670000Y-54110000D03*
D30*
X89835000Y-63805000D03*
X87635000Y-63805000D03*
X92080000Y-67615000D03*
X94280000Y-67615000D03*
D29*
X67310000Y-70485000D03*
X67310000Y-68285000D03*
X84290000Y-73500000D03*
X84290000Y-75700000D03*
D30*
X77475000Y-65075000D03*
X79675000Y-65075000D03*
D29*
X77305000Y-97925000D03*
X77305000Y-95725000D03*
D30*
X85730000Y-93015000D03*
X87930000Y-93015000D03*
D29*
X87465000Y-95725000D03*
X87465000Y-97925000D03*
D31*
X52540000Y-96190000D03*
X67780000Y-77775000D03*
X79845000Y-78410000D03*
X84290000Y-70790000D03*
X100800000Y-74600000D03*
X91275000Y-74600000D03*
X104610000Y-74600000D03*
D32*
X76209775Y-87407335D03*
X76209775Y-88057335D03*
X76209775Y-88707335D03*
X76209775Y-89357335D03*
X76209775Y-90007335D03*
X76209775Y-90657335D03*
X76209775Y-91307335D03*
X81949775Y-91307335D03*
X81949775Y-90657335D03*
X81949775Y-90007335D03*
X81949775Y-89357335D03*
X81949775Y-88707335D03*
X81949775Y-88057335D03*
X81949775Y-87407335D03*
D33*
X79079775Y-89357335D03*
D34*
X78329775Y-89357335D03*
X79829775Y-89357335D03*
X78329775Y-90857335D03*
X79829775Y-90857335D03*
X78329775Y-87857335D03*
X79829775Y-87857335D03*
D13*
X56540000Y-92380000D03*
X52540000Y-92380000D03*
D35*
X87465000Y-71330000D03*
X87465000Y-75330000D03*
D36*
X62700000Y-81075000D03*
X62700000Y-74475000D03*
D22*
X91440000Y-93345000D03*
D23*
X91440000Y-95885000D03*
D13*
X57620000Y-82220000D03*
X53620000Y-82220000D03*
D37*
X57215000Y-67540000D03*
X54215000Y-67540000D03*
X54215000Y-74040000D03*
X57215000Y-74040000D03*
D38*
X60795000Y-85407750D03*
X60795000Y-89192250D03*
D39*
X68034000Y-82777335D03*
X73876000Y-82777335D03*
D40*
X86500000Y-81000000D03*
M02*
