G04 #@! TF.FileFunction,Soldermask,Bot*
%FSLAX46Y46*%
G04 Gerber Fmt 4.6, Leading zero omitted, Abs format (unit mm)*
G04 Created by KiCad (PCBNEW 4.0.7) date 02/27/19 21:19:11*
%MOMM*%
%LPD*%
G01*
G04 APERTURE LIST*
%ADD10C,0.100000*%
%ADD11R,1.400000X3.550000*%
%ADD12R,1.440000X0.740000*%
%ADD13R,2.910000X1.400000*%
%ADD14R,1.300000X1.600000*%
%ADD15R,1.600000X1.300000*%
%ADD16R,2.100000X2.100000*%
%ADD17O,2.100000X2.100000*%
G04 APERTURE END LIST*
D10*
D11*
X83655000Y-94255000D03*
X83655000Y-89205000D03*
X81115000Y-94255000D03*
X81115000Y-89205000D03*
X78575000Y-94255000D03*
X78575000Y-89205000D03*
X76035000Y-94255000D03*
X76035000Y-89205000D03*
X73495000Y-94255000D03*
X73495000Y-89205000D03*
X70955000Y-94255000D03*
X70955000Y-89205000D03*
X68415000Y-94255000D03*
X68415000Y-89205000D03*
D12*
X58670000Y-70155000D03*
X56570000Y-69205000D03*
X56570000Y-71105000D03*
D13*
X58255000Y-75235000D03*
X58255000Y-80315000D03*
X58255000Y-85395000D03*
X54945000Y-77775000D03*
X54945000Y-82855000D03*
X54945000Y-87935000D03*
X88350000Y-80950000D03*
X88350000Y-75870000D03*
X91660000Y-78410000D03*
X99305096Y-65132286D03*
X99305096Y-70212286D03*
X95995096Y-67672286D03*
D14*
X92663096Y-71406286D03*
X92663096Y-69206286D03*
X92663096Y-64802286D03*
X92663096Y-67002286D03*
D15*
X87456096Y-66072286D03*
X89656096Y-66072286D03*
X87456096Y-68612286D03*
X89656096Y-68612286D03*
D16*
X114770000Y-69520000D03*
D17*
X112230000Y-69520000D03*
D16*
X60160000Y-93015000D03*
D17*
X60160000Y-95555000D03*
D16*
X108420000Y-65075000D03*
D17*
X110960000Y-65075000D03*
D16*
X96990000Y-74600000D03*
D17*
X94450000Y-74600000D03*
M02*
