G04 #@! TF.FileFunction,Soldermask,Top*
%FSLAX46Y46*%
G04 Gerber Fmt 4.6, Leading zero omitted, Abs format (unit mm)*
G04 Created by KiCad (PCBNEW 4.0.7) date 02/27/19 21:19:11*
%MOMM*%
%LPD*%
G01*
G04 APERTURE LIST*
%ADD10C,0.100000*%
%ADD11R,1.150000X1.600000*%
%ADD12R,1.650000X1.900000*%
%ADD13R,1.600000X1.150000*%
%ADD14R,1.600000X1.300000*%
%ADD15R,1.440000X0.740000*%
%ADD16R,1.400000X2.910000*%
%ADD17R,1.300000X1.200000*%
%ADD18R,1.200000X1.300000*%
%ADD19R,1.300000X1.600000*%
%ADD20R,1.200000X2.100000*%
%ADD21C,1.900000*%
%ADD22R,1.900000X2.600000*%
%ADD23R,4.200000X2.600000*%
%ADD24O,2.900000X1.300000*%
%ADD25O,1.300000X2.900000*%
%ADD26R,6.400000X6.400000*%
%ADD27R,2.200000X1.400000*%
%ADD28R,1.900000X1.650000*%
%ADD29R,2.100000X2.100000*%
%ADD30O,2.100000X2.100000*%
G04 APERTURE END LIST*
D10*
D11*
X112230000Y-74595000D03*
X112230000Y-72695000D03*
D12*
X96990000Y-67000000D03*
X96990000Y-69500000D03*
D11*
X59995000Y-65375000D03*
X59995000Y-63475000D03*
D12*
X56185000Y-65975000D03*
X56185000Y-63475000D03*
D13*
X86415702Y-91874130D03*
X88315702Y-91874130D03*
X55037000Y-73701000D03*
X53137000Y-73701000D03*
X55169000Y-71603000D03*
X53269000Y-71603000D03*
X53579000Y-69571000D03*
X51679000Y-69571000D03*
D14*
X89615096Y-69247286D03*
X91815096Y-69247286D03*
X89615096Y-73692286D03*
X91815096Y-73692286D03*
X89615096Y-76232286D03*
X91815096Y-76232286D03*
D15*
X54445000Y-89840000D03*
X56545000Y-88890000D03*
X56545000Y-90790000D03*
D16*
X60160000Y-81450000D03*
X55080000Y-81450000D03*
X57620000Y-84760000D03*
X52540000Y-84760000D03*
D17*
X83600702Y-87109130D03*
X83600702Y-85209130D03*
X81600702Y-86159130D03*
X81015702Y-91234130D03*
X81015702Y-89334130D03*
X79015702Y-90284130D03*
X67680702Y-91869130D03*
X67680702Y-89969130D03*
X65680702Y-90919130D03*
D18*
X86095702Y-86794130D03*
X87995702Y-86794130D03*
X87045702Y-84794130D03*
D17*
X74935702Y-89654130D03*
X74935702Y-91554130D03*
X76935702Y-90604130D03*
D14*
X54445000Y-95555000D03*
X56645000Y-95555000D03*
D19*
X113500000Y-67275000D03*
X113500000Y-65075000D03*
X116040000Y-64610000D03*
X116040000Y-66810000D03*
D14*
X83385702Y-96954130D03*
X81185702Y-96954130D03*
X89710000Y-66980000D03*
X91910000Y-66980000D03*
X83385702Y-94414130D03*
X81185702Y-94414130D03*
D19*
X83555702Y-91704130D03*
X83555702Y-89504130D03*
D14*
X89540000Y-71425000D03*
X91740000Y-71425000D03*
X89540000Y-78410000D03*
X91740000Y-78410000D03*
X72590702Y-91874130D03*
X70390702Y-91874130D03*
X88295702Y-89334130D03*
X86095702Y-89334130D03*
X70390702Y-89334130D03*
X72590702Y-89334130D03*
D19*
X53645000Y-65339000D03*
X53645000Y-67539000D03*
D20*
X89270702Y-95049130D03*
X85870702Y-95049130D03*
X68620000Y-94920000D03*
X72020000Y-94920000D03*
D21*
X92418000Y-97714000D03*
X115405000Y-74600000D03*
X107531000Y-68504000D03*
X86605096Y-64497286D03*
X86605096Y-70847286D03*
X86605096Y-74657286D03*
X58255000Y-67615000D03*
X60160000Y-69520000D03*
X51905000Y-89840000D03*
X57620000Y-76505000D03*
X54445000Y-76505000D03*
X68950702Y-84889130D03*
X75935702Y-86159130D03*
X79110702Y-86159130D03*
X86730702Y-82349130D03*
D22*
X104610000Y-71425000D03*
X102310000Y-71425000D03*
X100010000Y-71425000D03*
D23*
X102310000Y-65125000D03*
D24*
X82330000Y-63255000D03*
X82330000Y-64525000D03*
X82330000Y-65795000D03*
X82330000Y-67065000D03*
X82330000Y-68335000D03*
X82330000Y-69605000D03*
X82330000Y-70875000D03*
X82330000Y-72145000D03*
X82330000Y-73415000D03*
X82330000Y-74685000D03*
X82330000Y-75955000D03*
X82330000Y-77225000D03*
X82330000Y-78495000D03*
X82330000Y-79765000D03*
D25*
X79045000Y-81255000D03*
X77775000Y-81255000D03*
X76505000Y-81255000D03*
X75235000Y-81255000D03*
X73965000Y-81255000D03*
X72695000Y-81255000D03*
X71425000Y-81255000D03*
X70155000Y-81255000D03*
X68885000Y-81255000D03*
X67615000Y-81255000D03*
D24*
X64330000Y-79765000D03*
X64330000Y-78495000D03*
X64330000Y-77225000D03*
X64330000Y-75955000D03*
X64330000Y-74685000D03*
X64330000Y-73415000D03*
X64330000Y-72145000D03*
X64330000Y-70875000D03*
X64330000Y-69605000D03*
X64330000Y-68335000D03*
X64330000Y-67065000D03*
X64330000Y-65795000D03*
X64330000Y-64525000D03*
X64330000Y-63255000D03*
D26*
X73030000Y-70955000D03*
D27*
X57709000Y-73869000D03*
X57709000Y-71369000D03*
D13*
X54765000Y-98095000D03*
X56665000Y-98095000D03*
D28*
X103955000Y-74600000D03*
X101455000Y-74600000D03*
D11*
X117945000Y-64760000D03*
X117945000Y-66660000D03*
D29*
X114770000Y-69520000D03*
D30*
X112230000Y-69520000D03*
D29*
X60160000Y-93015000D03*
D30*
X60160000Y-95555000D03*
D29*
X108420000Y-65075000D03*
D30*
X110960000Y-65075000D03*
D29*
X96990000Y-74600000D03*
D30*
X94450000Y-74600000D03*
D28*
X107805000Y-74600000D03*
X110305000Y-74600000D03*
D14*
X56815000Y-93015000D03*
X54615000Y-93015000D03*
M02*
