G04 #@! TF.FileFunction,Copper,L2,Inr,Plane*
%FSLAX46Y46*%
G04 Gerber Fmt 4.6, Leading zero omitted, Abs format (unit mm)*
G04 Created by KiCad (PCBNEW 4.0.7) date 02/27/19 21:19:10*
%MOMM*%
%LPD*%
G01*
G04 APERTURE LIST*
%ADD10C,0.100000*%
%ADD11R,1.700000X1.700000*%
%ADD12O,1.700000X1.700000*%
%ADD13C,0.558800*%
%ADD14C,0.254000*%
G04 APERTURE END LIST*
D10*
D11*
X114770000Y-69520000D03*
D12*
X112230000Y-69520000D03*
D11*
X60160000Y-93015000D03*
D12*
X60160000Y-95555000D03*
D11*
X108420000Y-65075000D03*
D12*
X110960000Y-65075000D03*
D11*
X96990000Y-74600000D03*
D12*
X94450000Y-74600000D03*
D13*
X101435000Y-76505000D03*
X68923000Y-70917000D03*
X54945000Y-86673000D03*
X87973000Y-77140000D03*
X95339000Y-70282000D03*
X117945000Y-68377000D03*
X84925000Y-63678000D03*
X92418000Y-97714000D03*
X88958832Y-90602000D03*
X83600702Y-83925298D03*
X80480000Y-85014000D03*
X79720130Y-96954130D03*
X72020000Y-96903000D03*
X66434000Y-81255000D03*
X53810000Y-84760000D03*
X58001000Y-90729000D03*
X52108200Y-72568000D03*
X52286000Y-68504000D03*
X57874000Y-63475000D03*
X94323000Y-64821000D03*
X102310000Y-69393000D03*
X102310000Y-67361000D03*
X94196000Y-71425000D03*
X88227000Y-95047000D03*
X66637000Y-93777000D03*
X58001000Y-88824000D03*
X57874000Y-65375000D03*
X113500000Y-62916000D03*
X60160000Y-69520000D03*
X51524000Y-67742000D03*
X66510000Y-94920000D03*
X60862708Y-78639619D03*
X90640000Y-82982000D03*
X92672000Y-82982000D03*
X62192000Y-97206000D03*
X63716000Y-98730000D03*
X75781000Y-97968000D03*
X79972000Y-94285000D03*
X85052000Y-75870000D03*
X73368000Y-97206000D03*
X53302000Y-80950000D03*
X77432000Y-97968000D03*
X73368000Y-86030000D03*
X66256000Y-96952000D03*
X64224000Y-82728000D03*
X85052000Y-77140000D03*
X85052000Y-69520000D03*
X95381000Y-65795000D03*
X60922000Y-74685000D03*
X55842000Y-75108000D03*
X85221000Y-67065000D03*
X85306000Y-68504000D03*
D14*
G36*
X112725262Y-62397358D02*
X112585759Y-62733317D01*
X112585442Y-63097087D01*
X112724358Y-63433289D01*
X112981358Y-63690738D01*
X113317317Y-63830241D01*
X113681087Y-63830558D01*
X114017289Y-63691642D01*
X114274738Y-63434642D01*
X114414241Y-63098683D01*
X114414558Y-62734913D01*
X114275642Y-62398711D01*
X114087260Y-62210000D01*
X119290000Y-62210000D01*
X119290000Y-77290000D01*
X94500000Y-77290000D01*
X94228295Y-77344046D01*
X93997954Y-77497954D01*
X93844046Y-77728295D01*
X93790000Y-78000000D01*
X93790000Y-99290000D01*
X64449308Y-99290000D01*
X64490738Y-99248642D01*
X64630241Y-98912683D01*
X64630558Y-98548913D01*
X64491642Y-98212711D01*
X64428129Y-98149087D01*
X74866442Y-98149087D01*
X75005358Y-98485289D01*
X75262358Y-98742738D01*
X75598317Y-98882241D01*
X75962087Y-98882558D01*
X76298289Y-98743642D01*
X76555738Y-98486642D01*
X76606452Y-98364509D01*
X76656358Y-98485289D01*
X76913358Y-98742738D01*
X77249317Y-98882241D01*
X77613087Y-98882558D01*
X77949289Y-98743642D01*
X78206738Y-98486642D01*
X78346241Y-98150683D01*
X78346558Y-97786913D01*
X78207642Y-97450711D01*
X77950642Y-97193262D01*
X77614683Y-97053759D01*
X77250913Y-97053442D01*
X76914711Y-97192358D01*
X76657262Y-97449358D01*
X76606548Y-97571491D01*
X76556642Y-97450711D01*
X76299642Y-97193262D01*
X75963683Y-97053759D01*
X75599913Y-97053442D01*
X75263711Y-97192358D01*
X75006262Y-97449358D01*
X74866759Y-97785317D01*
X74866442Y-98149087D01*
X64428129Y-98149087D01*
X64234642Y-97955262D01*
X63898683Y-97815759D01*
X63534913Y-97815442D01*
X63198711Y-97954358D01*
X62941262Y-98211358D01*
X62801759Y-98547317D01*
X62801442Y-98911087D01*
X62940358Y-99247289D01*
X62982995Y-99290000D01*
X50710000Y-99290000D01*
X50710000Y-97387087D01*
X61277442Y-97387087D01*
X61416358Y-97723289D01*
X61673358Y-97980738D01*
X62009317Y-98120241D01*
X62373087Y-98120558D01*
X62709289Y-97981642D01*
X62966738Y-97724642D01*
X63106241Y-97388683D01*
X63106463Y-97133087D01*
X65341442Y-97133087D01*
X65480358Y-97469289D01*
X65737358Y-97726738D01*
X66073317Y-97866241D01*
X66437087Y-97866558D01*
X66773289Y-97727642D01*
X67030738Y-97470642D01*
X67065433Y-97387087D01*
X72453442Y-97387087D01*
X72592358Y-97723289D01*
X72849358Y-97980738D01*
X73185317Y-98120241D01*
X73549087Y-98120558D01*
X73885289Y-97981642D01*
X74142738Y-97724642D01*
X74282241Y-97388683D01*
X74282558Y-97024913D01*
X74143642Y-96688711D01*
X73886642Y-96431262D01*
X73550683Y-96291759D01*
X73186913Y-96291442D01*
X72850711Y-96430358D01*
X72593262Y-96687358D01*
X72453759Y-97023317D01*
X72453442Y-97387087D01*
X67065433Y-97387087D01*
X67170241Y-97134683D01*
X67170558Y-96770913D01*
X67031642Y-96434711D01*
X66774642Y-96177262D01*
X66438683Y-96037759D01*
X66074913Y-96037442D01*
X65738711Y-96176358D01*
X65481262Y-96433358D01*
X65341759Y-96769317D01*
X65341442Y-97133087D01*
X63106463Y-97133087D01*
X63106558Y-97024913D01*
X62967642Y-96688711D01*
X62710642Y-96431262D01*
X62374683Y-96291759D01*
X62010913Y-96291442D01*
X61674711Y-96430358D01*
X61417262Y-96687358D01*
X61277759Y-97023317D01*
X61277442Y-97387087D01*
X50710000Y-97387087D01*
X50710000Y-95911890D01*
X58718524Y-95911890D01*
X58888355Y-96321924D01*
X59278642Y-96750183D01*
X59803108Y-96996486D01*
X60033000Y-96875819D01*
X60033000Y-95682000D01*
X60287000Y-95682000D01*
X60287000Y-96875819D01*
X60516892Y-96996486D01*
X61041358Y-96750183D01*
X61431645Y-96321924D01*
X61601476Y-95911890D01*
X61480155Y-95682000D01*
X60287000Y-95682000D01*
X60033000Y-95682000D01*
X58839845Y-95682000D01*
X58718524Y-95911890D01*
X50710000Y-95911890D01*
X50710000Y-92165000D01*
X58662560Y-92165000D01*
X58662560Y-93865000D01*
X58706838Y-94100317D01*
X58845910Y-94316441D01*
X59058110Y-94461431D01*
X59166107Y-94483301D01*
X58888355Y-94788076D01*
X58718524Y-95198110D01*
X58839845Y-95428000D01*
X60033000Y-95428000D01*
X60033000Y-95408000D01*
X60287000Y-95408000D01*
X60287000Y-95428000D01*
X61480155Y-95428000D01*
X61601476Y-95198110D01*
X61561291Y-95101087D01*
X65595442Y-95101087D01*
X65734358Y-95437289D01*
X65991358Y-95694738D01*
X66327317Y-95834241D01*
X66691087Y-95834558D01*
X67027289Y-95695642D01*
X67284738Y-95438642D01*
X67372168Y-95228087D01*
X87312442Y-95228087D01*
X87451358Y-95564289D01*
X87708358Y-95821738D01*
X88044317Y-95961241D01*
X88408087Y-95961558D01*
X88744289Y-95822642D01*
X89001738Y-95565642D01*
X89141241Y-95229683D01*
X89141558Y-94865913D01*
X89002642Y-94529711D01*
X88745642Y-94272262D01*
X88409683Y-94132759D01*
X88045913Y-94132442D01*
X87709711Y-94271358D01*
X87452262Y-94528358D01*
X87312759Y-94864317D01*
X87312442Y-95228087D01*
X67372168Y-95228087D01*
X67424241Y-95102683D01*
X67424558Y-94738913D01*
X67311829Y-94466087D01*
X79057442Y-94466087D01*
X79196358Y-94802289D01*
X79453358Y-95059738D01*
X79789317Y-95199241D01*
X80153087Y-95199558D01*
X80489289Y-95060642D01*
X80746738Y-94803642D01*
X80886241Y-94467683D01*
X80886558Y-94103913D01*
X80747642Y-93767711D01*
X80490642Y-93510262D01*
X80154683Y-93370759D01*
X79790913Y-93370442D01*
X79454711Y-93509358D01*
X79197262Y-93766358D01*
X79057759Y-94102317D01*
X79057442Y-94466087D01*
X67311829Y-94466087D01*
X67291144Y-94416026D01*
X67411738Y-94295642D01*
X67551241Y-93959683D01*
X67551558Y-93595913D01*
X67412642Y-93259711D01*
X67155642Y-93002262D01*
X66819683Y-92862759D01*
X66455913Y-92862442D01*
X66119711Y-93001358D01*
X65862262Y-93258358D01*
X65722759Y-93594317D01*
X65722442Y-93958087D01*
X65855856Y-94280974D01*
X65735262Y-94401358D01*
X65595759Y-94737317D01*
X65595442Y-95101087D01*
X61561291Y-95101087D01*
X61431645Y-94788076D01*
X61155499Y-94485063D01*
X61245317Y-94468162D01*
X61461441Y-94329090D01*
X61606431Y-94116890D01*
X61657440Y-93865000D01*
X61657440Y-92165000D01*
X61613162Y-91929683D01*
X61474090Y-91713559D01*
X61261890Y-91568569D01*
X61010000Y-91517560D01*
X59310000Y-91517560D01*
X59074683Y-91561838D01*
X58858559Y-91700910D01*
X58713569Y-91913110D01*
X58662560Y-92165000D01*
X50710000Y-92165000D01*
X50710000Y-89005087D01*
X57086442Y-89005087D01*
X57225358Y-89341289D01*
X57482358Y-89598738D01*
X57818317Y-89738241D01*
X58182087Y-89738558D01*
X58518289Y-89599642D01*
X58775738Y-89342642D01*
X58915241Y-89006683D01*
X58915558Y-88642913D01*
X58776642Y-88306711D01*
X58519642Y-88049262D01*
X58183683Y-87909759D01*
X57819913Y-87909442D01*
X57483711Y-88048358D01*
X57226262Y-88305358D01*
X57086759Y-88641317D01*
X57086442Y-89005087D01*
X50710000Y-89005087D01*
X50710000Y-86211087D01*
X72453442Y-86211087D01*
X72592358Y-86547289D01*
X72849358Y-86804738D01*
X73185317Y-86944241D01*
X73549087Y-86944558D01*
X73885289Y-86805642D01*
X74142738Y-86548642D01*
X74282241Y-86212683D01*
X74282558Y-85848913D01*
X74143642Y-85512711D01*
X73886642Y-85255262D01*
X73550683Y-85115759D01*
X73186913Y-85115442D01*
X72850711Y-85254358D01*
X72593262Y-85511358D01*
X72453759Y-85847317D01*
X72453442Y-86211087D01*
X50710000Y-86211087D01*
X50710000Y-82909087D01*
X63309442Y-82909087D01*
X63448358Y-83245289D01*
X63705358Y-83502738D01*
X64041317Y-83642241D01*
X64405087Y-83642558D01*
X64741289Y-83503642D01*
X64998738Y-83246642D01*
X65033433Y-83163087D01*
X89725442Y-83163087D01*
X89864358Y-83499289D01*
X90121358Y-83756738D01*
X90457317Y-83896241D01*
X90821087Y-83896558D01*
X91157289Y-83757642D01*
X91414738Y-83500642D01*
X91554241Y-83164683D01*
X91554242Y-83163087D01*
X91757442Y-83163087D01*
X91896358Y-83499289D01*
X92153358Y-83756738D01*
X92489317Y-83896241D01*
X92853087Y-83896558D01*
X93189289Y-83757642D01*
X93446738Y-83500642D01*
X93586241Y-83164683D01*
X93586558Y-82800913D01*
X93447642Y-82464711D01*
X93190642Y-82207262D01*
X92854683Y-82067759D01*
X92490913Y-82067442D01*
X92154711Y-82206358D01*
X91897262Y-82463358D01*
X91757759Y-82799317D01*
X91757442Y-83163087D01*
X91554242Y-83163087D01*
X91554558Y-82800913D01*
X91415642Y-82464711D01*
X91158642Y-82207262D01*
X90822683Y-82067759D01*
X90458913Y-82067442D01*
X90122711Y-82206358D01*
X89865262Y-82463358D01*
X89725759Y-82799317D01*
X89725442Y-83163087D01*
X65033433Y-83163087D01*
X65138241Y-82910683D01*
X65138558Y-82546913D01*
X64999642Y-82210711D01*
X64742642Y-81953262D01*
X64406683Y-81813759D01*
X64042913Y-81813442D01*
X63706711Y-81952358D01*
X63449262Y-82209358D01*
X63309759Y-82545317D01*
X63309442Y-82909087D01*
X50710000Y-82909087D01*
X50710000Y-81131087D01*
X52387442Y-81131087D01*
X52526358Y-81467289D01*
X52783358Y-81724738D01*
X53119317Y-81864241D01*
X53483087Y-81864558D01*
X53819289Y-81725642D01*
X54076738Y-81468642D01*
X54216241Y-81132683D01*
X54216558Y-80768913D01*
X54077642Y-80432711D01*
X53820642Y-80175262D01*
X53484683Y-80035759D01*
X53120913Y-80035442D01*
X52784711Y-80174358D01*
X52527262Y-80431358D01*
X52387759Y-80767317D01*
X52387442Y-81131087D01*
X50710000Y-81131087D01*
X50710000Y-78820706D01*
X59948150Y-78820706D01*
X60087066Y-79156908D01*
X60344066Y-79414357D01*
X60680025Y-79553860D01*
X61043795Y-79554177D01*
X61379997Y-79415261D01*
X61637446Y-79158261D01*
X61776949Y-78822302D01*
X61777266Y-78458532D01*
X61638350Y-78122330D01*
X61381350Y-77864881D01*
X61045391Y-77725378D01*
X60681621Y-77725061D01*
X60345419Y-77863977D01*
X60087970Y-78120977D01*
X59948467Y-78456936D01*
X59948150Y-78820706D01*
X50710000Y-78820706D01*
X50710000Y-76051087D01*
X84137442Y-76051087D01*
X84276358Y-76387289D01*
X84393844Y-76504980D01*
X84277262Y-76621358D01*
X84137759Y-76957317D01*
X84137442Y-77321087D01*
X84276358Y-77657289D01*
X84533358Y-77914738D01*
X84869317Y-78054241D01*
X85233087Y-78054558D01*
X85569289Y-77915642D01*
X85826738Y-77658642D01*
X85966241Y-77322683D01*
X85966558Y-76958913D01*
X85827642Y-76622711D01*
X85710156Y-76505020D01*
X85826738Y-76388642D01*
X85966241Y-76052683D01*
X85966558Y-75688913D01*
X85827642Y-75352711D01*
X85570642Y-75095262D01*
X85234683Y-74955759D01*
X84870913Y-74955442D01*
X84534711Y-75094358D01*
X84277262Y-75351358D01*
X84137759Y-75687317D01*
X84137442Y-76051087D01*
X50710000Y-76051087D01*
X50710000Y-75289087D01*
X54927442Y-75289087D01*
X55066358Y-75625289D01*
X55323358Y-75882738D01*
X55659317Y-76022241D01*
X56023087Y-76022558D01*
X56359289Y-75883642D01*
X56616738Y-75626642D01*
X56756241Y-75290683D01*
X56756558Y-74926913D01*
X56731426Y-74866087D01*
X60007442Y-74866087D01*
X60146358Y-75202289D01*
X60403358Y-75459738D01*
X60739317Y-75599241D01*
X61103087Y-75599558D01*
X61439289Y-75460642D01*
X61696738Y-75203642D01*
X61836241Y-74867683D01*
X61836499Y-74570907D01*
X92965000Y-74570907D01*
X92965000Y-74629093D01*
X93078039Y-75197378D01*
X93399946Y-75679147D01*
X93881715Y-76001054D01*
X94450000Y-76114093D01*
X95018285Y-76001054D01*
X95500054Y-75679147D01*
X95527850Y-75637548D01*
X95536838Y-75685317D01*
X95675910Y-75901441D01*
X95888110Y-76046431D01*
X96140000Y-76097440D01*
X97840000Y-76097440D01*
X98075317Y-76053162D01*
X98291441Y-75914090D01*
X98436431Y-75701890D01*
X98487440Y-75450000D01*
X98487440Y-73750000D01*
X98443162Y-73514683D01*
X98304090Y-73298559D01*
X98091890Y-73153569D01*
X97840000Y-73102560D01*
X96140000Y-73102560D01*
X95904683Y-73146838D01*
X95688559Y-73285910D01*
X95543569Y-73498110D01*
X95529914Y-73565541D01*
X95500054Y-73520853D01*
X95018285Y-73198946D01*
X94450000Y-73085907D01*
X93881715Y-73198946D01*
X93399946Y-73520853D01*
X93078039Y-74002622D01*
X92965000Y-74570907D01*
X61836499Y-74570907D01*
X61836558Y-74503913D01*
X61697642Y-74167711D01*
X61440642Y-73910262D01*
X61104683Y-73770759D01*
X60740913Y-73770442D01*
X60404711Y-73909358D01*
X60147262Y-74166358D01*
X60007759Y-74502317D01*
X60007442Y-74866087D01*
X56731426Y-74866087D01*
X56617642Y-74590711D01*
X56360642Y-74333262D01*
X56024683Y-74193759D01*
X55660913Y-74193442D01*
X55324711Y-74332358D01*
X55067262Y-74589358D01*
X54927759Y-74925317D01*
X54927442Y-75289087D01*
X50710000Y-75289087D01*
X50710000Y-71606087D01*
X93281442Y-71606087D01*
X93420358Y-71942289D01*
X93677358Y-72199738D01*
X94013317Y-72339241D01*
X94377087Y-72339558D01*
X94713289Y-72200642D01*
X94970738Y-71943642D01*
X95110241Y-71607683D01*
X95110558Y-71243913D01*
X94971642Y-70907711D01*
X94714642Y-70650262D01*
X94378683Y-70510759D01*
X94014913Y-70510442D01*
X93678711Y-70649358D01*
X93421262Y-70906358D01*
X93281759Y-71242317D01*
X93281442Y-71606087D01*
X50710000Y-71606087D01*
X50710000Y-69701087D01*
X59245442Y-69701087D01*
X59384358Y-70037289D01*
X59641358Y-70294738D01*
X59977317Y-70434241D01*
X60341087Y-70434558D01*
X60677289Y-70295642D01*
X60934738Y-70038642D01*
X61074241Y-69702683D01*
X61074242Y-69701087D01*
X84137442Y-69701087D01*
X84276358Y-70037289D01*
X84533358Y-70294738D01*
X84869317Y-70434241D01*
X85233087Y-70434558D01*
X85569289Y-70295642D01*
X85826738Y-70038642D01*
X85966241Y-69702683D01*
X85966353Y-69574087D01*
X101395442Y-69574087D01*
X101534358Y-69910289D01*
X101791358Y-70167738D01*
X102127317Y-70307241D01*
X102491087Y-70307558D01*
X102827289Y-70168642D01*
X103084738Y-69911642D01*
X103099167Y-69876892D01*
X110788514Y-69876892D01*
X111034817Y-70401358D01*
X111463076Y-70791645D01*
X111873110Y-70961476D01*
X112103000Y-70840155D01*
X112103000Y-69647000D01*
X110909181Y-69647000D01*
X110788514Y-69876892D01*
X103099167Y-69876892D01*
X103224241Y-69575683D01*
X103224558Y-69211913D01*
X103204393Y-69163108D01*
X110788514Y-69163108D01*
X110909181Y-69393000D01*
X112103000Y-69393000D01*
X112103000Y-68199845D01*
X112357000Y-68199845D01*
X112357000Y-69393000D01*
X112377000Y-69393000D01*
X112377000Y-69647000D01*
X112357000Y-69647000D01*
X112357000Y-70840155D01*
X112586890Y-70961476D01*
X112996924Y-70791645D01*
X113299937Y-70515499D01*
X113316838Y-70605317D01*
X113455910Y-70821441D01*
X113668110Y-70966431D01*
X113920000Y-71017440D01*
X115620000Y-71017440D01*
X115855317Y-70973162D01*
X116071441Y-70834090D01*
X116216431Y-70621890D01*
X116267440Y-70370000D01*
X116267440Y-68670000D01*
X116223162Y-68434683D01*
X116084090Y-68218559D01*
X115871890Y-68073569D01*
X115620000Y-68022560D01*
X113920000Y-68022560D01*
X113684683Y-68066838D01*
X113468559Y-68205910D01*
X113323569Y-68418110D01*
X113301699Y-68526107D01*
X112996924Y-68248355D01*
X112586890Y-68078524D01*
X112357000Y-68199845D01*
X112103000Y-68199845D01*
X111873110Y-68078524D01*
X111463076Y-68248355D01*
X111034817Y-68638642D01*
X110788514Y-69163108D01*
X103204393Y-69163108D01*
X103085642Y-68875711D01*
X102828642Y-68618262D01*
X102492683Y-68478759D01*
X102128913Y-68478442D01*
X101792711Y-68617358D01*
X101535262Y-68874358D01*
X101395759Y-69210317D01*
X101395442Y-69574087D01*
X85966353Y-69574087D01*
X85966558Y-69338913D01*
X85907382Y-69195696D01*
X86080738Y-69022642D01*
X86220241Y-68686683D01*
X86220558Y-68322913D01*
X86081642Y-67986711D01*
X85837231Y-67741873D01*
X85995738Y-67583642D01*
X86012993Y-67542087D01*
X101395442Y-67542087D01*
X101534358Y-67878289D01*
X101791358Y-68135738D01*
X102127317Y-68275241D01*
X102491087Y-68275558D01*
X102827289Y-68136642D01*
X103084738Y-67879642D01*
X103224241Y-67543683D01*
X103224558Y-67179913D01*
X103085642Y-66843711D01*
X102828642Y-66586262D01*
X102492683Y-66446759D01*
X102128913Y-66446442D01*
X101792711Y-66585358D01*
X101535262Y-66842358D01*
X101395759Y-67178317D01*
X101395442Y-67542087D01*
X86012993Y-67542087D01*
X86135241Y-67247683D01*
X86135558Y-66883913D01*
X85996642Y-66547711D01*
X85739642Y-66290262D01*
X85403683Y-66150759D01*
X85039913Y-66150442D01*
X84703711Y-66289358D01*
X84446262Y-66546358D01*
X84306759Y-66882317D01*
X84306442Y-67246087D01*
X84445358Y-67582289D01*
X84689769Y-67827127D01*
X84531262Y-67985358D01*
X84391759Y-68321317D01*
X84391442Y-68685087D01*
X84450618Y-68828304D01*
X84277262Y-69001358D01*
X84137759Y-69337317D01*
X84137442Y-69701087D01*
X61074242Y-69701087D01*
X61074558Y-69338913D01*
X60935642Y-69002711D01*
X60678642Y-68745262D01*
X60342683Y-68605759D01*
X59978913Y-68605442D01*
X59642711Y-68744358D01*
X59385262Y-69001358D01*
X59245759Y-69337317D01*
X59245442Y-69701087D01*
X50710000Y-69701087D01*
X50710000Y-68166456D01*
X50748358Y-68259289D01*
X51005358Y-68516738D01*
X51341317Y-68656241D01*
X51705087Y-68656558D01*
X52041289Y-68517642D01*
X52298738Y-68260642D01*
X52438241Y-67924683D01*
X52438558Y-67560913D01*
X52299642Y-67224711D01*
X52042642Y-66967262D01*
X51706683Y-66827759D01*
X51342913Y-66827442D01*
X51006711Y-66966358D01*
X50749262Y-67223358D01*
X50710000Y-67317911D01*
X50710000Y-65556087D01*
X56959442Y-65556087D01*
X57098358Y-65892289D01*
X57355358Y-66149738D01*
X57691317Y-66289241D01*
X58055087Y-66289558D01*
X58391289Y-66150642D01*
X58648738Y-65893642D01*
X58788241Y-65557683D01*
X58788558Y-65193913D01*
X58709298Y-65002087D01*
X93408442Y-65002087D01*
X93547358Y-65338289D01*
X93804358Y-65595738D01*
X94140317Y-65735241D01*
X94466652Y-65735525D01*
X94466442Y-65976087D01*
X94605358Y-66312289D01*
X94862358Y-66569738D01*
X95198317Y-66709241D01*
X95562087Y-66709558D01*
X95898289Y-66570642D01*
X96155738Y-66313642D01*
X96295241Y-65977683D01*
X96295558Y-65613913D01*
X96156642Y-65277711D01*
X95899642Y-65020262D01*
X95563683Y-64880759D01*
X95237348Y-64880475D01*
X95237558Y-64639913D01*
X95098642Y-64303711D01*
X95020069Y-64225000D01*
X106922560Y-64225000D01*
X106922560Y-65925000D01*
X106966838Y-66160317D01*
X107105910Y-66376441D01*
X107318110Y-66521431D01*
X107570000Y-66572440D01*
X109270000Y-66572440D01*
X109505317Y-66528162D01*
X109721441Y-66389090D01*
X109866431Y-66176890D01*
X109888301Y-66068893D01*
X110193076Y-66346645D01*
X110603110Y-66516476D01*
X110833000Y-66395155D01*
X110833000Y-65202000D01*
X111087000Y-65202000D01*
X111087000Y-66395155D01*
X111316890Y-66516476D01*
X111726924Y-66346645D01*
X112155183Y-65956358D01*
X112401486Y-65431892D01*
X112280819Y-65202000D01*
X111087000Y-65202000D01*
X110833000Y-65202000D01*
X110813000Y-65202000D01*
X110813000Y-64948000D01*
X110833000Y-64948000D01*
X110833000Y-63754845D01*
X111087000Y-63754845D01*
X111087000Y-64948000D01*
X112280819Y-64948000D01*
X112401486Y-64718108D01*
X112155183Y-64193642D01*
X111726924Y-63803355D01*
X111316890Y-63633524D01*
X111087000Y-63754845D01*
X110833000Y-63754845D01*
X110603110Y-63633524D01*
X110193076Y-63803355D01*
X109890063Y-64079501D01*
X109873162Y-63989683D01*
X109734090Y-63773559D01*
X109521890Y-63628569D01*
X109270000Y-63577560D01*
X107570000Y-63577560D01*
X107334683Y-63621838D01*
X107118559Y-63760910D01*
X106973569Y-63973110D01*
X106922560Y-64225000D01*
X95020069Y-64225000D01*
X94841642Y-64046262D01*
X94505683Y-63906759D01*
X94141913Y-63906442D01*
X93805711Y-64045358D01*
X93548262Y-64302358D01*
X93408759Y-64638317D01*
X93408442Y-65002087D01*
X58709298Y-65002087D01*
X58649642Y-64857711D01*
X58392642Y-64600262D01*
X58056683Y-64460759D01*
X57692913Y-64460442D01*
X57356711Y-64599358D01*
X57099262Y-64856358D01*
X56959759Y-65192317D01*
X56959442Y-65556087D01*
X50710000Y-65556087D01*
X50710000Y-65347250D01*
X54743607Y-62210000D01*
X112912947Y-62210000D01*
X112725262Y-62397358D01*
X112725262Y-62397358D01*
G37*
X112725262Y-62397358D02*
X112585759Y-62733317D01*
X112585442Y-63097087D01*
X112724358Y-63433289D01*
X112981358Y-63690738D01*
X113317317Y-63830241D01*
X113681087Y-63830558D01*
X114017289Y-63691642D01*
X114274738Y-63434642D01*
X114414241Y-63098683D01*
X114414558Y-62734913D01*
X114275642Y-62398711D01*
X114087260Y-62210000D01*
X119290000Y-62210000D01*
X119290000Y-77290000D01*
X94500000Y-77290000D01*
X94228295Y-77344046D01*
X93997954Y-77497954D01*
X93844046Y-77728295D01*
X93790000Y-78000000D01*
X93790000Y-99290000D01*
X64449308Y-99290000D01*
X64490738Y-99248642D01*
X64630241Y-98912683D01*
X64630558Y-98548913D01*
X64491642Y-98212711D01*
X64428129Y-98149087D01*
X74866442Y-98149087D01*
X75005358Y-98485289D01*
X75262358Y-98742738D01*
X75598317Y-98882241D01*
X75962087Y-98882558D01*
X76298289Y-98743642D01*
X76555738Y-98486642D01*
X76606452Y-98364509D01*
X76656358Y-98485289D01*
X76913358Y-98742738D01*
X77249317Y-98882241D01*
X77613087Y-98882558D01*
X77949289Y-98743642D01*
X78206738Y-98486642D01*
X78346241Y-98150683D01*
X78346558Y-97786913D01*
X78207642Y-97450711D01*
X77950642Y-97193262D01*
X77614683Y-97053759D01*
X77250913Y-97053442D01*
X76914711Y-97192358D01*
X76657262Y-97449358D01*
X76606548Y-97571491D01*
X76556642Y-97450711D01*
X76299642Y-97193262D01*
X75963683Y-97053759D01*
X75599913Y-97053442D01*
X75263711Y-97192358D01*
X75006262Y-97449358D01*
X74866759Y-97785317D01*
X74866442Y-98149087D01*
X64428129Y-98149087D01*
X64234642Y-97955262D01*
X63898683Y-97815759D01*
X63534913Y-97815442D01*
X63198711Y-97954358D01*
X62941262Y-98211358D01*
X62801759Y-98547317D01*
X62801442Y-98911087D01*
X62940358Y-99247289D01*
X62982995Y-99290000D01*
X50710000Y-99290000D01*
X50710000Y-97387087D01*
X61277442Y-97387087D01*
X61416358Y-97723289D01*
X61673358Y-97980738D01*
X62009317Y-98120241D01*
X62373087Y-98120558D01*
X62709289Y-97981642D01*
X62966738Y-97724642D01*
X63106241Y-97388683D01*
X63106463Y-97133087D01*
X65341442Y-97133087D01*
X65480358Y-97469289D01*
X65737358Y-97726738D01*
X66073317Y-97866241D01*
X66437087Y-97866558D01*
X66773289Y-97727642D01*
X67030738Y-97470642D01*
X67065433Y-97387087D01*
X72453442Y-97387087D01*
X72592358Y-97723289D01*
X72849358Y-97980738D01*
X73185317Y-98120241D01*
X73549087Y-98120558D01*
X73885289Y-97981642D01*
X74142738Y-97724642D01*
X74282241Y-97388683D01*
X74282558Y-97024913D01*
X74143642Y-96688711D01*
X73886642Y-96431262D01*
X73550683Y-96291759D01*
X73186913Y-96291442D01*
X72850711Y-96430358D01*
X72593262Y-96687358D01*
X72453759Y-97023317D01*
X72453442Y-97387087D01*
X67065433Y-97387087D01*
X67170241Y-97134683D01*
X67170558Y-96770913D01*
X67031642Y-96434711D01*
X66774642Y-96177262D01*
X66438683Y-96037759D01*
X66074913Y-96037442D01*
X65738711Y-96176358D01*
X65481262Y-96433358D01*
X65341759Y-96769317D01*
X65341442Y-97133087D01*
X63106463Y-97133087D01*
X63106558Y-97024913D01*
X62967642Y-96688711D01*
X62710642Y-96431262D01*
X62374683Y-96291759D01*
X62010913Y-96291442D01*
X61674711Y-96430358D01*
X61417262Y-96687358D01*
X61277759Y-97023317D01*
X61277442Y-97387087D01*
X50710000Y-97387087D01*
X50710000Y-95911890D01*
X58718524Y-95911890D01*
X58888355Y-96321924D01*
X59278642Y-96750183D01*
X59803108Y-96996486D01*
X60033000Y-96875819D01*
X60033000Y-95682000D01*
X60287000Y-95682000D01*
X60287000Y-96875819D01*
X60516892Y-96996486D01*
X61041358Y-96750183D01*
X61431645Y-96321924D01*
X61601476Y-95911890D01*
X61480155Y-95682000D01*
X60287000Y-95682000D01*
X60033000Y-95682000D01*
X58839845Y-95682000D01*
X58718524Y-95911890D01*
X50710000Y-95911890D01*
X50710000Y-92165000D01*
X58662560Y-92165000D01*
X58662560Y-93865000D01*
X58706838Y-94100317D01*
X58845910Y-94316441D01*
X59058110Y-94461431D01*
X59166107Y-94483301D01*
X58888355Y-94788076D01*
X58718524Y-95198110D01*
X58839845Y-95428000D01*
X60033000Y-95428000D01*
X60033000Y-95408000D01*
X60287000Y-95408000D01*
X60287000Y-95428000D01*
X61480155Y-95428000D01*
X61601476Y-95198110D01*
X61561291Y-95101087D01*
X65595442Y-95101087D01*
X65734358Y-95437289D01*
X65991358Y-95694738D01*
X66327317Y-95834241D01*
X66691087Y-95834558D01*
X67027289Y-95695642D01*
X67284738Y-95438642D01*
X67372168Y-95228087D01*
X87312442Y-95228087D01*
X87451358Y-95564289D01*
X87708358Y-95821738D01*
X88044317Y-95961241D01*
X88408087Y-95961558D01*
X88744289Y-95822642D01*
X89001738Y-95565642D01*
X89141241Y-95229683D01*
X89141558Y-94865913D01*
X89002642Y-94529711D01*
X88745642Y-94272262D01*
X88409683Y-94132759D01*
X88045913Y-94132442D01*
X87709711Y-94271358D01*
X87452262Y-94528358D01*
X87312759Y-94864317D01*
X87312442Y-95228087D01*
X67372168Y-95228087D01*
X67424241Y-95102683D01*
X67424558Y-94738913D01*
X67311829Y-94466087D01*
X79057442Y-94466087D01*
X79196358Y-94802289D01*
X79453358Y-95059738D01*
X79789317Y-95199241D01*
X80153087Y-95199558D01*
X80489289Y-95060642D01*
X80746738Y-94803642D01*
X80886241Y-94467683D01*
X80886558Y-94103913D01*
X80747642Y-93767711D01*
X80490642Y-93510262D01*
X80154683Y-93370759D01*
X79790913Y-93370442D01*
X79454711Y-93509358D01*
X79197262Y-93766358D01*
X79057759Y-94102317D01*
X79057442Y-94466087D01*
X67311829Y-94466087D01*
X67291144Y-94416026D01*
X67411738Y-94295642D01*
X67551241Y-93959683D01*
X67551558Y-93595913D01*
X67412642Y-93259711D01*
X67155642Y-93002262D01*
X66819683Y-92862759D01*
X66455913Y-92862442D01*
X66119711Y-93001358D01*
X65862262Y-93258358D01*
X65722759Y-93594317D01*
X65722442Y-93958087D01*
X65855856Y-94280974D01*
X65735262Y-94401358D01*
X65595759Y-94737317D01*
X65595442Y-95101087D01*
X61561291Y-95101087D01*
X61431645Y-94788076D01*
X61155499Y-94485063D01*
X61245317Y-94468162D01*
X61461441Y-94329090D01*
X61606431Y-94116890D01*
X61657440Y-93865000D01*
X61657440Y-92165000D01*
X61613162Y-91929683D01*
X61474090Y-91713559D01*
X61261890Y-91568569D01*
X61010000Y-91517560D01*
X59310000Y-91517560D01*
X59074683Y-91561838D01*
X58858559Y-91700910D01*
X58713569Y-91913110D01*
X58662560Y-92165000D01*
X50710000Y-92165000D01*
X50710000Y-89005087D01*
X57086442Y-89005087D01*
X57225358Y-89341289D01*
X57482358Y-89598738D01*
X57818317Y-89738241D01*
X58182087Y-89738558D01*
X58518289Y-89599642D01*
X58775738Y-89342642D01*
X58915241Y-89006683D01*
X58915558Y-88642913D01*
X58776642Y-88306711D01*
X58519642Y-88049262D01*
X58183683Y-87909759D01*
X57819913Y-87909442D01*
X57483711Y-88048358D01*
X57226262Y-88305358D01*
X57086759Y-88641317D01*
X57086442Y-89005087D01*
X50710000Y-89005087D01*
X50710000Y-86211087D01*
X72453442Y-86211087D01*
X72592358Y-86547289D01*
X72849358Y-86804738D01*
X73185317Y-86944241D01*
X73549087Y-86944558D01*
X73885289Y-86805642D01*
X74142738Y-86548642D01*
X74282241Y-86212683D01*
X74282558Y-85848913D01*
X74143642Y-85512711D01*
X73886642Y-85255262D01*
X73550683Y-85115759D01*
X73186913Y-85115442D01*
X72850711Y-85254358D01*
X72593262Y-85511358D01*
X72453759Y-85847317D01*
X72453442Y-86211087D01*
X50710000Y-86211087D01*
X50710000Y-82909087D01*
X63309442Y-82909087D01*
X63448358Y-83245289D01*
X63705358Y-83502738D01*
X64041317Y-83642241D01*
X64405087Y-83642558D01*
X64741289Y-83503642D01*
X64998738Y-83246642D01*
X65033433Y-83163087D01*
X89725442Y-83163087D01*
X89864358Y-83499289D01*
X90121358Y-83756738D01*
X90457317Y-83896241D01*
X90821087Y-83896558D01*
X91157289Y-83757642D01*
X91414738Y-83500642D01*
X91554241Y-83164683D01*
X91554242Y-83163087D01*
X91757442Y-83163087D01*
X91896358Y-83499289D01*
X92153358Y-83756738D01*
X92489317Y-83896241D01*
X92853087Y-83896558D01*
X93189289Y-83757642D01*
X93446738Y-83500642D01*
X93586241Y-83164683D01*
X93586558Y-82800913D01*
X93447642Y-82464711D01*
X93190642Y-82207262D01*
X92854683Y-82067759D01*
X92490913Y-82067442D01*
X92154711Y-82206358D01*
X91897262Y-82463358D01*
X91757759Y-82799317D01*
X91757442Y-83163087D01*
X91554242Y-83163087D01*
X91554558Y-82800913D01*
X91415642Y-82464711D01*
X91158642Y-82207262D01*
X90822683Y-82067759D01*
X90458913Y-82067442D01*
X90122711Y-82206358D01*
X89865262Y-82463358D01*
X89725759Y-82799317D01*
X89725442Y-83163087D01*
X65033433Y-83163087D01*
X65138241Y-82910683D01*
X65138558Y-82546913D01*
X64999642Y-82210711D01*
X64742642Y-81953262D01*
X64406683Y-81813759D01*
X64042913Y-81813442D01*
X63706711Y-81952358D01*
X63449262Y-82209358D01*
X63309759Y-82545317D01*
X63309442Y-82909087D01*
X50710000Y-82909087D01*
X50710000Y-81131087D01*
X52387442Y-81131087D01*
X52526358Y-81467289D01*
X52783358Y-81724738D01*
X53119317Y-81864241D01*
X53483087Y-81864558D01*
X53819289Y-81725642D01*
X54076738Y-81468642D01*
X54216241Y-81132683D01*
X54216558Y-80768913D01*
X54077642Y-80432711D01*
X53820642Y-80175262D01*
X53484683Y-80035759D01*
X53120913Y-80035442D01*
X52784711Y-80174358D01*
X52527262Y-80431358D01*
X52387759Y-80767317D01*
X52387442Y-81131087D01*
X50710000Y-81131087D01*
X50710000Y-78820706D01*
X59948150Y-78820706D01*
X60087066Y-79156908D01*
X60344066Y-79414357D01*
X60680025Y-79553860D01*
X61043795Y-79554177D01*
X61379997Y-79415261D01*
X61637446Y-79158261D01*
X61776949Y-78822302D01*
X61777266Y-78458532D01*
X61638350Y-78122330D01*
X61381350Y-77864881D01*
X61045391Y-77725378D01*
X60681621Y-77725061D01*
X60345419Y-77863977D01*
X60087970Y-78120977D01*
X59948467Y-78456936D01*
X59948150Y-78820706D01*
X50710000Y-78820706D01*
X50710000Y-76051087D01*
X84137442Y-76051087D01*
X84276358Y-76387289D01*
X84393844Y-76504980D01*
X84277262Y-76621358D01*
X84137759Y-76957317D01*
X84137442Y-77321087D01*
X84276358Y-77657289D01*
X84533358Y-77914738D01*
X84869317Y-78054241D01*
X85233087Y-78054558D01*
X85569289Y-77915642D01*
X85826738Y-77658642D01*
X85966241Y-77322683D01*
X85966558Y-76958913D01*
X85827642Y-76622711D01*
X85710156Y-76505020D01*
X85826738Y-76388642D01*
X85966241Y-76052683D01*
X85966558Y-75688913D01*
X85827642Y-75352711D01*
X85570642Y-75095262D01*
X85234683Y-74955759D01*
X84870913Y-74955442D01*
X84534711Y-75094358D01*
X84277262Y-75351358D01*
X84137759Y-75687317D01*
X84137442Y-76051087D01*
X50710000Y-76051087D01*
X50710000Y-75289087D01*
X54927442Y-75289087D01*
X55066358Y-75625289D01*
X55323358Y-75882738D01*
X55659317Y-76022241D01*
X56023087Y-76022558D01*
X56359289Y-75883642D01*
X56616738Y-75626642D01*
X56756241Y-75290683D01*
X56756558Y-74926913D01*
X56731426Y-74866087D01*
X60007442Y-74866087D01*
X60146358Y-75202289D01*
X60403358Y-75459738D01*
X60739317Y-75599241D01*
X61103087Y-75599558D01*
X61439289Y-75460642D01*
X61696738Y-75203642D01*
X61836241Y-74867683D01*
X61836499Y-74570907D01*
X92965000Y-74570907D01*
X92965000Y-74629093D01*
X93078039Y-75197378D01*
X93399946Y-75679147D01*
X93881715Y-76001054D01*
X94450000Y-76114093D01*
X95018285Y-76001054D01*
X95500054Y-75679147D01*
X95527850Y-75637548D01*
X95536838Y-75685317D01*
X95675910Y-75901441D01*
X95888110Y-76046431D01*
X96140000Y-76097440D01*
X97840000Y-76097440D01*
X98075317Y-76053162D01*
X98291441Y-75914090D01*
X98436431Y-75701890D01*
X98487440Y-75450000D01*
X98487440Y-73750000D01*
X98443162Y-73514683D01*
X98304090Y-73298559D01*
X98091890Y-73153569D01*
X97840000Y-73102560D01*
X96140000Y-73102560D01*
X95904683Y-73146838D01*
X95688559Y-73285910D01*
X95543569Y-73498110D01*
X95529914Y-73565541D01*
X95500054Y-73520853D01*
X95018285Y-73198946D01*
X94450000Y-73085907D01*
X93881715Y-73198946D01*
X93399946Y-73520853D01*
X93078039Y-74002622D01*
X92965000Y-74570907D01*
X61836499Y-74570907D01*
X61836558Y-74503913D01*
X61697642Y-74167711D01*
X61440642Y-73910262D01*
X61104683Y-73770759D01*
X60740913Y-73770442D01*
X60404711Y-73909358D01*
X60147262Y-74166358D01*
X60007759Y-74502317D01*
X60007442Y-74866087D01*
X56731426Y-74866087D01*
X56617642Y-74590711D01*
X56360642Y-74333262D01*
X56024683Y-74193759D01*
X55660913Y-74193442D01*
X55324711Y-74332358D01*
X55067262Y-74589358D01*
X54927759Y-74925317D01*
X54927442Y-75289087D01*
X50710000Y-75289087D01*
X50710000Y-71606087D01*
X93281442Y-71606087D01*
X93420358Y-71942289D01*
X93677358Y-72199738D01*
X94013317Y-72339241D01*
X94377087Y-72339558D01*
X94713289Y-72200642D01*
X94970738Y-71943642D01*
X95110241Y-71607683D01*
X95110558Y-71243913D01*
X94971642Y-70907711D01*
X94714642Y-70650262D01*
X94378683Y-70510759D01*
X94014913Y-70510442D01*
X93678711Y-70649358D01*
X93421262Y-70906358D01*
X93281759Y-71242317D01*
X93281442Y-71606087D01*
X50710000Y-71606087D01*
X50710000Y-69701087D01*
X59245442Y-69701087D01*
X59384358Y-70037289D01*
X59641358Y-70294738D01*
X59977317Y-70434241D01*
X60341087Y-70434558D01*
X60677289Y-70295642D01*
X60934738Y-70038642D01*
X61074241Y-69702683D01*
X61074242Y-69701087D01*
X84137442Y-69701087D01*
X84276358Y-70037289D01*
X84533358Y-70294738D01*
X84869317Y-70434241D01*
X85233087Y-70434558D01*
X85569289Y-70295642D01*
X85826738Y-70038642D01*
X85966241Y-69702683D01*
X85966353Y-69574087D01*
X101395442Y-69574087D01*
X101534358Y-69910289D01*
X101791358Y-70167738D01*
X102127317Y-70307241D01*
X102491087Y-70307558D01*
X102827289Y-70168642D01*
X103084738Y-69911642D01*
X103099167Y-69876892D01*
X110788514Y-69876892D01*
X111034817Y-70401358D01*
X111463076Y-70791645D01*
X111873110Y-70961476D01*
X112103000Y-70840155D01*
X112103000Y-69647000D01*
X110909181Y-69647000D01*
X110788514Y-69876892D01*
X103099167Y-69876892D01*
X103224241Y-69575683D01*
X103224558Y-69211913D01*
X103204393Y-69163108D01*
X110788514Y-69163108D01*
X110909181Y-69393000D01*
X112103000Y-69393000D01*
X112103000Y-68199845D01*
X112357000Y-68199845D01*
X112357000Y-69393000D01*
X112377000Y-69393000D01*
X112377000Y-69647000D01*
X112357000Y-69647000D01*
X112357000Y-70840155D01*
X112586890Y-70961476D01*
X112996924Y-70791645D01*
X113299937Y-70515499D01*
X113316838Y-70605317D01*
X113455910Y-70821441D01*
X113668110Y-70966431D01*
X113920000Y-71017440D01*
X115620000Y-71017440D01*
X115855317Y-70973162D01*
X116071441Y-70834090D01*
X116216431Y-70621890D01*
X116267440Y-70370000D01*
X116267440Y-68670000D01*
X116223162Y-68434683D01*
X116084090Y-68218559D01*
X115871890Y-68073569D01*
X115620000Y-68022560D01*
X113920000Y-68022560D01*
X113684683Y-68066838D01*
X113468559Y-68205910D01*
X113323569Y-68418110D01*
X113301699Y-68526107D01*
X112996924Y-68248355D01*
X112586890Y-68078524D01*
X112357000Y-68199845D01*
X112103000Y-68199845D01*
X111873110Y-68078524D01*
X111463076Y-68248355D01*
X111034817Y-68638642D01*
X110788514Y-69163108D01*
X103204393Y-69163108D01*
X103085642Y-68875711D01*
X102828642Y-68618262D01*
X102492683Y-68478759D01*
X102128913Y-68478442D01*
X101792711Y-68617358D01*
X101535262Y-68874358D01*
X101395759Y-69210317D01*
X101395442Y-69574087D01*
X85966353Y-69574087D01*
X85966558Y-69338913D01*
X85907382Y-69195696D01*
X86080738Y-69022642D01*
X86220241Y-68686683D01*
X86220558Y-68322913D01*
X86081642Y-67986711D01*
X85837231Y-67741873D01*
X85995738Y-67583642D01*
X86012993Y-67542087D01*
X101395442Y-67542087D01*
X101534358Y-67878289D01*
X101791358Y-68135738D01*
X102127317Y-68275241D01*
X102491087Y-68275558D01*
X102827289Y-68136642D01*
X103084738Y-67879642D01*
X103224241Y-67543683D01*
X103224558Y-67179913D01*
X103085642Y-66843711D01*
X102828642Y-66586262D01*
X102492683Y-66446759D01*
X102128913Y-66446442D01*
X101792711Y-66585358D01*
X101535262Y-66842358D01*
X101395759Y-67178317D01*
X101395442Y-67542087D01*
X86012993Y-67542087D01*
X86135241Y-67247683D01*
X86135558Y-66883913D01*
X85996642Y-66547711D01*
X85739642Y-66290262D01*
X85403683Y-66150759D01*
X85039913Y-66150442D01*
X84703711Y-66289358D01*
X84446262Y-66546358D01*
X84306759Y-66882317D01*
X84306442Y-67246087D01*
X84445358Y-67582289D01*
X84689769Y-67827127D01*
X84531262Y-67985358D01*
X84391759Y-68321317D01*
X84391442Y-68685087D01*
X84450618Y-68828304D01*
X84277262Y-69001358D01*
X84137759Y-69337317D01*
X84137442Y-69701087D01*
X61074242Y-69701087D01*
X61074558Y-69338913D01*
X60935642Y-69002711D01*
X60678642Y-68745262D01*
X60342683Y-68605759D01*
X59978913Y-68605442D01*
X59642711Y-68744358D01*
X59385262Y-69001358D01*
X59245759Y-69337317D01*
X59245442Y-69701087D01*
X50710000Y-69701087D01*
X50710000Y-68166456D01*
X50748358Y-68259289D01*
X51005358Y-68516738D01*
X51341317Y-68656241D01*
X51705087Y-68656558D01*
X52041289Y-68517642D01*
X52298738Y-68260642D01*
X52438241Y-67924683D01*
X52438558Y-67560913D01*
X52299642Y-67224711D01*
X52042642Y-66967262D01*
X51706683Y-66827759D01*
X51342913Y-66827442D01*
X51006711Y-66966358D01*
X50749262Y-67223358D01*
X50710000Y-67317911D01*
X50710000Y-65556087D01*
X56959442Y-65556087D01*
X57098358Y-65892289D01*
X57355358Y-66149738D01*
X57691317Y-66289241D01*
X58055087Y-66289558D01*
X58391289Y-66150642D01*
X58648738Y-65893642D01*
X58788241Y-65557683D01*
X58788558Y-65193913D01*
X58709298Y-65002087D01*
X93408442Y-65002087D01*
X93547358Y-65338289D01*
X93804358Y-65595738D01*
X94140317Y-65735241D01*
X94466652Y-65735525D01*
X94466442Y-65976087D01*
X94605358Y-66312289D01*
X94862358Y-66569738D01*
X95198317Y-66709241D01*
X95562087Y-66709558D01*
X95898289Y-66570642D01*
X96155738Y-66313642D01*
X96295241Y-65977683D01*
X96295558Y-65613913D01*
X96156642Y-65277711D01*
X95899642Y-65020262D01*
X95563683Y-64880759D01*
X95237348Y-64880475D01*
X95237558Y-64639913D01*
X95098642Y-64303711D01*
X95020069Y-64225000D01*
X106922560Y-64225000D01*
X106922560Y-65925000D01*
X106966838Y-66160317D01*
X107105910Y-66376441D01*
X107318110Y-66521431D01*
X107570000Y-66572440D01*
X109270000Y-66572440D01*
X109505317Y-66528162D01*
X109721441Y-66389090D01*
X109866431Y-66176890D01*
X109888301Y-66068893D01*
X110193076Y-66346645D01*
X110603110Y-66516476D01*
X110833000Y-66395155D01*
X110833000Y-65202000D01*
X111087000Y-65202000D01*
X111087000Y-66395155D01*
X111316890Y-66516476D01*
X111726924Y-66346645D01*
X112155183Y-65956358D01*
X112401486Y-65431892D01*
X112280819Y-65202000D01*
X111087000Y-65202000D01*
X110833000Y-65202000D01*
X110813000Y-65202000D01*
X110813000Y-64948000D01*
X110833000Y-64948000D01*
X110833000Y-63754845D01*
X111087000Y-63754845D01*
X111087000Y-64948000D01*
X112280819Y-64948000D01*
X112401486Y-64718108D01*
X112155183Y-64193642D01*
X111726924Y-63803355D01*
X111316890Y-63633524D01*
X111087000Y-63754845D01*
X110833000Y-63754845D01*
X110603110Y-63633524D01*
X110193076Y-63803355D01*
X109890063Y-64079501D01*
X109873162Y-63989683D01*
X109734090Y-63773559D01*
X109521890Y-63628569D01*
X109270000Y-63577560D01*
X107570000Y-63577560D01*
X107334683Y-63621838D01*
X107118559Y-63760910D01*
X106973569Y-63973110D01*
X106922560Y-64225000D01*
X95020069Y-64225000D01*
X94841642Y-64046262D01*
X94505683Y-63906759D01*
X94141913Y-63906442D01*
X93805711Y-64045358D01*
X93548262Y-64302358D01*
X93408759Y-64638317D01*
X93408442Y-65002087D01*
X58709298Y-65002087D01*
X58649642Y-64857711D01*
X58392642Y-64600262D01*
X58056683Y-64460759D01*
X57692913Y-64460442D01*
X57356711Y-64599358D01*
X57099262Y-64856358D01*
X56959759Y-65192317D01*
X56959442Y-65556087D01*
X50710000Y-65556087D01*
X50710000Y-65347250D01*
X54743607Y-62210000D01*
X112912947Y-62210000D01*
X112725262Y-62397358D01*
M02*
