G04 #@! TF.FileFunction,Legend,Bot*
%FSLAX46Y46*%
G04 Gerber Fmt 4.6, Leading zero omitted, Abs format (unit mm)*
G04 Created by KiCad (PCBNEW 4.0.7) date 02/27/19 21:19:11*
%MOMM*%
%LPD*%
G01*
G04 APERTURE LIST*
%ADD10C,0.100000*%
%ADD11C,0.150000*%
%ADD12C,0.120000*%
G04 APERTURE END LIST*
D10*
D11*
X72074143Y-62869428D02*
X72121762Y-62821809D01*
X72169381Y-62678952D01*
X72169381Y-62583714D01*
X72121762Y-62440856D01*
X72026524Y-62345618D01*
X71931286Y-62297999D01*
X71740810Y-62250380D01*
X71597952Y-62250380D01*
X71407476Y-62297999D01*
X71312238Y-62345618D01*
X71217000Y-62440856D01*
X71169381Y-62583714D01*
X71169381Y-62678952D01*
X71217000Y-62821809D01*
X71264619Y-62869428D01*
X71169381Y-63488475D02*
X71169381Y-63678952D01*
X71217000Y-63774190D01*
X71312238Y-63869428D01*
X71502714Y-63917047D01*
X71836048Y-63917047D01*
X72026524Y-63869428D01*
X72121762Y-63774190D01*
X72169381Y-63678952D01*
X72169381Y-63488475D01*
X72121762Y-63393237D01*
X72026524Y-63297999D01*
X71836048Y-63250380D01*
X71502714Y-63250380D01*
X71312238Y-63297999D01*
X71217000Y-63393237D01*
X71169381Y-63488475D01*
X72169381Y-64345618D02*
X71169381Y-64345618D01*
X72169381Y-64917047D01*
X71169381Y-64917047D01*
X71169381Y-65250380D02*
X71169381Y-65821809D01*
X72169381Y-65536094D02*
X71169381Y-65536094D01*
X72169381Y-66726571D02*
X71693190Y-66393237D01*
X72169381Y-66155142D02*
X71169381Y-66155142D01*
X71169381Y-66536095D01*
X71217000Y-66631333D01*
X71264619Y-66678952D01*
X71359857Y-66726571D01*
X71502714Y-66726571D01*
X71597952Y-66678952D01*
X71645571Y-66631333D01*
X71693190Y-66536095D01*
X71693190Y-66155142D01*
X71169381Y-67345618D02*
X71169381Y-67536095D01*
X71217000Y-67631333D01*
X71312238Y-67726571D01*
X71502714Y-67774190D01*
X71836048Y-67774190D01*
X72026524Y-67726571D01*
X72121762Y-67631333D01*
X72169381Y-67536095D01*
X72169381Y-67345618D01*
X72121762Y-67250380D01*
X72026524Y-67155142D01*
X71836048Y-67107523D01*
X71502714Y-67107523D01*
X71312238Y-67155142D01*
X71217000Y-67250380D01*
X71169381Y-67345618D01*
X72169381Y-68678952D02*
X72169381Y-68202761D01*
X71169381Y-68202761D01*
X72169381Y-69488476D02*
X72169381Y-69012285D01*
X71169381Y-69012285D01*
X71645571Y-69821809D02*
X71645571Y-70155143D01*
X72169381Y-70298000D02*
X72169381Y-69821809D01*
X71169381Y-69821809D01*
X71169381Y-70298000D01*
X72169381Y-71298000D02*
X71693190Y-70964666D01*
X72169381Y-70726571D02*
X71169381Y-70726571D01*
X71169381Y-71107524D01*
X71217000Y-71202762D01*
X71264619Y-71250381D01*
X71359857Y-71298000D01*
X71502714Y-71298000D01*
X71597952Y-71250381D01*
X71645571Y-71202762D01*
X71693190Y-71107524D01*
X71693190Y-70726571D01*
X72264619Y-71488476D02*
X72264619Y-72250381D01*
X72169381Y-72488476D02*
X71169381Y-72488476D01*
X71169381Y-72869429D01*
X71217000Y-72964667D01*
X71264619Y-73012286D01*
X71359857Y-73059905D01*
X71502714Y-73059905D01*
X71597952Y-73012286D01*
X71645571Y-72964667D01*
X71693190Y-72869429D01*
X71693190Y-72488476D01*
X72074143Y-74059905D02*
X72121762Y-74012286D01*
X72169381Y-73869429D01*
X72169381Y-73774191D01*
X72121762Y-73631333D01*
X72026524Y-73536095D01*
X71931286Y-73488476D01*
X71740810Y-73440857D01*
X71597952Y-73440857D01*
X71407476Y-73488476D01*
X71312238Y-73536095D01*
X71217000Y-73631333D01*
X71169381Y-73774191D01*
X71169381Y-73869429D01*
X71217000Y-74012286D01*
X71264619Y-74059905D01*
X71645571Y-74821810D02*
X71693190Y-74964667D01*
X71740810Y-75012286D01*
X71836048Y-75059905D01*
X71978905Y-75059905D01*
X72074143Y-75012286D01*
X72121762Y-74964667D01*
X72169381Y-74869429D01*
X72169381Y-74488476D01*
X71169381Y-74488476D01*
X71169381Y-74821810D01*
X71217000Y-74917048D01*
X71264619Y-74964667D01*
X71359857Y-75012286D01*
X71455095Y-75012286D01*
X71550333Y-74964667D01*
X71597952Y-74917048D01*
X71645571Y-74821810D01*
X71645571Y-74488476D01*
X72169381Y-76821810D02*
X71693190Y-76488476D01*
X72169381Y-76250381D02*
X71169381Y-76250381D01*
X71169381Y-76631334D01*
X71217000Y-76726572D01*
X71264619Y-76774191D01*
X71359857Y-76821810D01*
X71502714Y-76821810D01*
X71597952Y-76774191D01*
X71645571Y-76726572D01*
X71693190Y-76631334D01*
X71693190Y-76250381D01*
X72121762Y-77631334D02*
X72169381Y-77536096D01*
X72169381Y-77345619D01*
X72121762Y-77250381D01*
X72026524Y-77202762D01*
X71645571Y-77202762D01*
X71550333Y-77250381D01*
X71502714Y-77345619D01*
X71502714Y-77536096D01*
X71550333Y-77631334D01*
X71645571Y-77678953D01*
X71740810Y-77678953D01*
X71836048Y-77202762D01*
X71502714Y-78012286D02*
X72169381Y-78250381D01*
X71502714Y-78488477D01*
X71169381Y-79059905D02*
X71169381Y-79155144D01*
X71217000Y-79250382D01*
X71264619Y-79298001D01*
X71359857Y-79345620D01*
X71550333Y-79393239D01*
X71788429Y-79393239D01*
X71978905Y-79345620D01*
X72074143Y-79298001D01*
X72121762Y-79250382D01*
X72169381Y-79155144D01*
X72169381Y-79059905D01*
X72121762Y-78964667D01*
X72074143Y-78917048D01*
X71978905Y-78869429D01*
X71788429Y-78821810D01*
X71550333Y-78821810D01*
X71359857Y-78869429D01*
X71264619Y-78917048D01*
X71217000Y-78964667D01*
X71169381Y-79059905D01*
X72169381Y-80345620D02*
X72169381Y-79774191D01*
X72169381Y-80059905D02*
X71169381Y-80059905D01*
X71312238Y-79964667D01*
X71407476Y-79869429D01*
X71455095Y-79774191D01*
D12*
X84985000Y-94330000D02*
X84985000Y-89130000D01*
X67085000Y-94330000D02*
X67085000Y-89130000D01*
X84415000Y-95770000D02*
X84415000Y-94330000D01*
X84985000Y-94330000D02*
X84415000Y-94330000D01*
X84985000Y-89130000D02*
X84415000Y-89130000D01*
X67655000Y-94330000D02*
X67085000Y-94330000D01*
X67655000Y-89130000D02*
X67085000Y-89130000D01*
X82895000Y-94330000D02*
X81875000Y-94330000D01*
X82895000Y-89130000D02*
X81875000Y-89130000D01*
X80355000Y-94330000D02*
X79335000Y-94330000D01*
X80355000Y-89130000D02*
X79335000Y-89130000D01*
X77815000Y-94330000D02*
X76795000Y-94330000D01*
X77815000Y-89130000D02*
X76795000Y-89130000D01*
X75275000Y-94330000D02*
X74255000Y-94330000D01*
X75275000Y-89130000D02*
X74255000Y-89130000D01*
X72735000Y-94330000D02*
X71715000Y-94330000D01*
X72735000Y-89130000D02*
X71715000Y-89130000D01*
X70195000Y-94330000D02*
X69175000Y-94330000D01*
X70195000Y-89130000D02*
X69175000Y-89130000D01*
D10*
X57445000Y-71805000D02*
X57170000Y-71805000D01*
X57170000Y-71805000D02*
X56795000Y-71530000D01*
X56795000Y-71530000D02*
X56795000Y-71480000D01*
X56795000Y-71480000D02*
X56020000Y-71480000D01*
X57270000Y-68505000D02*
X56795000Y-68505000D01*
X56795000Y-68505000D02*
X56795000Y-68855000D01*
X58445000Y-68730000D02*
X58445000Y-68855000D01*
X58445000Y-68805000D02*
X58445000Y-68505000D01*
X58445000Y-68505000D02*
X57995000Y-68505000D01*
X58070000Y-71805000D02*
X58445000Y-71805000D01*
X58445000Y-71805000D02*
X58445000Y-71505000D01*
D12*
X57930000Y-73905000D02*
X55270000Y-73905000D01*
X57930000Y-89265000D02*
X55270000Y-89265000D01*
X55270000Y-73905000D02*
X55270000Y-77015000D01*
X57930000Y-74475000D02*
X59450000Y-74475000D01*
X57930000Y-73905000D02*
X57930000Y-74475000D01*
X55270000Y-88695000D02*
X55270000Y-89265000D01*
X55270000Y-78535000D02*
X55270000Y-82095000D01*
X55270000Y-83615000D02*
X55270000Y-87175000D01*
X57930000Y-75995000D02*
X57930000Y-79555000D01*
X57930000Y-81075000D02*
X57930000Y-84635000D01*
X57930000Y-86155000D02*
X57930000Y-89265000D01*
X88675000Y-82280000D02*
X91335000Y-82280000D01*
X88675000Y-74540000D02*
X91335000Y-74540000D01*
X91335000Y-82280000D02*
X91335000Y-79170000D01*
X88675000Y-81710000D02*
X87155000Y-81710000D01*
X88675000Y-82280000D02*
X88675000Y-81710000D01*
X91335000Y-75110000D02*
X91335000Y-74540000D01*
X91335000Y-77650000D02*
X91335000Y-74540000D01*
X88675000Y-80190000D02*
X88675000Y-76630000D01*
X98980096Y-63802286D02*
X96320096Y-63802286D01*
X98980096Y-71542286D02*
X96320096Y-71542286D01*
X96320096Y-63802286D02*
X96320096Y-66912286D01*
X98980096Y-64372286D02*
X100500096Y-64372286D01*
X98980096Y-63802286D02*
X98980096Y-64372286D01*
X96320096Y-70972286D02*
X96320096Y-71542286D01*
X96320096Y-68432286D02*
X96320096Y-71542286D01*
X98980096Y-65892286D02*
X98980096Y-69452286D01*
X91983096Y-69806286D02*
X91983096Y-70806286D01*
X93343096Y-70806286D02*
X93343096Y-69806286D01*
X93343096Y-66402286D02*
X93343096Y-65402286D01*
X91983096Y-65402286D02*
X91983096Y-66402286D01*
X89056096Y-65392286D02*
X88056096Y-65392286D01*
X88056096Y-66752286D02*
X89056096Y-66752286D01*
X89056096Y-67932286D02*
X88056096Y-67932286D01*
X88056096Y-69292286D02*
X89056096Y-69292286D01*
X110900000Y-70850000D02*
X110900000Y-68190000D01*
X113500000Y-70850000D02*
X110900000Y-70850000D01*
X113500000Y-68190000D02*
X110900000Y-68190000D01*
X113500000Y-70850000D02*
X113500000Y-68190000D01*
X114770000Y-70850000D02*
X116100000Y-70850000D01*
X116100000Y-70850000D02*
X116100000Y-69520000D01*
X61490000Y-96885000D02*
X58830000Y-96885000D01*
X61490000Y-94285000D02*
X61490000Y-96885000D01*
X58830000Y-94285000D02*
X58830000Y-96885000D01*
X61490000Y-94285000D02*
X58830000Y-94285000D01*
X61490000Y-93015000D02*
X61490000Y-91685000D01*
X61490000Y-91685000D02*
X60160000Y-91685000D01*
X112290000Y-63745000D02*
X112290000Y-66405000D01*
X109690000Y-63745000D02*
X112290000Y-63745000D01*
X109690000Y-66405000D02*
X112290000Y-66405000D01*
X109690000Y-63745000D02*
X109690000Y-66405000D01*
X108420000Y-63745000D02*
X107090000Y-63745000D01*
X107090000Y-63745000D02*
X107090000Y-65075000D01*
X93120000Y-75930000D02*
X93120000Y-73270000D01*
X95720000Y-75930000D02*
X93120000Y-75930000D01*
X95720000Y-73270000D02*
X93120000Y-73270000D01*
X95720000Y-75930000D02*
X95720000Y-73270000D01*
X96990000Y-75930000D02*
X98320000Y-75930000D01*
X98320000Y-75930000D02*
X98320000Y-74600000D01*
D11*
X85437381Y-91396667D02*
X86151667Y-91396667D01*
X86294524Y-91349047D01*
X86389762Y-91253809D01*
X86437381Y-91110952D01*
X86437381Y-91015714D01*
X85437381Y-91777619D02*
X85437381Y-92396667D01*
X85818333Y-92063333D01*
X85818333Y-92206191D01*
X85865952Y-92301429D01*
X85913571Y-92349048D01*
X86008810Y-92396667D01*
X86246905Y-92396667D01*
X86342143Y-92349048D01*
X86389762Y-92301429D01*
X86437381Y-92206191D01*
X86437381Y-91920476D01*
X86389762Y-91825238D01*
X86342143Y-91777619D01*
X54675095Y-75433381D02*
X54675095Y-74433381D01*
X54437000Y-74433381D01*
X54294142Y-74481000D01*
X54198904Y-74576238D01*
X54151285Y-74671476D01*
X54103666Y-74861952D01*
X54103666Y-75004810D01*
X54151285Y-75195286D01*
X54198904Y-75290524D01*
X54294142Y-75385762D01*
X54437000Y-75433381D01*
X54675095Y-75433381D01*
X53246523Y-74433381D02*
X53437000Y-74433381D01*
X53532238Y-74481000D01*
X53579857Y-74528619D01*
X53675095Y-74671476D01*
X53722714Y-74861952D01*
X53722714Y-75242905D01*
X53675095Y-75338143D01*
X53627476Y-75385762D01*
X53532238Y-75433381D01*
X53341761Y-75433381D01*
X53246523Y-75385762D01*
X53198904Y-75338143D01*
X53151285Y-75242905D01*
X53151285Y-75004810D01*
X53198904Y-74909571D01*
X53246523Y-74861952D01*
X53341761Y-74814333D01*
X53532238Y-74814333D01*
X53627476Y-74861952D01*
X53675095Y-74909571D01*
X53722714Y-75004810D01*
X55286333Y-69607381D02*
X55286333Y-70321667D01*
X55333953Y-70464524D01*
X55429191Y-70559762D01*
X55572048Y-70607381D01*
X55667286Y-70607381D01*
X54333952Y-69607381D02*
X54810143Y-69607381D01*
X54857762Y-70083571D01*
X54810143Y-70035952D01*
X54714905Y-69988333D01*
X54476809Y-69988333D01*
X54381571Y-70035952D01*
X54333952Y-70083571D01*
X54286333Y-70178810D01*
X54286333Y-70416905D01*
X54333952Y-70512143D01*
X54381571Y-70559762D01*
X54476809Y-70607381D01*
X54714905Y-70607381D01*
X54810143Y-70559762D01*
X54857762Y-70512143D01*
X89957333Y-82732381D02*
X89957333Y-83446667D01*
X90004953Y-83589524D01*
X90100191Y-83684762D01*
X90243048Y-83732381D01*
X90338286Y-83732381D01*
X89052571Y-82732381D02*
X89243048Y-82732381D01*
X89338286Y-82780000D01*
X89385905Y-82827619D01*
X89481143Y-82970476D01*
X89528762Y-83160952D01*
X89528762Y-83541905D01*
X89481143Y-83637143D01*
X89433524Y-83684762D01*
X89338286Y-83732381D01*
X89147809Y-83732381D01*
X89052571Y-83684762D01*
X89004952Y-83637143D01*
X88957333Y-83541905D01*
X88957333Y-83303810D01*
X89004952Y-83208571D01*
X89052571Y-83160952D01*
X89147809Y-83113333D01*
X89338286Y-83113333D01*
X89433524Y-83160952D01*
X89481143Y-83208571D01*
X89528762Y-83303810D01*
X97983429Y-62254667D02*
X97983429Y-62968953D01*
X98031049Y-63111810D01*
X98126287Y-63207048D01*
X98269144Y-63254667D01*
X98364382Y-63254667D01*
X97602477Y-62254667D02*
X96935810Y-62254667D01*
X97364382Y-63254667D01*
X91028857Y-72512381D02*
X91362191Y-72036190D01*
X91600286Y-72512381D02*
X91600286Y-71512381D01*
X91219333Y-71512381D01*
X91124095Y-71560000D01*
X91076476Y-71607619D01*
X91028857Y-71702857D01*
X91028857Y-71845714D01*
X91076476Y-71940952D01*
X91124095Y-71988571D01*
X91219333Y-72036190D01*
X91600286Y-72036190D01*
X90695524Y-71512381D02*
X90076476Y-71512381D01*
X90409810Y-71893333D01*
X90266952Y-71893333D01*
X90171714Y-71940952D01*
X90124095Y-71988571D01*
X90076476Y-72083810D01*
X90076476Y-72321905D01*
X90124095Y-72417143D01*
X90171714Y-72464762D01*
X90266952Y-72512381D01*
X90552667Y-72512381D01*
X90647905Y-72464762D01*
X90695524Y-72417143D01*
X89457429Y-71512381D02*
X89362190Y-71512381D01*
X89266952Y-71560000D01*
X89219333Y-71607619D01*
X89171714Y-71702857D01*
X89124095Y-71893333D01*
X89124095Y-72131429D01*
X89171714Y-72321905D01*
X89219333Y-72417143D01*
X89266952Y-72464762D01*
X89362190Y-72512381D01*
X89457429Y-72512381D01*
X89552667Y-72464762D01*
X89600286Y-72417143D01*
X89647905Y-72321905D01*
X89695524Y-72131429D01*
X89695524Y-71893333D01*
X89647905Y-71702857D01*
X89600286Y-71607619D01*
X89552667Y-71560000D01*
X89457429Y-71512381D01*
X92679857Y-63622381D02*
X93013191Y-63146190D01*
X93251286Y-63622381D02*
X93251286Y-62622381D01*
X92870333Y-62622381D01*
X92775095Y-62670000D01*
X92727476Y-62717619D01*
X92679857Y-62812857D01*
X92679857Y-62955714D01*
X92727476Y-63050952D01*
X92775095Y-63098571D01*
X92870333Y-63146190D01*
X93251286Y-63146190D01*
X92346524Y-62622381D02*
X91727476Y-62622381D01*
X92060810Y-63003333D01*
X91917952Y-63003333D01*
X91822714Y-63050952D01*
X91775095Y-63098571D01*
X91727476Y-63193810D01*
X91727476Y-63431905D01*
X91775095Y-63527143D01*
X91822714Y-63574762D01*
X91917952Y-63622381D01*
X92203667Y-63622381D01*
X92298905Y-63574762D01*
X92346524Y-63527143D01*
X90775095Y-63622381D02*
X91346524Y-63622381D01*
X91060810Y-63622381D02*
X91060810Y-62622381D01*
X91156048Y-62765238D01*
X91251286Y-62860476D01*
X91346524Y-62908095D01*
X89250857Y-65019381D02*
X89584191Y-64543190D01*
X89822286Y-65019381D02*
X89822286Y-64019381D01*
X89441333Y-64019381D01*
X89346095Y-64067000D01*
X89298476Y-64114619D01*
X89250857Y-64209857D01*
X89250857Y-64352714D01*
X89298476Y-64447952D01*
X89346095Y-64495571D01*
X89441333Y-64543190D01*
X89822286Y-64543190D01*
X88917524Y-64019381D02*
X88298476Y-64019381D01*
X88631810Y-64400333D01*
X88488952Y-64400333D01*
X88393714Y-64447952D01*
X88346095Y-64495571D01*
X88298476Y-64590810D01*
X88298476Y-64828905D01*
X88346095Y-64924143D01*
X88393714Y-64971762D01*
X88488952Y-65019381D01*
X88774667Y-65019381D01*
X88869905Y-64971762D01*
X88917524Y-64924143D01*
X87917524Y-64114619D02*
X87869905Y-64067000D01*
X87774667Y-64019381D01*
X87536571Y-64019381D01*
X87441333Y-64067000D01*
X87393714Y-64114619D01*
X87346095Y-64209857D01*
X87346095Y-64305095D01*
X87393714Y-64447952D01*
X87965143Y-65019381D01*
X87346095Y-65019381D01*
X89198953Y-70514667D02*
X89532287Y-70038476D01*
X89770382Y-70514667D02*
X89770382Y-69514667D01*
X89389429Y-69514667D01*
X89294191Y-69562286D01*
X89246572Y-69609905D01*
X89198953Y-69705143D01*
X89198953Y-69848000D01*
X89246572Y-69943238D01*
X89294191Y-69990857D01*
X89389429Y-70038476D01*
X89770382Y-70038476D01*
X88865620Y-69514667D02*
X88246572Y-69514667D01*
X88579906Y-69895619D01*
X88437048Y-69895619D01*
X88341810Y-69943238D01*
X88294191Y-69990857D01*
X88246572Y-70086096D01*
X88246572Y-70324191D01*
X88294191Y-70419429D01*
X88341810Y-70467048D01*
X88437048Y-70514667D01*
X88722763Y-70514667D01*
X88818001Y-70467048D01*
X88865620Y-70419429D01*
X87913239Y-69514667D02*
X87294191Y-69514667D01*
X87627525Y-69895619D01*
X87484667Y-69895619D01*
X87389429Y-69943238D01*
X87341810Y-69990857D01*
X87294191Y-70086096D01*
X87294191Y-70324191D01*
X87341810Y-70419429D01*
X87389429Y-70467048D01*
X87484667Y-70514667D01*
X87770382Y-70514667D01*
X87865620Y-70467048D01*
X87913239Y-70419429D01*
X116552381Y-69186667D02*
X117266667Y-69186667D01*
X117409524Y-69139047D01*
X117504762Y-69043809D01*
X117552381Y-68900952D01*
X117552381Y-68805714D01*
X117552381Y-70186667D02*
X117552381Y-69615238D01*
X117552381Y-69900952D02*
X116552381Y-69900952D01*
X116695238Y-69805714D01*
X116790476Y-69710476D01*
X116838095Y-69615238D01*
X60493333Y-90137381D02*
X60493333Y-90851667D01*
X60540953Y-90994524D01*
X60636191Y-91089762D01*
X60779048Y-91137381D01*
X60874286Y-91137381D01*
X60064762Y-90232619D02*
X60017143Y-90185000D01*
X59921905Y-90137381D01*
X59683809Y-90137381D01*
X59588571Y-90185000D01*
X59540952Y-90232619D01*
X59493333Y-90327857D01*
X59493333Y-90423095D01*
X59540952Y-90565952D01*
X60112381Y-91137381D01*
X59493333Y-91137381D01*
X105542381Y-64741667D02*
X106256667Y-64741667D01*
X106399524Y-64694047D01*
X106494762Y-64598809D01*
X106542381Y-64455952D01*
X106542381Y-64360714D01*
X105970952Y-65360714D02*
X105923333Y-65265476D01*
X105875714Y-65217857D01*
X105780476Y-65170238D01*
X105732857Y-65170238D01*
X105637619Y-65217857D01*
X105590000Y-65265476D01*
X105542381Y-65360714D01*
X105542381Y-65551191D01*
X105590000Y-65646429D01*
X105637619Y-65694048D01*
X105732857Y-65741667D01*
X105780476Y-65741667D01*
X105875714Y-65694048D01*
X105923333Y-65646429D01*
X105970952Y-65551191D01*
X105970952Y-65360714D01*
X106018571Y-65265476D01*
X106066190Y-65217857D01*
X106161429Y-65170238D01*
X106351905Y-65170238D01*
X106447143Y-65217857D01*
X106494762Y-65265476D01*
X106542381Y-65360714D01*
X106542381Y-65551191D01*
X106494762Y-65646429D01*
X106447143Y-65694048D01*
X106351905Y-65741667D01*
X106161429Y-65741667D01*
X106066190Y-65694048D01*
X106018571Y-65646429D01*
X105970952Y-65551191D01*
X98772381Y-74266667D02*
X99486667Y-74266667D01*
X99629524Y-74219047D01*
X99724762Y-74123809D01*
X99772381Y-73980952D01*
X99772381Y-73885714D01*
X99772381Y-74790476D02*
X99772381Y-74980952D01*
X99724762Y-75076191D01*
X99677143Y-75123810D01*
X99534286Y-75219048D01*
X99343810Y-75266667D01*
X98962857Y-75266667D01*
X98867619Y-75219048D01*
X98820000Y-75171429D01*
X98772381Y-75076191D01*
X98772381Y-74885714D01*
X98820000Y-74790476D01*
X98867619Y-74742857D01*
X98962857Y-74695238D01*
X99200952Y-74695238D01*
X99296190Y-74742857D01*
X99343810Y-74790476D01*
X99391429Y-74885714D01*
X99391429Y-75076191D01*
X99343810Y-75171429D01*
X99296190Y-75219048D01*
X99200952Y-75266667D01*
M02*
