M48
;DRILL file {KiCad 4.0.7} date 02/27/19 21:19:17
;FORMAT={-:-/ absolute / metric / decimal}
FMAT,2
METRIC,TZ
T1C0.305
T2C1.000
%
G90
G05
M71
T1
X51.524Y-67.742
X52.108Y-72.568
X52.286Y-68.504
X53.302Y-80.95
X53.81Y-84.76
X54.945Y-86.673
X55.842Y-75.108
X57.874Y-63.475
X57.874Y-65.375
X58.001Y-88.824
X58.001Y-90.729
X60.16Y-69.52
X60.863Y-78.64
X60.922Y-74.685
X62.192Y-97.206
X63.716Y-98.73
X64.224Y-82.728
X66.256Y-96.952
X66.434Y-81.255
X66.51Y-94.92
X66.637Y-93.777
X68.923Y-70.917
X72.02Y-96.903
X73.368Y-86.03
X73.368Y-97.206
X75.781Y-97.968
X77.432Y-97.968
X79.72Y-96.954
X79.972Y-94.285
X80.48Y-85.014
X83.601Y-83.925
X84.925Y-63.678
X85.052Y-69.52
X85.052Y-75.87
X85.052Y-77.14
X85.221Y-67.065
X85.306Y-68.504
X87.973Y-77.14
X88.227Y-95.047
X88.959Y-90.602
X90.64Y-82.982
X92.418Y-97.714
X92.672Y-82.982
X94.196Y-71.425
X94.323Y-64.821
X95.339Y-70.282
X95.381Y-65.795
X101.435Y-76.505
X102.31Y-67.361
X102.31Y-69.393
X113.5Y-62.916
X117.945Y-68.377
T2
X60.16Y-93.015
X60.16Y-95.555
X94.45Y-74.6
X96.99Y-74.6
X108.42Y-65.075
X110.96Y-65.075
X112.23Y-69.52
X114.77Y-69.52
T0
M30
